<svg width="715" height="689" viewBox="0 0 715 689" fill="none" xmlns="http://www.w3.org/2000/svg">
<path d="M525.167 188.432C526.607 188.634 528.057 188.736 529.509 188.734C537.888 188.734 545.247 185.392 552.396 182.144C555.466 180.748 558.368 179.431 561.351 178.363C571.818 174.974 583.129 175.262 593.41 179.18C596.921 188.078 603.72 195.287 612.4 199.309C623.379 204.445 635.949 205.009 647.343 200.877C658.737 196.746 668.026 188.255 673.16 177.276C678.803 165.172 679.947 151.452 676.393 138.578C672.837 125.704 664.813 114.517 653.757 107.022C653.385 94.5609 648.181 82.7322 639.247 74.0382C630.312 65.3424 618.346 60.4644 605.878 60.4329C593.412 60.4013 581.422 65.2213 572.443 73.8694C566.705 71.006 560.286 69.7896 553.898 70.3556C547.512 70.9233 541.407 73.2525 536.263 77.0826C530.162 81.6213 525.403 87.726 522.492 94.7505C519.58 101.775 518.625 109.457 519.726 116.98C515.291 117.317 510.998 118.701 507.199 121.016C499.347 125.785 493.712 133.478 491.535 142.403C489.357 151.329 490.818 160.754 495.594 168.601C502.019 179.275 512.854 186.54 525.166 188.431L525.167 188.432ZM498.881 144.193C500.563 137.207 504.973 131.188 511.126 127.476C515.861 124.602 521.546 123.728 526.929 125.047C532.309 126.363 536.946 129.766 539.819 134.504C542.013 138.116 542.684 142.453 541.687 146.559C540.689 150.667 538.103 154.211 534.498 156.415C531.77 158.064 528.5 158.566 525.403 157.812C522.305 157.06 519.632 155.114 517.966 152.398C516.751 150.387 516.382 147.979 516.939 145.697C517.496 143.416 518.934 141.449 520.938 140.224C522.72 139.139 523.285 136.813 522.198 135.031C521.114 133.249 518.788 132.683 517.006 133.769C513.293 136.038 510.632 139.686 509.6 143.912C508.57 148.139 509.254 152.602 511.506 156.325C514.218 160.75 518.57 163.921 523.612 165.147C528.655 166.376 533.977 165.561 538.419 162.878C543.74 159.631 547.555 154.406 549.026 148.35C550.499 142.292 549.507 135.899 546.273 130.573C542.142 123.723 535.299 118.95 527.443 117.442C526.218 111.047 526.819 104.436 529.18 98.3679C531.542 92.3001 535.566 87.0212 540.792 83.1363C546.545 78.849 553.763 77.0172 560.863 78.0405C567.965 79.0653 574.37 82.8605 578.679 88.598C581.99 93.0417 583.404 98.6177 582.611 104.102C581.818 109.586 578.884 114.535 574.451 117.858C571.062 120.397 566.803 121.483 562.612 120.876C558.423 120.272 554.646 118.024 552.114 114.629C550.207 112.079 549.39 108.874 549.843 105.72C550.298 102.569 551.986 99.7247 554.537 97.8176C556.421 96.4183 558.784 95.8224 561.106 96.1564C563.43 96.4922 565.525 97.7332 566.938 99.607C567.539 100.412 568.436 100.943 569.429 101.085C570.424 101.228 571.433 100.968 572.236 100.365C573.04 99.7617 573.569 98.8635 573.709 97.8685C573.848 96.8754 573.586 95.8664 572.982 95.0648C570.364 91.5949 566.481 89.2994 562.178 88.6802C557.877 88.0597 553.503 89.1671 550.014 91.7581C545.855 94.8659 543.103 99.4995 542.36 104.638C541.62 109.776 542.951 114.998 546.061 119.155C549.78 124.171 555.352 127.486 561.533 128.359C562.663 128.523 563.802 128.605 564.945 128.605C570.009 128.607 574.936 126.958 578.981 123.91C585.017 119.382 589.011 112.646 590.091 105.179C591.168 97.7098 589.241 90.1196 584.733 84.0694C583.054 81.8457 581.112 79.8348 578.949 78.079C586.803 71.1796 597.02 67.5796 607.465 68.0296C617.911 68.4813 627.778 72.9481 635.01 80.4995C642.241 88.0492 646.277 98.1004 646.275 108.556V109.052C646.275 109.073 646.281 109.094 646.282 109.115C646.288 109.258 646.303 109.398 646.324 109.539C646.339 109.648 646.344 109.758 646.368 109.864C646.393 109.978 646.437 110.087 646.472 110.2C646.507 110.323 646.548 110.444 646.593 110.562C646.637 110.664 646.699 110.757 646.752 110.855H646.753C646.811 110.971 646.875 111.086 646.945 111.195C647.008 111.286 647.087 111.369 647.159 111.455C647.24 111.558 647.326 111.659 647.418 111.754C647.49 111.822 647.573 111.88 647.65 111.945L647.652 111.947C647.764 112.045 647.884 112.137 648.007 112.221L648.054 112.258H648.056C658.114 118.562 665.523 128.324 668.886 139.71C672.249 151.095 671.333 163.317 666.312 174.073C662.022 183.232 654.271 190.312 644.763 193.761C635.255 197.208 624.768 196.742 615.605 192.462C608.417 189.131 602.857 183.066 600.164 175.615C600.101 175.219 599.978 174.838 599.795 174.483C597.626 167.639 598.023 160.242 600.913 153.672C600.936 153.617 601.001 153.44 601.024 153.384L601.244 152.897C603.845 147.361 608.537 143.084 614.286 141.003C620.038 138.922 626.378 139.205 631.921 141.793C632.856 142.214 633.742 142.736 634.565 143.35C637.978 145.723 640.44 149.23 641.512 153.246C642.582 157.265 642.192 161.531 640.411 165.287C638.91 168.509 636.189 171.002 632.847 172.215C629.508 173.43 625.822 173.265 622.601 171.76C620.212 170.638 618.365 168.615 617.465 166.133C616.563 163.651 616.684 160.914 617.8 158.522C618.607 156.789 620.07 155.447 621.866 154.792C623.661 154.136 625.644 154.22 627.379 155.025C628.286 155.453 629.328 155.502 630.272 155.163C631.218 154.822 631.988 154.118 632.413 153.21C632.84 152.301 632.886 151.259 632.545 150.315C632.202 149.372 631.497 148.602 630.587 148.179C627.036 146.521 622.972 146.344 619.291 147.683C615.608 149.023 612.607 151.77 610.952 155.321C608.99 159.529 608.777 164.344 610.359 168.71C611.943 173.075 615.192 176.634 619.395 178.607C624.431 180.964 630.196 181.221 635.422 179.324C640.648 177.427 644.906 173.53 647.258 168.491C649.796 163.141 650.357 157.066 648.843 151.343C647.33 145.618 643.837 140.615 638.986 137.221C637.774 136.323 636.472 135.556 635.101 134.932C627.744 131.508 619.33 131.137 611.701 133.902C604.072 136.667 597.849 142.343 594.397 149.687L594.276 149.953C594.153 150.222 594.031 150.499 593.931 150.765C591.224 157.003 590.278 163.866 591.199 170.605C580.589 167.499 569.281 167.723 558.801 171.245C555.526 172.418 552.343 173.864 549.267 175.262C541.553 178.767 534.279 182.073 526.214 180.945H526.216C516.172 179.315 507.344 173.372 502.057 164.678C498.307 158.547 497.163 151.171 498.88 144.193L498.881 144.193Z" fill="#FFA3B3"/>
<path d="M490.615 211.748C490.398 211.86 490.171 211.944 489.936 212C489.703 212.058 489.458 212.087 489.202 212.087C488.441 212.087 487.839 211.876 487.394 211.451C486.948 211.024 486.726 210.447 486.726 209.72C486.726 208.991 486.948 208.414 487.394 207.989C487.839 207.562 488.441 207.349 489.202 207.349C489.458 207.349 489.703 207.378 489.936 207.436C490.171 207.492 490.398 207.576 490.615 207.688V208.632C490.395 208.485 490.179 208.377 489.968 208.307C489.755 208.237 489.531 208.202 489.296 208.202C488.876 208.202 488.546 208.337 488.306 208.608C488.066 208.876 487.946 209.247 487.946 209.72C487.946 210.191 488.066 210.562 488.306 210.832C488.546 211.1 488.876 211.234 489.296 211.234C489.531 211.234 489.755 211.201 489.968 211.133C490.179 211.063 490.395 210.953 490.615 210.804V211.748Z" fill="white" fill-opacity="0.1"/>
<path d="M494.088 209.506C493.99 209.463 493.893 209.429 493.798 209.408C493.704 209.386 493.61 209.373 493.514 209.373C493.232 209.373 493.015 209.464 492.864 209.646C492.712 209.826 492.637 210.083 492.637 210.419V212H491.542V208.573H492.637V209.136C492.777 208.912 492.937 208.749 493.119 208.646C493.303 208.541 493.522 208.489 493.777 208.489C493.813 208.489 493.854 208.491 493.896 208.496C493.939 208.498 494.002 208.505 494.084 208.513L494.088 209.506Z" fill="white" fill-opacity="0.1"/>
<path d="M498.053 210.276V210.591H495.49C495.518 210.848 495.61 211.04 495.769 211.168C495.928 211.296 496.151 211.36 496.437 211.36C496.668 211.36 496.903 211.327 497.144 211.259C497.386 211.189 497.634 211.085 497.889 210.947V211.79C497.63 211.888 497.371 211.962 497.112 212.01C496.854 212.061 496.595 212.087 496.336 212.087C495.715 212.087 495.233 211.93 494.888 211.615C494.545 211.301 494.374 210.859 494.374 210.29C494.374 209.73 494.543 209.291 494.881 208.971C495.219 208.65 495.683 208.489 496.273 208.489C496.812 208.489 497.243 208.652 497.567 208.978C497.89 209.303 498.053 209.736 498.053 210.276ZM496.927 209.912C496.927 209.705 496.866 209.538 496.745 209.412C496.624 209.284 496.465 209.22 496.27 209.22C496.057 209.22 495.885 209.279 495.752 209.398C495.619 209.517 495.536 209.688 495.504 209.912H496.927Z" fill="white" fill-opacity="0.1"/>
<path d="M500.418 210.458C500.189 210.458 500.017 210.496 499.901 210.573C499.786 210.65 499.729 210.765 499.729 210.916C499.729 211.056 499.776 211.166 499.869 211.245C499.962 211.322 500.09 211.36 500.254 211.36C500.461 211.36 500.635 211.287 500.775 211.14C500.916 210.991 500.988 210.806 500.988 210.584V210.458L500.418 210.458ZM502.09 210.045V212H500.988V211.493C500.841 211.701 500.675 211.852 500.492 211.948C500.307 212.04 500.083 212.087 499.82 212.087C499.465 212.087 499.177 211.985 498.956 211.78C498.734 211.572 498.624 211.303 498.624 210.972C498.624 210.571 498.761 210.278 499.037 210.091C499.314 209.902 499.748 209.807 500.341 209.807H500.988V209.72C500.988 209.548 500.919 209.422 500.782 209.342C500.644 209.261 500.43 209.22 500.142 209.22C499.906 209.22 499.687 209.243 499.484 209.29C499.283 209.337 499.097 209.407 498.925 209.499V208.664C499.157 208.608 499.392 208.565 499.628 208.534C499.866 208.505 500.103 208.489 500.341 208.489C500.958 208.489 501.404 208.611 501.677 208.856C501.952 209.099 502.09 209.495 502.09 210.045Z" fill="white" fill-opacity="0.1"/>
<path d="M504.308 207.6V208.573H505.438V209.356H504.308V210.811C504.308 210.97 504.34 211.077 504.403 211.133C504.466 211.189 504.59 211.217 504.777 211.217H505.34V212H504.403C503.969 212 503.661 211.911 503.479 211.731C503.299 211.549 503.21 211.243 503.21 210.811V209.356H502.668V208.573H503.21V207.6H504.308Z" fill="white" fill-opacity="0.1"/>
<path d="M509.528 210.276V210.591H506.965C506.993 210.848 507.086 211.04 507.245 211.168C507.403 211.296 507.626 211.36 507.913 211.36C508.144 211.36 508.379 211.327 508.619 211.259C508.861 211.189 509.11 211.085 509.364 210.947V211.79C509.105 211.888 508.847 211.962 508.588 212.01C508.329 212.061 508.07 212.087 507.811 212.087C507.191 212.087 506.708 211.93 506.363 211.615C506.021 211.301 505.849 210.859 505.849 210.29C505.849 209.73 506.018 209.291 506.356 208.971C506.694 208.65 507.158 208.489 507.748 208.489C508.287 208.489 508.718 208.652 509.042 208.978C509.366 209.303 509.528 209.736 509.528 210.276ZM508.402 209.912C508.402 209.705 508.341 209.538 508.221 209.412C508.099 209.284 507.941 209.22 507.745 209.22C507.532 209.22 507.36 209.279 507.227 209.398C507.094 209.517 507.011 209.688 506.979 209.912H508.402Z" fill="white" fill-opacity="0.1"/>
<path d="M512.687 209.073V207.237H513.789V212H512.687V211.503C512.538 211.706 512.373 211.855 512.191 211.948C512.009 212.04 511.797 212.087 511.558 212.087C511.135 212.087 510.789 211.92 510.519 211.584C510.248 211.248 510.113 210.817 510.113 210.29C510.113 209.761 510.248 209.328 510.519 208.992C510.789 208.657 511.135 208.489 511.558 208.489C511.795 208.489 512.005 208.537 512.187 208.632C512.371 208.728 512.538 208.875 512.687 209.073ZM511.967 211.294C512.199 211.294 512.378 211.209 512.502 211.038C512.625 210.866 512.687 210.617 512.687 210.29C512.687 209.964 512.625 209.715 512.502 209.545C512.378 209.373 512.199 209.286 511.967 209.286C511.733 209.286 511.555 209.373 511.432 209.545C511.308 209.715 511.246 209.964 511.246 210.29C511.246 210.617 511.308 210.866 511.432 211.038C511.555 211.209 511.733 211.294 511.967 211.294Z" fill="white" fill-opacity="0.1"/>
<path d="M518.848 211.294C519.084 211.294 519.263 211.209 519.387 211.038C519.51 210.866 519.572 210.617 519.572 210.29C519.572 209.964 519.51 209.715 519.387 209.545C519.263 209.373 519.084 209.286 518.848 209.286C518.612 209.286 518.432 209.373 518.306 209.545C518.182 209.718 518.121 209.966 518.121 210.29C518.121 210.614 518.182 210.863 518.306 211.035C518.432 211.208 518.612 211.294 518.848 211.294ZM518.121 209.073C518.272 208.875 518.439 208.728 518.621 208.632C518.805 208.537 519.016 208.489 519.254 208.489C519.678 208.489 520.025 208.657 520.296 208.992C520.566 209.328 520.702 209.761 520.702 210.29C520.702 210.817 520.566 211.248 520.296 211.584C520.025 211.92 519.678 212.087 519.254 212.087C519.016 212.087 518.805 212.04 518.621 211.948C518.439 211.852 518.272 211.704 518.121 211.503V212H517.026V207.237H518.121V209.073Z" fill="white" fill-opacity="0.1"/>
<path d="M521.061 208.573H522.156L523.079 210.899L523.863 208.573H524.957L523.516 212.326C523.371 212.705 523.202 212.971 523.009 213.123C522.815 213.277 522.562 213.354 522.247 213.354H521.61V212.633H521.953C522.139 212.633 522.275 212.603 522.359 212.542C522.444 212.484 522.511 212.379 522.558 212.228L522.59 212.133L521.061 208.573Z" fill="white" fill-opacity="0.1"/>
<path d="M530.599 211.167H528.759L528.465 212H527.283L528.976 207.432H530.378L532.071 212H530.889L530.599 211.167ZM529.053 210.321H530.301L529.679 208.503L529.053 210.321Z" fill="white" fill-opacity="0.1"/>
<path d="M536.075 209.912V212H534.973V210.402C534.973 210.106 534.966 209.902 534.952 209.79C534.938 209.678 534.914 209.596 534.882 209.541C534.84 209.471 534.782 209.417 534.707 209.377C534.635 209.338 534.552 209.318 534.459 209.318C534.23 209.318 534.051 209.407 533.92 209.583C533.789 209.758 533.725 210.002 533.725 210.314V212H532.63V208.573H533.725V209.073C533.89 208.875 534.065 208.728 534.249 208.632C534.435 208.537 534.641 208.489 534.865 208.489C535.261 208.489 535.561 208.611 535.767 208.856C535.971 209.099 536.075 209.45 536.075 209.912Z" fill="white" fill-opacity="0.1"/>
<path d="M538.287 207.6V208.573H539.416V209.356H538.287V210.811C538.287 210.97 538.318 211.077 538.381 211.133C538.444 211.189 538.568 211.217 538.755 211.217H539.318V212H538.381C537.947 212 537.64 211.911 537.458 211.731C537.278 211.549 537.189 211.243 537.189 210.811V209.356H536.646V208.573H537.189V207.6H538.287Z" fill="white" fill-opacity="0.1"/>
<path d="M543.532 209.912V212H542.43V210.409C542.43 210.108 542.423 209.902 542.409 209.79C542.395 209.678 542.371 209.596 542.339 209.541C542.297 209.472 542.239 209.417 542.164 209.377C542.092 209.338 542.009 209.318 541.916 209.318C541.687 209.318 541.508 209.407 541.377 209.583C541.246 209.758 541.182 210.002 541.182 210.314V212H540.087V207.237H541.182V209.073C541.347 208.875 541.522 208.728 541.706 208.632C541.892 208.537 542.098 208.489 542.322 208.489C542.718 208.489 543.018 208.611 543.224 208.856C543.429 209.099 543.532 209.451 543.532 209.912Z" fill="white" fill-opacity="0.1"/>
<path d="M546.179 209.272C545.936 209.272 545.75 209.359 545.623 209.534C545.494 209.709 545.43 209.961 545.43 210.29C545.43 210.618 545.494 210.87 545.623 211.045C545.75 211.218 545.936 211.304 546.179 211.304C546.417 211.304 546.598 211.218 546.724 211.045C546.852 210.87 546.917 210.618 546.917 210.29C546.917 209.961 546.852 209.709 546.724 209.534C546.598 209.359 546.417 209.272 546.179 209.272ZM546.179 208.489C546.768 208.489 547.229 208.649 547.56 208.968C547.891 209.285 548.057 209.726 548.057 210.29C548.057 210.852 547.891 211.293 547.56 211.612C547.229 211.929 546.768 212.087 546.179 212.087C545.586 212.087 545.124 211.929 544.79 211.612C544.456 211.293 544.29 210.852 544.29 210.29C544.29 209.726 544.456 209.285 544.79 208.968C545.124 208.649 545.586 208.489 546.179 208.489Z" fill="white" fill-opacity="0.1"/>
<path d="M552.299 209.912V212H551.198V210.402C551.198 210.106 551.191 209.902 551.177 209.79C551.163 209.678 551.139 209.596 551.107 209.541C551.065 209.471 551.006 209.417 550.932 209.377C550.859 209.338 550.776 209.318 550.684 209.318C550.454 209.318 550.275 209.407 550.145 209.583C550.014 209.758 549.949 210.002 549.949 210.314V212H548.854V208.573H549.949V209.073C550.114 208.875 550.289 208.728 550.474 208.632C550.66 208.537 550.865 208.489 551.089 208.489C551.485 208.489 551.786 208.611 551.992 208.856C552.196 209.099 552.299 209.45 552.299 209.912Z" fill="white" fill-opacity="0.1"/>
<path d="M552.865 208.573H553.959L554.882 210.899L555.666 208.573H556.76L555.32 212.326C555.174 212.705 555.006 212.971 554.812 213.123C554.618 213.277 554.365 213.354 554.05 213.354H553.414V212.633H553.756C553.943 212.633 554.078 212.603 554.162 212.542C554.248 212.484 554.314 212.379 554.361 212.228L554.393 212.133L552.865 208.573Z" fill="white" fill-opacity="0.1"/>
<path d="M559.632 207.432H560.807V211.108H562.877V212H559.632V207.432Z" fill="white" fill-opacity="0.1"/>
<path d="M566.997 210.276V210.591H564.433C564.461 210.848 564.554 211.04 564.713 211.168C564.871 211.296 565.094 211.36 565.381 211.36C565.612 211.36 565.847 211.327 566.087 211.259C566.329 211.189 566.578 211.085 566.832 210.947V211.79C566.573 211.888 566.315 211.962 566.056 212.01C565.797 212.061 565.538 212.087 565.279 212.087C564.659 212.087 564.176 211.93 563.831 211.615C563.489 211.301 563.317 210.859 563.317 210.29C563.317 209.73 563.486 209.291 563.824 208.971C564.162 208.65 564.626 208.489 565.216 208.489C565.755 208.489 566.186 208.652 566.51 208.978C566.834 209.303 566.997 209.736 566.997 210.276ZM565.87 209.912C565.87 209.705 565.809 209.538 565.689 209.412C565.567 209.284 565.409 209.22 565.213 209.22C565 209.22 564.828 209.279 564.695 209.398C564.562 209.517 564.479 209.688 564.447 209.912H565.87Z" fill="white" fill-opacity="0.1"/>
<path d="M570.156 209.073V207.237H571.257V212H570.156V211.503C570.006 211.706 569.841 211.855 569.659 211.948C569.477 212.04 569.266 212.087 569.026 212.087C568.604 212.087 568.258 211.92 567.987 211.584C567.716 211.248 567.582 210.817 567.582 210.29C567.582 209.761 567.716 209.328 567.987 208.992C568.258 208.657 568.604 208.489 569.026 208.489C569.264 208.489 569.474 208.537 569.656 208.632C569.839 208.728 570.006 208.875 570.156 209.073ZM569.435 211.294C569.668 211.294 569.846 211.209 569.97 211.038C570.094 210.866 570.156 210.617 570.156 210.29C570.156 209.964 570.094 209.715 569.97 209.545C569.846 209.373 569.668 209.286 569.435 209.286C569.202 209.286 569.024 209.373 568.9 209.545C568.776 209.715 568.715 209.964 568.715 210.29C568.715 210.617 568.776 210.866 568.9 211.038C569.024 211.209 569.202 211.294 569.435 211.294Z" fill="white" fill-opacity="0.1"/>
<path d="M573.942 209.272C573.699 209.272 573.514 209.359 573.386 209.534C573.258 209.709 573.194 209.961 573.194 210.29C573.194 210.618 573.258 210.87 573.386 211.045C573.514 211.218 573.699 211.304 573.942 211.304C574.18 211.304 574.362 211.218 574.488 211.045C574.616 210.87 574.68 210.618 574.68 210.29C574.68 209.961 574.616 209.709 574.488 209.534C574.362 209.359 574.18 209.272 573.942 209.272ZM573.942 208.489C574.532 208.489 574.993 208.649 575.324 208.968C575.654 209.285 575.821 209.726 575.821 210.29C575.821 210.852 575.654 211.293 575.324 211.612C574.993 211.929 574.532 212.087 573.942 212.087C573.35 212.087 572.887 211.929 572.554 211.612C572.22 211.293 572.054 210.852 572.054 210.29C572.054 209.726 572.22 209.285 572.554 208.968C572.887 208.649 573.35 208.489 573.942 208.489Z" fill="white" fill-opacity="0.1"/>
<path d="M576.58 210.664V208.573H577.682V208.915C577.682 209.102 577.68 209.335 577.678 209.615C577.676 209.895 577.675 210.082 577.675 210.174C577.675 210.452 577.682 210.652 577.696 210.772C577.712 210.894 577.736 210.981 577.769 211.035C577.816 211.107 577.875 211.163 577.948 211.203C578.019 211.24 578.103 211.259 578.196 211.259C578.424 211.259 578.603 211.171 578.735 210.996C578.865 210.821 578.93 210.578 578.93 210.265V208.573H580.025V212H578.93V211.503C578.764 211.704 578.589 211.852 578.406 211.947C578.221 212.04 578.018 212.087 577.794 212.087C577.4 212.087 577.099 211.967 576.892 211.724C576.683 211.481 576.58 211.128 576.58 210.664Z" fill="white" fill-opacity="0.1"/>
<path d="M581.943 210.248L580.708 208.573H581.866L582.569 209.587L583.279 208.573H584.436L583.202 210.241L584.499 212H583.338L582.569 210.916L581.807 212H580.646L581.943 210.248Z" fill="white" fill-opacity="0.1"/>
<path d="M489.195 213.504V214.224H488.59C488.436 214.224 488.327 214.252 488.264 214.308C488.203 214.364 488.173 214.462 488.173 214.602V214.84H489.111V215.623H488.173V218.267H487.079V215.623H486.533V214.84H487.079V214.602C487.079 214.23 487.182 213.953 487.39 213.773C487.597 213.594 487.92 213.504 488.359 213.504L489.195 213.504Z" fill="white" fill-opacity="0.1"/>
<path d="M492.215 215.773C492.117 215.73 492.02 215.697 491.925 215.676C491.831 215.653 491.737 215.641 491.641 215.641C491.359 215.641 491.142 215.731 490.991 215.913C490.839 216.093 490.764 216.35 490.764 216.686V218.267H489.669V214.84H490.764V215.403C490.903 215.179 491.064 215.016 491.246 214.913C491.43 214.808 491.649 214.756 491.904 214.756C491.94 214.756 491.981 214.758 492.023 214.763C492.066 214.765 492.129 214.772 492.211 214.78L492.215 215.773Z" fill="white" fill-opacity="0.1"/>
<path d="M494.39 215.539C494.147 215.539 493.961 215.627 493.834 215.801C493.705 215.976 493.641 216.228 493.641 216.557C493.641 216.886 493.705 217.137 493.834 217.312C493.961 217.485 494.147 217.571 494.39 217.571C494.628 217.571 494.809 217.485 494.935 217.312C495.063 217.137 495.128 216.886 495.128 216.557C495.128 216.228 495.063 215.976 494.935 215.801C494.809 215.627 494.628 215.539 494.39 215.539ZM494.39 214.756C494.979 214.756 495.44 214.916 495.771 215.235C496.102 215.552 496.268 215.993 496.268 216.557C496.268 217.119 496.102 217.56 495.771 217.879C495.44 218.196 494.979 218.354 494.39 218.354C493.797 218.354 493.334 218.196 493.001 217.879C492.667 217.56 492.501 217.119 492.501 216.557C492.501 215.993 492.667 215.552 493.001 215.235C493.334 214.916 493.797 214.756 494.39 214.756Z" fill="white" fill-opacity="0.1"/>
<path d="M500.24 215.41C500.377 215.198 500.542 215.036 500.733 214.924C500.924 214.812 501.134 214.756 501.363 214.756C501.756 214.756 502.056 214.878 502.262 215.123C502.469 215.366 502.573 215.717 502.573 216.179V218.267H501.471V216.48V216.399C501.473 216.37 501.475 216.328 501.475 216.274C501.475 216.031 501.438 215.856 501.366 215.749C501.296 215.64 501.182 215.585 501.023 215.585C500.815 215.585 500.655 215.671 500.541 215.843C500.426 216.014 500.368 216.261 500.366 216.585V218.267H499.264V216.48C499.264 216.1 499.231 215.856 499.166 215.749C499.101 215.64 498.985 215.585 498.817 215.585C498.607 215.585 498.444 215.671 498.331 215.843C498.216 216.014 498.159 216.26 498.159 216.581V218.267H497.058V214.84H498.159V215.34C498.294 215.147 498.448 215.001 498.621 214.903C498.796 214.805 498.988 214.756 499.198 214.756C499.436 214.756 499.646 214.814 499.827 214.927C500.009 215.042 500.147 215.203 500.24 215.41Z" fill="white" fill-opacity="0.1"/>
<path d="M506.974 213.868V214.84H508.104V215.623H506.974V217.078C506.974 217.237 507.006 217.344 507.069 217.4C507.132 217.456 507.256 217.484 507.443 217.484H508.006V218.267H507.069C506.635 218.267 506.327 218.178 506.145 217.998C505.965 217.816 505.876 217.51 505.876 217.078V215.623H505.334V214.84H505.876V213.868H506.974Z" fill="white" fill-opacity="0.1"/>
<path d="M512.217 216.179V218.267H511.116V216.676C511.116 216.375 511.109 216.169 511.095 216.057C511.081 215.945 511.057 215.863 511.025 215.809C510.983 215.739 510.924 215.684 510.85 215.644C510.777 215.605 510.694 215.585 510.602 215.585C510.372 215.585 510.193 215.674 510.063 215.851C509.932 216.025 509.867 216.269 509.867 216.581V218.267H508.772V213.504H509.867V215.34C510.032 215.142 510.207 214.995 510.392 214.899C510.578 214.804 510.783 214.756 511.007 214.756C511.403 214.756 511.704 214.878 511.909 215.123C512.114 215.366 512.217 215.718 512.217 216.179Z" fill="white" fill-opacity="0.1"/>
<path d="M516.655 216.543V216.858H514.092C514.119 217.115 514.212 217.307 514.371 217.435C514.53 217.563 514.752 217.627 515.039 217.627C515.27 217.627 515.505 217.594 515.746 217.526C515.988 217.456 516.236 217.353 516.491 217.214V218.057C516.232 218.155 515.973 218.229 515.714 218.278C515.455 218.328 515.197 218.355 514.938 218.355C514.317 218.355 513.834 218.197 513.49 217.882C513.147 217.568 512.976 217.126 512.976 216.557C512.976 215.997 513.145 215.558 513.483 215.238C513.82 214.917 514.285 214.756 514.875 214.756C515.413 214.756 515.844 214.919 516.169 215.245C516.492 215.57 516.655 216.003 516.655 216.543ZM515.529 216.179C515.529 215.972 515.468 215.805 515.347 215.679C515.225 215.551 515.067 215.487 514.871 215.487C514.659 215.487 514.487 215.546 514.354 215.665C514.221 215.784 514.138 215.955 514.105 216.179H515.529Z" fill="white" fill-opacity="0.1"/>
<path d="M519.716 213.7H521.031L522.692 216.833V213.7H523.808V218.267H522.493L520.831 215.134V218.267H519.716V213.7Z" fill="white" fill-opacity="0.1"/>
<path d="M526.542 215.539C526.299 215.539 526.113 215.627 525.986 215.801C525.857 215.976 525.793 216.228 525.793 216.557C525.793 216.886 525.857 217.137 525.986 217.312C526.113 217.485 526.299 217.571 526.542 217.571C526.779 217.571 526.961 217.485 527.087 217.312C527.215 217.137 527.28 216.886 527.28 216.557C527.28 216.228 527.215 215.976 527.087 215.801C526.961 215.627 526.779 215.539 526.542 215.539ZM526.542 214.756C527.131 214.756 527.592 214.916 527.923 215.235C528.254 215.552 528.42 215.993 528.42 216.557C528.42 217.119 528.254 217.56 527.923 217.879C527.592 218.196 527.131 218.354 526.542 218.354C525.949 218.354 525.486 218.196 525.153 217.879C524.819 217.56 524.653 217.119 524.653 216.557C524.653 215.993 524.819 215.552 525.153 215.235C525.486 214.916 525.949 214.756 526.542 214.756Z" fill="white" fill-opacity="0.1"/>
<path d="M529.18 216.931V214.84H530.281V215.183C530.281 215.37 530.28 215.602 530.278 215.882C530.275 216.162 530.274 216.349 530.274 216.442C530.274 216.72 530.281 216.919 530.295 217.04C530.311 217.161 530.336 217.249 530.369 217.302C530.415 217.374 530.475 217.43 530.547 217.47C530.619 217.507 530.702 217.526 530.795 217.526C531.024 217.526 531.203 217.438 531.334 217.263C531.464 217.089 531.53 216.846 531.53 216.533V214.84H532.624V218.267H531.53V217.77C531.364 217.972 531.189 218.119 531.005 218.215C530.821 218.307 530.617 218.354 530.393 218.354C529.999 218.354 529.698 218.234 529.491 217.991C529.283 217.749 529.18 217.395 529.18 216.931Z" fill="white" fill-opacity="0.1"/>
<path d="M537.124 216.179V218.267H536.023V216.669C536.023 216.373 536.016 216.169 536.002 216.057C535.988 215.945 535.964 215.863 535.932 215.808C535.89 215.738 535.831 215.684 535.757 215.644C535.684 215.605 535.601 215.585 535.509 215.585C535.28 215.585 535.1 215.674 534.97 215.85C534.839 216.025 534.774 216.269 534.774 216.581V218.267H533.68V214.84H534.774V215.34C534.94 215.142 535.114 214.995 535.299 214.899C535.485 214.804 535.691 214.756 535.914 214.756C536.31 214.756 536.611 214.878 536.817 215.123C537.021 215.366 537.124 215.718 537.124 216.179Z" fill="white" fill-opacity="0.1"/>
<path d="M540.371 213.7H542.326C542.907 213.7 543.352 213.829 543.662 214.088C543.974 214.345 544.131 214.712 544.131 215.19C544.131 215.668 543.974 216.036 543.662 216.295C543.352 216.553 542.907 216.683 542.326 216.683H541.546V218.267H540.371V213.7ZM541.546 214.553V215.83H542.2C542.428 215.83 542.604 215.774 542.728 215.662C542.854 215.55 542.917 215.392 542.917 215.19C542.917 214.985 542.854 214.828 542.728 214.717C542.604 214.608 542.428 214.553 542.2 214.553L541.546 214.553Z" fill="white" fill-opacity="0.1"/>
<path d="M547.462 215.773C547.364 215.73 547.267 215.697 547.172 215.676C547.078 215.653 546.984 215.641 546.888 215.641C546.606 215.641 546.389 215.731 546.238 215.913C546.086 216.093 546.011 216.35 546.011 216.686V218.267H544.916V214.84H546.011V215.403C546.151 215.179 546.311 215.016 546.493 214.913C546.677 214.808 546.896 214.756 547.151 214.756C547.187 214.756 547.228 214.758 547.27 214.763C547.313 214.765 547.376 214.772 547.458 214.78L547.462 215.773Z" fill="white" fill-opacity="0.1"/>
<path d="M549.636 215.539C549.393 215.539 549.207 215.627 549.08 215.801C548.951 215.976 548.887 216.228 548.887 216.557C548.887 216.886 548.951 217.137 549.08 217.312C549.207 217.485 549.393 217.571 549.636 217.571C549.873 217.571 550.055 217.485 550.181 217.312C550.309 217.137 550.374 216.886 550.374 216.557C550.374 216.228 550.309 215.976 550.181 215.801C550.055 215.627 549.873 215.539 549.636 215.539ZM549.636 214.756C550.225 214.756 550.686 214.916 551.017 215.235C551.347 215.552 551.514 215.993 551.514 216.557C551.514 217.119 551.348 217.56 551.017 217.879C550.686 218.196 550.225 218.354 549.636 218.354C549.043 218.354 548.58 218.196 548.247 217.879C547.913 217.56 547.747 217.119 547.747 216.557C547.747 215.993 547.913 215.552 548.247 215.235C548.58 214.916 549.043 214.756 549.636 214.756Z" fill="white" fill-opacity="0.1"/>
<path d="M552.312 214.84H553.407V218.204C553.407 218.663 553.295 219.014 553.074 219.257C552.855 219.499 552.536 219.621 552.116 219.621H551.574V218.9H551.766C551.974 218.9 552.116 218.853 552.193 218.76C552.272 218.667 552.312 218.481 552.312 218.204L552.312 214.84ZM552.312 213.504H553.407V214.399H552.312V213.504Z" fill="white" fill-opacity="0.1"/>
<path d="M557.88 216.543V216.858H555.317C555.345 217.115 555.437 217.307 555.597 217.435C555.755 217.563 555.978 217.627 556.265 217.627C556.495 217.627 556.731 217.594 556.971 217.526C557.213 217.456 557.462 217.353 557.716 217.214V218.057C557.457 218.155 557.198 218.229 556.94 218.278C556.681 218.328 556.422 218.355 556.163 218.355C555.542 218.355 555.06 218.197 554.715 217.882C554.373 217.568 554.201 217.126 554.201 216.557C554.201 215.997 554.37 215.558 554.708 215.238C555.046 214.917 555.51 214.756 556.1 214.756C556.639 214.756 557.07 214.919 557.394 215.245C557.718 215.57 557.88 216.003 557.88 216.543ZM556.754 216.179C556.754 215.972 556.693 215.805 556.572 215.679C556.451 215.551 556.293 215.487 556.097 215.487C555.884 215.487 555.712 215.546 555.579 215.665C555.446 215.784 555.363 215.955 555.331 216.179H556.754Z" fill="white" fill-opacity="0.1"/>
<path d="M561.478 214.948V215.84C561.331 215.738 561.181 215.662 561.03 215.613C560.88 215.564 560.726 215.539 560.565 215.539C560.259 215.539 560.02 215.629 559.848 215.808C559.677 215.986 559.593 216.235 559.593 216.557C559.593 216.877 559.677 217.126 559.848 217.305C560.02 217.483 560.259 217.571 560.565 217.571C560.734 217.571 560.897 217.547 561.051 217.498C561.205 217.447 561.346 217.371 561.478 217.27V218.166C561.307 218.229 561.133 218.275 560.956 218.306C560.782 218.338 560.604 218.355 560.425 218.355C559.807 218.355 559.323 218.196 558.973 217.879C558.625 217.562 558.452 217.122 558.452 216.557C558.452 215.99 558.626 215.549 558.973 215.231C559.323 214.915 559.807 214.756 560.425 214.756C560.604 214.756 560.782 214.772 560.956 214.805C561.131 214.835 561.304 214.883 561.478 214.948Z" fill="white" fill-opacity="0.1"/>
<path d="M563.621 213.868V214.84H564.75V215.623H563.621V217.078C563.621 217.237 563.652 217.344 563.715 217.4C563.778 217.456 563.902 217.484 564.089 217.484H564.652V218.267H563.715C563.281 218.267 562.974 218.178 562.792 217.998C562.612 217.816 562.523 217.51 562.523 217.078V215.623H561.98V214.84H562.523V213.868H563.621Z" fill="white" fill-opacity="0.1"/>
<path d="M72.0262 414.495C72.3321 409.27 75.3283 404.54 80.4492 400.979C78.4922 395.185 78.8652 389.705 81.6183 385.41C85.2348 379.721 92.1366 376.969 101.025 377.652C107.139 378.125 113.819 380.287 120.272 383.701C116.404 364.919 121.701 348.95 133.396 345.874C138.446 344.563 143.872 345.954 148.85 349.716C153.758 346.075 159.084 344.726 164.041 346.021C175.402 348.97 180.77 364.102 177.581 382.171C187.743 376.398 198.416 374.002 206.629 375.812C211.49 376.876 215.295 379.369 217.634 383.026C220.45 387.429 220.81 393.014 218.774 398.896C223.76 402.44 226.677 407.103 226.979 412.21C227.691 423.932 214.969 433.79 196.744 436.328C197.682 437.187 198.642 438.029 199.509 438.93C224.929 439.081 245.144 438.993 259.51 438.67C269.605 438.511 279.033 441.138 287.49 445.017L254.351 408.616C252.637 406.739 252.26 404.003 253.395 401.732L261.383 385.72L237.489 375.33C234.371 373.977 232.942 370.353 234.3 367.24C235.657 364.131 239.265 362.694 242.392 364.056L266.881 374.706L278.363 351.689L273.556 339.673C271.608 344.592 268.402 348.22 264.123 349.87C262.321 350.587 260.423 350.943 258.458 350.943C256.027 350.943 253.5 350.394 250.973 349.296C243.64 346.125 236.734 338.613 231.877 328.76C228.642 335.69 224.38 341.71 219.523 345.87C214.699 349.997 209.671 352.12 204.923 352.12C202.996 352.12 201.114 351.773 199.308 351.065C194.443 349.171 190.864 344.856 189.041 338.874C188.941 338.878 188.844 338.878 188.748 338.878C182.76 338.878 177.773 336.829 174.584 332.937C170.301 327.742 169.815 320.344 173.209 312.098C175.481 306.598 179.416 301.076 184.423 296.123C165.423 293.962 152.001 283.911 152.701 271.887C153.007 266.667 156.003 261.937 161.124 258.371C159.167 252.581 159.54 247.101 162.293 242.803C165.91 237.118 172.74 234.348 181.708 235.044C187.822 235.517 194.507 237.679 200.952 241.098C197.076 222.316 202.368 206.342 214.069 203.27C219.127 201.955 224.549 203.354 229.523 207.112C234.43 203.472 239.765 202.139 244.718 203.417C256.075 206.366 261.443 221.503 258.249 239.568C268.411 233.795 279.08 231.411 287.298 233.208C292.159 234.272 295.964 236.765 298.302 240.423C301.114 244.83 301.475 250.41 299.442 256.292C304.429 259.837 307.346 264.5 307.647 269.606C308.356 281.312 295.675 291.162 277.497 293.716C286.092 301.593 291.636 310.969 292.452 319.335C292.939 324.279 291.736 328.665 288.983 332.012C287.876 333.353 286.527 334.417 285.065 335.309L290.81 349.676C291.459 351.301 291.388 353.132 290.6 354.703L276.759 382.441C276.872 383.467 276.818 384.515 276.378 385.529C275.833 386.781 274.903 387.732 273.805 388.369L266.283 403.447L319.708 462.134L327.926 431.567L297.574 397.955C295.957 396.17 295.537 393.606 296.493 391.399L309.962 360.225C311.307 357.104 314.94 355.684 318.045 357.02C320.149 357.929 321.394 359.894 321.628 362.023C322.496 357.611 325.219 353.61 329.67 350.51C327.713 344.716 328.077 339.236 330.835 334.938C331.392 334.066 332.159 333.396 332.863 332.663C322.357 318.905 310.682 303.316 310.682 303.316C309.702 302.004 309.282 300.354 309.521 298.728C309.76 297.107 310.644 295.649 311.964 294.677L331.744 280.144L306.156 233.147C304.53 230.164 305.633 226.431 308.612 224.805C311.608 223.184 315.338 224.286 316.955 227.269L345.112 278.984C346.582 281.686 345.832 285.059 343.352 286.877L324.251 300.912C328.865 307.053 336.999 317.837 344.24 327.293C346.121 327.071 348.116 327.012 350.241 327.18C354.658 327.519 359.376 328.797 364.09 330.72L368.352 325.006C367.376 309.966 372.664 298.017 382.604 295.407C382.768 295.365 382.935 295.382 383.099 295.344L384.364 286.936C379.092 286.567 374.78 284.673 371.926 281.154C364.543 272.185 368.951 256.96 381.891 244.262C374.089 243.37 366.839 241.149 361.24 237.731C353.626 233.081 349.649 226.821 350.043 220.105C350.349 214.881 353.345 210.151 358.462 206.586C356.505 200.792 356.878 195.317 359.631 191.018C363.251 185.329 370.128 182.559 379.046 183.259C385.16 183.732 391.844 185.894 398.293 189.313C394.416 170.531 399.709 154.557 411.405 151.486C416.455 150.166 421.882 151.565 426.86 155.327C431.767 151.687 437.093 150.342 442.055 151.636C453.411 154.582 458.784 169.718 455.59 187.792C465.748 182.019 476.413 179.622 484.634 181.428C489.495 182.492 493.305 184.985 495.643 188.642C498.455 193.045 498.815 198.63 496.783 204.512C501.766 208.056 504.686 212.719 504.988 217.826C505.696 229.544 492.978 239.406 474.757 241.944C480.553 247.252 485.125 253.311 487.648 259.364C491.076 267.601 490.615 275.003 486.332 280.232C483.021 284.241 477.85 286.285 471.577 286.189C469.754 292.017 466.234 296.231 461.469 298.096C459.671 298.804 457.777 299.16 455.824 299.16C453.377 299.16 450.838 298.603 448.298 297.501C440.977 294.321 434.084 286.818 429.252 277.007C425.33 285.444 420.087 292.076 414.396 296.052C424.915 299.739 429.846 314.298 426.775 331.704C436.929 325.931 447.589 323.535 455.82 325.345C460.681 326.409 464.49 328.902 466.828 332.559C469.644 336.962 470.001 342.547 467.968 348.433C472.951 351.977 475.872 356.636 476.173 361.743C476.886 373.465 464.168 383.327 445.947 385.861C451.742 391.169 456.314 397.228 458.833 403.281C462.261 411.517 461.8 418.92 457.521 424.14C454.152 428.229 448.989 430.324 442.762 430.127C440.939 435.938 437.419 440.144 432.658 442.017C430.861 442.72 428.967 443.072 427.014 443.072C424.567 443.072 422.027 442.519 419.483 441.413C412.15 438.225 405.244 430.701 400.413 420.86C397.178 427.798 392.912 433.831 388.047 437.995C383.228 442.122 378.199 444.246 373.447 444.246C371.52 444.246 369.638 443.898 367.836 443.19C363.344 441.443 360.012 437.559 358.085 432.272L352.264 441.43L370.572 462.746C371.318 463.613 371.729 464.69 371.905 465.809C392.732 455.595 415.91 444.447 419.195 443.763C420.062 443.583 422.371 443.118 463.908 447.111V413.767C463.908 410.369 466.662 407.617 470.06 407.617C473.459 407.617 476.212 410.365 476.212 413.767V448.313C484.342 449.118 493.62 450.052 504.276 451.149L513.047 440.739C511.06 439.775 509.267 438.539 507.909 436.876C503.626 431.681 503.136 424.283 506.535 416.037C508.802 410.536 512.732 405.015 517.744 400.062C498.74 397.9 485.317 387.85 486.022 375.834C486.324 370.61 489.324 365.88 494.445 362.311C492.488 356.517 492.861 351.041 495.618 346.738C499.243 341.053 506.149 338.297 515.034 338.988C521.143 339.461 527.828 341.623 534.28 345.042C530.408 326.256 535.701 310.286 547.397 307.214C552.447 305.895 557.878 307.29 562.852 311.056C567.763 307.407 573.081 306.062 578.042 307.361C589.399 310.306 594.771 325.438 591.577 343.516C601.735 337.743 612.392 335.351 620.622 337.152C625.483 338.217 629.292 340.709 631.631 344.367C634.447 348.774 634.803 354.359 632.771 360.241C637.757 363.785 640.674 368.448 640.972 373.555C641.684 385.277 628.966 395.135 610.741 397.673C616.536 402.981 621.108 409.04 623.631 415.097C627.059 423.33 626.598 430.732 622.315 435.965C619.005 439.974 613.846 441.83 607.564 441.922C605.742 447.754 602.217 451.964 597.457 453.825C595.659 454.541 593.765 454.889 591.808 454.889C589.365 454.889 586.83 454.336 584.286 453.238C576.953 450.05 570.043 442.53 565.211 432.685C561.976 439.623 557.71 445.652 552.845 449.816C548.026 453.943 542.993 456.067 538.237 456.067C536.313 456.067 534.432 455.719 532.626 455.015C528.938 453.578 525.996 450.738 523.989 446.841L511.581 461.567C510.27 463.121 508.279 463.905 506.247 463.724C476.633 460.666 428.441 455.94 421.572 455.894C417.046 457.599 393.487 468.907 372.589 479.188L381.272 682.578C381.343 684.253 380.727 685.887 379.571 687.094C378.41 688.309 376.805 688.992 375.129 688.992L315.598 689C313.922 689 312.317 688.317 311.16 687.102C309.999 685.896 309.383 684.262 309.455 682.586L317.907 484.613C317.245 484.189 316.633 483.67 316.155 482.995C315.929 482.665 290.479 450.205 259.768 450.972C247.02 451.256 229.743 451.361 208.375 451.277C208.79 452.103 209.289 452.928 209.632 453.753C213.06 461.994 212.599 469.397 208.317 474.613C204.96 478.697 199.893 480.75 193.553 480.599C191.734 486.41 188.214 490.616 183.458 492.489C181.627 493.21 179.72 493.566 177.771 493.566C173.028 493.566 168.011 491.458 163.201 487.357C158.553 483.406 154.443 477.771 151.245 471.269C148.005 478.236 143.731 484.295 138.849 488.471C134.025 492.598 128.997 494.722 124.249 494.722C122.322 494.722 120.44 494.374 118.634 493.666C113.769 491.768 110.194 487.457 108.363 481.484C102.169 481.592 97.149 479.502 93.9092 475.539C89.6265 470.344 89.1404 462.945 92.5349 454.7C94.8062 449.199 98.7411 443.678 103.749 438.722C84.7443 436.564 71.3217 426.518 72.0266 414.49L72.0262 414.495ZM225.702 279.145C225.702 282.052 228.07 284.419 230.974 284.419C233.882 284.419 236.245 282.052 236.245 279.145C236.245 276.237 233.878 273.87 230.974 273.87C228.07 273.87 225.702 276.233 225.702 279.145ZM184.086 325.141C185.318 326.641 188.595 327.026 192.655 326.134C194.361 325.749 196.175 326.13 197.592 327.169C199.017 328.208 199.93 329.804 200.089 331.555C200.496 335.803 201.904 338.895 203.777 339.624C205.541 340.286 208.491 339.125 211.521 336.541C215.678 332.984 219.534 327.165 222.106 320.574C226.406 309.568 225.932 298.625 222.844 294.629C221.78 294.068 220.791 293.41 219.869 292.652C215.217 291.42 206.254 293.678 196.448 301.772C190.988 306.263 186.663 311.739 184.581 316.796C183.064 320.474 182.87 323.666 184.086 325.141ZM180.758 247.321C176.756 246.999 173.689 247.816 172.662 249.437C171.635 251.042 172.306 254.36 174.38 257.891C175.277 259.412 175.474 261.247 174.921 262.919C174.368 264.599 173.123 265.956 171.501 266.652C167.596 268.327 165.098 270.615 164.977 272.617C164.742 276.648 174.112 283.313 188.762 284.171C201.561 284.913 211.178 280.531 213.625 276.94C213.801 275.554 214.107 274.209 214.589 272.944C214.006 268.142 209.028 260.518 198.741 253.966C192.769 250.162 186.21 247.74 180.758 247.321ZM241.626 215.335C241.403 215.276 241.169 215.247 240.922 215.247C239.065 215.247 236.526 216.835 234.087 219.575C232.918 220.882 231.246 221.632 229.494 221.632H229.477C227.717 221.628 226.041 220.869 224.884 219.55C222.068 216.353 219.106 214.669 217.178 215.184C213.26 216.211 209.815 227.179 213.536 241.368C216.168 251.427 222.073 259.291 226.917 262.089C228.229 261.775 229.578 261.565 230.982 261.565C231.82 261.565 232.625 261.7 233.434 261.813C237.62 259.136 242.594 252.236 245.355 241.506C249.031 227.312 245.544 216.353 241.626 215.335ZM295.374 270.355C295.261 268.412 292.822 266.166 289.013 264.49C287.404 263.782 286.172 262.416 285.631 260.741C285.09 259.065 285.3 257.238 286.197 255.722C288.359 252.081 289.025 248.759 287.94 247.058C287.261 245.994 285.782 245.483 284.667 245.235C283.796 245.043 282.752 244.934 281.562 244.934C276.822 244.934 269.77 246.656 261.933 251.683C252.924 257.473 247.488 265.424 246.349 270.791C247.367 272.659 248.05 274.712 248.331 276.907C251.491 280.02 259.608 282.727 271.614 281.993C286.268 281.105 295.618 274.407 295.374 270.355ZM267.088 300.93C263.987 298.434 260.656 296.36 257.37 294.906C250.854 291.906 245.427 291.475 242.498 292.308C241.66 293.042 240.759 293.691 239.791 294.261C237.118 298.136 236.443 307.311 241.191 319.473C245.474 330.337 251.768 336.256 255.858 338.024C256.91 338.477 258.41 338.912 259.638 338.435C261.465 337.731 262.843 334.731 263.237 330.617C263.401 328.862 264.314 327.261 265.743 326.227C266.799 325.456 268.069 325.049 269.36 325.049C269.804 325.049 270.257 325.095 270.692 325.196C272.825 325.674 274.619 325.803 276.379 325.573C278.323 325.376 279.094 324.702 279.488 324.22C280.289 323.248 280.322 321.694 280.213 320.558C279.782 316.109 276.068 308.3 267.088 300.93ZM559.034 383.098C559.034 386.006 561.402 388.369 564.31 388.369C567.219 388.369 569.586 386.002 569.586 383.098C569.586 380.191 567.219 377.824 564.31 377.824C561.402 377.824 559.034 380.186 559.034 383.098ZM514.09 351.275C510.109 350.961 507.021 351.778 505.994 353.386C504.967 354.991 505.638 358.309 507.716 361.845C508.609 363.366 508.802 365.201 508.253 366.872C507.7 368.552 506.455 369.91 504.833 370.605C500.928 372.281 498.43 374.564 498.317 376.575C498.078 380.605 507.448 387.271 522.098 388.129C534.917 388.913 544.497 384.501 546.953 380.906C547.129 379.511 547.435 378.167 547.921 376.893C547.334 372.096 542.356 364.476 532.072 357.923C526.101 354.114 519.546 351.694 514.09 351.275ZM574.958 319.288C574.736 319.23 574.501 319.205 574.254 319.205C572.401 319.205 569.866 320.788 567.423 323.528C566.254 324.84 564.586 325.589 562.83 325.589H562.814C561.054 325.585 559.377 324.827 558.216 323.507C555.392 320.311 552.408 318.656 550.506 319.142C546.592 320.168 543.143 331.137 546.86 345.326C549.5 355.389 555.409 363.257 560.248 366.051C561.556 365.741 562.905 365.531 564.309 365.531C565.151 365.531 565.956 365.666 566.765 365.779C570.951 363.106 575.921 356.202 578.682 345.472C582.362 331.266 578.876 320.302 574.958 319.288ZM628.706 374.309C628.589 372.365 626.154 370.12 622.345 368.444C620.731 367.736 619.499 366.37 618.963 364.694C618.427 363.018 618.628 361.192 619.529 359.675C621.691 356.03 622.357 352.708 621.272 351.011C620.589 349.947 619.114 349.428 617.995 349.185C617.119 348.992 616.08 348.883 614.89 348.883C610.15 348.883 603.098 350.605 595.257 355.637C586.252 361.422 580.816 369.37 579.673 374.737C580.695 376.605 581.374 378.662 581.659 380.862C584.815 383.974 592.915 386.698 604.942 385.944C619.596 385.055 628.95 378.361 628.706 374.309ZM574.552 423.422C578.822 434.273 585.112 440.193 589.202 441.973C590.254 442.43 591.771 442.891 592.965 442.401C594.775 441.697 596.15 438.697 596.552 434.57C596.724 432.823 597.638 431.227 599.062 430.192C600.118 429.426 601.388 429.024 602.67 429.024C603.115 429.024 603.563 429.07 604.003 429.166C608.173 430.096 611.559 429.707 612.824 428.173C614.019 426.715 613.813 423.519 612.284 419.845C610.18 414.796 605.839 409.329 600.37 404.854C591.44 397.544 581.073 394.812 575.89 396.211C575.047 396.957 574.138 397.615 573.162 398.189C570.379 402.165 569.951 411.759 574.552 423.422ZM533.426 435.505C533.833 439.757 535.245 442.849 537.11 443.574C538.87 444.278 541.832 443.075 544.854 440.486C549.011 436.929 552.87 431.114 555.439 424.524C559.739 413.518 559.257 402.575 556.177 398.579C555.112 398.018 554.123 397.36 553.201 396.602C548.541 395.378 539.59 397.628 529.785 405.722C524.329 410.213 520.004 415.689 517.918 420.746C516.401 424.428 516.204 427.621 517.423 429.1C518.647 430.599 521.932 430.985 525.98 430.092C527.698 429.707 529.496 430.093 530.917 431.127C532.35 432.162 533.258 433.758 533.426 435.505ZM399.522 376.559C402.43 376.559 404.798 374.192 404.798 371.285C404.798 368.377 402.43 366.01 399.522 366.01C396.613 366.01 394.246 368.377 394.246 371.285C394.246 374.192 396.613 376.559 399.522 376.559ZM347.722 394.15C349.302 392.093 351.108 390.112 353.057 388.197C349.822 387.824 346.658 387.288 343.695 386.45L347.722 394.15ZM349.307 339.461C345.338 339.134 342.233 339.956 341.202 341.577C340.175 343.177 340.854 346.495 342.924 350.031C343.821 351.552 344.018 353.387 343.465 355.059C342.912 356.739 341.667 358.096 340.045 358.791C336.14 360.467 333.642 362.751 333.521 364.761C333.412 366.643 335.457 369.098 338.855 371.176C343.528 374.029 350.254 375.901 357.306 376.312C362.716 376.639 367.531 376.014 371.521 374.938C371.567 374.929 371.6 374.896 371.65 374.887C371.663 374.883 371.676 374.892 371.688 374.887C377.039 373.417 380.761 371.134 382.164 369.081C382.34 367.69 382.646 366.349 383.128 365.08C382.546 360.279 377.567 352.654 367.283 346.106C361.312 342.306 354.758 339.88 349.307 339.461ZM423.056 227.363C423.056 230.271 425.424 232.638 428.328 232.638C431.236 232.638 433.604 230.271 433.604 227.363C433.604 224.456 431.236 222.089 428.328 222.089C425.424 222.089 423.056 224.451 423.056 227.363ZM378.112 195.54C374.122 195.217 371.042 196.034 370.011 197.656C368.985 199.26 369.659 202.578 371.734 206.114C372.631 207.635 372.823 209.47 372.274 211.141C371.721 212.821 370.477 214.179 368.855 214.874C364.949 216.55 362.452 218.837 362.33 220.844C362.221 222.725 364.266 225.18 367.665 227.258C372.337 230.111 379.063 231.984 386.116 232.395C389.69 232.608 392.996 232.403 395.993 231.942C396.223 231.871 396.454 231.85 396.692 231.808C404.059 230.543 409.26 227.677 410.973 225.168C411.149 223.777 411.455 222.436 411.937 221.163C411.355 216.366 406.376 208.745 396.089 202.185C390.122 198.385 383.568 195.959 378.112 195.54ZM438.975 163.553C438.753 163.495 438.514 163.47 438.271 163.47C436.414 163.47 433.883 165.053 431.44 167.793C430.271 169.109 428.788 170.03 426.835 169.854C425.075 169.85 423.399 169.092 422.238 167.772C419.413 164.576 416.413 162.904 414.527 163.407C410.613 164.433 407.164 175.402 410.886 189.591C413.526 199.65 419.43 207.518 424.271 210.312C425.582 209.997 426.927 209.792 428.331 209.792C429.174 209.792 429.978 209.926 430.787 210.039C434.973 207.366 439.948 200.462 442.705 189.733C446.384 175.531 442.897 164.571 438.975 163.553ZM492.727 218.583C492.609 216.634 490.174 214.385 486.365 212.713C484.756 212.005 483.524 210.643 482.984 208.968C482.447 207.292 482.648 205.465 483.549 203.949C485.712 200.3 486.378 196.977 485.293 195.281C484.609 194.217 483.134 193.697 482.015 193.454C481.14 193.261 480.1 193.152 478.915 193.152C474.171 193.152 467.123 194.874 459.277 199.906C450.276 205.692 444.841 213.635 443.693 219.002C444.715 220.87 445.394 222.927 445.679 225.127C448.831 228.244 456.915 230.959 468.962 230.209C483.616 229.325 492.97 222.63 492.727 218.583ZM438.573 267.687C442.839 278.533 449.133 284.462 453.222 286.238C454.278 286.695 455.787 287.131 456.986 286.67C458.796 285.958 460.17 282.954 460.577 278.835C460.749 277.084 461.662 275.492 463.087 274.457C464.143 273.691 465.413 273.289 466.695 273.289C467.139 273.289 467.583 273.335 468.023 273.435C472.197 274.357 475.583 273.967 476.845 272.438C478.043 270.98 477.838 267.788 476.308 264.11C474.205 259.061 469.859 253.594 464.391 249.119C455.461 241.809 445.105 239.073 439.914 240.476C439.072 241.222 438.163 241.88 437.186 242.454C434.395 246.425 433.967 256.024 438.573 267.687ZM419.485 268.822C424.145 256.869 422.908 246.425 420.172 242.836C419.091 242.262 418.085 241.591 417.155 240.816C413.882 240.02 408.082 240.779 400.586 245.186C398.356 246.493 396.089 248.098 393.83 249.97C382.503 259.321 378.87 270.238 381.464 273.394C382.65 274.86 385.986 275.225 389.988 274.341C391.807 273.934 393.713 274.378 395.176 275.543C396.228 276.385 396.856 277.579 397.183 278.861C397.191 278.882 397.196 278.903 397.2 278.92C397.267 279.188 397.414 279.427 397.443 279.703C397.531 280.08 397.581 280.461 397.598 280.843C398.092 284.571 399.392 287.169 401.126 287.831C404.885 289.276 414.151 282.472 419.485 268.822ZM410.169 307.466C409.947 307.407 409.712 307.382 409.465 307.382C407.609 307.382 405.073 308.97 402.63 311.71C401.461 313.017 399.793 313.767 398.037 313.767H398.021C396.261 313.763 394.589 313.004 393.424 311.685C390.608 308.492 387.628 306.808 385.721 307.319C381.807 308.346 378.359 319.314 382.076 333.503C384.716 343.562 390.62 351.43 395.461 354.224C396.772 353.91 398.118 353.705 399.521 353.705C400.359 353.705 401.164 353.839 401.973 353.952C406.159 351.279 411.133 344.375 413.895 333.645C417.574 319.447 414.087 308.484 410.169 307.466ZM463.917 362.498C463.8 360.55 461.361 358.3 457.552 356.629C455.943 355.921 454.711 354.555 454.174 352.879C453.638 351.203 453.839 349.377 454.74 347.86C456.898 344.219 457.569 340.893 456.483 339.196C455.8 338.132 454.325 337.613 453.202 337.37C452.326 337.177 451.287 337.068 450.101 337.068C445.358 337.068 438.309 338.79 430.468 343.817C421.467 349.603 416.032 357.551 414.884 362.918C415.907 364.786 416.585 366.843 416.87 369.042C420.022 372.155 428.117 374.862 440.153 374.129C454.811 373.24 464.161 366.541 463.917 362.498ZM424.409 430.158C425.469 430.611 426.982 431.063 428.168 430.59C429.982 429.873 431.357 426.874 431.764 422.755C431.935 421.008 432.849 419.412 434.269 418.377C435.33 417.611 436.595 417.208 437.882 417.208C438.322 417.208 438.77 417.255 439.21 417.351C443.388 418.281 446.774 417.879 448.035 416.354C449.23 414.896 449.024 411.708 447.495 408.029C445.391 402.981 441.046 397.514 435.582 393.039C426.647 385.728 416.284 383.005 411.105 384.396C410.263 385.142 409.353 385.8 408.377 386.378C405.59 390.354 405.159 399.947 409.764 411.606C414.034 422.453 420.319 428.373 424.409 430.158ZM366.136 419.308C367.56 420.347 368.47 421.939 368.637 423.69C369.044 427.942 370.456 431.03 372.325 431.754C374.093 432.446 377.048 431.26 380.069 428.675C384.226 425.118 388.086 419.303 390.655 412.713C394.95 401.707 394.472 390.764 391.392 386.764C390.328 386.202 389.339 385.545 388.417 384.786C383.757 383.567 374.805 385.817 365 393.907C359.544 398.398 355.219 403.874 353.133 408.93C351.616 412.613 351.423 415.805 352.639 417.276C353.862 418.776 357.148 419.144 361.2 418.273C362.922 417.887 364.715 418.277 366.136 419.308ZM368.73 676.708L368.168 663.546H347.345C343.947 663.546 341.194 660.797 341.194 657.395C341.194 653.998 343.943 651.245 347.345 651.245L367.645 651.249L365.176 593.418H351.247C347.849 593.418 345.096 590.67 345.096 587.268C345.096 583.87 347.853 581.118 351.247 581.118H364.653L362.092 521.141H347.355C343.956 521.141 341.203 518.393 341.203 514.991C341.203 511.593 343.952 508.841 347.355 508.841H361.569L359.876 469.167L339.988 446.007C338.223 443.954 338.01 440.988 339.464 438.705L346.32 427.916C345.138 427.112 344.052 426.195 343.139 425.084C339.38 420.526 338.55 414.267 340.696 407.233L328.561 384.031C327.681 382.351 327.672 380.403 328.418 378.715C323.788 374.768 321.307 370.051 321.282 365.036C321.273 365.061 321.278 365.086 321.265 365.111L309.368 392.658L339.318 425.826C340.717 427.376 341.233 429.525 340.692 431.544L330.962 467.717L327.697 544.179H341.702C345.101 544.179 347.854 546.927 347.854 550.329C347.854 553.727 345.105 556.479 341.702 556.479H327.174L324.764 612.953H341.702C345.101 612.953 347.854 615.701 347.854 619.103C347.854 622.501 345.105 625.253 341.702 625.253H324.241L322.045 676.709L368.73 676.708ZM145.034 421.742C145.034 424.65 147.401 427.013 150.314 427.013C153.222 427.013 155.585 424.646 155.585 421.742C155.585 418.831 153.218 416.463 150.314 416.463C147.401 416.463 145.034 418.83 145.034 421.742ZM160.962 357.932C160.74 357.874 160.505 357.844 160.258 357.844C158.402 357.844 155.862 359.432 153.415 362.172C152.25 363.479 150.578 364.229 148.826 364.229H148.81C147.05 364.225 145.373 363.467 144.213 362.147C141.397 358.951 138.446 357.266 136.506 357.782C132.596 358.808 129.143 369.781 132.856 383.966C135.496 394.025 141.401 401.888 146.245 404.687C147.556 404.372 148.906 404.163 150.309 404.163C151.152 404.163 151.956 404.297 152.765 404.41C156.951 401.733 161.926 394.829 164.683 384.103C168.366 369.91 164.88 358.95 160.962 357.932ZM214.711 412.957C214.597 411.013 212.159 408.768 208.349 407.092C206.74 406.384 205.508 405.018 204.968 403.342C204.427 401.667 204.637 399.84 205.533 398.323C207.696 394.683 208.362 391.36 207.277 389.66C206.598 388.595 205.118 388.084 204.004 387.837C203.132 387.644 202.089 387.536 200.899 387.536C196.159 387.536 189.107 389.257 181.27 394.285C172.26 400.075 166.825 408.026 165.686 413.388C166.704 415.257 167.383 417.305 167.668 419.505C170.828 422.618 178.945 425.316 190.955 424.595C205.605 423.699 214.954 417.004 214.711 412.956L214.711 412.957ZM160.557 462.066C163.147 468.652 167.018 474.459 171.184 478.002C174.218 480.583 177.21 481.739 178.962 481.052C180.776 480.336 182.151 477.336 182.561 473.218C182.737 471.463 183.647 469.875 185.071 468.84C186.127 468.074 187.397 467.671 188.679 467.671C189.124 467.671 189.568 467.717 190.008 467.814C194.182 468.744 197.563 468.35 198.833 466.817C200.027 465.359 199.822 462.162 198.293 458.488C196.189 453.44 191.848 447.981 186.375 443.498C177.441 436.183 167.044 433.451 161.89 434.859C161.052 435.601 160.151 436.254 159.179 436.824C156.384 440.8 155.948 450.397 160.557 462.065L160.557 462.066ZM103.423 467.739C104.655 469.238 107.932 469.611 111.988 468.736C113.719 468.359 115.5 468.74 116.925 469.771C118.349 470.81 119.255 472.402 119.422 474.153C119.829 478.397 121.241 481.493 123.118 482.217C124.882 482.913 127.833 481.723 130.862 479.138C135.019 475.581 138.875 469.766 141.448 463.176C145.865 451.864 145.022 441.928 142.617 437.842L136.276 434.935C131.277 435.048 123.818 437.746 115.793 444.37C110.333 448.861 106.008 454.337 103.926 459.393C102.4 463.076 102.207 466.268 103.423 467.739ZM108.099 426.774C120.885 427.482 130.489 423.134 132.953 419.543C133.129 418.148 133.435 416.799 133.921 415.526C133.331 410.729 128.352 403.108 118.073 396.564C112.098 392.76 105.543 390.338 100.091 389.919C96.0977 389.605 93.0219 390.418 91.9952 392.035C90.9685 393.64 91.639 396.958 93.7133 400.489C94.6101 402.01 94.8069 403.845 94.2538 405.521C93.7007 407.197 92.4562 408.554 90.8303 409.25C86.933 410.925 84.4355 413.213 84.314 415.22C84.0836 419.25 93.4531 425.916 108.099 426.774Z" fill="#FF5E78"/>
<path d="M28.377 243.594C29.5571 243.759 30.7458 243.842 31.936 243.841C38.8047 243.841 44.8365 241.11 50.6963 238.455C53.2136 237.315 55.5923 236.239 58.0376 235.366C66.6167 232.596 75.889 232.832 84.3165 236.034C87.194 243.304 92.7673 249.195 99.8825 252.482C108.882 256.679 119.186 257.14 128.526 253.763C137.866 250.387 145.479 243.45 149.688 234.478C154.314 224.587 155.252 213.376 152.338 202.856C149.423 192.336 142.846 183.195 133.784 177.07C133.478 166.888 129.213 157.222 121.889 150.118C114.565 143.012 104.757 139.026 94.5367 139C84.3179 138.974 74.4893 142.913 67.1293 149.98C62.4262 147.64 57.1639 146.646 51.9278 147.108C46.6932 147.572 41.6888 149.476 37.4726 152.605C32.4711 156.314 28.5707 161.303 26.1844 167.043C23.7969 172.782 23.0145 179.059 23.9165 185.207C20.2811 185.483 16.7623 186.613 13.6487 188.505C7.21225 192.402 2.59253 198.689 0.80868 205.981C-0.976574 213.275 0.220776 220.977 4.1357 227.389C9.40204 236.111 18.2837 242.047 28.3759 243.593L28.377 243.594ZM6.82988 207.444C8.20882 201.736 11.824 196.818 16.8672 193.784C20.7488 191.435 25.4087 190.722 29.8208 191.799C34.2313 192.875 38.0325 195.655 40.387 199.527C42.1853 202.479 42.7357 206.022 41.9187 209.378C41.1002 212.734 38.9807 215.63 36.0252 217.431C33.789 218.779 31.109 219.189 28.57 218.573C26.0312 217.958 23.8397 216.368 22.4737 214.149C21.4781 212.506 21.1755 210.538 21.6323 208.674C22.089 206.809 23.2677 205.202 24.9103 204.201C26.3714 203.314 26.8339 201.414 25.9434 199.958C25.0544 198.501 23.1481 198.039 21.687 198.926C18.6439 200.781 16.4624 203.761 15.6166 207.214C14.7722 210.669 15.3327 214.315 17.1785 217.358C19.4018 220.973 22.9694 223.565 27.1018 224.567C31.2357 225.571 35.5987 224.905 39.2398 222.713C43.6013 220.06 46.7283 215.789 47.9341 210.841C49.1415 205.891 48.3289 200.667 45.6776 196.315C42.2915 190.717 36.682 186.817 30.2427 185.585C29.2384 180.359 29.7312 174.957 31.6663 169.998C33.6029 165.04 36.9009 160.727 41.185 157.552C45.9009 154.049 51.8172 152.552 57.6373 153.388C63.4584 154.225 68.7092 157.327 72.2408 162.015C74.9555 165.646 76.1139 170.203 75.4641 174.684C74.8142 179.166 72.4094 183.209 68.7754 185.925C65.9974 187.999 62.5061 188.887 59.0708 188.391C55.6371 187.897 52.5407 186.06 50.4658 183.286C48.9024 181.202 48.2324 178.584 48.6042 176.007C48.9774 173.431 50.3606 171.107 52.4515 169.549C53.9961 168.405 55.9327 167.918 57.8362 168.191C59.7411 168.466 61.4586 169.48 62.6171 171.011C63.1099 171.669 63.8448 172.103 64.6589 172.219C65.4744 172.335 66.3015 172.123 66.96 171.63C67.6185 171.137 68.0522 170.403 68.1675 169.59C68.2813 168.779 68.0666 167.954 67.5709 167.299C65.4255 164.464 62.2426 162.588 58.7151 162.082C55.1893 161.575 51.6044 162.48 48.7442 164.597C45.3351 167.137 43.0788 170.923 42.4705 175.122C41.8639 179.32 42.9546 183.588 45.5036 186.985C48.5525 191.083 53.12 193.792 58.1864 194.506C59.1129 194.639 60.0466 194.707 60.9832 194.707C65.1345 194.708 69.1732 193.361 72.4886 190.87C77.4366 187.17 80.7103 181.666 81.5952 175.564C82.4785 169.461 80.8993 163.258 77.2035 158.315C75.8274 156.498 74.2352 154.854 72.4628 153.42C78.9007 147.782 87.2751 144.84 95.8369 145.208C104.4 145.577 112.488 149.227 118.416 155.397C124.343 161.567 127.652 169.78 127.65 178.324V178.729C127.65 178.746 127.655 178.763 127.656 178.781C127.66 178.897 127.673 179.012 127.691 179.127C127.702 179.216 127.707 179.306 127.727 179.392C127.747 179.486 127.783 179.575 127.812 179.667C127.841 179.767 127.874 179.866 127.911 179.963C127.947 180.046 127.998 180.122 128.041 180.203H128.042C128.09 180.297 128.142 180.391 128.199 180.48C128.251 180.554 128.316 180.622 128.375 180.692C128.441 180.777 128.512 180.859 128.587 180.937C128.646 180.993 128.714 181.04 128.777 181.093L128.779 181.095C128.871 181.175 128.969 181.25 129.07 181.319L129.109 181.349H129.11C137.355 186.5 143.428 194.477 146.185 203.781C148.941 213.084 148.19 223.072 144.075 231.861C140.558 239.344 134.205 245.13 126.411 247.948C118.617 250.765 110.021 250.384 102.509 246.887C96.6175 244.165 92.0602 239.209 89.8528 233.12C89.801 232.797 89.7001 232.485 89.5503 232.195C87.7722 226.603 88.0978 220.559 90.4667 215.19C90.4854 215.145 90.5387 215 90.5574 214.954L90.7375 214.556C92.8701 210.033 96.7158 206.538 101.429 204.838C106.143 203.137 111.341 203.368 115.884 205.483C116.651 205.827 117.377 206.254 118.051 206.755C120.849 208.694 122.867 211.56 123.746 214.842C124.623 218.126 124.303 221.612 122.844 224.681C121.613 227.314 119.383 229.351 116.643 230.342C113.906 231.335 110.884 231.2 108.244 229.97C106.286 229.054 104.772 227.401 104.034 225.372C103.295 223.344 103.394 221.108 104.309 219.153C104.971 217.737 106.169 216.641 107.642 216.105C109.113 215.569 110.739 215.638 112.161 216.296C112.904 216.645 113.759 216.685 114.532 216.408C115.308 216.129 115.939 215.555 116.287 214.812C116.638 214.07 116.675 213.218 116.396 212.446C116.115 211.676 115.537 211.047 114.79 210.701C111.88 209.347 108.548 209.202 105.531 210.296C102.512 211.391 100.053 213.636 98.6955 216.537C97.0874 219.976 96.9131 223.91 98.2099 227.478C99.5081 231.045 102.171 233.953 105.616 235.565C109.744 237.491 114.47 237.701 118.754 236.151C123.038 234.601 126.528 231.417 128.456 227.299C130.536 222.928 130.996 217.964 129.755 213.287C128.515 208.609 125.652 204.521 121.675 201.747C120.682 201.013 119.614 200.387 118.491 199.877C112.46 197.079 105.563 196.776 99.3094 199.035C93.0559 201.295 87.9552 205.933 85.1252 211.934L85.0258 212.151C84.9249 212.37 84.8255 212.597 84.7434 212.814C82.5244 217.912 81.7492 223.52 82.5042 229.027C73.8071 226.489 64.5377 226.671 55.9471 229.55C53.2628 230.508 50.6531 231.69 48.1315 232.832C41.8087 235.696 35.8463 238.398 29.2355 237.476H29.2369C21.0038 236.144 13.7673 231.288 9.43306 224.184C6.35965 219.173 5.42161 213.146 6.82937 207.444L6.82988 207.444Z" fill="#FFA3B3"/>
</svg>
