<svg width="548" height="505" viewBox="0 0 548 505" fill="none" xmlns="http://www.w3.org/2000/svg">
<path d="M0.0252075 247.332C0.319824 242.428 3.20544 237.989 8.13739 234.646C6.25262 229.207 6.61176 224.063 9.26337 220.032C12.7463 214.692 19.3934 212.108 27.9537 212.749C33.842 213.193 40.2755 215.223 46.4901 218.428C42.765 200.798 47.8663 185.808 59.1301 182.921C63.9933 181.69 69.2198 182.995 74.0142 186.527C78.7402 183.109 83.8699 181.843 88.6441 183.058C99.5856 185.827 104.756 200.031 101.684 216.992C111.471 211.573 121.751 209.323 129.661 211.022C134.342 212.021 138.007 214.361 140.259 217.794C142.971 221.927 143.318 227.169 141.357 232.69C146.159 236.017 148.969 240.394 149.259 245.188C149.945 256.191 137.693 265.444 120.14 267.827C121.044 268.633 121.968 269.423 122.803 270.269C147.285 270.41 166.754 270.328 180.59 270.025C190.312 269.876 199.392 272.341 207.537 275.983L175.621 241.814C173.97 240.052 173.607 237.484 174.701 235.353L182.393 220.322L159.381 210.57C156.378 209.3 155.002 205.898 156.31 202.976C157.617 200.058 161.092 198.709 164.103 199.987L187.689 209.984L198.747 188.379L194.118 177.1C192.241 181.717 189.153 185.123 185.033 186.672C183.297 187.345 181.469 187.679 179.576 187.679C177.235 187.679 174.802 187.164 172.368 186.133C165.305 183.156 158.655 176.105 153.976 166.857C150.861 173.361 146.756 179.012 142.078 182.917C137.433 186.79 132.59 188.784 128.018 188.784C126.161 188.784 124.349 188.458 122.609 187.793C117.924 186.016 114.477 181.965 112.721 176.35C112.625 176.354 112.532 176.354 112.439 176.354C106.672 176.354 101.869 174.431 98.7978 170.777C94.6731 165.901 94.205 158.956 97.4741 151.217C99.6616 146.053 103.451 140.871 108.274 136.222C89.9752 134.193 77.048 124.758 77.7227 113.472C78.0173 108.572 80.9029 104.132 85.8348 100.785C83.9501 95.3506 84.3092 90.2067 86.9608 86.1718C90.4438 80.8354 97.0223 78.236 105.659 78.8888C111.548 79.3332 117.985 81.3623 124.193 84.5712C120.46 66.9416 125.557 51.9475 136.826 49.0643C141.697 47.8294 146.919 49.1429 151.71 52.6703C156.436 49.253 161.573 48.0025 166.344 49.2019C177.281 51.9704 182.451 66.1782 179.375 83.1353C189.162 77.7164 199.438 75.4787 207.352 77.1658C212.033 78.1646 215.698 80.5045 217.95 83.9376C220.658 88.0746 221.005 93.3126 219.048 98.834C223.851 102.161 226.66 106.538 226.95 111.331C227.632 122.319 215.42 131.564 197.913 133.962C206.19 141.356 211.53 150.156 212.316 158.01C212.784 162.65 211.626 166.768 208.975 169.909C207.909 171.168 206.609 172.167 205.201 173.004L210.734 186.489C211.36 188.015 211.291 189.733 210.532 191.208L197.202 217.245C197.311 218.208 197.259 219.191 196.835 220.143C196.31 221.319 195.414 222.212 194.357 222.809L187.113 236.963L238.566 292.049L246.481 263.358L217.249 231.807C215.691 230.132 215.287 227.725 216.208 225.653L229.179 196.392C230.475 193.462 233.974 192.129 236.965 193.383C238.99 194.237 240.189 196.081 240.415 198.079C241.251 193.938 243.874 190.182 248.16 187.273C246.275 181.834 246.626 176.69 249.282 172.655C249.819 171.837 250.557 171.208 251.235 170.52C241.117 157.606 229.873 142.973 229.873 142.973C228.929 141.742 228.525 140.193 228.755 138.667C228.985 137.145 229.837 135.777 231.108 134.864L250.158 121.222L225.514 77.1078C223.948 74.3079 225.01 70.804 227.879 69.2783C230.765 67.7564 234.357 68.7906 235.915 71.5906L263.032 120.134C264.449 122.67 263.726 125.836 261.337 127.542L242.941 140.716C247.385 146.481 255.218 156.603 262.192 165.48C264.004 165.271 265.926 165.216 267.972 165.373C272.226 165.692 276.77 166.891 281.31 168.696L285.415 163.332C284.474 149.215 289.568 137.999 299.141 135.549C299.298 135.51 299.46 135.525 299.617 135.49L300.836 127.598C295.759 127.251 291.606 125.474 288.857 122.171C281.746 113.751 285.992 99.4602 298.454 87.5417C290.94 86.704 283.958 84.6199 278.565 81.411C271.232 77.0459 267.402 71.1706 267.781 64.8665C268.076 59.9627 270.961 55.523 275.889 52.1769C274.004 46.7383 274.364 41.5983 277.015 37.5634C280.502 32.223 287.125 29.6237 295.714 30.2804C301.602 30.7247 308.04 32.7539 314.25 35.9628C310.517 18.3331 315.614 3.33908 326.879 0.455835C331.742 -0.782932 336.969 0.530553 341.763 4.0619C346.489 0.644595 351.619 -0.617731 356.397 0.597378C367.334 3.36193 372.509 17.5696 369.433 34.5348C379.216 29.1159 389.487 26.8665 397.405 28.5614C402.087 29.5602 405.756 31.9001 408.008 35.3332C410.716 39.4663 411.063 44.7082 409.106 50.2296C413.904 53.5565 416.717 57.9333 417.008 62.727C417.69 73.7264 405.441 82.9831 387.893 85.366C393.474 90.3485 397.877 96.0352 400.307 101.717C403.609 109.448 403.165 116.397 399.04 121.305C395.852 125.068 390.872 126.987 384.83 126.897C383.074 132.367 379.684 136.323 375.095 138.073C373.364 138.738 371.539 139.072 369.659 139.072C367.302 139.072 364.856 138.549 362.41 137.515C355.36 134.53 348.721 127.487 344.067 118.278C340.29 126.198 335.241 132.423 329.76 136.155C339.89 139.616 344.639 153.281 341.681 169.62C351.46 164.201 361.727 161.952 369.654 163.651C374.336 164.65 378.004 166.989 380.257 170.423C382.969 174.556 383.312 179.798 381.354 185.323C386.153 188.65 388.966 193.023 389.257 197.816C389.943 208.82 377.694 218.077 360.145 220.455C365.727 225.438 370.13 231.125 372.556 236.807C375.857 244.538 375.413 251.486 371.293 256.386C368.048 260.224 363.076 262.19 357.078 262.006C355.323 267.46 351.932 271.408 347.348 273.166C345.616 273.827 343.792 274.157 341.911 274.157C339.554 274.157 337.109 273.638 334.659 272.6C327.596 269.607 320.945 262.544 316.292 253.307C313.176 259.819 309.068 265.482 304.382 269.391C299.741 273.265 294.898 275.259 290.322 275.259C288.465 275.259 286.653 274.932 284.918 274.268C280.591 272.628 277.383 268.982 275.526 264.019L269.92 272.616L287.553 292.624C288.271 293.438 288.667 294.449 288.836 295.499C308.894 285.912 331.217 275.447 334.381 274.806C335.217 274.637 337.44 274.2 377.444 277.948V246.649C377.444 243.46 380.096 240.876 383.369 240.876C386.642 240.876 389.294 243.456 389.294 246.649V279.076C397.123 279.831 406.059 280.708 416.322 281.739L424.769 271.967C422.856 271.062 421.129 269.902 419.821 268.341C415.696 263.464 415.224 256.52 418.497 248.78C420.681 243.617 424.466 238.434 429.293 233.785C410.99 231.756 398.063 222.322 398.742 211.043C399.032 206.14 401.922 201.7 406.854 198.35C404.969 192.911 405.328 187.771 407.984 183.732C411.475 178.396 418.126 175.808 426.683 176.457C432.567 176.901 439.004 178.93 445.219 182.139C441.49 164.506 446.587 149.516 457.852 146.632C462.715 145.394 467.945 146.703 472.736 150.239C477.466 146.813 482.588 145.551 487.366 146.77C498.303 149.535 503.477 163.738 500.402 180.708C510.185 175.289 520.447 173.043 528.374 174.734C533.056 175.733 536.724 178.073 538.977 181.506C541.689 185.643 542.032 190.885 540.074 196.406C544.877 199.733 547.686 204.11 547.973 208.904C548.659 219.907 536.41 229.16 518.857 231.543C524.439 236.525 528.842 242.212 531.272 247.898C534.573 255.625 534.13 262.574 530.005 267.486C526.817 271.249 521.848 272.991 515.798 273.078C514.043 278.552 510.649 282.504 506.064 284.25C504.332 284.923 502.508 285.249 500.624 285.249C498.271 285.249 495.829 284.73 493.379 283.7C486.316 280.707 479.662 273.648 475.008 264.407C471.892 270.919 467.784 276.578 463.099 280.487C458.457 284.361 453.61 286.354 449.03 286.354C447.177 286.354 445.365 286.028 443.626 285.367C440.074 284.019 437.241 281.352 435.308 277.695L423.358 291.517C422.094 292.976 420.177 293.712 418.22 293.543C389.699 290.672 343.286 286.236 336.671 286.193C332.312 287.793 309.622 298.407 289.495 308.058L297.858 498.972C297.926 500.545 297.333 502.078 296.219 503.211C295.101 504.351 293.555 504.992 291.941 504.992L234.607 505C232.993 505 231.447 504.359 230.333 503.219C229.216 502.086 228.622 500.552 228.691 498.979L236.831 313.149C236.194 312.752 235.604 312.265 235.144 311.631C234.926 311.321 210.416 280.852 180.838 281.572C168.561 281.839 151.921 281.938 131.342 281.859C131.742 282.634 132.222 283.408 132.553 284.183C135.854 291.918 135.41 298.867 131.286 303.763C128.053 307.597 123.173 309.524 117.067 309.382C115.315 314.837 111.925 318.785 107.344 320.543C105.581 321.219 103.744 321.553 101.868 321.553C97.2989 321.553 92.4679 319.575 87.8348 315.725C83.359 312.017 79.3998 306.728 76.32 300.625C73.2003 307.164 69.0836 312.851 64.3814 316.771C59.7361 320.645 54.8931 322.639 50.3208 322.639C48.4643 322.639 46.6522 322.312 44.9127 321.648C40.227 319.866 36.7845 315.82 35.0208 310.212C29.0558 310.314 24.2209 308.352 21.1006 304.632C16.976 299.756 16.5079 292.811 19.777 285.071C21.9644 279.908 25.7542 274.725 30.5768 270.073C12.2739 268.048 -0.653259 258.618 0.0255737 247.328L0.0252075 247.332ZM148.029 120.284C148.029 123.014 150.309 125.236 153.106 125.236C155.907 125.236 158.184 123.014 158.184 120.284C158.184 117.555 155.903 115.333 153.106 115.333C150.309 115.333 148.029 117.551 148.029 120.284ZM107.949 163.46C109.135 164.867 112.291 165.229 116.202 164.392C117.845 164.03 119.592 164.388 120.957 165.363C122.329 166.338 123.209 167.836 123.362 169.48C123.753 173.468 125.109 176.37 126.913 177.054C128.613 177.675 131.454 176.586 134.372 174.16C138.375 170.821 142.089 165.359 144.566 159.173C148.707 148.842 148.251 138.57 145.277 134.819C144.252 134.292 143.299 133.675 142.411 132.963C137.932 131.807 129.299 133.927 119.855 141.524C114.596 145.74 110.431 150.88 108.426 155.626C106.965 159.079 106.778 162.075 107.949 163.46ZM104.744 90.4131C100.89 90.1103 97.9358 90.8772 96.9469 92.3991C95.9581 93.9053 96.6039 97.0197 98.6017 100.335C99.4654 101.762 99.655 103.485 99.1223 105.054C98.5896 106.631 97.3909 107.905 95.829 108.558C92.0676 110.131 89.6622 112.278 89.5452 114.158C89.3192 117.941 98.3434 124.197 112.453 125.003C124.779 125.699 134.041 121.586 136.398 118.215C136.568 116.914 136.862 115.651 137.326 114.464C136.765 109.957 131.971 102.8 122.063 96.65C116.312 93.0792 109.995 90.8064 104.744 90.4131ZM163.365 60.3888C163.151 60.3337 162.925 60.3062 162.687 60.3062C160.899 60.3062 158.454 61.7967 156.105 64.3685C154.979 65.5955 153.368 66.2994 151.681 66.2994H151.665C149.97 66.2955 148.356 65.5837 147.242 64.345C144.53 61.3444 141.677 59.7636 139.82 60.2473C136.046 61.2108 132.729 71.5064 136.313 84.8253C138.847 94.2672 144.534 101.649 149.2 104.275C150.463 103.98 151.763 103.784 153.115 103.784C153.922 103.784 154.697 103.909 155.476 104.016C159.507 101.503 164.298 95.0259 166.957 84.9544C170.497 71.6315 167.139 61.3442 163.365 60.3888ZM215.13 112.034C215.021 110.21 212.672 108.102 209.003 106.529C207.454 105.864 206.267 104.582 205.747 103.009C205.226 101.436 205.428 99.7218 206.291 98.2982C208.374 94.8809 209.016 91.7624 207.97 90.1658C207.317 89.1669 205.892 88.6871 204.818 88.4552C203.979 88.2743 202.974 88.172 201.828 88.172C197.263 88.172 190.471 89.7883 182.924 94.5073C174.246 99.942 169.012 107.405 167.914 112.443C168.895 114.197 169.553 116.124 169.823 118.184C172.866 121.106 180.684 123.647 192.247 122.958C206.36 122.125 215.365 115.838 215.13 112.034ZM187.888 140.734C184.901 138.39 181.693 136.444 178.529 135.079C172.253 132.263 167.026 131.858 164.206 132.641C163.398 133.329 162.531 133.939 161.598 134.473C159.024 138.111 158.374 146.723 162.947 158.139C167.071 168.336 173.133 173.892 177.072 175.552C178.085 175.977 179.53 176.386 180.713 175.938C182.472 175.277 183.8 172.462 184.179 168.6C184.337 166.952 185.217 165.45 186.593 164.479C187.61 163.755 188.833 163.373 190.076 163.373C190.504 163.373 190.94 163.417 191.359 163.511C193.414 163.959 195.141 164.081 196.836 163.865C198.709 163.68 199.451 163.047 199.831 162.595C200.601 161.682 200.634 160.223 200.529 159.158C200.113 154.982 196.536 147.651 187.888 140.734ZM469.059 217.862C469.059 220.591 471.34 222.809 474.141 222.809C476.942 222.809 479.222 220.587 479.222 217.862C479.222 215.133 476.942 212.911 474.141 212.911C471.34 212.911 469.059 215.128 469.059 217.862ZM425.774 187.99C421.94 187.695 418.966 188.462 417.977 189.972C416.988 191.478 417.634 194.593 419.636 197.912C420.495 199.34 420.681 201.062 420.152 202.631C419.619 204.208 418.421 205.482 416.859 206.135C413.097 207.708 410.692 209.851 410.583 211.739C410.353 215.522 419.377 221.778 433.487 222.584C445.832 223.319 455.059 219.179 457.424 215.804C457.593 214.495 457.888 213.233 458.356 212.037C457.791 207.534 452.996 200.381 443.093 194.23C437.342 190.656 431.029 188.384 425.774 187.99ZM484.395 157.966C484.181 157.911 483.955 157.887 483.717 157.887C481.933 157.887 479.492 159.374 477.139 161.946C476.013 163.176 474.406 163.88 472.715 163.88H472.699C471.004 163.876 469.39 163.165 468.272 161.926C465.552 158.925 462.678 157.372 460.846 157.828C457.076 158.792 453.755 169.087 457.334 182.406C459.877 191.852 465.568 199.238 470.229 201.86C471.488 201.569 472.787 201.372 474.139 201.372C474.951 201.372 475.726 201.498 476.505 201.605C480.536 199.096 485.323 192.615 487.982 182.543C491.526 169.208 488.169 158.917 484.395 157.966ZM536.16 209.612C536.047 207.787 533.702 205.679 530.033 204.106C528.48 203.441 527.293 202.159 526.776 200.586C526.26 199.013 526.454 197.299 527.321 195.875C529.404 192.454 530.045 189.336 529 187.743C528.342 186.744 526.922 186.256 525.844 186.028C525.001 185.848 524 185.745 522.854 185.745C518.289 185.745 511.497 187.362 503.945 192.084C495.272 197.515 490.037 204.975 488.936 210.013C489.921 211.767 490.575 213.698 490.849 215.762C493.888 218.684 501.689 221.24 513.272 220.533C527.386 219.699 536.394 213.415 536.16 209.612ZM484.005 255.712C488.117 265.897 494.175 271.454 498.114 273.125C499.127 273.554 500.588 273.987 501.738 273.526C503.481 272.866 504.805 270.05 505.193 266.177C505.358 264.537 506.238 263.039 507.61 262.067C508.627 261.348 509.85 260.97 511.085 260.97C511.513 260.97 511.945 261.013 512.369 261.104C516.384 261.977 519.645 261.611 520.864 260.172C522.014 258.803 521.817 255.803 520.343 252.354C518.317 247.615 514.136 242.484 508.87 238.283C500.269 231.421 490.285 228.857 485.293 230.17C484.481 230.87 483.606 231.488 482.665 232.027C479.985 235.759 479.573 244.764 484.005 255.712ZM444.396 267.054C444.788 271.045 446.148 273.948 447.944 274.628C449.639 275.288 452.492 274.16 455.402 271.73C459.406 268.391 463.123 262.933 465.597 256.747C469.738 246.416 469.274 236.144 466.307 232.393C465.282 231.866 464.33 231.249 463.442 230.537C458.954 229.389 450.333 231.5 440.889 239.098C435.635 243.314 431.47 248.453 429.46 253.2C427.999 256.657 427.809 259.653 428.984 261.041C430.162 262.449 433.327 262.811 437.225 261.973C438.88 261.612 440.611 261.973 441.98 262.945C443.36 263.916 444.235 265.414 444.396 267.054ZM315.434 211.724C318.235 211.724 320.515 209.502 320.515 206.773C320.515 204.043 318.235 201.822 315.434 201.822C312.633 201.822 310.353 204.043 310.353 206.773C310.353 209.502 312.633 211.724 315.434 211.724ZM265.546 228.236C267.068 226.305 268.807 224.445 270.684 222.648C267.568 222.298 264.521 221.794 261.668 221.008L265.546 228.236ZM267.072 176.901C263.25 176.595 260.259 177.365 259.267 178.887C258.278 180.389 258.932 183.504 260.925 186.823C261.789 188.251 261.979 189.973 261.446 191.542C260.913 193.119 259.715 194.393 258.153 195.046C254.391 196.619 251.986 198.762 251.869 200.65C251.764 202.415 253.733 204.72 257.007 206.67C261.507 209.348 267.984 211.106 274.776 211.492C279.987 211.798 284.624 211.212 288.466 210.202C288.511 210.194 288.543 210.162 288.591 210.155C288.603 210.151 288.615 210.159 288.628 210.155C293.781 208.774 297.365 206.631 298.717 204.704C298.887 203.399 299.181 202.14 299.646 200.949C299.085 196.442 294.29 189.285 284.385 183.139C278.634 179.572 272.323 177.295 267.072 176.901ZM338.1 71.6791C338.1 74.4082 340.38 76.6302 343.177 76.6302C345.978 76.6302 348.258 74.4083 348.258 71.6791C348.258 68.9499 345.978 66.7281 343.177 66.7281C340.38 66.7281 338.1 68.946 338.1 71.6791ZM294.814 41.8078C290.972 41.505 288.006 42.2718 287.013 43.7938C286.024 45.2999 286.674 48.4144 288.672 51.7334C289.535 53.161 289.721 54.8834 289.192 56.4524C288.659 58.0294 287.461 59.3035 285.899 59.9563C282.137 61.5293 279.732 63.6764 279.615 65.5601C279.51 67.3258 281.48 69.6303 284.753 71.5808C289.253 74.2589 295.73 76.0166 302.523 76.4021C305.965 76.6026 309.15 76.4099 312.035 75.9773C312.257 75.9105 312.479 75.8908 312.709 75.8515C319.804 74.6639 324.813 71.974 326.463 69.6185C326.632 68.3129 326.927 67.0545 327.391 65.859C326.83 61.3563 322.036 54.2032 312.128 48.0451C306.381 44.4783 300.069 42.201 294.814 41.8078ZM353.431 11.7835C353.217 11.7284 352.987 11.7048 352.753 11.7048C350.965 11.7048 348.527 13.1913 346.174 15.7631C345.048 16.9979 343.62 17.863 341.739 17.6979C340.044 17.694 338.43 16.9822 337.312 15.7435C334.591 12.7429 331.702 11.1739 329.886 11.6458C326.116 12.6093 322.794 22.9049 326.378 36.2238C328.921 45.6657 334.608 53.0511 339.269 55.6736C340.533 55.3787 341.828 55.186 343.18 55.186C343.991 55.186 344.766 55.3118 345.545 55.418C349.577 52.9091 354.368 46.4283 357.023 36.3568C360.567 23.0258 357.209 12.7388 353.431 11.7835ZM405.199 63.4371C405.086 61.6085 402.741 59.4967 399.072 57.9277C397.523 57.2631 396.336 55.985 395.815 54.412C395.299 52.839 395.493 51.1245 396.36 49.7009C398.443 46.2757 399.084 43.1572 398.039 41.5646C397.381 40.5657 395.961 40.0781 394.883 39.85C394.04 39.6691 393.039 39.5669 391.897 39.5669C387.328 39.5669 380.54 41.1832 372.984 45.9061C364.315 51.3368 359.08 58.7931 357.975 63.8307C358.96 65.5846 359.613 67.5155 359.888 69.58C362.923 72.5057 370.709 75.054 382.311 74.3501C396.425 73.5204 405.433 67.2361 405.199 63.4371ZM353.044 109.53C357.152 119.711 363.214 125.276 367.153 126.943C368.17 127.372 369.623 127.781 370.777 127.348C372.52 126.679 373.844 123.86 374.236 119.994C374.401 118.35 375.281 116.856 376.653 115.885C377.67 115.165 378.893 114.788 380.128 114.788C380.556 114.788 380.984 114.831 381.408 114.925C385.427 115.79 388.688 115.425 389.903 113.989C391.057 112.621 390.86 109.624 389.387 106.172C387.361 101.433 383.175 96.301 377.909 92.1007C369.308 85.2385 359.335 82.6706 354.336 83.9879C353.524 84.6879 352.649 85.3053 351.708 85.8441C349.02 89.5721 348.608 98.5817 353.044 109.53ZM334.66 110.595C339.148 99.3756 337.957 89.5721 335.322 86.2027C334.281 85.6639 333.312 85.0347 332.416 84.3072C329.264 83.56 323.678 84.2718 316.458 88.4088C314.311 89.6358 312.128 91.1418 309.953 92.8996C299.043 101.677 295.545 111.925 298.043 114.886C299.185 116.263 302.398 116.605 306.252 115.775C308.004 115.394 309.84 115.81 311.248 116.904C312.261 117.694 312.867 118.815 313.182 120.018C313.19 120.038 313.194 120.058 313.198 120.073C313.262 120.325 313.404 120.549 313.432 120.809C313.517 121.163 313.565 121.521 313.581 121.878C314.057 125.378 315.309 127.816 316.979 128.438C320.6 129.795 329.523 123.408 334.66 110.595ZM325.688 146.868C325.474 146.813 325.248 146.79 325.01 146.79C323.222 146.79 320.781 148.28 318.428 150.852C317.302 152.079 315.695 152.783 314.004 152.783H313.988C312.293 152.779 310.683 152.067 309.561 150.829C306.849 147.832 303.979 146.251 302.143 146.731C298.373 147.694 295.052 157.99 298.632 171.309C301.174 180.751 306.861 188.136 311.523 190.759C312.786 190.464 314.082 190.271 315.434 190.271C316.241 190.271 317.016 190.397 317.795 190.503C321.826 187.994 326.617 181.513 329.276 171.442C332.82 158.115 329.462 147.824 325.688 146.868ZM377.453 198.525C377.34 196.697 374.991 194.585 371.322 193.016C369.773 192.351 368.586 191.069 368.07 189.496C367.553 187.923 367.747 186.209 368.614 184.785C370.693 181.368 371.339 178.245 370.293 176.653C369.635 175.654 368.215 175.166 367.133 174.938C366.29 174.757 365.289 174.655 364.147 174.655C359.578 174.655 352.79 176.271 345.238 180.99C336.569 186.421 331.335 193.881 330.229 198.919C331.214 200.673 331.868 202.604 332.142 204.668C335.177 207.59 342.974 210.13 354.566 209.442C368.683 208.609 377.688 202.32 377.453 198.525ZM339.403 262.035C340.424 262.46 341.881 262.884 343.023 262.44C344.77 261.768 346.094 258.952 346.486 255.086C346.651 253.446 347.531 251.948 348.899 250.977C349.92 250.257 351.139 249.88 352.378 249.88C352.802 249.88 353.234 249.923 353.658 250.013C357.681 250.886 360.942 250.509 362.157 249.077C363.307 247.709 363.11 244.716 361.637 241.264C359.611 236.525 355.425 231.393 350.163 227.193C341.559 220.331 331.578 217.774 326.59 219.08C325.779 219.78 324.903 220.397 323.962 220.94C321.279 224.672 320.863 233.677 325.298 244.621C329.411 254.802 335.464 260.36 339.403 262.035ZM283.28 251.85C284.652 252.825 285.528 254.32 285.689 255.963C286.081 259.955 287.441 262.853 289.241 263.533C290.944 264.182 293.789 263.069 296.699 260.643C300.703 257.304 304.42 251.846 306.894 245.66C311.031 235.329 310.571 225.058 307.604 221.303C306.579 220.776 305.627 220.158 304.739 219.446C300.251 218.302 291.63 220.414 282.187 228.007C276.932 232.223 272.767 237.363 270.757 242.109C269.296 245.566 269.111 248.563 270.281 249.943C271.46 251.351 274.624 251.697 278.526 250.879C280.185 250.517 281.912 250.883 283.28 251.85ZM285.778 493.462L285.238 481.107H265.183C261.91 481.107 259.259 478.527 259.259 475.334C259.259 472.145 261.906 469.561 265.183 469.561L284.733 469.565L282.356 415.281H268.941C265.668 415.281 263.017 412.701 263.017 409.508C263.017 406.318 265.672 403.735 268.941 403.735H281.852L279.386 347.437H265.192C261.919 347.437 259.267 344.857 259.267 341.664C259.267 338.475 261.915 335.891 265.192 335.891H278.882L277.251 298.651L258.097 276.912C256.398 274.985 256.192 272.201 257.593 270.057L264.195 259.931C263.057 259.176 262.012 258.315 261.132 257.273C257.512 252.994 256.713 247.119 258.779 240.516L247.092 218.737C246.244 217.16 246.236 215.332 246.955 213.747C242.495 210.043 240.106 205.615 240.082 200.907C240.073 200.931 240.078 200.955 240.065 200.978L228.607 226.835L257.452 257.968C258.8 259.423 259.296 261.441 258.776 263.336L249.404 297.29L246.26 369.062H259.749C263.022 369.062 265.673 371.642 265.673 374.835C265.673 378.024 263.026 380.608 259.749 380.608H245.756L243.435 433.617H259.748C263.022 433.617 265.673 436.197 265.673 439.39C265.673 442.58 263.026 445.163 259.748 445.163H242.931L240.816 493.463L285.778 493.462ZM70.3381 254.135C70.3381 256.864 72.6184 259.082 75.4234 259.082C78.2242 259.082 80.5005 256.861 80.5005 254.135C80.5005 251.402 78.2203 249.18 75.4234 249.18C72.6185 249.18 70.3381 251.402 70.3381 254.135ZM85.6789 194.24C85.465 194.185 85.239 194.157 85.0009 194.157C83.213 194.157 80.7672 195.647 78.4102 198.219C77.2883 199.446 75.678 200.15 73.991 200.15H73.9749C72.2798 200.146 70.6654 199.435 69.5474 198.196C66.8353 195.195 63.994 193.614 62.1254 194.098C58.36 195.062 55.0344 205.361 58.6102 218.676C61.1528 228.118 66.8394 235.499 71.5044 238.126C72.7677 237.831 74.0672 237.634 75.4192 237.634C76.2304 237.634 77.0054 237.76 77.7843 237.866C81.8161 235.354 86.6068 228.873 89.262 218.805C92.8095 205.482 89.4525 195.195 85.6789 194.24ZM137.444 245.889C137.335 244.065 134.986 241.957 131.317 240.384C129.767 239.719 128.581 238.437 128.06 236.864C127.54 235.291 127.741 233.577 128.605 232.153C130.688 228.736 131.329 225.617 130.284 224.021C129.63 223.022 128.206 222.542 127.132 222.31C126.292 222.129 125.287 222.027 124.141 222.027C119.577 222.027 112.785 223.643 105.237 228.362C96.5601 233.797 91.3253 241.26 90.228 246.294C91.2087 248.048 91.8625 249.971 92.1371 252.035C95.1801 254.957 102.998 257.49 114.564 256.813C128.674 255.972 137.678 249.688 137.444 245.888L137.444 245.889ZM85.2883 291.986C87.7826 298.168 91.5116 303.618 95.5233 306.945C98.4453 309.367 101.327 310.452 103.014 309.808C104.761 309.135 106.085 306.32 106.481 302.454C106.65 300.806 107.526 299.316 108.898 298.344C109.915 297.625 111.138 297.247 112.373 297.247C112.801 297.247 113.229 297.291 113.652 297.381C117.672 298.254 120.929 297.884 122.152 296.445C123.302 295.076 123.105 292.076 121.632 288.627C119.606 283.889 115.424 278.765 110.154 274.556C101.549 267.69 91.5358 265.126 86.5724 266.448C85.7652 267.144 84.8975 267.757 83.9612 268.292C81.2692 272.024 80.8495 281.033 85.2891 291.985L85.2883 291.986ZM30.2629 297.31C31.4494 298.718 34.6055 299.068 38.5123 298.246C40.1791 297.892 41.8943 298.25 43.2666 299.218C44.6388 300.193 45.5105 301.687 45.6719 303.331C46.0634 307.315 47.4235 310.221 49.2315 310.901C50.9306 311.554 53.7719 310.437 56.6899 308.011C60.6935 304.672 64.4066 299.214 66.8846 293.028C71.1384 282.41 70.3271 273.083 68.0105 269.248L61.9042 266.519C57.0894 266.625 49.9058 269.158 42.1765 275.375C36.9178 279.591 32.7527 284.73 30.7474 289.477C29.2783 292.934 29.0925 295.93 30.2629 297.31ZM34.7669 258.859C47.0804 259.523 56.3305 255.442 58.7038 252.071C58.8733 250.762 59.1679 249.496 59.636 248.3C59.067 243.797 54.2724 236.644 44.3728 230.501C38.6176 226.931 32.3052 224.658 27.0546 224.264C23.2083 223.97 20.2461 224.732 19.2572 226.25C18.2684 227.757 18.9141 230.871 20.9119 234.186C21.7756 235.614 21.9652 237.336 21.4325 238.909C20.8998 240.482 19.7012 241.756 18.1353 242.409C14.3819 243.982 11.9766 246.129 11.8596 248.013C11.6376 251.796 20.6613 258.053 34.7669 258.859Z" fill="#FFA3B3"/>
</svg>
