<svg width="1510" height="964" viewBox="0 0 1510 964" fill="none" xmlns="http://www.w3.org/2000/svg">
<rect width="1521" height="964" fill="#FFEBEE"/>
<path d="M1017.03 624.185C1017.42 617.718 1021.23 611.862 1027.74 607.453C1025.25 600.281 1025.72 593.497 1029.22 588.181C1033.82 581.138 1042.59 577.731 1053.88 578.576C1061.65 579.162 1070.14 581.838 1078.34 586.065C1073.42 562.815 1080.15 543.046 1095.01 539.238C1101.43 537.615 1108.32 539.337 1114.65 543.994C1120.89 539.487 1127.65 537.817 1133.95 539.419C1148.39 543.071 1155.21 561.803 1151.16 584.171C1164.07 577.025 1177.63 574.058 1188.07 576.299C1194.24 577.616 1199.08 580.702 1202.05 585.229C1205.63 590.68 1206.09 597.593 1203.5 604.875C1209.83 609.262 1213.54 615.035 1213.92 621.357C1214.83 635.868 1198.66 648.071 1175.51 651.213C1176.7 652.276 1177.92 653.319 1179.02 654.434C1211.32 654.621 1237.01 654.512 1255.26 654.112C1268.09 653.915 1280.07 657.167 1290.81 661.97L1248.7 616.907C1246.53 614.584 1246.05 611.197 1247.49 608.386L1257.64 588.564L1227.28 575.702C1223.32 574.027 1221.5 569.541 1223.23 565.687C1224.95 561.839 1229.54 560.06 1233.51 561.746L1264.63 574.929L1279.22 546.436L1273.11 531.562C1270.63 537.651 1266.56 542.142 1261.12 544.185C1258.83 545.072 1256.42 545.513 1253.92 545.513C1250.83 545.513 1247.62 544.834 1244.41 543.475C1235.09 539.549 1226.32 530.25 1220.15 518.053C1216.04 526.631 1210.62 534.083 1204.45 539.233C1198.32 544.341 1191.93 546.971 1185.9 546.971C1183.45 546.971 1181.06 546.54 1178.76 545.664C1172.58 543.32 1168.03 537.978 1165.72 530.572C1165.59 530.577 1165.47 530.577 1165.35 530.577C1157.74 530.577 1151.4 528.041 1147.35 523.223C1141.91 516.792 1141.29 507.634 1145.6 497.427C1148.49 490.617 1153.49 483.782 1159.85 477.651C1135.71 474.975 1118.65 462.533 1119.54 447.648C1119.93 441.186 1123.74 435.331 1130.25 430.917C1127.76 423.75 1128.23 416.966 1131.73 411.644C1136.33 404.607 1145.01 401.179 1156.4 402.039C1164.17 402.626 1172.66 405.302 1180.85 409.534C1175.93 386.283 1182.65 366.509 1197.52 362.707C1203.95 361.078 1210.84 362.81 1217.16 367.462C1223.39 362.955 1230.17 361.306 1236.46 362.888C1250.89 366.539 1257.72 385.277 1253.66 407.64C1266.57 400.493 1280.13 397.542 1290.57 399.767C1296.74 401.084 1301.58 404.17 1304.55 408.698C1308.12 414.154 1308.58 421.062 1306 428.343C1312.34 432.731 1316.04 438.503 1316.43 444.825C1317.33 459.315 1301.21 471.509 1278.11 474.671C1289.04 484.421 1296.08 496.028 1297.12 506.385C1297.74 512.505 1296.21 517.935 1292.71 522.078C1291.3 523.738 1289.59 525.055 1287.73 526.16L1295.03 543.944C1295.86 545.956 1295.77 548.223 1294.76 550.168L1277.18 584.505C1277.32 585.776 1277.25 587.072 1276.69 588.327C1276 589.878 1274.82 591.055 1273.42 591.844L1263.87 610.509L1331.75 683.158L1342.19 645.319L1303.63 603.71C1301.57 601.501 1301.04 598.327 1302.25 595.594L1319.37 557.004C1321.08 553.14 1325.69 551.382 1329.64 553.036C1332.31 554.162 1333.89 556.594 1334.19 559.229C1335.29 553.768 1338.75 548.815 1344.41 544.977C1341.92 537.805 1342.38 531.021 1345.89 525.7C1346.6 524.621 1347.57 523.791 1348.47 522.883C1335.12 505.852 1320.28 486.554 1320.28 486.554C1319.04 484.931 1318.5 482.888 1318.81 480.876C1319.11 478.869 1320.23 477.064 1321.91 475.861L1347.04 457.869L1314.53 399.691C1312.46 395.998 1313.87 391.377 1317.65 389.365C1321.46 387.358 1326.2 388.722 1328.25 392.415L1364.03 456.434C1365.9 459.779 1364.95 463.954 1361.79 466.204L1337.52 483.578C1343.39 491.181 1353.72 504.53 1362.92 516.236C1365.31 515.961 1367.85 515.889 1370.55 516.096C1376.16 516.516 1382.15 518.098 1388.14 520.479L1393.56 513.405C1392.32 494.787 1399.04 479.995 1411.67 476.764C1411.88 476.712 1412.09 476.733 1412.3 476.686L1413.91 466.277C1407.21 465.821 1401.73 463.477 1398.1 459.12C1388.72 448.017 1394.32 429.169 1410.76 413.451C1400.85 412.346 1391.64 409.598 1384.52 405.366C1374.85 399.609 1369.79 391.861 1370.3 383.547C1370.68 377.08 1374.49 371.224 1380.99 366.811C1378.51 359.639 1378.98 352.86 1382.48 347.539C1387.08 340.496 1395.82 337.068 1407.15 337.934C1414.92 338.52 1423.41 341.196 1431.6 345.428C1426.68 322.178 1433.4 302.404 1448.27 298.601C1454.68 296.967 1461.58 298.7 1467.9 303.357C1474.14 298.85 1480.91 297.185 1487.21 298.788C1501.64 302.434 1508.47 321.171 1504.41 343.545C1517.32 336.398 1530.87 333.432 1541.31 335.667C1547.49 336.984 1552.33 340.07 1555.3 344.598C1558.88 350.049 1559.33 356.962 1556.75 364.243C1563.08 368.631 1566.79 374.403 1567.18 380.725C1568.08 395.231 1551.92 407.439 1528.76 410.582C1536.13 417.153 1541.94 424.652 1545.14 432.146C1549.5 442.342 1548.91 451.506 1543.47 457.978C1539.26 462.942 1532.69 465.472 1524.72 465.353C1522.41 472.567 1517.93 477.785 1511.88 480.093C1509.59 480.969 1507.19 481.41 1504.71 481.41C1501.6 481.41 1498.37 480.72 1495.14 479.356C1485.84 475.42 1477.08 466.132 1470.94 453.986C1465.96 464.431 1459.3 472.641 1452.07 477.563C1465.43 482.127 1471.7 500.149 1467.8 521.697C1480.7 514.551 1494.24 511.584 1504.7 513.825C1510.88 515.142 1515.72 518.228 1518.69 522.755C1522.27 528.206 1522.72 535.119 1520.14 542.406C1526.47 546.794 1530.18 552.561 1530.56 558.883C1531.47 573.394 1515.31 585.602 1492.16 588.739C1499.52 595.31 1505.33 602.81 1508.53 610.303C1512.88 620.499 1512.3 629.663 1506.86 636.125C1502.58 641.187 1496.02 643.78 1488.11 643.536C1485.79 650.729 1481.32 655.936 1475.27 658.255C1472.99 659.126 1470.58 659.562 1468.1 659.562C1464.99 659.562 1461.76 658.877 1458.53 657.508C1449.21 653.561 1440.44 644.247 1434.3 632.064C1430.19 640.653 1424.77 648.121 1418.58 653.277C1412.46 658.385 1406.07 661.014 1400.03 661.014C1397.58 661.014 1395.19 660.584 1392.9 659.707C1387.2 657.545 1382.96 652.737 1380.51 646.192L1373.12 657.529L1396.38 683.916C1397.33 684.99 1397.85 686.323 1398.07 687.708C1424.54 675.064 1453.99 661.263 1458.16 660.417C1459.27 660.194 1462.2 659.619 1514.98 664.561V623.284C1514.98 619.078 1518.48 615.67 1522.8 615.67C1527.11 615.67 1530.61 619.073 1530.61 623.284V666.049C1540.94 667.045 1552.73 668.202 1566.27 669.56L1577.42 656.673C1574.89 655.48 1572.61 653.95 1570.89 651.891C1565.45 645.46 1564.82 636.301 1569.14 626.094C1572.02 619.285 1577.02 612.45 1583.38 606.319C1559.24 603.643 1542.18 591.2 1543.08 576.327C1543.46 569.859 1547.27 564.004 1553.78 559.586C1551.29 552.413 1551.77 545.635 1555.27 540.308C1559.88 533.27 1568.65 529.858 1579.94 530.714C1587.7 531.3 1596.2 533.976 1604.4 538.208C1599.48 514.952 1606.2 495.183 1621.06 491.381C1627.48 489.747 1634.38 491.474 1640.7 496.136C1646.94 491.619 1653.7 489.954 1660 491.562C1674.43 495.208 1681.26 513.94 1677.2 536.319C1690.11 529.173 1703.65 526.211 1714.11 528.441C1720.28 529.759 1725.12 532.845 1728.1 537.372C1731.67 542.828 1732.13 549.741 1729.54 557.023C1735.88 561.411 1739.59 567.183 1739.96 573.505C1740.87 588.016 1724.71 600.219 1701.55 603.361C1708.91 609.932 1714.72 617.432 1717.93 624.931C1722.29 635.122 1721.7 644.286 1716.26 650.763C1712.05 655.727 1705.5 658.024 1697.52 658.138C1695.2 665.357 1690.72 670.569 1684.67 672.873C1682.39 673.759 1679.98 674.19 1677.49 674.19C1674.39 674.19 1671.17 673.505 1667.94 672.146C1658.62 668.2 1649.84 658.89 1643.7 646.703C1639.59 655.291 1634.17 662.754 1627.99 667.91C1621.86 673.018 1615.47 675.648 1609.42 675.648C1606.98 675.648 1604.59 675.217 1602.29 674.346C1597.61 672.567 1593.87 669.051 1591.32 664.228L1575.55 682.457C1573.89 684.381 1571.36 685.35 1568.78 685.127C1531.15 681.341 1469.91 675.491 1461.18 675.434C1455.43 677.545 1425.5 691.543 1398.94 704.27L1409.98 956.05C1410.07 958.124 1409.28 960.147 1407.81 961.64C1406.34 963.144 1404.3 963.99 1402.17 963.99L1326.53 964C1324.4 964 1322.36 963.155 1320.89 961.651C1319.41 960.157 1318.63 958.135 1318.72 956.06L1329.46 710.985C1328.62 710.461 1327.84 709.818 1327.24 708.983C1326.95 708.574 1294.61 668.391 1255.59 669.34C1239.39 669.693 1217.44 669.823 1190.29 669.719C1190.81 670.741 1191.45 671.762 1191.88 672.784C1196.24 682.985 1195.65 692.149 1190.21 698.606C1185.95 703.662 1179.51 706.204 1171.45 706.017C1169.14 713.21 1164.67 718.417 1158.62 720.735C1156.3 721.628 1153.87 722.068 1151.4 722.068C1145.37 722.068 1139 719.46 1132.88 714.382C1126.98 709.492 1121.76 702.516 1117.69 694.467C1113.58 703.092 1108.14 710.592 1101.94 715.762C1095.81 720.87 1089.42 723.5 1083.39 723.5C1080.94 723.5 1078.55 723.069 1076.26 722.193C1070.07 719.843 1065.53 714.507 1063.2 707.112C1055.33 707.246 1048.96 704.658 1044.84 699.752C1039.4 693.321 1038.78 684.163 1043.09 673.956C1045.98 667.146 1050.98 660.311 1057.34 654.176C1033.19 651.505 1016.14 639.068 1017.03 624.179L1017.03 624.185ZM1212.3 456.633C1212.3 460.232 1215.31 463.162 1219 463.162C1222.7 463.162 1225.7 460.232 1225.7 456.633C1225.7 453.033 1222.69 450.103 1219 450.103C1215.31 450.103 1212.3 453.028 1212.3 456.633ZM1159.42 513.572C1160.99 515.429 1165.15 515.906 1170.31 514.802C1172.48 514.324 1174.78 514.796 1176.58 516.083C1178.39 517.369 1179.55 519.345 1179.76 521.513C1180.27 526.771 1182.06 530.599 1184.44 531.501C1186.68 532.321 1190.43 530.884 1194.28 527.684C1199.56 523.281 1204.46 516.077 1207.73 507.919C1213.2 494.294 1212.59 480.748 1208.67 475.801C1207.32 475.106 1206.06 474.292 1204.89 473.353C1198.98 471.829 1187.59 474.624 1175.13 484.644C1168.19 490.203 1162.7 496.982 1160.05 503.242C1158.12 507.795 1157.88 511.747 1159.42 513.572ZM1155.19 417.238C1150.11 416.839 1146.21 417.85 1144.91 419.857C1143.6 421.843 1144.45 425.951 1147.09 430.323C1148.23 432.205 1148.48 434.477 1147.78 436.546C1147.07 438.626 1145.49 440.306 1143.43 441.167C1138.47 443.242 1135.3 446.073 1135.14 448.552C1134.84 453.542 1146.75 461.793 1165.36 462.855C1181.63 463.773 1193.85 458.349 1196.96 453.904C1197.18 452.187 1197.57 450.523 1198.18 448.956C1197.44 443.013 1191.11 433.574 1178.04 425.463C1170.46 420.754 1162.12 417.757 1155.19 417.238ZM1232.53 377.641C1232.25 377.569 1231.95 377.533 1231.64 377.533C1229.28 377.533 1226.05 379.498 1222.96 382.89C1221.47 384.508 1219.35 385.436 1217.12 385.436H1217.1C1214.86 385.431 1212.73 384.493 1211.26 382.859C1207.68 378.902 1203.92 376.817 1201.47 377.455C1196.49 378.726 1192.11 392.304 1196.84 409.869C1200.19 422.321 1207.69 432.055 1213.85 435.519C1215.51 435.13 1217.23 434.871 1219.01 434.871C1220.08 434.871 1221.1 435.037 1222.13 435.177C1227.45 431.863 1233.77 423.321 1237.27 410.039C1241.94 392.468 1237.51 378.901 1232.53 377.641ZM1300.83 445.752C1300.69 443.346 1297.59 440.566 1292.75 438.492C1290.7 437.615 1289.14 435.924 1288.45 433.85C1287.76 431.775 1288.03 429.514 1289.17 427.637C1291.92 423.13 1292.76 419.017 1291.38 416.912C1290.52 415.594 1288.64 414.962 1287.23 414.656C1286.12 414.417 1284.79 414.282 1283.28 414.282C1277.26 414.282 1268.3 416.414 1258.34 422.637C1246.89 429.805 1239.98 439.648 1238.54 446.291C1239.83 448.604 1240.7 451.145 1241.06 453.863C1245.07 457.716 1255.38 461.067 1270.64 460.159C1289.26 459.06 1301.14 450.768 1300.83 445.752ZM1264.89 483.602C1260.95 480.511 1256.72 477.943 1252.54 476.144C1244.26 472.43 1237.36 471.896 1233.64 472.928C1232.58 473.836 1231.43 474.64 1230.2 475.345C1226.81 480.142 1225.95 491.5 1231.98 506.556C1237.42 520.004 1245.42 527.331 1250.62 529.521C1251.96 530.081 1253.86 530.62 1255.42 530.029C1257.74 529.158 1259.5 525.444 1260 520.351C1260.2 518.178 1261.36 516.197 1263.18 514.916C1264.52 513.962 1266.14 513.459 1267.78 513.459C1268.34 513.459 1268.91 513.516 1269.47 513.64C1272.18 514.232 1274.46 514.392 1276.69 514.107C1279.16 513.863 1280.14 513.028 1280.65 512.432C1281.66 511.229 1281.7 509.305 1281.57 507.899C1281.02 502.391 1276.3 492.724 1264.89 483.602ZM1635.85 585.319C1635.85 588.918 1638.86 591.843 1642.55 591.843C1646.25 591.843 1649.26 588.913 1649.26 585.319C1649.26 581.719 1646.25 578.789 1642.55 578.789C1638.86 578.789 1635.85 581.714 1635.85 585.319ZM1578.74 545.924C1573.68 545.535 1569.76 546.546 1568.45 548.538C1567.15 550.524 1568 554.632 1570.64 559.009C1571.78 560.891 1572.02 563.163 1571.32 565.232C1570.62 567.312 1569.04 568.992 1566.98 569.853C1562.02 571.928 1558.84 574.754 1558.7 577.243C1558.4 582.233 1570.3 590.484 1588.92 591.547C1605.21 592.516 1617.38 587.055 1620.5 582.605C1620.72 580.878 1621.11 579.214 1621.73 577.637C1620.98 571.699 1614.66 562.265 1601.59 554.153C1594 549.439 1585.68 546.442 1578.74 545.924ZM1656.08 506.327C1655.8 506.255 1655.5 506.224 1655.19 506.224C1652.84 506.224 1649.61 508.184 1646.51 511.576C1645.02 513.199 1642.9 514.127 1640.67 514.127H1640.65C1638.42 514.122 1636.29 513.184 1634.81 511.55C1631.22 507.593 1627.43 505.544 1625.01 506.146C1620.04 507.416 1615.66 520.995 1620.38 538.56C1623.74 551.017 1631.24 560.757 1637.39 564.216C1639.05 563.832 1640.77 563.572 1642.55 563.572C1643.62 563.572 1644.65 563.738 1645.67 563.878C1650.99 560.57 1657.31 552.023 1660.82 538.74C1665.49 521.154 1661.06 507.582 1656.08 506.327ZM1724.38 574.438C1724.23 572.032 1721.14 569.252 1716.3 567.177C1714.25 566.301 1712.68 564.61 1712 562.536C1711.32 560.461 1711.57 558.2 1712.72 556.323C1715.47 551.811 1716.31 547.698 1714.93 545.598C1714.06 544.28 1712.19 543.637 1710.77 543.336C1709.66 543.098 1708.34 542.963 1706.82 542.963C1700.8 542.963 1691.84 545.095 1681.88 551.323C1670.43 558.485 1663.53 568.324 1662.07 574.968C1663.37 577.281 1664.24 579.827 1664.6 582.55C1668.61 586.403 1678.9 589.774 1694.18 588.841C1712.8 587.741 1724.69 579.454 1724.38 574.438ZM1655.57 635.236C1660.99 648.668 1668.99 655.997 1674.18 658.201C1675.52 658.766 1677.45 659.337 1678.96 658.73C1681.26 657.859 1683.01 654.145 1683.52 649.037C1683.74 646.874 1684.9 644.898 1686.71 643.617C1688.05 642.668 1689.67 642.171 1691.3 642.171C1691.86 642.171 1692.43 642.228 1692.99 642.347C1698.29 643.498 1702.59 643.016 1704.2 641.118C1705.72 639.313 1705.46 635.356 1703.51 630.808C1700.84 624.558 1695.32 617.79 1688.37 612.251C1677.03 603.201 1663.85 599.819 1657.27 601.552C1656.2 602.475 1655.04 603.289 1653.8 603.999C1650.27 608.921 1649.72 620.798 1655.57 635.236ZM1603.31 650.194C1603.83 655.458 1605.62 659.285 1607.99 660.182C1610.23 661.054 1613.99 659.565 1617.83 656.36C1623.11 651.957 1628.02 644.759 1631.28 636.6C1636.75 622.976 1636.13 609.43 1632.22 604.483C1630.87 603.788 1629.61 602.974 1628.44 602.035C1622.52 600.52 1611.14 603.305 1598.68 613.325C1591.75 618.885 1586.26 625.663 1583.61 631.923C1581.68 636.482 1581.43 640.434 1582.98 642.265C1584.53 644.121 1588.71 644.598 1593.85 643.494C1596.03 643.017 1598.32 643.494 1600.12 644.775C1601.94 646.056 1603.1 648.031 1603.31 650.194ZM1433.17 577.224C1436.86 577.224 1439.87 574.294 1439.87 570.694C1439.87 567.095 1436.86 564.165 1433.17 564.165C1429.47 564.165 1426.46 567.095 1426.46 570.694C1426.46 574.294 1429.47 577.224 1433.17 577.224ZM1367.35 599C1369.35 596.454 1371.65 594.001 1374.13 591.631C1370.01 591.169 1365.99 590.505 1362.23 589.468L1367.35 599ZM1369.36 531.3C1364.32 530.895 1360.37 531.912 1359.06 533.919C1357.76 535.9 1358.62 540.007 1361.25 544.384C1362.39 546.267 1362.64 548.539 1361.94 550.608C1361.23 552.688 1359.65 554.368 1357.59 555.229C1352.63 557.303 1349.46 560.13 1349.3 562.619C1349.16 564.948 1351.76 567.987 1356.08 570.559C1362.02 574.091 1370.56 576.409 1379.52 576.918C1386.4 577.322 1392.52 576.549 1397.59 575.217C1397.64 575.206 1397.69 575.165 1397.75 575.154C1397.77 575.149 1397.78 575.16 1397.8 575.154C1404.6 573.334 1409.33 570.508 1411.11 567.966C1411.33 566.244 1411.72 564.585 1412.34 563.013C1411.6 557.07 1405.27 547.631 1392.2 539.526C1384.61 534.822 1376.29 531.818 1369.36 531.3ZM1463.07 392.531C1463.07 396.13 1466.08 399.061 1469.77 399.061C1473.46 399.061 1476.47 396.131 1476.47 392.531C1476.47 388.932 1473.46 386.002 1469.77 386.002C1466.08 386.002 1463.07 388.927 1463.07 392.531ZM1405.96 353.137C1400.89 352.737 1396.98 353.749 1395.67 355.756C1394.36 357.742 1395.22 361.849 1397.86 366.227C1399 368.109 1399.24 370.381 1398.54 372.45C1397.84 374.53 1396.26 376.21 1394.2 377.071C1389.24 379.146 1386.06 381.977 1385.91 384.461C1385.77 386.79 1388.37 389.829 1392.69 392.402C1398.62 395.933 1407.17 398.252 1416.13 398.76C1420.67 399.024 1424.87 398.77 1428.68 398.2C1428.97 398.112 1429.27 398.086 1429.57 398.034C1438.93 396.468 1445.54 392.92 1447.72 389.814C1447.94 388.092 1448.33 386.432 1448.94 384.856C1448.2 378.917 1441.88 369.484 1428.8 361.363C1421.22 356.659 1412.89 353.655 1405.96 353.137ZM1483.3 313.54C1483.01 313.468 1482.71 313.436 1482.4 313.436C1480.04 313.436 1476.83 315.397 1473.72 318.789C1472.24 320.417 1470.35 321.558 1467.87 321.34C1465.63 321.335 1463.5 320.396 1462.03 318.763C1458.44 314.806 1454.63 312.736 1452.23 313.359C1447.26 314.629 1442.88 328.207 1447.61 345.772C1450.96 358.225 1458.46 367.964 1464.61 371.423C1466.28 371.034 1467.99 370.78 1469.77 370.78C1470.84 370.78 1471.87 370.946 1472.89 371.086C1478.21 367.777 1484.53 359.23 1488.04 345.948C1492.71 328.367 1488.28 314.8 1483.3 313.54ZM1551.6 381.662C1551.45 379.25 1548.35 376.465 1543.51 374.396C1541.47 373.519 1539.9 371.834 1539.22 369.759C1538.53 367.685 1538.79 365.424 1539.94 363.546C1542.68 359.029 1543.53 354.916 1542.15 352.816C1541.28 351.499 1539.41 350.855 1537.99 350.555C1536.87 350.316 1535.55 350.181 1534.05 350.181C1528.02 350.181 1519.06 352.313 1509.09 358.542C1497.66 365.704 1490.75 375.537 1489.29 382.181C1490.59 384.494 1491.45 387.04 1491.82 389.763C1495.82 393.621 1506.09 396.982 1521.4 396.054C1540.02 394.96 1551.91 386.672 1551.6 381.662ZM1482.79 442.449C1488.21 455.876 1496.2 463.215 1501.4 465.414C1502.74 465.979 1504.66 466.518 1506.18 465.948C1508.48 465.066 1510.23 461.348 1510.75 456.25C1510.96 454.082 1512.12 452.111 1513.93 450.83C1515.28 449.881 1516.89 449.383 1518.52 449.383C1519.08 449.383 1519.65 449.44 1520.21 449.565C1525.51 450.706 1529.81 450.223 1531.42 448.331C1532.94 446.526 1532.68 442.574 1530.73 438.02C1528.06 431.771 1522.54 425.003 1515.59 419.463C1504.24 410.414 1491.09 407.027 1484.49 408.764C1483.42 409.687 1482.26 410.502 1481.02 411.212C1477.48 416.129 1476.93 428.011 1482.79 442.449ZM1458.53 443.855C1464.45 429.058 1462.88 416.129 1459.4 411.685C1458.03 410.975 1456.75 410.145 1455.57 409.185C1451.41 408.2 1444.04 409.139 1434.52 414.595C1431.68 416.213 1428.8 418.199 1425.93 420.517C1411.54 432.093 1406.93 445.607 1410.22 449.514C1411.73 451.329 1415.97 451.78 1421.05 450.686C1423.36 450.183 1425.79 450.732 1427.64 452.174C1428.98 453.216 1429.78 454.695 1430.19 456.282C1430.2 456.308 1430.21 456.333 1430.22 456.354C1430.3 456.686 1430.49 456.982 1430.52 457.324C1430.64 457.791 1430.7 458.263 1430.72 458.735C1431.35 463.35 1433 466.566 1435.2 467.385C1439.98 469.175 1451.75 460.752 1458.53 443.855ZM1446.69 491.692C1446.41 491.619 1446.11 491.588 1445.8 491.588C1443.44 491.588 1440.22 493.554 1437.12 496.946C1435.63 498.564 1433.51 499.492 1431.28 499.492H1431.26C1429.02 499.487 1426.9 498.548 1425.42 496.915C1421.84 492.963 1418.05 490.878 1415.63 491.511C1410.66 492.781 1406.27 506.359 1411 523.924C1414.35 536.376 1421.85 546.116 1428.01 549.575C1429.67 549.186 1431.38 548.932 1433.17 548.932C1434.23 548.932 1435.25 549.098 1436.28 549.238C1441.6 545.929 1447.92 537.382 1451.43 524.1C1456.1 506.524 1451.67 492.952 1446.69 491.692ZM1514.99 559.817C1514.84 557.406 1511.74 554.621 1506.9 552.551C1504.86 551.675 1503.29 549.984 1502.61 547.91C1501.93 545.835 1502.18 543.574 1503.33 541.697C1506.07 537.19 1506.92 533.072 1505.54 530.972C1504.68 529.654 1502.8 529.011 1501.37 528.71C1500.26 528.472 1498.94 528.337 1497.43 528.337C1491.41 528.337 1482.45 530.469 1472.49 536.692C1461.05 543.854 1454.14 553.693 1452.69 560.337C1453.98 562.65 1454.85 565.196 1455.21 567.919C1459.21 571.772 1469.5 575.122 1484.79 574.215C1503.42 573.115 1515.3 564.822 1514.99 559.817ZM1464.79 643.575C1466.14 644.135 1468.06 644.695 1469.56 644.109C1471.87 643.222 1473.62 639.509 1474.13 634.411C1474.35 632.248 1475.51 630.272 1477.32 628.991C1478.66 628.042 1480.27 627.544 1481.91 627.544C1482.47 627.544 1483.04 627.601 1483.6 627.721C1488.9 628.872 1493.21 628.374 1494.81 626.486C1496.33 624.682 1496.07 620.735 1494.12 616.181C1491.45 609.932 1485.93 603.164 1478.99 597.625C1467.63 588.575 1454.47 585.203 1447.88 586.925C1446.81 587.849 1445.66 588.663 1444.42 589.379C1440.88 594.3 1440.33 606.176 1446.18 620.609C1451.61 634.036 1459.59 641.366 1464.79 643.575ZM1390.74 630.143C1392.55 631.429 1393.71 633.4 1393.92 635.568C1394.44 640.832 1396.23 644.654 1398.61 645.551C1400.86 646.407 1404.61 644.939 1408.45 641.739C1413.73 637.336 1418.63 630.138 1421.9 621.979C1427.36 608.355 1426.75 594.809 1422.84 589.856C1421.48 589.161 1420.23 588.347 1419.06 587.408C1413.13 585.899 1401.76 588.684 1389.3 598.699C1382.37 604.258 1376.87 611.037 1374.22 617.297C1372.29 621.855 1372.05 625.807 1373.59 627.628C1375.15 629.484 1379.32 629.941 1384.47 628.862C1386.66 628.385 1388.94 628.867 1390.74 630.143ZM1394.04 948.784L1393.33 932.49H1366.87C1362.55 932.49 1359.05 929.087 1359.05 924.876C1359.05 920.67 1362.54 917.263 1366.87 917.263L1392.66 917.268L1389.52 845.677H1371.83C1367.51 845.677 1364.01 842.275 1364.01 838.064C1364.01 833.858 1367.51 830.45 1371.83 830.45H1388.86L1385.61 756.204H1366.88C1362.56 756.204 1359.06 752.802 1359.06 748.591C1359.06 744.385 1362.56 740.978 1366.88 740.978H1384.94L1382.79 691.864L1357.52 663.195C1355.28 660.653 1355.01 656.981 1356.85 654.155L1365.56 640.8C1364.06 639.804 1362.68 638.668 1361.52 637.294C1356.75 631.651 1355.69 623.903 1358.42 615.195L1343 586.473C1341.88 584.394 1341.87 581.982 1342.82 579.892C1336.93 575.007 1333.78 569.167 1333.75 562.959C1333.74 562.99 1333.74 563.021 1333.73 563.052L1318.61 597.152L1356.67 638.212C1358.45 640.131 1359.1 642.791 1358.41 645.291L1346.05 690.069L1341.9 784.723H1359.7C1364.02 784.723 1367.51 788.125 1367.51 792.337C1367.51 796.543 1364.02 799.95 1359.7 799.95H1341.24L1338.17 869.86H1359.7C1364.02 869.86 1367.51 873.262 1367.51 877.473C1367.51 881.679 1364.02 885.087 1359.7 885.087H1337.51L1334.72 948.784L1394.04 948.784ZM1109.8 633.157C1109.8 636.756 1112.81 639.681 1116.51 639.681C1120.2 639.681 1123.21 636.751 1123.21 633.157C1123.21 629.552 1120.2 626.622 1116.51 626.622C1112.81 626.622 1109.8 629.552 1109.8 633.157ZM1130.04 554.165C1129.76 554.093 1129.46 554.057 1129.15 554.057C1126.79 554.057 1123.56 556.022 1120.45 559.414C1118.97 561.032 1116.85 561.96 1114.62 561.96H1114.6C1112.36 561.955 1110.23 561.017 1108.76 559.383C1105.18 555.426 1101.43 553.341 1098.96 553.979C1094 555.25 1089.61 568.833 1094.33 586.393C1097.68 598.845 1105.18 608.579 1111.34 612.043C1113.01 611.654 1114.72 611.395 1116.5 611.395C1117.57 611.395 1118.6 611.561 1119.62 611.701C1124.94 608.387 1131.26 599.84 1134.77 586.563C1139.45 568.992 1135.02 555.425 1130.04 554.165ZM1198.34 622.282C1198.19 619.875 1195.09 617.096 1190.25 615.021C1188.21 614.144 1186.64 612.454 1185.96 610.379C1185.27 608.305 1185.53 606.044 1186.67 604.166C1189.42 599.659 1190.27 595.547 1188.89 593.441C1188.03 592.124 1186.15 591.491 1184.73 591.185C1183.62 590.947 1182.3 590.812 1180.79 590.812C1174.76 590.812 1165.8 592.943 1155.84 599.167C1144.4 606.334 1137.49 616.177 1136.04 622.815C1137.34 625.128 1138.2 627.664 1138.56 630.387C1142.58 634.24 1152.89 637.58 1168.15 636.688C1186.76 635.578 1198.64 627.291 1198.34 622.28L1198.34 622.282ZM1129.52 683.074C1132.82 691.227 1137.74 698.416 1143.03 702.802C1146.88 705.997 1150.68 707.428 1152.91 706.578C1155.22 705.691 1156.96 701.978 1157.48 696.88C1157.71 694.707 1158.86 692.741 1160.67 691.46C1162.02 690.511 1163.63 690.013 1165.26 690.013C1165.82 690.013 1166.39 690.07 1166.95 690.19C1172.25 691.341 1176.55 690.853 1178.16 688.955C1179.68 687.15 1179.42 683.193 1177.47 678.645C1174.8 672.396 1169.28 665.638 1162.33 660.088C1150.98 651.033 1137.77 647.652 1131.22 649.394C1130.15 650.312 1129.01 651.121 1127.77 651.826C1124.22 656.748 1123.67 668.63 1129.53 683.073L1129.52 683.074ZM1056.93 690.097C1058.49 691.953 1062.66 692.415 1067.81 691.331C1070.01 690.864 1072.27 691.336 1074.08 692.612C1075.89 693.898 1077.04 695.869 1077.26 698.037C1077.77 703.29 1079.57 707.123 1081.95 708.02C1084.19 708.881 1087.94 707.408 1091.79 704.208C1097.08 699.805 1101.97 692.607 1105.24 684.448C1110.86 670.446 1109.79 658.145 1106.73 653.088L1098.67 649.488C1092.32 649.628 1082.84 652.968 1072.65 661.168C1065.71 666.727 1060.21 673.506 1057.57 679.766C1055.63 684.324 1055.38 688.276 1056.93 690.097ZM1062.87 639.386C1079.12 640.263 1091.32 634.879 1094.45 630.435C1094.67 628.708 1095.06 627.038 1095.68 625.461C1094.93 619.523 1088.6 610.089 1075.54 601.988C1067.95 597.279 1059.62 594.281 1052.69 593.763C1047.62 593.374 1043.71 594.38 1042.41 596.382C1041.1 598.368 1041.95 602.475 1044.59 606.848C1045.73 608.73 1045.98 611.002 1045.28 613.076C1044.57 615.151 1042.99 616.831 1040.93 617.692C1035.97 619.766 1032.8 622.598 1032.65 625.082C1032.35 630.071 1044.26 638.324 1062.87 639.386Z" fill="#FFA3B3"/>
</svg>
