<svg width="49" height="49" viewBox="0 0 49 49" fill="none" xmlns="http://www.w3.org/2000/svg">
<path d="M38.7913 18.375H36.7497V12.25C36.7497 10.0041 34.9122 8.16663 32.6663 8.16663H20.4163C18.1705 8.16663 16.333 10.0041 16.333 12.25V40.8333H40.833C43.0788 40.8333 44.9163 38.9958 44.9163 36.75V24.5C44.9163 21.1108 42.1805 18.375 38.7913 18.375ZM20.4163 12.25H32.6663V18.375H20.4163V12.25ZM28.583 34.7083H20.4163V24.5H28.583V34.7083ZM32.6663 34.7083C31.5434 34.7083 30.6247 33.7895 30.6247 32.6666C30.6247 31.5437 31.5434 30.625 32.6663 30.625C33.7893 30.625 34.708 31.5437 34.708 32.6666C34.708 33.7895 33.7893 34.7083 32.6663 34.7083ZM32.6663 28.5833C31.5434 28.5833 30.6247 27.6645 30.6247 26.5416C30.6247 25.4187 31.5434 24.5 32.6663 24.5C33.7893 24.5 34.708 25.4187 34.708 26.5416C34.708 27.6645 33.7893 28.5833 32.6663 28.5833ZM38.7913 34.7083C37.6684 34.7083 36.7497 33.7895 36.7497 32.6666C36.7497 31.5437 37.6684 30.625 38.7913 30.625C39.9143 30.625 40.833 31.5437 40.833 32.6666C40.833 33.7895 39.9143 34.7083 38.7913 34.7083ZM38.7913 28.5833C37.6684 28.5833 36.7497 27.6645 36.7497 26.5416C36.7497 25.4187 37.6684 24.5 38.7913 24.5C39.9143 24.5 40.833 25.4187 40.833 26.5416C40.833 27.6645 39.9143 28.5833 38.7913 28.5833ZM9.18717 16.3333C7.83347 16.3333 6.5352 16.8711 5.57798 17.8283C4.62077 18.7855 4.08301 20.0837 4.08301 21.4375V37.7708C4.08301 39.1245 4.62077 40.4228 5.57798 41.38C6.5352 42.3372 7.83347 42.875 9.18717 42.875C10.5409 42.875 11.8391 42.3372 12.7964 41.38C13.7536 40.4228 14.2913 39.1245 14.2913 37.7708V21.4375C14.2913 20.7672 14.1593 20.1034 13.9028 19.4842C13.6463 18.8649 13.2703 18.3022 12.7964 17.8283C12.3224 17.3543 11.7597 16.9783 11.1405 16.7218C10.5212 16.4653 9.85746 16.3333 9.18717 16.3333Z" fill="#FF5E78"/>
</svg>
