<svg width="1662" height="1449" viewBox="0 0 1662 1449" fill="none" xmlns="http://www.w3.org/2000/svg">
<g clip-path="url(#clip0_193_1765)">
<rect width="1662" height="1449" fill="white"/>
<mask id="mask0_193_1765" style="mask-type:alpha" maskUnits="userSpaceOnUse" x="-371" y="286" width="2552" height="1125">
<path d="M603.843 445.296C255.143 371.479 -121.719 399.139 -371 474.566V1159.59C-371 1205.75 206.943 1341.41 860.784 1396C1275.04 1430.6 1756.08 1401.45 2021.54 1348.22C2091.28 1334.24 2146.14 1318.59 2181 1302C2165.45 995.983 2134.35 661.555 2134.35 286C1771.57 512.842 1117.03 553.932 603.843 445.296Z" fill="#FFCBD4"/>
</mask>
<g mask="url(#mask0_193_1765)">
<rect x="-84.1182" y="286" width="2105.66" height="1124.64" fill="#FFEBEE"/>
</g>
<mask id="mask1_193_1765" style="mask-type:alpha" maskUnits="userSpaceOnUse" x="1045" y="746" width="487" height="478">
<path d="M1196.58 1022.79C1198.81 1023.1 1201.05 1023.25 1203.29 1023.25C1216.23 1023.25 1227.59 1018.18 1238.63 1013.25C1243.37 1011.13 1247.85 1009.13 1252.46 1007.51C1268.62 1002.37 1286.08 1002.8 1301.96 1008.75C1307.38 1022.25 1317.88 1033.19 1331.28 1039.29C1348.23 1047.09 1367.64 1047.95 1385.24 1041.67C1402.83 1035.41 1417.17 1022.52 1425.1 1005.86C1433.82 987.494 1435.58 966.674 1430.09 947.139C1424.6 927.603 1412.21 910.627 1395.14 899.253C1394.57 880.344 1386.53 862.395 1372.74 849.202C1358.94 836.006 1340.46 828.604 1321.21 828.556C1301.96 828.508 1283.45 835.823 1269.58 848.946C1260.72 844.601 1250.81 842.755 1240.95 843.614C1231.09 844.475 1221.66 848.009 1213.72 853.822C1204.3 860.709 1196.95 869.973 1192.45 880.632C1187.96 891.291 1186.48 902.948 1188.18 914.364C1181.33 914.876 1174.7 916.975 1168.84 920.488C1156.71 927.725 1148.01 939.4 1144.65 952.942C1141.29 966.487 1143.54 980.79 1150.92 992.698C1160.84 1008.89 1177.57 1019.92 1196.58 1022.79L1196.58 1022.79ZM1155.99 955.658C1158.59 945.058 1165.4 935.925 1174.9 930.292C1182.21 925.93 1190.99 924.605 1199.3 926.605C1207.61 928.603 1214.77 933.767 1219.21 940.956C1222.59 946.438 1223.63 953.018 1222.09 959.249C1220.55 965.483 1216.56 970.861 1210.99 974.205C1206.78 976.707 1201.73 977.47 1196.95 976.326C1192.16 975.184 1188.04 972.231 1185.46 968.11C1183.59 965.059 1183.02 961.404 1183.88 957.942C1184.74 954.48 1186.96 951.495 1190.05 949.636C1192.8 947.99 1193.68 944.461 1192 941.756C1190.32 939.051 1186.73 938.192 1183.98 939.841C1178.25 943.285 1174.14 948.819 1172.55 955.232C1170.95 961.647 1172.01 968.419 1175.49 974.069C1179.68 980.783 1186.4 985.595 1194.18 987.457C1201.97 989.321 1210.19 988.083 1217.05 984.013C1225.26 979.086 1231.15 971.156 1233.42 961.967C1235.7 952.775 1234.17 943.074 1229.17 934.991C1222.79 924.596 1212.23 917.354 1200.1 915.065C1198.21 905.361 1199.13 895.33 1202.78 886.121C1206.43 876.914 1212.64 868.903 1220.71 863.008C1229.59 856.502 1240.74 853.722 1251.7 855.275C1262.67 856.83 1272.56 862.589 1279.21 871.296C1284.33 878.039 1286.51 886.5 1285.28 894.822C1284.06 903.145 1279.53 910.654 1272.68 915.697C1267.45 919.549 1260.87 921.197 1254.4 920.277C1247.93 919.359 1242.1 915.948 1238.19 910.797C1235.25 906.926 1233.99 902.064 1234.69 897.278C1235.39 892.496 1237.99 888.18 1241.93 885.286C1244.84 883.163 1248.49 882.259 1252.08 882.765C1255.67 883.275 1258.9 885.158 1261.08 888.002C1262.01 889.223 1263.4 890.029 1264.93 890.245C1266.47 890.461 1268.02 890.066 1269.26 889.151C1270.5 888.236 1271.32 886.873 1271.54 885.363C1271.75 883.856 1271.35 882.325 1270.41 881.109C1266.37 875.843 1260.38 872.36 1253.73 871.421C1247.09 870.479 1240.34 872.159 1234.95 876.091C1228.53 880.807 1224.28 887.838 1223.13 895.635C1221.99 903.432 1224.04 911.357 1228.85 917.666C1234.59 925.276 1243.19 930.307 1252.74 931.632C1254.48 931.88 1256.24 932.005 1258 932.005C1265.82 932.008 1273.43 929.506 1279.68 924.881C1289 918.01 1295.17 907.788 1296.83 896.457C1298.5 885.123 1295.52 873.605 1288.56 864.424C1285.97 861.049 1282.97 857.998 1279.63 855.334C1291.76 844.864 1307.53 839.401 1323.66 840.084C1339.79 840.77 1355.03 847.548 1366.19 859.007C1377.36 870.463 1383.59 885.715 1383.59 901.581V902.334C1383.59 902.366 1383.6 902.398 1383.6 902.43C1383.61 902.646 1383.63 902.859 1383.66 903.073C1383.69 903.238 1383.69 903.406 1383.73 903.566C1383.77 903.739 1383.84 903.905 1383.89 904.075C1383.95 904.262 1384.01 904.446 1384.08 904.625C1384.15 904.78 1384.24 904.921 1384.32 905.07H1384.33C1384.42 905.246 1384.51 905.42 1384.62 905.585C1384.72 905.724 1384.84 905.849 1384.95 905.98C1385.08 906.137 1385.21 906.289 1385.35 906.433C1385.46 906.538 1385.59 906.626 1385.71 906.724L1385.71 906.727C1385.89 906.876 1386.07 907.015 1386.26 907.143L1386.34 907.199H1386.34C1401.87 916.764 1413.31 931.579 1418.5 948.856C1423.7 966.133 1422.28 984.679 1414.53 1001C1407.9 1014.9 1395.94 1025.64 1381.25 1030.88C1366.57 1036.11 1350.38 1035.4 1336.23 1028.9C1325.13 1023.85 1316.55 1014.65 1312.39 1003.34C1312.29 1002.74 1312.1 1002.16 1311.82 1001.62C1308.47 991.238 1309.08 980.013 1313.54 970.043C1313.58 969.96 1313.68 969.691 1313.72 969.605L1314.05 968.867C1318.07 960.467 1325.32 953.977 1334.19 950.819C1343.08 947.66 1352.87 948.09 1361.42 952.016C1362.87 952.656 1364.24 953.449 1365.51 954.38C1370.78 957.981 1374.58 963.302 1376.23 969.397C1377.89 975.495 1377.28 981.968 1374.53 987.669C1372.22 992.558 1368.01 996.34 1362.85 998.181C1357.7 1000.02 1352.01 999.774 1347.03 997.491C1343.34 995.789 1340.49 992.719 1339.1 988.952C1337.71 985.186 1337.9 981.032 1339.62 977.402C1340.87 974.772 1343.12 972.737 1345.9 971.742C1348.67 970.747 1351.73 970.875 1354.41 972.097C1355.81 972.745 1357.42 972.82 1358.88 972.305C1360.34 971.787 1361.53 970.72 1362.18 969.341C1362.84 967.962 1362.91 966.381 1362.39 964.948C1361.86 963.518 1360.77 962.35 1359.36 961.707C1353.88 959.192 1347.61 958.923 1341.92 960.955C1336.24 962.988 1331.6 967.157 1329.05 972.545C1326.02 978.931 1325.69 986.237 1328.13 992.863C1330.58 999.486 1335.59 1004.89 1342.08 1007.88C1349.86 1011.46 1358.76 1011.85 1366.83 1008.97C1374.9 1006.09 1381.47 1000.18 1385.11 992.53C1389.03 984.412 1389.89 975.194 1387.55 966.509C1385.22 957.821 1379.82 950.23 1372.33 945.079C1370.46 943.716 1368.45 942.553 1366.33 941.606C1354.97 936.41 1341.98 935.847 1330.2 940.043C1318.42 944.239 1308.81 952.852 1303.48 963.996L1303.3 964.399C1303.11 964.807 1302.92 965.229 1302.76 965.631C1298.58 975.098 1297.12 985.511 1298.55 995.739C1282.16 991.025 1264.7 991.364 1248.52 996.71C1243.46 998.489 1238.55 1000.68 1233.8 1002.8C1221.89 1008.12 1210.65 1013.14 1198.2 1011.43H1198.2C1182.69 1008.96 1169.06 999.937 1160.9 986.745C1155.11 977.441 1153.34 966.248 1155.99 955.659L1155.99 955.658Z" fill="white"/>
<path d="M1143.23 1058.17C1142.89 1058.34 1142.55 1058.47 1142.18 1058.55C1141.82 1058.64 1141.44 1058.69 1141.05 1058.69C1139.87 1058.69 1138.94 1058.37 1138.26 1057.72C1137.57 1057.07 1137.22 1056.2 1137.22 1055.09C1137.22 1053.99 1137.57 1053.11 1138.26 1052.47C1138.94 1051.82 1139.87 1051.5 1141.05 1051.5C1141.44 1051.5 1141.82 1051.54 1142.18 1051.63C1142.55 1051.71 1142.89 1051.84 1143.23 1052.01V1053.44C1142.89 1053.22 1142.56 1053.06 1142.23 1052.95C1141.9 1052.84 1141.56 1052.79 1141.19 1052.79C1140.55 1052.79 1140.04 1053 1139.67 1053.41C1139.29 1053.81 1139.11 1054.38 1139.11 1055.09C1139.11 1055.81 1139.29 1056.37 1139.67 1056.78C1140.04 1057.19 1140.55 1057.39 1141.19 1057.39C1141.56 1057.39 1141.9 1057.34 1142.23 1057.24C1142.56 1057.13 1142.89 1056.97 1143.23 1056.74V1058.17Z" fill="white" fill-opacity="0.1"/>
<path d="M1148.59 1054.77C1148.44 1054.7 1148.29 1054.65 1148.14 1054.62C1148 1054.59 1147.85 1054.57 1147.71 1054.57C1147.27 1054.57 1146.94 1054.71 1146.7 1054.98C1146.47 1055.26 1146.35 1055.65 1146.35 1056.15V1058.55H1144.66V1053.35H1146.35V1054.21C1146.57 1053.87 1146.82 1053.62 1147.1 1053.46C1147.38 1053.3 1147.72 1053.23 1148.11 1053.23C1148.17 1053.23 1148.23 1053.23 1148.3 1053.24C1148.36 1053.24 1148.46 1053.25 1148.59 1053.26L1148.59 1054.77Z" fill="white" fill-opacity="0.1"/>
<path d="M1154.72 1055.94V1056.41H1150.76C1150.8 1056.8 1150.94 1057.1 1151.19 1057.29C1151.43 1057.49 1151.78 1057.58 1152.22 1057.58C1152.58 1057.58 1152.94 1057.53 1153.31 1057.43C1153.69 1057.32 1154.07 1057.17 1154.46 1056.96V1058.24C1154.06 1058.38 1153.66 1058.5 1153.26 1058.57C1152.86 1058.65 1152.46 1058.69 1152.06 1058.69C1151.11 1058.69 1150.36 1058.45 1149.83 1057.97C1149.3 1057.49 1149.03 1056.82 1149.03 1055.96C1149.03 1055.11 1149.3 1054.44 1149.82 1053.96C1150.34 1053.47 1151.06 1053.23 1151.97 1053.23C1152.8 1053.23 1153.46 1053.47 1153.97 1053.97C1154.46 1054.46 1154.72 1055.12 1154.72 1055.94ZM1152.98 1055.39C1152.98 1055.07 1152.88 1054.82 1152.7 1054.63C1152.51 1054.43 1152.26 1054.33 1151.96 1054.33C1151.63 1054.33 1151.37 1054.42 1151.16 1054.61C1150.96 1054.79 1150.83 1055.05 1150.78 1055.39H1152.98Z" fill="white" fill-opacity="0.1"/>
<path d="M1158.37 1056.21C1158.01 1056.21 1157.75 1056.27 1157.57 1056.39C1157.39 1056.5 1157.3 1056.68 1157.3 1056.91C1157.3 1057.12 1157.38 1057.29 1157.52 1057.41C1157.66 1057.52 1157.86 1057.58 1158.11 1057.58C1158.43 1057.58 1158.7 1057.47 1158.92 1057.25C1159.14 1057.02 1159.25 1056.74 1159.25 1056.4V1056.21L1158.37 1056.21ZM1160.95 1055.59V1058.55H1159.25V1057.78C1159.02 1058.1 1158.76 1058.33 1158.48 1058.47C1158.2 1058.61 1157.85 1058.69 1157.44 1058.69C1156.9 1058.69 1156.45 1058.53 1156.11 1058.22C1155.77 1057.9 1155.6 1057.5 1155.6 1056.99C1155.6 1056.39 1155.81 1055.94 1156.23 1055.66C1156.66 1055.37 1157.33 1055.23 1158.25 1055.23H1159.25V1055.09C1159.25 1054.83 1159.14 1054.64 1158.93 1054.52C1158.72 1054.4 1158.39 1054.33 1157.94 1054.33C1157.58 1054.33 1157.24 1054.37 1156.93 1054.44C1156.62 1054.51 1156.33 1054.62 1156.06 1054.76V1053.49C1156.42 1053.41 1156.78 1053.34 1157.15 1053.29C1157.51 1053.25 1157.88 1053.23 1158.25 1053.23C1159.2 1053.23 1159.89 1053.41 1160.31 1053.78C1160.74 1054.15 1160.95 1054.75 1160.95 1055.59Z" fill="white" fill-opacity="0.1"/>
<path d="M1164.37 1051.88V1053.35H1166.12V1054.54H1164.37V1056.75C1164.37 1056.99 1164.42 1057.15 1164.52 1057.24C1164.62 1057.32 1164.81 1057.36 1165.1 1057.36H1165.97V1058.55H1164.52C1163.85 1058.55 1163.37 1058.42 1163.09 1058.14C1162.82 1057.87 1162.68 1057.4 1162.68 1056.75V1054.54H1161.84V1053.35H1162.68V1051.88H1164.37Z" fill="white" fill-opacity="0.1"/>
<path d="M1172.43 1055.94V1056.41H1168.48C1168.52 1056.8 1168.66 1057.1 1168.91 1057.29C1169.15 1057.49 1169.5 1057.58 1169.94 1057.58C1170.3 1057.58 1170.66 1057.53 1171.03 1057.43C1171.4 1057.32 1171.79 1057.17 1172.18 1056.96V1058.24C1171.78 1058.38 1171.38 1058.5 1170.98 1058.57C1170.58 1058.65 1170.18 1058.69 1169.78 1058.69C1168.82 1058.69 1168.08 1058.45 1167.55 1057.97C1167.02 1057.49 1166.75 1056.82 1166.75 1055.96C1166.75 1055.11 1167.01 1054.44 1167.54 1053.96C1168.06 1053.47 1168.77 1053.23 1169.69 1053.23C1170.52 1053.23 1171.18 1053.47 1171.68 1053.97C1172.18 1054.46 1172.43 1055.12 1172.43 1055.94ZM1170.7 1055.39C1170.7 1055.07 1170.6 1054.82 1170.41 1054.63C1170.23 1054.43 1169.98 1054.33 1169.68 1054.33C1169.35 1054.33 1169.09 1054.42 1168.88 1054.61C1168.68 1054.79 1168.55 1055.05 1168.5 1055.39H1170.7Z" fill="white" fill-opacity="0.1"/>
<path d="M1177.31 1054.11V1051.33H1179.01V1058.55H1177.31V1057.8C1177.08 1058.11 1176.83 1058.33 1176.55 1058.47C1176.26 1058.61 1175.94 1058.69 1175.57 1058.69C1174.92 1058.69 1174.38 1058.43 1173.96 1057.92C1173.55 1057.41 1173.34 1056.76 1173.34 1055.96C1173.34 1055.16 1173.55 1054.5 1173.96 1053.99C1174.38 1053.48 1174.92 1053.23 1175.57 1053.23C1175.93 1053.23 1176.26 1053.3 1176.54 1053.44C1176.82 1053.59 1177.08 1053.81 1177.31 1054.11ZM1176.2 1057.48C1176.56 1057.48 1176.83 1057.35 1177.03 1057.09C1177.22 1056.83 1177.31 1056.45 1177.31 1055.96C1177.31 1055.46 1177.22 1055.09 1177.03 1054.83C1176.83 1054.57 1176.56 1054.44 1176.2 1054.44C1175.84 1054.44 1175.56 1054.57 1175.37 1054.83C1175.18 1055.09 1175.09 1055.46 1175.09 1055.96C1175.09 1056.45 1175.18 1056.83 1175.37 1057.09C1175.56 1057.35 1175.84 1057.48 1176.2 1057.48Z" fill="white" fill-opacity="0.1"/>
<path d="M1186.83 1057.48C1187.19 1057.48 1187.47 1057.35 1187.66 1057.09C1187.85 1056.83 1187.94 1056.45 1187.94 1055.96C1187.94 1055.46 1187.85 1055.09 1187.66 1054.83C1187.47 1054.57 1187.19 1054.44 1186.83 1054.44C1186.46 1054.44 1186.18 1054.57 1185.99 1054.83C1185.8 1055.09 1185.7 1055.47 1185.7 1055.96C1185.7 1056.45 1185.8 1056.83 1185.99 1057.09C1186.18 1057.35 1186.46 1057.48 1186.83 1057.48ZM1185.7 1054.11C1185.94 1053.81 1186.19 1053.59 1186.47 1053.44C1186.76 1053.3 1187.08 1053.23 1187.45 1053.23C1188.11 1053.23 1188.64 1053.48 1189.06 1053.99C1189.48 1054.5 1189.69 1055.16 1189.69 1055.96C1189.69 1056.76 1189.48 1057.41 1189.06 1057.92C1188.64 1058.43 1188.11 1058.69 1187.45 1058.69C1187.08 1058.69 1186.76 1058.61 1186.47 1058.47C1186.19 1058.33 1185.94 1058.1 1185.7 1057.8V1058.55H1184.01V1051.33H1185.7V1054.11Z" fill="white" fill-opacity="0.1"/>
<path d="M1190.24 1053.35H1191.93L1193.36 1056.88L1194.57 1053.35H1196.26L1194.03 1059.05C1193.81 1059.62 1193.55 1060.03 1193.25 1060.26C1192.95 1060.49 1192.56 1060.61 1192.07 1060.61H1191.09V1059.51H1191.62C1191.91 1059.51 1192.12 1059.47 1192.25 1059.38C1192.38 1059.29 1192.48 1059.13 1192.55 1058.9L1192.6 1058.76L1190.24 1053.35Z" fill="white" fill-opacity="0.1"/>
<path d="M1204.97 1057.29H1202.13L1201.68 1058.55H1199.85L1202.46 1051.62H1204.63L1207.24 1058.55H1205.42L1204.97 1057.29ZM1202.58 1056.01H1204.51L1203.55 1053.25L1202.58 1056.01Z" fill="white" fill-opacity="0.1"/>
<path d="M1213.43 1055.39V1058.55H1211.72V1056.13C1211.72 1055.68 1211.71 1055.37 1211.69 1055.2C1211.67 1055.03 1211.63 1054.9 1211.58 1054.82C1211.52 1054.72 1211.43 1054.63 1211.31 1054.57C1211.2 1054.51 1211.07 1054.48 1210.93 1054.48C1210.58 1054.48 1210.3 1054.62 1210.1 1054.89C1209.9 1055.15 1209.8 1055.52 1209.8 1056V1058.55H1208.11V1053.35H1209.8V1054.11C1210.05 1053.81 1210.32 1053.59 1210.61 1053.44C1210.89 1053.3 1211.21 1053.23 1211.56 1053.23C1212.17 1053.23 1212.63 1053.41 1212.95 1053.78C1213.27 1054.15 1213.43 1054.68 1213.43 1055.39Z" fill="white" fill-opacity="0.1"/>
<path d="M1216.84 1051.88V1053.35H1218.59V1054.54H1216.84V1056.75C1216.84 1056.99 1216.89 1057.15 1216.99 1057.24C1217.09 1057.32 1217.28 1057.36 1217.57 1057.36H1218.44V1058.55H1216.99C1216.32 1058.55 1215.84 1058.42 1215.56 1058.14C1215.28 1057.87 1215.15 1057.4 1215.15 1056.75V1054.54H1214.31V1053.35H1215.15V1051.88H1216.84Z" fill="white" fill-opacity="0.1"/>
<path d="M1224.94 1055.39V1058.55H1223.24V1056.14C1223.24 1055.68 1223.23 1055.37 1223.21 1055.2C1223.18 1055.03 1223.15 1054.9 1223.1 1054.82C1223.03 1054.72 1222.94 1054.63 1222.83 1054.57C1222.72 1054.51 1222.59 1054.48 1222.44 1054.48C1222.09 1054.48 1221.81 1054.62 1221.61 1054.89C1221.41 1055.15 1221.31 1055.52 1221.31 1056V1058.55H1219.62V1051.33H1221.31V1054.11C1221.57 1053.81 1221.84 1053.59 1222.12 1053.44C1222.41 1053.3 1222.73 1053.23 1223.07 1053.23C1223.68 1053.23 1224.15 1053.41 1224.46 1053.78C1224.78 1054.15 1224.94 1054.68 1224.94 1055.39Z" fill="white" fill-opacity="0.1"/>
<path d="M1229.03 1054.41C1228.65 1054.41 1228.37 1054.55 1228.17 1054.81C1227.97 1055.08 1227.87 1055.46 1227.87 1055.96C1227.87 1056.46 1227.97 1056.84 1228.17 1057.1C1228.37 1057.37 1228.65 1057.5 1229.03 1057.5C1229.39 1057.5 1229.67 1057.37 1229.87 1057.1C1230.07 1056.84 1230.17 1056.46 1230.17 1055.96C1230.17 1055.46 1230.07 1055.08 1229.87 1054.81C1229.67 1054.55 1229.39 1054.41 1229.03 1054.41ZM1229.03 1053.22C1229.94 1053.22 1230.65 1053.47 1231.16 1053.95C1231.67 1054.43 1231.93 1055.1 1231.93 1055.96C1231.93 1056.81 1231.67 1057.48 1231.16 1057.96C1230.65 1058.45 1229.94 1058.69 1229.03 1058.69C1228.11 1058.69 1227.4 1058.45 1226.88 1057.96C1226.37 1057.48 1226.11 1056.81 1226.11 1055.96C1226.11 1055.1 1226.37 1054.43 1226.88 1053.95C1227.4 1053.47 1228.11 1053.22 1229.03 1053.22Z" fill="white" fill-opacity="0.1"/>
<path d="M1238.48 1055.39V1058.55H1236.78V1056.13C1236.78 1055.68 1236.77 1055.37 1236.74 1055.2C1236.72 1055.03 1236.69 1054.9 1236.64 1054.82C1236.57 1054.72 1236.48 1054.63 1236.37 1054.57C1236.25 1054.51 1236.13 1054.48 1235.98 1054.48C1235.63 1054.48 1235.35 1054.62 1235.15 1054.89C1234.95 1055.15 1234.85 1055.52 1234.85 1056V1058.55H1233.16V1053.35H1234.85V1054.11C1235.1 1053.81 1235.37 1053.59 1235.66 1053.44C1235.95 1053.3 1236.26 1053.23 1236.61 1053.23C1237.22 1053.23 1237.68 1053.41 1238 1053.78C1238.32 1054.15 1238.48 1054.68 1238.48 1055.39Z" fill="white" fill-opacity="0.1"/>
<path d="M1239.35 1053.35H1241.04L1242.47 1056.88L1243.68 1053.35H1245.37L1243.14 1059.05C1242.92 1059.62 1242.66 1060.03 1242.36 1060.26C1242.06 1060.49 1241.67 1060.61 1241.18 1060.61H1240.2V1059.51H1240.73C1241.02 1059.51 1241.22 1059.47 1241.35 1059.38C1241.49 1059.29 1241.59 1059.13 1241.66 1058.9L1241.71 1058.76L1239.35 1053.35Z" fill="white" fill-opacity="0.1"/>
<path d="M1249.8 1051.62H1251.61V1057.2H1254.81V1058.55H1249.8V1051.62Z" fill="white" fill-opacity="0.1"/>
<path d="M1261.17 1055.94V1056.41H1257.21C1257.26 1056.8 1257.4 1057.1 1257.65 1057.29C1257.89 1057.49 1258.23 1057.58 1258.68 1057.58C1259.03 1057.58 1259.4 1057.53 1259.77 1057.43C1260.14 1057.32 1260.53 1057.17 1260.92 1056.96V1058.24C1260.52 1058.38 1260.12 1058.5 1259.72 1058.57C1259.32 1058.65 1258.92 1058.69 1258.52 1058.69C1257.56 1058.69 1256.82 1058.45 1256.28 1057.97C1255.76 1057.49 1255.49 1056.82 1255.49 1055.96C1255.49 1055.11 1255.75 1054.44 1256.27 1053.96C1256.79 1053.47 1257.51 1053.23 1258.42 1053.23C1259.25 1053.23 1259.92 1053.47 1260.42 1053.97C1260.92 1054.46 1261.17 1055.12 1261.17 1055.94ZM1259.43 1055.39C1259.43 1055.07 1259.34 1054.82 1259.15 1054.63C1258.96 1054.43 1258.72 1054.33 1258.42 1054.33C1258.09 1054.33 1257.82 1054.42 1257.62 1054.61C1257.41 1054.79 1257.28 1055.05 1257.24 1055.39H1259.43Z" fill="white" fill-opacity="0.1"/>
<path d="M1266.05 1054.11V1051.33H1267.75V1058.55H1266.05V1057.8C1265.82 1058.11 1265.57 1058.33 1265.28 1058.47C1265 1058.61 1264.68 1058.69 1264.31 1058.69C1263.66 1058.69 1263.12 1058.43 1262.7 1057.92C1262.29 1057.41 1262.08 1056.76 1262.08 1055.96C1262.08 1055.16 1262.29 1054.5 1262.7 1053.99C1263.12 1053.48 1263.66 1053.23 1264.31 1053.23C1264.67 1053.23 1265 1053.3 1265.28 1053.44C1265.56 1053.59 1265.82 1053.81 1266.05 1054.11ZM1264.94 1057.48C1265.3 1057.48 1265.57 1057.35 1265.77 1057.09C1265.96 1056.83 1266.05 1056.45 1266.05 1055.96C1266.05 1055.46 1265.96 1055.09 1265.77 1054.83C1265.57 1054.57 1265.3 1054.44 1264.94 1054.44C1264.58 1054.44 1264.3 1054.57 1264.11 1054.83C1263.92 1055.09 1263.83 1055.46 1263.83 1055.96C1263.83 1056.45 1263.92 1056.83 1264.11 1057.09C1264.3 1057.35 1264.58 1057.48 1264.94 1057.48Z" fill="white" fill-opacity="0.1"/>
<path d="M1271.9 1054.41C1271.52 1054.41 1271.24 1054.55 1271.04 1054.81C1270.84 1055.08 1270.74 1055.46 1270.74 1055.96C1270.74 1056.46 1270.84 1056.84 1271.04 1057.1C1271.24 1057.37 1271.52 1057.5 1271.9 1057.5C1272.26 1057.5 1272.55 1057.37 1272.74 1057.1C1272.94 1056.84 1273.04 1056.46 1273.04 1055.96C1273.04 1055.46 1272.94 1055.08 1272.74 1054.81C1272.55 1054.55 1272.26 1054.41 1271.9 1054.41ZM1271.9 1053.22C1272.81 1053.22 1273.52 1053.47 1274.03 1053.95C1274.54 1054.43 1274.8 1055.1 1274.8 1055.96C1274.8 1056.81 1274.54 1057.48 1274.03 1057.96C1273.52 1058.45 1272.81 1058.69 1271.9 1058.69C1270.98 1058.69 1270.27 1058.45 1269.75 1057.96C1269.24 1057.48 1268.98 1056.81 1268.98 1055.96C1268.98 1055.1 1269.24 1054.43 1269.75 1053.95C1270.27 1053.47 1270.98 1053.22 1271.9 1053.22Z" fill="white" fill-opacity="0.1"/>
<path d="M1275.97 1056.53V1053.35H1277.67V1053.87C1277.67 1054.16 1277.67 1054.51 1277.67 1054.93C1277.66 1055.36 1277.66 1055.64 1277.66 1055.78C1277.66 1056.21 1277.67 1056.51 1277.69 1056.69C1277.72 1056.88 1277.76 1057.01 1277.81 1057.09C1277.88 1057.2 1277.97 1057.28 1278.08 1057.34C1278.19 1057.4 1278.32 1057.43 1278.47 1057.43C1278.82 1057.43 1279.1 1057.3 1279.3 1057.03C1279.5 1056.76 1279.6 1056.4 1279.6 1055.92V1053.35H1281.29V1058.55H1279.6V1057.8C1279.34 1058.1 1279.07 1058.33 1278.79 1058.47C1278.51 1058.61 1278.19 1058.69 1277.85 1058.69C1277.24 1058.69 1276.77 1058.5 1276.45 1058.13C1276.13 1057.77 1275.97 1057.23 1275.97 1056.53Z" fill="white" fill-opacity="0.1"/>
<path d="M1284.25 1055.89L1282.35 1053.35H1284.13L1285.22 1054.89L1286.31 1053.35H1288.1L1286.2 1055.88L1288.2 1058.55H1286.41L1285.22 1056.91L1284.04 1058.55H1282.25L1284.25 1055.89Z" fill="white" fill-opacity="0.1"/>
<path d="M1141.04 1060.84V1061.93H1140.1C1139.86 1061.93 1139.7 1061.97 1139.6 1062.06C1139.51 1062.14 1139.46 1062.29 1139.46 1062.5V1062.86H1140.91V1064.05H1139.46V1068.06H1137.77V1064.05H1136.93V1062.86H1137.77V1062.5C1137.77 1061.94 1137.93 1061.52 1138.25 1061.24C1138.57 1060.97 1139.07 1060.84 1139.75 1060.84L1141.04 1060.84Z" fill="white" fill-opacity="0.1"/>
<path d="M1145.7 1064.28C1145.55 1064.21 1145.4 1064.16 1145.25 1064.13C1145.11 1064.1 1144.96 1064.08 1144.82 1064.08C1144.38 1064.08 1144.04 1064.22 1143.81 1064.49C1143.58 1064.77 1143.46 1065.16 1143.46 1065.66V1068.06H1141.77V1062.86H1143.46V1063.72C1143.68 1063.38 1143.92 1063.13 1144.2 1062.97C1144.49 1062.81 1144.83 1062.74 1145.22 1062.74C1145.28 1062.74 1145.34 1062.74 1145.4 1062.75C1145.47 1062.75 1145.57 1062.76 1145.7 1062.77L1145.7 1064.28Z" fill="white" fill-opacity="0.1"/>
<path d="M1149.06 1063.92C1148.68 1063.92 1148.4 1064.06 1148.2 1064.32C1148 1064.59 1147.9 1064.97 1147.9 1065.47C1147.9 1065.97 1148 1066.35 1148.2 1066.61C1148.4 1066.88 1148.68 1067.01 1149.06 1067.01C1149.43 1067.01 1149.71 1066.88 1149.9 1066.61C1150.1 1066.35 1150.2 1065.97 1150.2 1065.47C1150.2 1064.97 1150.1 1064.59 1149.9 1064.32C1149.71 1064.06 1149.43 1063.92 1149.06 1063.92ZM1149.06 1062.74C1149.97 1062.74 1150.68 1062.98 1151.19 1063.46C1151.7 1063.94 1151.96 1064.61 1151.96 1065.47C1151.96 1066.32 1151.7 1066.99 1151.19 1067.47C1150.68 1067.96 1149.97 1068.2 1149.06 1068.2C1148.14 1068.2 1147.43 1067.96 1146.92 1067.47C1146.4 1066.99 1146.14 1066.32 1146.14 1065.47C1146.14 1064.61 1146.4 1063.94 1146.92 1063.46C1147.43 1062.98 1148.14 1062.74 1149.06 1062.74Z" fill="white" fill-opacity="0.1"/>
<path d="M1158.09 1063.73C1158.31 1063.41 1158.56 1063.16 1158.85 1062.99C1159.15 1062.82 1159.47 1062.74 1159.83 1062.74C1160.43 1062.74 1160.9 1062.92 1161.21 1063.29C1161.53 1063.66 1161.7 1064.19 1161.7 1064.9V1068.06H1159.99V1065.35V1065.23C1160 1065.18 1160 1065.12 1160 1065.04C1160 1064.67 1159.94 1064.41 1159.83 1064.24C1159.72 1064.08 1159.55 1063.99 1159.3 1063.99C1158.98 1063.99 1158.73 1064.12 1158.56 1064.39C1158.38 1064.64 1158.29 1065.02 1158.29 1065.51V1068.06H1156.59V1065.35C1156.59 1064.78 1156.54 1064.41 1156.44 1064.24C1156.33 1064.08 1156.15 1063.99 1155.9 1063.99C1155.57 1063.99 1155.32 1064.12 1155.14 1064.39C1154.97 1064.64 1154.88 1065.02 1154.88 1065.51V1068.06H1153.18V1062.86H1154.88V1063.62C1155.09 1063.33 1155.33 1063.11 1155.59 1062.96C1155.86 1062.81 1156.16 1062.74 1156.48 1062.74C1156.85 1062.74 1157.18 1062.82 1157.46 1063C1157.74 1063.17 1157.95 1063.41 1158.09 1063.73Z" fill="white" fill-opacity="0.1"/>
<path d="M1168.49 1061.39V1062.86H1170.23V1064.05H1168.49V1066.26C1168.49 1066.5 1168.54 1066.66 1168.64 1066.75C1168.73 1066.83 1168.92 1066.87 1169.21 1066.87H1170.08V1068.06H1168.64C1167.97 1068.06 1167.49 1067.93 1167.21 1067.66C1166.93 1067.38 1166.79 1066.91 1166.79 1066.26V1064.05H1165.96V1062.86H1166.79V1061.39H1168.49Z" fill="white" fill-opacity="0.1"/>
<path d="M1176.59 1064.9V1068.06H1174.89V1065.65C1174.89 1065.19 1174.87 1064.88 1174.85 1064.71C1174.83 1064.54 1174.8 1064.42 1174.75 1064.33C1174.68 1064.23 1174.59 1064.14 1174.48 1064.08C1174.36 1064.02 1174.23 1063.99 1174.09 1063.99C1173.74 1063.99 1173.46 1064.13 1173.26 1064.4C1173.06 1064.66 1172.96 1065.03 1172.96 1065.51V1068.06H1171.27V1060.84H1172.96V1063.62C1173.21 1063.32 1173.48 1063.1 1173.77 1062.95C1174.06 1062.81 1174.37 1062.74 1174.72 1062.74C1175.33 1062.74 1175.79 1062.92 1176.11 1063.29C1176.43 1063.66 1176.59 1064.19 1176.59 1064.9Z" fill="white" fill-opacity="0.1"/>
<path d="M1183.44 1065.45V1065.92H1179.48C1179.52 1066.31 1179.67 1066.61 1179.91 1066.8C1180.16 1067 1180.5 1067.09 1180.94 1067.09C1181.3 1067.09 1181.66 1067.04 1182.03 1066.94C1182.41 1066.83 1182.79 1066.68 1183.18 1066.47V1067.75C1182.78 1067.89 1182.39 1068.01 1181.99 1068.08C1181.59 1068.16 1181.19 1068.2 1180.79 1068.2C1179.83 1068.2 1179.08 1067.96 1178.55 1067.48C1178.02 1067 1177.76 1066.33 1177.76 1065.47C1177.76 1064.62 1178.02 1063.95 1178.54 1063.47C1179.06 1062.98 1179.78 1062.74 1180.69 1062.74C1181.52 1062.74 1182.19 1062.98 1182.69 1063.48C1183.19 1063.97 1183.44 1064.63 1183.44 1065.45ZM1181.7 1064.9C1181.7 1064.58 1181.61 1064.33 1181.42 1064.14C1181.23 1063.94 1180.99 1063.84 1180.68 1063.84C1180.36 1063.84 1180.09 1063.93 1179.89 1064.12C1179.68 1064.3 1179.55 1064.56 1179.5 1064.9H1181.7Z" fill="white" fill-opacity="0.1"/>
<path d="M1188.17 1061.13H1190.2L1192.76 1065.89V1061.13H1194.48V1068.06H1192.45L1189.89 1063.31V1068.06H1188.17V1061.13Z" fill="white" fill-opacity="0.1"/>
<path d="M1198.7 1063.92C1198.33 1063.92 1198.04 1064.06 1197.85 1064.32C1197.65 1064.59 1197.55 1064.97 1197.55 1065.47C1197.55 1065.97 1197.65 1066.35 1197.85 1066.61C1198.04 1066.88 1198.33 1067.01 1198.7 1067.01C1199.07 1067.01 1199.35 1066.88 1199.55 1066.61C1199.74 1066.35 1199.84 1065.97 1199.84 1065.47C1199.84 1064.97 1199.74 1064.59 1199.55 1064.32C1199.35 1064.06 1199.07 1063.92 1198.7 1063.92ZM1198.7 1062.74C1199.61 1062.74 1200.33 1062.98 1200.84 1063.46C1201.35 1063.94 1201.6 1064.61 1201.6 1065.47C1201.6 1066.32 1201.35 1066.99 1200.84 1067.47C1200.33 1067.96 1199.61 1068.2 1198.7 1068.2C1197.79 1068.2 1197.08 1067.96 1196.56 1067.47C1196.05 1066.99 1195.79 1066.32 1195.79 1065.47C1195.79 1064.61 1196.05 1063.94 1196.56 1063.46C1197.08 1062.98 1197.79 1062.74 1198.7 1062.74Z" fill="white" fill-opacity="0.1"/>
<path d="M1202.78 1066.04V1062.86H1204.48V1063.38C1204.48 1063.67 1204.48 1064.02 1204.47 1064.44C1204.47 1064.87 1204.47 1065.15 1204.47 1065.29C1204.47 1065.72 1204.48 1066.02 1204.5 1066.2C1204.53 1066.39 1204.56 1066.52 1204.61 1066.6C1204.69 1066.71 1204.78 1066.79 1204.89 1066.85C1205 1066.91 1205.13 1066.94 1205.27 1066.94C1205.63 1066.94 1205.9 1066.81 1206.11 1066.54C1206.31 1066.28 1206.41 1065.91 1206.41 1065.43V1062.86H1208.1V1068.06H1206.41V1067.31C1206.15 1067.61 1205.88 1067.84 1205.6 1067.98C1205.31 1068.12 1205 1068.2 1204.65 1068.2C1204.04 1068.2 1203.58 1068.01 1203.26 1067.64C1202.94 1067.28 1202.78 1066.74 1202.78 1066.04Z" fill="white" fill-opacity="0.1"/>
<path d="M1215.05 1064.9V1068.06H1213.35V1065.64C1213.35 1065.19 1213.33 1064.88 1213.31 1064.71C1213.29 1064.54 1213.25 1064.41 1213.2 1064.33C1213.14 1064.23 1213.05 1064.14 1212.93 1064.08C1212.82 1064.02 1212.69 1063.99 1212.55 1063.99C1212.2 1063.99 1211.92 1064.13 1211.72 1064.4C1211.52 1064.66 1211.42 1065.03 1211.42 1065.51V1068.06H1209.73V1062.86H1211.42V1063.62C1211.67 1063.32 1211.94 1063.1 1212.23 1062.95C1212.51 1062.81 1212.83 1062.74 1213.18 1062.74C1213.79 1062.74 1214.25 1062.92 1214.57 1063.29C1214.89 1063.66 1215.05 1064.19 1215.05 1064.9Z" fill="white" fill-opacity="0.1"/>
<path d="M1220.06 1061.13H1223.08C1223.97 1061.13 1224.66 1061.33 1225.14 1061.72C1225.62 1062.11 1225.86 1062.67 1225.86 1063.39C1225.86 1064.12 1225.62 1064.68 1225.14 1065.07C1224.66 1065.46 1223.97 1065.66 1223.08 1065.66H1221.87V1068.06H1220.06V1061.13ZM1221.87 1062.43V1064.36H1222.88C1223.24 1064.36 1223.51 1064.28 1223.7 1064.11C1223.89 1063.94 1223.99 1063.7 1223.99 1063.39C1223.99 1063.08 1223.89 1062.84 1223.7 1062.68C1223.51 1062.51 1223.24 1062.43 1222.88 1062.43L1221.87 1062.43Z" fill="white" fill-opacity="0.1"/>
<path d="M1231.01 1064.28C1230.86 1064.21 1230.71 1064.16 1230.56 1064.13C1230.42 1064.1 1230.27 1064.08 1230.12 1064.08C1229.69 1064.08 1229.35 1064.22 1229.12 1064.49C1228.88 1064.77 1228.77 1065.16 1228.77 1065.66V1068.06H1227.08V1062.86H1228.77V1063.72C1228.98 1063.38 1229.23 1063.13 1229.51 1062.97C1229.8 1062.81 1230.13 1062.74 1230.53 1062.74C1230.58 1062.74 1230.65 1062.74 1230.71 1062.75C1230.78 1062.75 1230.88 1062.76 1231 1062.77L1231.01 1064.28Z" fill="white" fill-opacity="0.1"/>
<path d="M1234.36 1063.92C1233.99 1063.92 1233.7 1064.06 1233.51 1064.32C1233.31 1064.59 1233.21 1064.97 1233.21 1065.47C1233.21 1065.97 1233.31 1066.35 1233.51 1066.61C1233.7 1066.88 1233.99 1067.01 1234.36 1067.01C1234.73 1067.01 1235.01 1066.88 1235.21 1066.61C1235.4 1066.35 1235.5 1065.97 1235.5 1065.47C1235.5 1064.97 1235.4 1064.59 1235.21 1064.32C1235.01 1064.06 1234.73 1063.92 1234.36 1063.92ZM1234.36 1062.74C1235.27 1062.74 1235.99 1062.98 1236.5 1063.46C1237.01 1063.94 1237.26 1064.61 1237.26 1065.47C1237.26 1066.32 1237.01 1066.99 1236.5 1067.47C1235.99 1067.96 1235.27 1068.2 1234.36 1068.2C1233.45 1068.2 1232.74 1067.96 1232.22 1067.47C1231.71 1066.99 1231.45 1066.32 1231.45 1065.47C1231.45 1064.61 1231.71 1063.94 1232.22 1063.46C1232.74 1062.98 1233.45 1062.74 1234.36 1062.74Z" fill="white" fill-opacity="0.1"/>
<path d="M1238.5 1062.86H1240.19V1067.97C1240.19 1068.66 1240.02 1069.2 1239.68 1069.57C1239.34 1069.93 1238.84 1070.12 1238.2 1070.12H1237.36V1069.02H1237.66C1237.98 1069.02 1238.2 1068.95 1238.31 1068.81C1238.44 1068.67 1238.5 1068.39 1238.5 1067.97L1238.5 1062.86ZM1238.5 1060.84H1240.19V1062.19H1238.5V1060.84Z" fill="white" fill-opacity="0.1"/>
<path d="M1247.1 1065.45V1065.92H1243.14C1243.18 1066.31 1243.32 1066.61 1243.57 1066.8C1243.81 1067 1244.16 1067.09 1244.6 1067.09C1244.96 1067.09 1245.32 1067.04 1245.69 1066.94C1246.07 1066.83 1246.45 1066.68 1246.84 1066.47V1067.75C1246.44 1067.89 1246.04 1068.01 1245.64 1068.08C1245.24 1068.16 1244.84 1068.2 1244.44 1068.2C1243.49 1068.2 1242.74 1067.96 1242.21 1067.48C1241.68 1067 1241.42 1066.33 1241.42 1065.47C1241.42 1064.62 1241.68 1063.95 1242.2 1063.47C1242.72 1062.98 1243.44 1062.74 1244.35 1062.74C1245.18 1062.74 1245.84 1062.98 1246.35 1063.48C1246.84 1063.97 1247.1 1064.63 1247.1 1065.45ZM1245.36 1064.9C1245.36 1064.58 1245.26 1064.33 1245.08 1064.14C1244.89 1063.94 1244.64 1063.84 1244.34 1063.84C1244.01 1063.84 1243.75 1063.93 1243.54 1064.12C1243.34 1064.3 1243.21 1064.56 1243.16 1064.9H1245.36Z" fill="white" fill-opacity="0.1"/>
<path d="M1252.65 1063.03V1064.38C1252.42 1064.23 1252.19 1064.11 1251.96 1064.04C1251.73 1063.96 1251.49 1063.92 1251.24 1063.92C1250.77 1063.92 1250.4 1064.06 1250.13 1064.33C1249.87 1064.6 1249.74 1064.98 1249.74 1065.47C1249.74 1065.95 1249.87 1066.33 1250.13 1066.6C1250.4 1066.87 1250.77 1067.01 1251.24 1067.01C1251.5 1067.01 1251.75 1066.97 1251.99 1066.9C1252.23 1066.82 1252.45 1066.7 1252.65 1066.55V1067.91C1252.39 1068.01 1252.12 1068.08 1251.85 1068.12C1251.58 1068.17 1251.3 1068.2 1251.03 1068.2C1250.07 1068.2 1249.32 1067.96 1248.78 1067.47C1248.25 1066.99 1247.98 1066.33 1247.98 1065.47C1247.98 1064.61 1248.25 1063.94 1248.78 1063.46C1249.32 1062.98 1250.07 1062.74 1251.03 1062.74C1251.3 1062.74 1251.58 1062.76 1251.85 1062.81C1252.12 1062.86 1252.38 1062.93 1252.65 1063.03Z" fill="white" fill-opacity="0.1"/>
<path d="M1255.96 1061.39V1062.86H1257.71V1064.05H1255.96V1066.26C1255.96 1066.5 1256.01 1066.66 1256.11 1066.75C1256.2 1066.83 1256.4 1066.87 1256.68 1066.87H1257.55V1068.06H1256.11C1255.44 1068.06 1254.96 1067.93 1254.68 1067.65C1254.4 1067.38 1254.27 1066.91 1254.27 1066.26V1064.05H1253.43V1062.86H1254.27V1061.39H1255.96Z" fill="white" fill-opacity="0.1"/>
</mask>
<g mask="url(#mask1_193_1765)">
<rect x="-92.0146" y="463.395" width="1698.47" height="1102.82" fill="#FFA3B3"/>
</g>
<path d="M-204.971 919.813C-204.623 914.028 -201.218 908.79 -195.398 904.845C-197.622 898.429 -197.199 892.359 -194.07 887.604C-189.96 881.303 -182.117 878.254 -172.016 879.011C-165.068 879.535 -157.476 881.929 -150.143 885.71C-154.539 864.91 -148.519 847.224 -135.228 843.818C-129.49 842.366 -123.323 843.906 -117.665 848.072C-112.089 844.041 -106.036 842.547 -100.402 843.98C-87.4915 847.247 -81.391 864.005 -85.0155 884.016C-73.467 877.623 -61.3374 874.969 -52.0037 876.973C-46.4795 878.152 -42.1554 880.912 -39.4978 884.963C-36.2975 889.839 -35.888 896.024 -38.2024 902.538C-32.5354 906.464 -29.2208 911.627 -28.878 917.283C-28.0684 930.266 -42.5262 941.182 -63.2382 943.994C-62.1714 944.945 -61.0809 945.878 -60.0951 946.875C-31.2076 947.042 -8.23418 946.945 8.09129 946.587C19.5636 946.411 30.2784 949.32 39.8888 953.617L2.22843 913.303C0.280615 911.224 -0.147918 908.194 1.14264 905.68L10.2195 887.946L-16.9344 876.44C-20.4774 874.941 -22.1014 870.928 -20.5585 867.48C-19.0155 864.038 -14.9152 862.446 -11.3625 863.954L16.4679 875.748L29.5164 850.257L24.054 836.951C21.8396 842.398 18.1964 846.416 13.3342 848.244C11.2864 849.037 9.12909 849.432 6.89563 849.432C4.13355 849.432 1.26188 848.824 -1.6098 847.608C-9.9437 844.096 -17.7914 835.777 -23.3117 824.865C-26.9881 832.539 -31.8314 839.206 -37.3512 843.813C-42.8326 848.383 -48.5473 850.736 -53.9425 850.736C-56.1332 850.736 -58.2714 850.351 -60.324 849.567C-65.853 847.469 -69.9199 842.69 -71.9914 836.065C-72.1057 836.07 -72.2153 836.07 -72.3248 836.07C-79.1301 836.07 -84.7966 833.801 -88.4211 829.491C-93.2882 823.737 -93.8405 815.544 -89.9831 806.412C-87.4019 800.32 -82.9301 794.206 -77.2394 788.72C-98.8316 786.326 -114.085 775.195 -113.289 761.879C-112.942 756.098 -109.537 750.86 -103.717 746.911C-105.941 740.499 -105.517 734.43 -102.389 729.669C-98.2787 723.373 -90.5162 720.306 -80.3245 721.076C-73.3764 721.601 -65.7802 723.995 -58.4557 727.781C-62.8608 706.981 -56.846 689.29 -43.5493 685.888C-37.8013 684.431 -31.6389 685.981 -25.9864 690.143C-20.4098 686.111 -14.3474 684.635 -8.71851 686.051C4.18728 689.317 10.2879 706.08 6.65848 726.087C18.207 719.693 30.3317 717.053 39.6703 719.044C45.1945 720.222 49.5186 722.983 52.1762 727.033C55.3717 731.914 55.7812 738.094 53.4715 744.609C59.1386 748.534 62.4532 753.698 62.796 759.354C63.6008 772.317 49.1904 783.225 28.5321 786.055C38.2995 794.777 44.6004 805.161 45.5281 814.427C46.0805 819.902 44.7138 824.76 41.5849 828.466C40.3278 829.951 38.7942 831.13 37.1323 832.118L43.6614 848.028C44.3995 849.828 44.3186 851.856 43.4233 853.596L27.694 884.315C27.8225 885.452 27.7606 886.612 27.2606 887.734C26.6415 889.122 25.5843 890.175 24.3366 890.88L15.7884 907.579L76.5027 972.573L85.8415 938.721L51.3484 901.496C49.5102 899.52 49.034 896.68 50.1198 894.235L65.4261 859.712C66.9547 856.255 71.0836 854.682 74.6125 856.162C77.0031 857.169 78.4176 859.345 78.6842 861.702C79.67 856.816 82.7655 852.385 87.823 848.952C85.599 842.536 86.0133 836.467 89.1468 831.706C89.7802 830.741 90.6517 829.999 91.4517 829.187C79.5127 813.95 66.2448 796.686 66.2448 796.686C65.1305 795.233 64.6542 793.405 64.9257 791.605C65.1972 789.81 66.202 788.195 67.7021 787.119L90.1805 771.023L61.1016 718.975C59.2539 715.672 60.5064 711.538 63.8924 709.738C67.2974 707.942 71.5358 709.162 73.374 712.466L105.371 769.739C107.043 772.731 106.191 776.466 103.371 778.48L81.6646 794.023C86.9079 800.825 96.1516 812.767 104.381 823.24C106.519 822.994 108.786 822.929 111.2 823.115C116.22 823.491 121.582 824.906 126.939 827.035L131.783 820.707C130.673 804.051 136.683 790.818 147.979 787.927C148.165 787.88 148.355 787.899 148.541 787.857L149.979 778.545C143.988 778.137 139.088 776.04 135.844 772.142C127.453 762.209 132.463 745.347 147.169 731.285C138.302 730.297 130.063 727.838 123.701 724.052C115.048 718.902 110.528 711.97 110.975 704.532C111.323 698.747 114.728 693.508 120.543 689.561C118.319 683.144 118.743 677.079 121.871 672.319C125.986 666.018 133.801 662.951 143.935 663.726C150.884 664.25 158.48 666.644 165.808 670.43C161.403 649.63 167.418 631.94 180.709 628.538C186.448 627.076 192.615 628.626 198.272 632.792C203.849 628.761 209.902 627.271 215.54 628.705C228.446 631.967 234.551 648.729 230.922 668.746C242.466 662.352 254.586 659.698 263.929 661.698C269.453 662.876 273.782 665.637 276.44 669.688C279.635 674.564 280.045 680.749 277.735 687.263C283.397 691.188 286.717 696.352 287.06 702.008C287.864 714.986 273.411 725.907 252.704 728.719C259.29 734.597 264.486 741.307 267.353 748.01C271.249 757.132 270.725 765.33 265.858 771.121C262.096 775.561 256.219 777.825 249.09 777.718C247.019 784.172 243.018 788.84 237.603 790.905C235.56 791.689 233.408 792.084 231.189 792.084C228.408 792.084 225.522 791.467 222.636 790.246C214.316 786.725 206.482 778.415 200.991 767.549C196.534 776.894 190.576 784.239 184.109 788.642C196.062 792.725 201.667 808.848 198.176 828.125C209.715 821.732 221.83 819.078 231.183 821.082C236.707 822.261 241.036 825.021 243.694 829.072C246.894 833.948 247.299 840.133 244.989 846.652C250.652 850.577 253.971 855.737 254.314 861.392C255.123 874.375 240.67 885.296 219.963 888.103C226.549 893.981 231.745 900.691 234.608 907.395C238.503 916.516 237.979 924.715 233.117 930.496C229.288 935.024 223.421 937.344 216.344 937.126C214.272 943.561 210.272 948.219 204.862 950.293C202.819 951.073 200.667 951.463 198.447 951.463C195.666 951.463 192.78 950.85 189.89 949.625C181.556 946.094 173.708 937.761 168.217 926.863C164.541 934.546 159.693 941.228 154.164 945.84C148.688 950.41 142.973 952.762 137.573 952.762C135.382 952.762 133.244 952.377 131.196 951.593C126.091 949.658 122.305 945.357 120.114 939.502L113.5 949.644L134.305 973.251C135.153 974.211 135.62 975.404 135.82 976.643C159.488 965.331 185.829 952.985 189.562 952.228C190.548 952.029 193.172 951.513 240.376 955.935V919.007C240.376 915.245 243.504 912.196 247.367 912.196C251.229 912.196 254.358 915.24 254.358 919.007V957.267C263.596 958.157 274.141 959.192 286.25 960.408L296.218 948.878C293.96 947.811 291.922 946.442 290.379 944.6C285.512 938.847 284.955 930.653 288.817 921.522C291.394 915.43 295.86 909.315 301.556 903.83C279.959 901.436 264.705 890.305 265.506 876.998C265.849 871.212 269.259 865.974 275.078 862.022C272.854 855.605 273.278 849.541 276.412 844.775C280.531 838.479 288.379 835.426 298.476 836.192C305.419 836.716 313.015 839.11 320.348 842.896C315.948 822.091 321.963 804.405 335.255 801.003C340.993 799.542 347.165 801.087 352.817 805.258C358.399 801.217 364.442 799.728 370.08 801.166C382.986 804.428 389.092 821.186 385.462 841.207C397.006 834.813 409.116 832.164 418.469 834.159C423.993 835.337 428.322 838.098 430.98 842.149C434.18 847.03 434.585 853.214 432.275 859.729C437.942 863.654 441.257 868.818 441.595 874.474C442.405 887.456 427.952 898.373 407.24 901.184C413.826 907.063 419.022 913.772 421.889 920.481C425.784 929.598 425.261 937.796 420.394 943.591C416.631 948.032 410.769 950.087 403.63 950.189C401.559 956.647 397.554 961.31 392.144 963.371C390.101 964.164 387.948 964.549 385.724 964.549C382.948 964.549 380.067 963.937 377.176 962.721C368.842 959.19 360.99 950.862 355.499 939.959C351.822 947.642 346.974 954.319 341.446 958.931C335.969 963.501 330.25 965.854 324.845 965.854C322.659 965.854 320.52 965.468 318.468 964.689C314.277 963.098 310.934 959.952 308.653 955.637L294.552 971.945C293.062 973.666 290.8 974.534 288.49 974.334C254.836 970.947 200.069 965.714 192.263 965.663C187.12 967.551 160.346 980.074 136.598 991.46L146.465 1216.71C146.546 1218.56 145.846 1220.37 144.532 1221.71C143.212 1223.06 141.389 1223.81 139.484 1223.81L71.8312 1223.82C69.9263 1223.82 68.1024 1223.06 66.788 1221.72C65.4689 1220.38 64.7688 1218.57 64.8498 1216.72L74.4553 997.467C73.7028 996.999 73.0076 996.423 72.4647 995.676C72.2075 995.31 43.2858 959.362 8.38435 960.211C-6.10266 960.526 -25.7369 960.642 -50.0197 960.55C-49.5482 961.464 -48.9815 962.378 -48.5909 963.292C-44.6954 972.418 -45.2193 980.616 -50.0863 986.393C-53.9009 990.916 -59.6585 993.19 -66.8641 993.023C-68.9309 999.458 -72.9313 1004.12 -78.3364 1006.19C-80.4175 1006.99 -82.5844 1007.38 -84.7988 1007.38C-90.1897 1007.38 -95.8902 1005.05 -101.357 1000.51C-106.639 996.131 -111.31 989.891 -114.944 982.69C-118.626 990.406 -123.483 997.115 -129.032 1001.74C-134.513 1006.31 -140.228 1008.66 -145.623 1008.66C-147.813 1008.66 -149.952 1008.28 -152.004 1007.49C-157.533 1005.39 -161.595 1000.62 -163.677 994.002C-170.715 994.123 -176.42 991.807 -180.102 987.418C-184.969 981.665 -185.521 973.471 -181.664 964.34C-179.083 958.248 -174.611 952.133 -168.92 946.644C-190.517 944.255 -205.771 933.129 -204.97 919.808L-204.971 919.813ZM-30.3291 769.917C-30.3291 773.137 -27.6385 775.758 -24.3382 775.758C-21.0332 775.758 -18.3472 773.137 -18.3472 769.917C-18.3472 766.697 -21.0378 764.075 -24.3382 764.075C-27.6385 764.075 -30.3291 766.692 -30.3291 769.917ZM-77.6231 820.857C-76.2231 822.518 -72.499 822.945 -67.8843 821.956C-65.9461 821.53 -63.884 821.952 -62.2743 823.102C-60.6552 824.253 -59.6169 826.021 -59.436 827.96C-58.9741 832.665 -57.374 836.089 -55.2452 836.896C-53.2404 837.629 -49.8878 836.344 -46.4445 833.481C-41.7204 829.542 -37.339 823.098 -34.415 815.799C-29.529 803.61 -30.0671 791.491 -33.5769 787.066C-34.7865 786.444 -35.9105 785.716 -36.9581 784.876C-42.2441 783.512 -52.4301 786.012 -63.5743 794.976C-69.7794 799.95 -74.6942 806.014 -77.0604 811.615C-78.7844 815.688 -79.0042 819.224 -77.6231 820.857ZM-81.4044 734.673C-85.9524 734.316 -89.4383 735.221 -90.6051 737.017C-91.7719 738.794 -91.0099 742.468 -88.6525 746.379C-87.6334 748.064 -87.4096 750.096 -88.0382 751.947C-88.6668 753.808 -90.0812 755.311 -91.9242 756.081C-96.3626 757.937 -99.201 760.47 -99.339 762.688C-99.6057 767.152 -88.9573 774.533 -72.3083 775.484C-57.764 776.305 -46.8344 771.452 -44.0536 767.476C-43.8535 765.94 -43.5059 764.451 -42.9582 763.049C-43.6202 757.732 -49.2777 749.288 -60.9685 742.032C-67.7547 737.819 -75.2087 735.137 -81.4044 734.673ZM-12.233 699.249C-12.4854 699.184 -12.7521 699.152 -13.033 699.152C-15.1428 699.152 -18.0287 700.91 -20.8003 703.945C-22.1289 705.392 -24.029 706.223 -26.0196 706.223H-26.0387C-28.0388 706.218 -29.9437 705.379 -31.2581 703.917C-34.4583 700.377 -37.8252 698.512 -40.0159 699.082C-44.4685 700.219 -48.3832 712.366 -44.1542 728.081C-41.1636 739.221 -34.4536 747.929 -28.9479 751.028C-27.4573 750.68 -25.9238 750.448 -24.3285 750.448C-23.376 750.448 -22.4618 750.597 -21.5425 750.722C-16.7851 747.757 -11.1322 740.116 -7.99424 728.233C-3.81771 712.514 -7.78023 700.377 -12.233 699.249ZM48.8483 760.183C48.7197 758.03 45.9481 755.543 41.6191 753.687C39.7904 752.903 38.3904 751.391 37.7761 749.535C37.1617 747.679 37.3999 745.656 38.419 743.976C40.8763 739.945 41.6335 736.265 40.4001 734.382C39.6286 733.203 37.9475 732.637 36.6807 732.363C35.6902 732.15 34.5043 732.029 33.1519 732.029C27.7658 732.029 19.7512 733.936 10.8454 739.504C0.606556 745.916 -5.57034 754.722 -6.86506 760.665C-5.70783 762.735 -4.93161 765.008 -4.61244 767.439C-1.02171 770.886 8.2031 773.884 21.8465 773.072C38.4999 772.088 49.125 764.67 48.8483 760.183ZM16.7033 794.044C13.1792 791.279 9.39321 788.982 5.6596 787.372C-1.74569 784.05 -7.91307 783.572 -11.2413 784.495C-12.1938 785.307 -13.2177 786.027 -14.3177 786.658C-17.356 790.949 -18.1228 801.11 -12.7271 814.58C-7.86006 826.611 -0.707101 833.166 3.94098 835.125C5.13631 835.626 6.84116 836.108 8.23646 835.579C10.3128 834.8 11.8796 831.478 12.3273 826.921C12.513 824.977 13.5512 823.205 15.1751 822.059C16.3752 821.205 17.8182 820.755 19.2849 820.755C19.7897 820.755 20.304 820.806 20.7993 820.918C23.2233 821.446 25.2616 821.59 27.2617 821.335C29.4714 821.117 30.3476 820.37 30.7953 819.836C31.7049 818.76 31.743 817.039 31.6191 815.781C31.1286 810.854 26.9083 802.205 16.7033 794.044ZM348.479 885.043C348.479 888.263 351.17 890.88 354.475 890.88C357.78 890.88 360.471 888.258 360.471 885.043C360.471 881.823 357.78 879.201 354.475 879.201C351.17 879.201 348.479 881.818 348.479 885.043ZM297.404 849.799C292.88 849.451 289.37 850.356 288.203 852.138C287.036 853.915 287.798 857.589 290.16 861.505C291.175 863.19 291.394 865.222 290.77 867.073C290.141 868.933 288.727 870.437 286.884 871.207C282.445 873.063 279.607 875.591 279.479 877.819C279.207 882.282 289.855 889.664 306.504 890.614C321.072 891.482 331.959 886.596 334.749 882.615C334.949 881.07 335.297 879.581 335.849 878.171C335.183 872.858 329.525 864.419 317.839 857.161C311.053 852.944 303.604 850.263 297.404 849.799ZM366.575 814.375C366.323 814.31 366.056 814.282 365.775 814.282C363.67 814.282 360.789 816.036 358.013 819.07C356.684 820.523 354.788 821.353 352.793 821.353H352.774C350.774 821.349 348.869 820.509 347.55 819.047C344.34 815.507 340.949 813.675 338.787 814.213C334.339 815.349 330.42 827.497 334.644 843.211C337.644 854.356 344.359 863.069 349.859 866.163C351.345 865.82 352.878 865.588 354.474 865.588C355.431 865.588 356.345 865.737 357.264 865.862C362.022 862.902 367.67 855.255 370.808 843.373C374.989 827.639 371.028 815.498 366.575 814.375ZM427.656 875.309C427.523 873.156 424.756 870.669 420.427 868.813C418.594 868.029 417.194 866.517 416.584 864.661C415.975 862.805 416.203 860.782 417.227 859.102C419.684 855.066 420.441 851.386 419.208 849.507C418.432 848.329 416.756 847.753 415.484 847.484C414.489 847.271 413.308 847.15 411.955 847.15C406.569 847.15 398.554 849.057 389.644 854.63C379.41 861.037 373.233 869.839 371.933 875.783C373.095 877.852 373.867 880.13 374.191 882.566C377.777 886.013 386.982 889.029 400.65 888.194C417.303 887.21 427.933 879.796 427.656 875.309ZM366.114 929.7C370.967 941.717 378.115 948.274 382.763 950.245C383.958 950.751 385.682 951.261 387.039 950.719C389.097 949.939 390.659 946.617 391.116 942.047C391.311 940.112 392.349 938.344 393.968 937.198C395.168 936.349 396.611 935.904 398.069 935.904C398.573 935.904 399.083 935.955 399.583 936.062C404.322 937.092 408.169 936.66 409.608 934.962C410.965 933.347 410.732 929.807 408.993 925.738C406.603 920.148 401.669 914.093 395.455 909.137C385.306 901.041 373.525 898.015 367.634 899.565C366.677 900.391 365.644 901.119 364.534 901.755C361.372 906.158 360.885 916.783 366.114 929.7ZM319.377 943.082C319.839 947.791 321.444 951.215 323.563 952.018C325.564 952.797 328.93 951.466 332.364 948.598C337.088 944.659 341.474 938.219 344.394 930.921C349.28 918.732 348.732 906.613 345.232 902.188C344.022 901.566 342.898 900.837 341.851 899.998C336.555 898.643 326.382 901.134 315.239 910.098C309.039 915.072 304.124 921.136 301.753 926.737C300.029 930.815 299.805 934.35 301.191 935.988C302.582 937.649 306.315 938.076 310.916 937.088C312.868 936.661 314.911 937.088 316.526 938.234C318.154 939.38 319.187 941.147 319.377 943.082ZM167.205 877.801C170.51 877.801 173.2 875.179 173.2 871.959C173.2 868.739 170.51 866.118 167.205 866.118C163.9 866.118 161.209 868.739 161.209 871.959C161.209 875.179 163.9 877.801 167.205 877.801ZM108.339 897.283C110.134 895.005 112.186 892.81 114.401 890.69C110.724 890.277 107.129 889.683 103.762 888.755L108.339 897.283ZM110.139 836.716C105.629 836.354 102.1 837.263 100.929 839.059C99.7618 840.831 100.533 844.506 102.886 848.422C103.905 850.106 104.129 852.138 103.5 853.99C102.872 855.85 101.457 857.353 99.6142 858.124C95.1758 859.98 92.3374 862.508 92.1994 864.735C92.0755 866.819 94.3995 869.537 98.2618 871.839C103.572 874.998 111.215 877.072 119.23 877.527C125.378 877.889 130.85 877.198 135.383 876.005C135.436 875.996 135.474 875.959 135.531 875.95C135.545 875.945 135.56 875.954 135.574 875.95C141.655 874.321 145.884 871.792 147.479 869.519C147.679 867.979 148.027 866.494 148.575 865.088C147.913 859.771 142.255 851.326 130.568 844.075C123.782 839.867 116.334 837.18 110.139 836.716ZM193.95 712.57C193.95 715.79 196.64 718.412 199.941 718.412C203.245 718.412 205.936 715.79 205.936 712.57C205.936 709.35 203.246 706.729 199.941 706.729C196.64 706.729 193.95 709.346 193.95 712.57ZM142.874 677.327C138.34 676.969 134.84 677.874 133.668 679.67C132.502 681.447 133.268 685.121 135.626 689.037C136.645 690.722 136.864 692.754 136.24 694.605C135.611 696.466 134.197 697.969 132.354 698.739C127.916 700.595 125.077 703.128 124.939 705.351C124.815 707.434 127.139 710.153 131.002 712.454C136.312 715.614 143.955 717.688 151.97 718.142C156.032 718.379 159.789 718.152 163.194 717.641C163.456 717.563 163.718 717.539 163.989 717.493C172.361 716.092 178.272 712.918 180.219 710.139C180.419 708.599 180.766 707.114 181.314 705.703C180.652 700.391 174.994 691.951 163.304 684.686C156.522 680.477 149.074 677.791 142.874 677.327ZM212.04 641.903C211.788 641.838 211.516 641.81 211.24 641.81C209.131 641.81 206.254 643.564 203.478 646.598C202.149 648.055 200.463 649.076 198.244 648.881C196.244 648.876 194.339 648.036 193.02 646.575C189.81 643.035 186.4 641.183 184.257 641.74C179.809 642.877 175.89 655.024 180.119 670.738C183.119 681.878 189.829 690.592 195.33 693.686C196.821 693.338 198.349 693.111 199.945 693.111C200.902 693.111 201.816 693.259 202.735 693.385C207.493 690.424 213.146 682.778 216.279 670.895C220.46 655.167 216.498 643.03 212.04 641.903ZM273.125 702.846C272.992 700.688 270.225 698.197 265.896 696.346C264.067 695.561 262.667 694.054 262.053 692.198C261.443 690.342 261.672 688.319 262.696 686.639C265.153 682.598 265.91 678.919 264.677 677.04C263.901 675.861 262.224 675.286 260.953 675.017C259.958 674.803 258.777 674.683 257.429 674.683C252.038 674.683 244.028 676.59 235.113 682.162C224.883 688.569 218.707 697.367 217.402 703.31C218.564 705.38 219.336 707.658 219.66 710.094C223.241 713.545 232.428 716.552 246.118 715.722C262.772 714.743 273.402 707.328 273.125 702.846ZM211.583 757.228C216.431 769.24 223.584 775.806 228.232 777.773C229.432 778.279 231.146 778.761 232.508 778.251C234.566 777.462 236.128 774.135 236.59 769.574C236.785 767.635 237.823 765.872 239.442 764.726C240.642 763.877 242.085 763.431 243.542 763.431C244.047 763.431 244.552 763.483 245.052 763.594C249.795 764.615 253.643 764.183 255.077 762.49C256.439 760.875 256.205 757.34 254.467 753.266C252.076 747.675 247.138 741.62 240.924 736.664C230.775 728.568 219.007 725.538 213.108 727.093C212.151 727.919 211.117 728.647 210.008 729.283C206.836 733.681 206.349 744.311 211.583 757.228ZM189.891 758.485C195.187 745.248 193.782 733.681 190.672 729.706C189.443 729.07 188.3 728.328 187.243 727.469C183.524 726.588 176.933 727.428 168.414 732.309C165.88 733.756 163.304 735.533 160.737 737.607C147.864 747.963 143.736 760.054 146.684 763.548C148.032 765.172 151.822 765.575 156.37 764.597C158.437 764.146 160.604 764.638 162.266 765.928C163.461 766.861 164.176 768.183 164.547 769.603C164.557 769.626 164.561 769.649 164.566 769.668C164.642 769.965 164.809 770.229 164.842 770.535C164.942 770.953 164.999 771.375 165.018 771.797C165.58 775.927 167.057 778.803 169.028 779.536C173.3 781.137 183.829 773.602 189.891 758.485ZM179.305 801.282C179.052 801.217 178.785 801.189 178.504 801.189C176.395 801.189 173.514 802.948 170.737 805.982C169.409 807.43 167.513 808.26 165.518 808.26H165.499C163.499 808.255 161.599 807.416 160.275 805.954C157.074 802.419 153.688 800.554 151.522 801.12C147.074 802.256 143.154 814.404 147.378 830.118C150.379 841.258 157.089 849.971 162.59 853.066C164.08 852.718 165.609 852.49 167.204 852.49C168.157 852.49 169.071 852.639 169.99 852.764C174.748 849.804 180.401 842.158 183.539 830.275C187.72 814.551 183.757 802.409 179.305 801.282ZM240.386 862.229C240.252 860.071 237.481 857.58 233.152 855.728C231.323 854.944 229.923 853.432 229.314 851.576C228.704 849.72 228.933 847.697 229.956 846.017C232.409 841.986 233.171 838.302 231.938 836.423C231.161 835.244 229.485 834.669 228.209 834.4C227.213 834.186 226.032 834.066 224.685 834.066C219.294 834.066 211.284 835.973 202.373 841.54C192.144 847.948 185.967 856.75 184.663 862.693C185.825 864.763 186.596 867.041 186.92 869.476C190.501 872.924 199.702 875.921 213.379 875.109C230.037 874.125 240.663 866.706 240.386 862.229ZM195.487 937.16C196.692 937.661 198.411 938.163 199.759 937.638C201.821 936.845 203.383 933.523 203.845 928.962C204.04 927.027 205.079 925.259 206.693 924.114C207.898 923.264 209.336 922.819 210.798 922.819C211.298 922.819 211.808 922.87 212.308 922.977C217.056 924.007 220.904 923.561 222.337 921.873C223.694 920.258 223.461 916.727 221.723 912.653C219.332 907.063 214.394 901.008 208.184 896.052C198.031 887.956 186.254 884.94 180.368 886.48C179.411 887.306 178.378 888.035 177.268 888.675C174.101 893.078 173.611 903.703 178.844 916.615C183.697 928.627 190.84 935.184 195.487 937.16ZM129.264 925.144C130.883 926.294 131.916 928.057 132.107 929.997C132.569 934.706 134.174 938.126 136.298 938.928C138.307 939.694 141.665 938.381 145.098 935.518C149.822 931.579 154.209 925.139 157.128 917.84C162.009 905.652 161.466 893.533 157.966 889.102C156.756 888.481 155.632 887.752 154.585 886.912C149.289 885.562 139.116 888.054 127.973 897.013C121.773 901.987 116.858 908.051 114.487 913.651C112.763 917.73 112.544 921.265 113.925 922.894C115.316 924.555 119.05 924.963 123.655 923.998C125.612 923.571 127.649 924.002 129.264 925.144ZM132.212 1210.21L131.574 1195.63H107.91C104.048 1195.63 100.919 1192.59 100.919 1188.82C100.919 1185.06 104.043 1182.01 107.91 1182.01L130.979 1182.01L128.174 1117.97H112.344C108.482 1117.97 105.353 1114.92 105.353 1111.16C105.353 1107.39 108.487 1104.34 112.344 1104.34H127.579L124.669 1037.92H107.92C104.058 1037.92 100.929 1034.88 100.929 1031.11C100.929 1027.35 104.053 1024.3 107.92 1024.3H124.074L122.15 980.361L99.5485 954.713C97.5436 952.439 97.3006 949.154 98.9532 946.626L106.744 934.678C105.401 933.787 104.168 932.771 103.13 931.541C98.858 926.493 97.9151 919.562 100.353 911.771L86.5625 886.076C85.5625 884.215 85.5529 882.058 86.4006 880.188C81.1383 875.818 78.3191 870.593 78.2905 865.039C78.281 865.067 78.2858 865.095 78.2715 865.123L64.7512 895.63L98.7871 932.363C100.378 934.079 100.964 936.459 100.349 938.696L89.2911 978.756L85.5813 1063.44H101.497C105.359 1063.44 108.488 1066.48 108.488 1070.25C108.488 1074.01 105.364 1077.06 101.497 1077.06H84.9864L82.2481 1139.6H101.497C105.359 1139.6 108.488 1142.64 108.488 1146.41C108.488 1150.17 105.364 1153.22 101.497 1153.22H81.6531L79.1577 1210.21L132.212 1210.21ZM-122.003 927.84C-122.003 931.06 -119.312 933.677 -116.002 933.677C-112.697 933.677 -110.011 931.055 -110.011 927.84C-110.011 924.615 -112.702 921.994 -116.002 921.994C-119.312 921.994 -122.003 924.615 -122.003 927.84ZM-103.901 857.172C-104.154 857.107 -104.42 857.075 -104.701 857.075C-106.811 857.075 -109.697 858.833 -112.478 861.868C-113.802 863.315 -115.702 864.146 -117.693 864.146H-117.712C-119.712 864.141 -121.617 863.302 -122.936 861.84C-126.136 858.3 -129.489 856.435 -131.694 857.005C-136.137 858.142 -140.061 870.294 -135.842 886.004C-132.841 897.144 -126.131 905.852 -120.627 908.951C-119.136 908.603 -117.603 908.371 -116.007 908.371C-115.05 908.371 -114.136 908.52 -113.217 908.645C-108.459 905.68 -102.806 898.034 -99.6731 886.156C-95.4871 870.437 -99.4484 858.3 -103.901 857.172ZM-42.8199 918.111C-42.9485 915.958 -45.7201 913.471 -50.049 911.615C-51.8777 910.831 -53.2778 909.319 -53.8921 907.463C-54.5064 905.607 -54.2683 903.584 -53.2492 901.904C-50.7919 897.872 -50.0347 894.193 -51.2681 892.309C-52.0396 891.131 -53.7207 890.565 -54.9875 890.291C-55.978 890.078 -57.1639 889.957 -58.5163 889.957C-63.9024 889.957 -71.917 891.864 -80.8228 897.432C-91.0616 903.844 -97.2385 912.649 -98.5333 918.588C-97.376 920.658 -96.6046 922.926 -96.2806 925.362C-92.6899 928.809 -83.4651 931.798 -69.8168 930.999C-53.1683 930.007 -42.5435 922.592 -42.819 918.11L-42.8199 918.111ZM-104.362 972.498C-101.419 979.791 -97.0186 986.222 -92.2849 990.147C-88.8371 993.005 -85.4368 994.285 -83.4462 993.525C-81.3842 992.731 -79.8221 989.409 -79.3554 984.848C-79.1554 982.904 -78.122 981.146 -76.5029 980C-75.3028 979.151 -73.8598 978.705 -72.4025 978.705C-71.8977 978.705 -71.393 978.756 -70.8929 978.863C-66.1497 979.893 -62.3065 979.457 -60.8635 977.759C-59.5062 976.144 -59.7396 972.604 -61.4778 968.535C-63.8684 962.944 -68.8022 956.899 -75.0212 951.934C-85.1743 943.833 -96.9901 940.808 -102.847 942.366C-103.799 943.188 -104.823 943.912 -105.928 944.542C-109.104 948.946 -109.6 959.575 -104.361 972.497L-104.362 972.498ZM-169.291 978.78C-167.891 980.441 -164.167 980.854 -159.557 979.884C-157.59 979.467 -155.566 979.889 -153.947 981.03C-152.328 982.181 -151.299 983.944 -151.108 985.883C-150.647 990.583 -149.042 994.012 -146.908 994.815C-144.903 995.585 -141.551 994.267 -138.107 991.405C-133.383 987.465 -129.002 981.025 -126.078 973.727C-121.059 961.2 -122.016 950.195 -124.749 945.671L-131.955 942.451C-137.636 942.576 -146.113 945.564 -155.233 952.899C-161.438 957.873 -166.353 963.937 -168.719 969.538C-170.453 973.616 -170.672 977.152 -169.291 978.78ZM-163.976 933.413C-149.446 934.197 -138.532 929.381 -135.731 925.405C-135.531 923.86 -135.183 922.366 -134.631 920.955C-135.303 915.643 -140.96 907.203 -152.641 899.956C-159.432 895.743 -166.881 893.061 -173.077 892.597C-177.615 892.249 -181.11 893.149 -182.277 894.94C-183.444 896.717 -182.682 900.392 -180.325 904.303C-179.306 905.987 -179.082 908.02 -179.71 909.875C-180.339 911.731 -181.753 913.235 -183.601 914.005C-188.03 915.861 -190.868 918.394 -191.006 920.616C-191.268 925.08 -180.62 932.462 -163.976 933.413Z" fill="#FFA3B3"/>
<path d="M234.503 1025.4C235.032 1024.36 235.822 1023.48 236.789 1022.82C237.432 1022.38 238.151 1022.05 238.923 1021.84C247.161 1019.63 258.843 1023.17 267.958 1030.68C280.983 1041.39 285.478 1055.62 278.397 1063.8C275.701 1066.9 271.753 1068.61 267.091 1068.82C265.315 1072.91 262.372 1075.88 258.557 1077.28C256.976 1077.86 255.347 1078.13 253.704 1078.13C244.665 1078.13 235.108 1069.74 230.031 1056.59C225.797 1045.7 225.821 1035.17 230.083 1028.45C231.117 1026.84 232.732 1025.78 234.503 1025.4ZM243.114 1051.8C246.709 1061.1 252.652 1064.89 253.571 1064.56C253.776 1064.43 254.6 1063.36 254.914 1060.73C255.143 1058.79 256.21 1057.05 257.848 1055.93C259.034 1055.12 260.434 1054.71 261.853 1054.71C262.396 1054.71 262.944 1054.77 263.482 1054.89C266.253 1055.53 267.568 1055.12 267.691 1055.06C268.263 1053.91 266.72 1047.5 258.938 1041.09C252.543 1035.82 245.68 1034.29 242.847 1034.94C242.666 1034.99 242.48 1035.03 242.299 1035.07C242.199 1035.27 242.095 1035.45 241.98 1035.63C240.442 1038.04 240.137 1044.13 243.114 1051.8Z" fill="#FFA3B3"/>
<path d="M-22.796 1016.27C-20.7482 1016.03 -18.8767 1016.61 -17.4433 1017.76C-15.5051 1017.29 -13.4239 1017.61 -11.6809 1018.81C-4.46603 1023.8 0.243752 1035.26 0.0343038 1047.31C-0.265714 1064.38 -8.86637 1077.14 -20.0388 1077.14H-20.2721C-24.5868 1077.06 -28.6013 1075.06 -31.8206 1071.49C-36.3734 1072.84 -40.7833 1072.52 -44.4363 1070.43C-54.1847 1064.91 -54.8514 1049.53 -45.9935 1034.68C-39.7692 1024.22 -31.0959 1017.34 -22.796 1016.27ZM-37.4159 1058.66C-37.1683 1058.74 -35.6634 1058.75 -33.0822 1057.15C-31.4011 1056.09 -29.3344 1055.79 -27.4152 1056.33C-25.4913 1056.85 -23.8912 1058.17 -23.0196 1059.92C-21.5671 1062.84 -20.2051 1063.53 -20.0384 1063.53C-18.543 1063.37 -14.1284 1057.48 -13.9475 1047.08C-13.7903 1038.23 -17.3334 1031.61 -19.7764 1029.92C-19.9145 1029.83 -20.0431 1029.73 -20.1669 1029.63C-20.4241 1029.69 -20.6908 1029.74 -20.967 1029.78C-24.072 1030.18 -29.4438 1034.02 -33.9106 1041.52C-39.3348 1050.62 -38.6303 1057.82 -37.4159 1058.66Z" fill="#FFA3B3"/>
<path d="M195.479 1124.08C197.432 1123.77 199.284 1124.27 200.742 1125.32C202.375 1124.91 204.075 1125.09 205.537 1125.77C205.833 1125.91 206.118 1126.07 206.39 1126.24C213.514 1130.86 218.405 1141.78 218.557 1153.41C218.772 1170.02 210.676 1182.66 199.694 1182.8H199.556C195.446 1182.8 191.583 1181.02 188.407 1177.76C184.073 1179.13 179.845 1178.89 176.254 1177.01C166.625 1171.91 165.491 1157.06 173.611 1142.46C179.302 1132.21 187.478 1125.34 195.479 1124.08ZM182.859 1165.02C183.102 1165.07 184.478 1164.97 186.702 1163.49C188.35 1162.39 190.407 1162.03 192.355 1162.5C194.298 1162.98 195.936 1164.24 196.855 1165.97C198.16 1168.42 199.355 1169.12 199.474 1169.18C200.746 1168.85 204.708 1163.51 204.579 1153.58C204.475 1145.37 201.103 1139.32 198.779 1137.67C198.636 1137.58 198.493 1137.49 198.355 1137.38C198.146 1137.43 197.931 1137.48 197.712 1137.52C194.826 1137.97 189.907 1141.74 185.907 1148.94C181.04 1157.7 182.006 1164.21 182.859 1165.02Z" fill="#FFA3B3"/>
<path d="M-8.42277 1125.19C-6.67026 1124.24 -4.67015 1124.09 -2.89862 1124.64C-1.51283 1123.66 0.177734 1123.2 1.86356 1123.37C2.19692 1123.4 2.52551 1123.45 2.85411 1123.52C11.4548 1125.52 20.2073 1134.44 24.6267 1145.71C30.932 1161.76 27.746 1176.83 17.188 1180.78C13.1449 1182.26 8.67783 1181.86 4.32977 1179.72C1.20573 1182.16 -2.26603 1183.46 -5.77105 1183.46C-6.43777 1183.46 -7.10929 1183.42 -7.77592 1183.31C-18.9386 1181.74 -25.4388 1167.71 -22.9103 1150.71C-21.1435 1138.73 -15.7283 1129.2 -8.42277 1125.19ZM-5.78444 1169.84C-5.53204 1169.84 -4.12713 1169.3 -2.34609 1166.86C-1.18411 1165.27 0.616017 1164.24 2.61138 1164.04C2.85901 1164.01 3.11143 1164 3.35429 1164C5.08778 1164 6.77362 1164.63 8.0642 1165.78C10.5501 1167.98 12.0454 1168.13 12.2073 1168.05C13.5359 1167.37 15.3885 1160.3 11.5739 1150.58C8.37846 1142.44 2.70665 1137.61 -0.250736 1136.81C-0.460281 1136.76 -0.679341 1136.71 -0.893641 1136.64C-1.11271 1136.8 -1.33653 1136.94 -1.57464 1137.07C-4.29868 1138.56 -7.8132 1144.07 -9.08476 1152.66C-10.6277 1163.06 -7.23217 1169.5 -5.78444 1169.84Z" fill="#FFA3B3"/>
</g>
<defs>
<clipPath id="clip0_193_1765">
<rect width="1662" height="1449" fill="white"/>
</clipPath>
</defs>
</svg>
