<svg width="1512" height="982" viewBox="0 0 1512 982" fill="none" xmlns="http://www.w3.org/2000/svg">
<g clip-path="url(#clip0_177_1669)">
<rect width="1512" height="982" fill="white"/>
<mask id="mask0_177_1669" style="mask-type:alpha" maskUnits="userSpaceOnUse" x="-256" y="-49" width="1929" height="1000">
<path d="M480.862 92.5C217.287 26.9299 -67.5738 51.5 -256 118.5V727C-256 768 180.854 888.5 675.078 937C988.203 967.728 1351.81 941.841 1552.47 894.556C1605.18 882.134 1646.65 868.236 1673 853.5C1661.25 581.667 1637.74 284.6 1637.74 -49C1363.52 152.5 868.768 189 480.862 92.5Z" fill="#FFCBD4"/>
</mask>
<g mask="url(#mask0_177_1669)">
<rect x="-39.1519" y="-49" width="1591.62" height="999" fill="#FFEBEE"/>
</g>
<mask id="mask1_177_1669" style="mask-type:alpha" maskUnits="userSpaceOnUse" x="1179" y="207" width="446" height="433">
<path d="M1318.45 457.732C1320.48 458.01 1322.53 458.15 1324.58 458.147C1336.4 458.147 1346.78 453.554 1356.87 449.088C1361.2 447.17 1365.29 445.36 1369.5 443.891C1384.27 439.232 1400.23 439.629 1414.74 445.015C1419.69 457.246 1429.28 467.155 1441.53 472.683C1457.02 479.744 1474.75 480.519 1490.83 474.839C1506.91 469.16 1520.01 457.49 1527.26 442.398C1535.22 425.759 1536.83 406.9 1531.82 389.203C1526.8 371.506 1515.48 356.129 1499.88 345.826C1499.35 328.697 1492.01 312.437 1479.41 300.486C1466.8 288.533 1449.92 281.828 1432.33 281.784C1414.74 281.741 1397.82 288.366 1385.15 300.254C1377.06 296.318 1368 294.646 1358.99 295.424C1349.98 296.204 1341.36 299.406 1334.11 304.671C1325.5 310.91 1318.78 319.301 1314.68 328.957C1310.57 338.613 1309.22 349.172 1310.77 359.514C1304.52 359.978 1298.46 361.879 1293.1 365.061C1282.02 371.617 1274.07 382.193 1271 394.46C1267.93 406.73 1269.99 419.686 1276.73 430.473C1285.79 445.145 1301.08 455.131 1318.45 457.731L1318.45 457.732ZM1281.36 396.921C1283.74 387.319 1289.96 379.045 1298.64 373.942C1305.32 369.991 1313.34 368.79 1320.94 370.603C1328.53 372.412 1335.07 377.09 1339.12 383.603C1342.22 388.568 1343.17 394.529 1341.76 400.173C1340.35 405.82 1336.7 410.692 1331.62 413.721C1327.77 415.988 1323.15 416.679 1318.78 415.642C1314.41 414.608 1310.64 411.933 1308.29 408.2C1306.58 405.436 1306.06 402.126 1306.84 398.989C1307.63 395.853 1309.66 393.149 1312.48 391.465C1315 389.974 1315.8 386.777 1314.26 384.327C1312.73 381.877 1309.45 381.099 1306.94 382.592C1301.7 385.712 1297.94 390.725 1296.49 396.534C1295.03 402.345 1296 408.48 1299.18 413.598C1303 419.68 1309.14 424.039 1316.26 425.725C1323.37 427.414 1330.88 426.293 1337.15 422.606C1344.66 418.143 1350.04 410.959 1352.11 402.635C1354.19 394.309 1352.79 385.521 1348.23 378.199C1342.4 368.783 1332.75 362.223 1321.66 360.149C1319.93 351.359 1320.78 342.271 1324.11 333.93C1327.45 325.589 1333.12 318.333 1340.5 312.992C1348.61 307.099 1358.8 304.581 1368.81 305.988C1378.83 307.396 1387.87 312.613 1393.95 320.5C1398.62 326.608 1400.62 334.273 1399.5 341.812C1398.38 349.351 1394.24 356.153 1387.99 360.721C1383.2 364.211 1377.19 365.704 1371.28 364.87C1365.37 364.039 1360.04 360.949 1356.47 356.283C1353.78 352.776 1352.63 348.372 1353.27 344.037C1353.91 339.704 1356.29 335.795 1359.89 333.173C1362.55 331.25 1365.88 330.431 1369.16 330.89C1372.44 331.351 1375.39 333.057 1377.39 335.633C1378.23 336.74 1379.5 337.47 1380.9 337.665C1382.3 337.861 1383.73 337.503 1384.86 336.675C1385.99 335.846 1386.74 334.611 1386.94 333.243C1387.14 331.878 1386.77 330.491 1385.91 329.389C1382.22 324.62 1376.74 321.464 1370.67 320.613C1364.6 319.76 1358.43 321.282 1353.51 324.844C1347.64 329.116 1343.76 335.485 1342.71 342.548C1341.67 349.611 1343.54 356.79 1347.93 362.505C1353.18 369.399 1361.04 373.956 1369.76 375.156C1371.35 375.381 1372.96 375.494 1374.57 375.494C1381.72 375.497 1388.67 373.23 1394.38 369.04C1402.89 362.816 1408.53 353.557 1410.05 343.292C1411.57 333.025 1408.85 322.592 1402.49 314.275C1400.12 311.218 1397.38 308.454 1394.33 306.041C1405.41 296.557 1419.83 291.608 1434.56 292.227C1449.3 292.848 1463.23 298.988 1473.43 309.368C1483.63 319.746 1489.33 333.562 1489.32 347.935V348.616C1489.32 348.645 1489.33 348.674 1489.33 348.703C1489.34 348.899 1489.36 349.092 1489.39 349.285C1489.41 349.435 1489.42 349.587 1489.45 349.732C1489.49 349.889 1489.55 350.039 1489.6 350.194C1489.65 350.363 1489.71 350.53 1489.77 350.692C1489.83 350.832 1489.92 350.96 1490 351.095H1490C1490.08 351.255 1490.17 351.412 1490.27 351.562C1490.36 351.687 1490.47 351.801 1490.57 351.919C1490.68 352.062 1490.81 352.199 1490.94 352.33C1491.04 352.424 1491.15 352.504 1491.26 352.593L1491.27 352.596C1491.42 352.731 1491.59 352.857 1491.77 352.973L1491.83 353.023H1491.84C1506.03 361.688 1516.48 375.108 1521.22 390.759C1525.97 406.409 1524.68 423.21 1517.59 437.995C1511.54 450.584 1500.6 460.316 1487.19 465.057C1473.77 469.796 1458.98 469.155 1446.05 463.272C1435.91 458.693 1428.06 450.356 1424.26 440.113C1424.18 439.57 1424 439.045 1423.74 438.557C1420.68 429.151 1421.24 418.983 1425.32 409.951C1425.35 409.876 1425.45 409.632 1425.48 409.555L1425.79 408.885C1429.46 401.276 1436.08 395.397 1444.19 392.537C1452.3 389.676 1461.25 390.065 1469.07 393.621C1470.39 394.201 1471.64 394.919 1472.8 395.762C1477.62 399.024 1481.09 403.845 1482.6 409.366C1484.11 414.89 1483.56 420.754 1481.05 425.918C1478.93 430.347 1475.09 433.773 1470.38 435.441C1465.67 437.11 1460.46 436.883 1455.92 434.815C1452.55 433.273 1449.94 430.492 1448.67 427.08C1447.4 423.668 1447.57 419.906 1449.15 416.618C1450.29 414.235 1452.35 412.391 1454.88 411.49C1457.42 410.589 1460.21 410.705 1462.66 411.812C1463.94 412.399 1465.41 412.466 1466.74 412C1468.08 411.531 1469.16 410.565 1469.76 409.316C1470.37 408.066 1470.43 406.633 1469.95 405.336C1469.47 404.041 1468.47 402.982 1467.19 402.4C1462.18 400.122 1456.44 399.878 1451.25 401.719C1446.05 403.56 1441.82 407.337 1439.49 412.218C1436.72 418.002 1436.42 424.621 1438.65 430.623C1440.88 436.622 1445.47 441.515 1451.4 444.226C1458.5 447.467 1466.64 447.819 1474.01 445.212C1481.38 442.605 1487.39 437.248 1490.71 430.321C1494.29 422.968 1495.08 414.617 1492.95 406.75C1490.81 398.88 1485.88 392.003 1479.04 387.337C1477.33 386.103 1475.49 385.049 1473.56 384.191C1463.18 379.484 1451.31 378.975 1440.54 382.775C1429.78 386.576 1421 394.379 1416.13 404.474L1415.96 404.839C1415.78 405.208 1415.61 405.59 1415.47 405.955C1411.65 414.53 1410.32 423.963 1411.62 433.228C1396.65 428.958 1380.69 429.265 1365.91 434.107C1361.29 435.719 1356.79 437.708 1352.45 439.628C1341.57 444.447 1331.31 448.992 1319.93 447.44H1319.93C1305.76 445.201 1293.3 437.031 1285.84 425.08C1280.55 416.652 1278.94 406.513 1281.36 396.921L1281.36 396.921Z" fill="white"/>
<path d="M1269.7 489.783C1269.39 489.937 1269.08 490.052 1268.74 490.129C1268.41 490.208 1268.07 490.249 1267.71 490.249C1266.63 490.249 1265.78 489.958 1265.16 489.374C1264.53 488.788 1264.21 487.994 1264.21 486.994C1264.21 485.992 1264.53 485.199 1265.16 484.615C1265.78 484.028 1266.63 483.735 1267.71 483.735C1268.07 483.735 1268.41 483.776 1268.74 483.855C1269.08 483.932 1269.39 484.048 1269.7 484.201V485.499C1269.39 485.298 1269.09 485.148 1268.79 485.052C1268.49 484.956 1268.17 484.908 1267.84 484.908C1267.25 484.908 1266.78 485.094 1266.44 485.466C1266.1 485.835 1265.94 486.344 1265.94 486.995C1265.94 487.642 1266.1 488.152 1266.44 488.523C1266.78 488.892 1267.25 489.076 1267.84 489.076C1268.17 489.076 1268.49 489.03 1268.79 488.937C1269.09 488.841 1269.39 488.69 1269.7 488.485V489.783Z" fill="white" fill-opacity="0.1"/>
<path d="M1274.6 486.701C1274.46 486.641 1274.33 486.595 1274.19 486.567C1274.06 486.535 1273.93 486.518 1273.79 486.518C1273.39 486.518 1273.09 486.643 1272.87 486.893C1272.66 487.141 1272.55 487.494 1272.55 487.956V490.129H1271.01V485.418H1272.55V486.192C1272.75 485.884 1272.98 485.661 1273.23 485.519C1273.49 485.374 1273.8 485.302 1274.16 485.302C1274.21 485.302 1274.27 485.306 1274.33 485.312C1274.39 485.316 1274.48 485.324 1274.6 485.336L1274.6 486.701Z" fill="white" fill-opacity="0.1"/>
<path d="M1280.2 487.759V488.192H1276.58C1276.62 488.545 1276.75 488.809 1276.97 488.985C1277.2 489.161 1277.51 489.249 1277.92 489.249C1278.24 489.249 1278.57 489.204 1278.91 489.11C1279.26 489.014 1279.61 488.872 1279.96 488.682V489.84C1279.6 489.975 1279.23 490.076 1278.87 490.143C1278.5 490.213 1278.14 490.249 1277.77 490.249C1276.9 490.249 1276.22 490.033 1275.73 489.6C1275.25 489.167 1275.01 488.561 1275.01 487.778C1275.01 487.009 1275.24 486.406 1275.72 485.966C1276.2 485.523 1276.85 485.302 1277.68 485.302C1278.44 485.302 1279.05 485.527 1279.51 485.975C1279.97 486.421 1280.2 487.016 1280.2 487.759ZM1278.61 487.259C1278.61 486.974 1278.52 486.745 1278.35 486.572C1278.18 486.396 1277.96 486.307 1277.68 486.307C1277.38 486.307 1277.14 486.389 1276.95 486.552C1276.76 486.716 1276.64 486.951 1276.6 487.259H1278.61Z" fill="white" fill-opacity="0.1"/>
<path d="M1283.53 488.009C1283.21 488.009 1282.97 488.062 1282.8 488.168C1282.64 488.273 1282.56 488.431 1282.56 488.639C1282.56 488.831 1282.63 488.982 1282.76 489.091C1282.89 489.196 1283.07 489.249 1283.3 489.249C1283.59 489.249 1283.84 489.148 1284.04 488.946C1284.24 488.742 1284.34 488.487 1284.34 488.182V488.009L1283.53 488.009ZM1285.89 487.442V490.129H1284.34V489.432C1284.13 489.718 1283.9 489.926 1283.64 490.057C1283.38 490.184 1283.06 490.249 1282.69 490.249C1282.19 490.249 1281.78 490.108 1281.47 489.826C1281.16 489.541 1281 489.171 1281 488.716C1281 488.165 1281.2 487.761 1281.58 487.504C1281.97 487.245 1282.59 487.115 1283.42 487.115H1284.34V486.995C1284.34 486.758 1284.24 486.585 1284.05 486.475C1283.85 486.364 1283.55 486.307 1283.14 486.307C1282.81 486.307 1282.5 486.34 1282.22 486.403C1281.93 486.468 1281.67 486.564 1281.43 486.692V485.543C1281.75 485.466 1282.08 485.407 1282.42 485.365C1282.75 485.324 1283.09 485.302 1283.42 485.302C1284.3 485.302 1284.92 485.471 1285.31 485.807C1285.7 486.141 1285.89 486.686 1285.89 487.442Z" fill="white" fill-opacity="0.1"/>
<path d="M1289.02 484.081V485.418H1290.61V486.495H1289.02V488.494C1289.02 488.713 1289.07 488.86 1289.15 488.937C1289.24 489.014 1289.42 489.052 1289.68 489.052H1290.48V490.129H1289.15C1288.54 490.129 1288.11 490.006 1287.85 489.759C1287.6 489.509 1287.47 489.088 1287.47 488.494V486.495H1286.71V485.418H1287.47V484.081H1289.02Z" fill="white" fill-opacity="0.1"/>
<path d="M1296.39 487.759V488.192H1292.77C1292.81 488.545 1292.94 488.809 1293.16 488.985C1293.39 489.161 1293.7 489.249 1294.11 489.249C1294.43 489.249 1294.76 489.204 1295.1 489.11C1295.45 489.014 1295.8 488.872 1296.15 488.682V489.84C1295.79 489.975 1295.42 490.076 1295.06 490.143C1294.69 490.213 1294.33 490.249 1293.96 490.249C1293.09 490.249 1292.41 490.033 1291.92 489.6C1291.44 489.167 1291.2 488.561 1291.2 487.778C1291.2 487.009 1291.43 486.406 1291.91 485.966C1292.39 485.523 1293.04 485.302 1293.87 485.302C1294.63 485.302 1295.24 485.527 1295.7 485.975C1296.16 486.421 1296.39 487.016 1296.39 487.759ZM1294.8 487.259C1294.8 486.974 1294.71 486.745 1294.54 486.572C1294.37 486.396 1294.15 486.307 1293.87 486.307C1293.57 486.307 1293.33 486.389 1293.14 486.552C1292.95 486.716 1292.83 486.951 1292.79 487.259H1294.8Z" fill="white" fill-opacity="0.1"/>
<path d="M1300.84 486.105V483.581H1302.4V490.129H1300.84V489.446C1300.63 489.725 1300.4 489.929 1300.14 490.057C1299.89 490.184 1299.59 490.249 1299.25 490.249C1298.65 490.249 1298.16 490.018 1297.78 489.557C1297.4 489.095 1297.21 488.503 1297.21 487.778C1297.21 487.051 1297.4 486.456 1297.78 485.994C1298.16 485.533 1298.65 485.302 1299.25 485.302C1299.58 485.302 1299.88 485.368 1300.14 485.499C1300.4 485.632 1300.63 485.833 1300.84 486.105ZM1299.83 489.158C1300.15 489.158 1300.41 489.041 1300.58 488.807C1300.76 488.57 1300.84 488.228 1300.84 487.778C1300.84 487.33 1300.76 486.988 1300.58 486.754C1300.41 486.517 1300.15 486.398 1299.83 486.398C1299.5 486.398 1299.25 486.517 1299.07 486.754C1298.9 486.988 1298.81 487.33 1298.81 487.778C1298.81 488.228 1298.9 488.57 1299.07 488.807C1299.25 489.041 1299.5 489.158 1299.83 489.158Z" fill="white" fill-opacity="0.1"/>
<path d="M1309.54 489.158C1309.87 489.158 1310.12 489.041 1310.3 488.807C1310.47 488.57 1310.56 488.228 1310.56 487.778C1310.56 487.33 1310.47 486.988 1310.3 486.754C1310.12 486.517 1309.87 486.398 1309.54 486.398C1309.2 486.398 1308.95 486.517 1308.77 486.754C1308.6 486.992 1308.51 487.333 1308.51 487.778C1308.51 488.224 1308.6 488.565 1308.77 488.802C1308.95 489.04 1309.2 489.158 1309.54 489.158ZM1308.51 486.105C1308.72 485.833 1308.96 485.632 1309.22 485.499C1309.47 485.368 1309.77 485.302 1310.11 485.302C1310.71 485.302 1311.2 485.533 1311.58 485.994C1311.96 486.456 1312.15 487.051 1312.15 487.778C1312.15 488.503 1311.96 489.095 1311.58 489.557C1311.2 490.018 1310.71 490.249 1310.11 490.249C1309.77 490.249 1309.47 490.184 1309.22 490.057C1308.96 489.926 1308.72 489.723 1308.51 489.446V490.129H1306.97V483.581H1308.51V486.105Z" fill="white" fill-opacity="0.1"/>
<path d="M1312.66 485.418H1314.2L1315.51 488.615L1316.61 485.418H1318.16L1316.12 490.576C1315.92 491.098 1315.68 491.463 1315.41 491.672C1315.13 491.884 1314.78 491.99 1314.33 491.99H1313.43V490.999H1313.92C1314.18 490.999 1314.37 490.957 1314.49 490.874C1314.61 490.794 1314.7 490.65 1314.77 490.442L1314.81 490.312L1312.66 485.418Z" fill="white" fill-opacity="0.1"/>
<path d="M1326.11 488.985H1323.52L1323.1 490.129H1321.44L1323.82 483.85H1325.8L1328.19 490.129H1326.52L1326.11 488.985ZM1323.93 487.821H1325.69L1324.82 485.321L1323.93 487.821Z" fill="white" fill-opacity="0.1"/>
<path d="M1333.84 487.259V490.129H1332.29V487.932C1332.29 487.526 1332.28 487.244 1332.26 487.091C1332.24 486.937 1332.2 486.824 1332.16 486.749C1332.1 486.653 1332.02 486.579 1331.91 486.523C1331.81 486.469 1331.69 486.442 1331.56 486.442C1331.24 486.442 1330.98 486.564 1330.8 486.807C1330.62 487.047 1330.52 487.383 1330.52 487.812V490.129H1328.98V485.418H1330.52V486.105C1330.76 485.834 1331 485.632 1331.26 485.499C1331.53 485.368 1331.82 485.302 1332.13 485.302C1332.69 485.302 1333.12 485.471 1333.41 485.807C1333.69 486.141 1333.84 486.624 1333.84 487.259Z" fill="white" fill-opacity="0.1"/>
<path d="M1336.96 484.081V485.418H1338.56V486.495H1336.96V488.494C1336.96 488.713 1337.01 488.86 1337.1 488.937C1337.18 489.014 1337.36 489.052 1337.62 489.052H1338.42V490.129H1337.1C1336.48 490.129 1336.05 490.006 1335.79 489.759C1335.54 489.509 1335.41 489.088 1335.41 488.494V486.495H1334.65V485.418H1335.41V484.081H1336.96Z" fill="white" fill-opacity="0.1"/>
<path d="M1344.36 487.259V490.129H1342.81V487.941C1342.81 487.528 1342.8 487.244 1342.78 487.091C1342.76 486.937 1342.72 486.824 1342.68 486.749C1342.62 486.653 1342.54 486.579 1342.43 486.523C1342.33 486.469 1342.21 486.442 1342.08 486.442C1341.76 486.442 1341.51 486.564 1341.32 486.807C1341.14 487.047 1341.04 487.383 1341.04 487.812V490.129H1339.5V483.581H1341.04V486.105C1341.28 485.834 1341.52 485.632 1341.79 485.499C1342.05 485.368 1342.34 485.302 1342.65 485.302C1343.21 485.302 1343.64 485.471 1343.93 485.807C1344.22 486.141 1344.36 486.624 1344.36 487.259Z" fill="white" fill-opacity="0.1"/>
<path d="M1348.1 486.379C1347.75 486.379 1347.49 486.499 1347.31 486.74C1347.13 486.98 1347.04 487.326 1347.04 487.778C1347.04 488.23 1347.13 488.576 1347.31 488.816C1347.49 489.054 1347.75 489.172 1348.1 489.172C1348.43 489.172 1348.69 489.054 1348.87 488.816C1349.05 488.576 1349.14 488.23 1349.14 487.778C1349.14 487.326 1349.05 486.98 1348.87 486.74C1348.69 486.499 1348.43 486.379 1348.1 486.379ZM1348.1 485.302C1348.93 485.302 1349.58 485.522 1350.05 485.961C1350.51 486.397 1350.75 487.003 1350.75 487.778C1350.75 488.551 1350.51 489.156 1350.05 489.595C1349.58 490.031 1348.93 490.249 1348.1 490.249C1347.26 490.249 1346.61 490.031 1346.14 489.595C1345.67 489.156 1345.43 488.551 1345.43 487.778C1345.43 487.003 1345.67 486.397 1346.14 485.961C1346.61 485.522 1347.26 485.302 1348.1 485.302Z" fill="white" fill-opacity="0.1"/>
<path d="M1356.73 487.259V490.129H1355.18V487.932C1355.18 487.526 1355.17 487.244 1355.15 487.091C1355.13 486.937 1355.09 486.824 1355.05 486.749C1354.99 486.653 1354.91 486.579 1354.8 486.523C1354.7 486.469 1354.58 486.442 1354.45 486.442C1354.13 486.442 1353.88 486.564 1353.69 486.807C1353.51 487.047 1353.42 487.383 1353.42 487.812V490.129H1351.87V485.418H1353.42V486.105C1353.65 485.834 1353.89 485.632 1354.16 485.499C1354.42 485.368 1354.71 485.302 1355.02 485.302C1355.58 485.302 1356.01 485.471 1356.3 485.807C1356.59 486.141 1356.73 486.624 1356.73 487.259Z" fill="white" fill-opacity="0.1"/>
<path d="M1357.53 485.418H1359.07L1360.38 488.615L1361.48 485.418H1363.03L1360.99 490.576C1360.79 491.098 1360.55 491.463 1360.28 491.672C1360 491.884 1359.65 491.99 1359.2 491.99H1358.3V490.999H1358.79C1359.05 490.999 1359.24 490.957 1359.36 490.874C1359.48 490.794 1359.57 490.65 1359.64 490.442L1359.69 490.312L1357.53 485.418Z" fill="white" fill-opacity="0.1"/>
<path d="M1367.08 483.85H1368.74V488.903H1371.66V490.129H1367.08V483.85Z" fill="white" fill-opacity="0.1"/>
<path d="M1377.47 487.759V488.192H1373.85C1373.89 488.545 1374.02 488.809 1374.25 488.985C1374.47 489.161 1374.78 489.249 1375.19 489.249C1375.51 489.249 1375.85 489.204 1376.18 489.11C1376.53 489.014 1376.88 488.872 1377.24 488.682V489.84C1376.87 489.975 1376.51 490.076 1376.14 490.143C1375.78 490.213 1375.41 490.249 1375.05 490.249C1374.17 490.249 1373.49 490.033 1373 489.6C1372.52 489.167 1372.28 488.561 1372.28 487.778C1372.28 487.009 1372.51 486.406 1372.99 485.966C1373.47 485.523 1374.12 485.302 1374.96 485.302C1375.72 485.302 1376.32 485.527 1376.78 485.975C1377.24 486.421 1377.47 487.016 1377.47 487.759ZM1375.88 487.259C1375.88 486.974 1375.79 486.745 1375.62 486.572C1375.45 486.396 1375.23 486.307 1374.95 486.307C1374.65 486.307 1374.41 486.389 1374.22 486.552C1374.03 486.716 1373.92 486.951 1373.87 487.259H1375.88Z" fill="white" fill-opacity="0.1"/>
<path d="M1381.93 486.105V483.581H1383.48V490.129H1381.93V489.446C1381.72 489.725 1381.48 489.929 1381.23 490.057C1380.97 490.184 1380.67 490.249 1380.33 490.249C1379.74 490.249 1379.25 490.018 1378.87 489.557C1378.48 489.095 1378.29 488.503 1378.29 487.778C1378.29 487.051 1378.48 486.456 1378.87 485.994C1379.25 485.533 1379.74 485.302 1380.33 485.302C1380.67 485.302 1380.96 485.368 1381.22 485.499C1381.48 485.632 1381.72 485.833 1381.93 486.105ZM1380.91 489.158C1381.24 489.158 1381.49 489.041 1381.67 488.807C1381.84 488.57 1381.93 488.228 1381.93 487.778C1381.93 487.33 1381.84 486.988 1381.67 486.754C1381.49 486.517 1381.24 486.398 1380.91 486.398C1380.58 486.398 1380.33 486.517 1380.16 486.754C1379.98 486.988 1379.89 487.33 1379.89 487.778C1379.89 488.228 1379.98 488.57 1380.16 488.807C1380.33 489.041 1380.58 489.158 1380.91 489.158Z" fill="white" fill-opacity="0.1"/>
<path d="M1387.27 486.379C1386.93 486.379 1386.66 486.499 1386.48 486.74C1386.3 486.98 1386.21 487.326 1386.21 487.778C1386.21 488.23 1386.3 488.576 1386.48 488.816C1386.66 489.054 1386.93 489.172 1387.27 489.172C1387.6 489.172 1387.86 489.054 1388.04 488.816C1388.22 488.576 1388.31 488.23 1388.31 487.778C1388.31 487.326 1388.22 486.98 1388.04 486.74C1387.86 486.499 1387.6 486.379 1387.27 486.379ZM1387.27 485.302C1388.1 485.302 1388.75 485.522 1389.22 485.961C1389.68 486.397 1389.92 487.003 1389.92 487.778C1389.92 488.551 1389.68 489.156 1389.22 489.595C1388.75 490.031 1388.1 490.249 1387.27 490.249C1386.43 490.249 1385.78 490.031 1385.31 489.595C1384.84 489.156 1384.6 488.551 1384.6 487.778C1384.6 487.003 1384.84 486.397 1385.31 485.961C1385.78 485.522 1386.43 485.302 1387.27 485.302Z" fill="white" fill-opacity="0.1"/>
<path d="M1390.99 488.293V485.418H1392.55V485.889C1392.55 486.146 1392.54 486.466 1392.54 486.85C1392.54 487.235 1392.54 487.492 1392.54 487.619C1392.54 488.002 1392.55 488.276 1392.56 488.442C1392.59 488.609 1392.62 488.729 1392.67 488.802C1392.73 488.902 1392.82 488.979 1392.92 489.033C1393.02 489.085 1393.14 489.11 1393.27 489.11C1393.59 489.11 1393.85 488.99 1394.03 488.749C1394.21 488.509 1394.31 488.175 1394.31 487.744V485.418H1395.85V490.129H1394.31V489.446C1394.07 489.723 1393.83 489.926 1393.57 490.057C1393.31 490.184 1393.02 490.249 1392.7 490.249C1392.15 490.249 1391.72 490.083 1391.43 489.749C1391.14 489.416 1390.99 488.931 1390.99 488.293Z" fill="white" fill-opacity="0.1"/>
<path d="M1398.56 487.72L1396.81 485.418H1398.45L1399.44 486.812L1400.44 485.418H1402.07L1400.33 487.711L1402.16 490.129H1400.53L1399.44 488.639L1398.36 490.129H1396.73L1398.56 487.72Z" fill="white" fill-opacity="0.1"/>
<path d="M1267.7 492.196V493.186H1266.84C1266.63 493.186 1266.47 493.225 1266.38 493.302C1266.3 493.379 1266.26 493.513 1266.26 493.706V494.033H1267.58V495.109H1266.26V498.744H1264.71V495.109H1263.94V494.033H1264.71V493.706C1264.71 493.194 1264.86 492.814 1265.15 492.566C1265.44 492.32 1265.9 492.196 1266.52 492.196L1267.7 492.196Z" fill="white" fill-opacity="0.1"/>
<path d="M1271.96 495.316C1271.82 495.256 1271.68 495.21 1271.55 495.181C1271.42 495.15 1271.28 495.133 1271.15 495.133C1270.75 495.133 1270.45 495.258 1270.23 495.508C1270.02 495.756 1269.91 496.109 1269.91 496.571V498.744H1268.37V494.033H1269.91V494.807C1270.11 494.499 1270.34 494.275 1270.59 494.134C1270.85 493.989 1271.16 493.917 1271.52 493.917C1271.57 493.917 1271.63 493.921 1271.69 493.927C1271.75 493.93 1271.84 493.939 1271.95 493.951L1271.96 495.316Z" fill="white" fill-opacity="0.1"/>
<path d="M1275.03 494.994C1274.68 494.994 1274.42 495.114 1274.24 495.354C1274.06 495.595 1273.97 495.941 1273.97 496.393C1273.97 496.845 1274.06 497.191 1274.24 497.431C1274.42 497.669 1274.68 497.787 1275.03 497.787C1275.36 497.787 1275.62 497.669 1275.8 497.431C1275.98 497.191 1276.07 496.845 1276.07 496.393C1276.07 495.941 1275.98 495.595 1275.8 495.354C1275.62 495.114 1275.36 494.994 1275.03 494.994ZM1275.03 493.917C1275.86 493.917 1276.51 494.137 1276.98 494.576C1277.44 495.012 1277.68 495.618 1277.68 496.393C1277.68 497.166 1277.44 497.771 1276.98 498.21C1276.51 498.646 1275.86 498.864 1275.03 498.864C1274.19 498.864 1273.54 498.646 1273.07 498.21C1272.6 497.771 1272.36 497.166 1272.36 496.393C1272.36 495.618 1272.6 495.012 1273.07 494.576C1273.54 494.137 1274.19 493.917 1275.03 493.917Z" fill="white" fill-opacity="0.1"/>
<path d="M1283.28 494.816C1283.48 494.525 1283.71 494.302 1283.98 494.148C1284.25 493.994 1284.54 493.917 1284.87 493.917C1285.42 493.917 1285.84 494.085 1286.13 494.422C1286.43 494.756 1286.57 495.239 1286.57 495.874V498.744H1285.02V496.287V496.176C1285.02 496.136 1285.02 496.078 1285.02 496.003C1285.02 495.67 1284.97 495.43 1284.87 495.282C1284.77 495.132 1284.61 495.056 1284.39 495.056C1284.09 495.056 1283.87 495.175 1283.71 495.412C1283.54 495.646 1283.46 495.987 1283.46 496.431V498.743H1281.91V496.287C1281.91 495.765 1281.86 495.43 1281.77 495.282C1281.67 495.132 1281.51 495.056 1281.27 495.056C1280.98 495.056 1280.75 495.175 1280.59 495.412C1280.43 495.646 1280.35 495.984 1280.35 496.426V498.743H1278.79V494.032H1280.35V494.72C1280.54 494.454 1280.75 494.254 1281 494.119C1281.24 493.984 1281.52 493.917 1281.81 493.917C1282.15 493.917 1282.44 493.996 1282.7 494.153C1282.96 494.31 1283.15 494.531 1283.28 494.816Z" fill="white" fill-opacity="0.1"/>
<path d="M1292.78 492.696V494.033H1294.38V495.109H1292.78V497.109C1292.78 497.328 1292.83 497.475 1292.92 497.552C1293 497.628 1293.18 497.667 1293.44 497.667H1294.24V498.744H1292.92C1292.3 498.744 1291.87 498.621 1291.61 498.374C1291.36 498.124 1291.23 497.703 1291.23 497.109V495.109H1290.47V494.033H1291.23V492.696H1292.78Z" fill="white" fill-opacity="0.1"/>
<path d="M1300.18 495.874V498.744H1298.63V496.556C1298.63 496.143 1298.62 495.859 1298.6 495.706C1298.58 495.552 1298.54 495.439 1298.5 495.364C1298.44 495.268 1298.36 495.194 1298.25 495.138C1298.15 495.084 1298.03 495.057 1297.9 495.057C1297.58 495.057 1297.32 495.179 1297.14 495.422C1296.96 495.662 1296.86 495.998 1296.86 496.427V498.744H1295.32V492.196H1296.86V494.72C1297.1 494.449 1297.34 494.247 1297.6 494.114C1297.87 493.983 1298.16 493.917 1298.47 493.917C1299.03 493.917 1299.46 494.086 1299.75 494.422C1300.03 494.756 1300.18 495.239 1300.18 495.874Z" fill="white" fill-opacity="0.1"/>
<path d="M1306.44 496.374V496.806H1302.82C1302.86 497.16 1302.99 497.424 1303.22 497.6C1303.44 497.776 1303.76 497.864 1304.16 497.864C1304.49 497.864 1304.82 497.818 1305.16 497.725C1305.5 497.628 1305.85 497.487 1306.21 497.297V498.455C1305.84 498.59 1305.48 498.691 1305.11 498.758C1304.75 498.828 1304.38 498.864 1304.02 498.864C1303.14 498.864 1302.46 498.648 1301.98 498.215C1301.49 497.782 1301.25 497.175 1301.25 496.393C1301.25 495.624 1301.49 495.021 1301.97 494.581C1302.44 494.138 1303.1 493.917 1303.93 493.917C1304.69 493.917 1305.3 494.142 1305.75 494.59C1306.21 495.036 1306.44 495.631 1306.44 496.374ZM1304.85 495.874C1304.85 495.589 1304.77 495.359 1304.6 495.186C1304.42 495.011 1304.2 494.922 1303.92 494.922C1303.62 494.922 1303.38 495.004 1303.19 495.167C1303.01 495.331 1302.89 495.566 1302.84 495.874H1304.85Z" fill="white" fill-opacity="0.1"/>
<path d="M1310.76 492.465H1312.62L1314.96 496.773V492.465H1316.53V498.744H1314.68L1312.33 494.436V498.744H1310.76V492.465Z" fill="white" fill-opacity="0.1"/>
<path d="M1320.39 494.994C1320.05 494.994 1319.79 495.114 1319.61 495.354C1319.42 495.595 1319.33 495.941 1319.33 496.393C1319.33 496.845 1319.42 497.191 1319.61 497.431C1319.79 497.669 1320.05 497.787 1320.39 497.787C1320.73 497.787 1320.98 497.669 1321.16 497.431C1321.34 497.191 1321.43 496.845 1321.43 496.393C1321.43 495.941 1321.34 495.595 1321.16 495.354C1320.98 495.114 1320.73 494.994 1320.39 494.994ZM1320.39 493.917C1321.22 493.917 1321.87 494.137 1322.34 494.576C1322.81 495.012 1323.04 495.618 1323.04 496.393C1323.04 497.166 1322.81 497.771 1322.34 498.21C1321.87 498.646 1321.22 498.864 1320.39 498.864C1319.55 498.864 1318.9 498.646 1318.43 498.21C1317.96 497.771 1317.73 497.166 1317.73 496.393C1317.73 495.618 1317.96 495.012 1318.43 494.576C1318.9 494.137 1319.55 493.917 1320.39 493.917Z" fill="white" fill-opacity="0.1"/>
<path d="M1324.11 496.907V494.032H1325.67V494.504C1325.67 494.761 1325.66 495.08 1325.66 495.465C1325.66 495.85 1325.66 496.107 1325.66 496.234C1325.66 496.616 1325.67 496.89 1325.69 497.056C1325.71 497.223 1325.74 497.344 1325.79 497.417C1325.86 497.517 1325.94 497.593 1326.04 497.648C1326.14 497.699 1326.26 497.724 1326.39 497.724C1326.71 497.724 1326.97 497.604 1327.15 497.364C1327.34 497.124 1327.43 496.789 1327.43 496.359V494.032H1328.97V498.743H1327.43V498.061C1327.19 498.337 1326.95 498.54 1326.69 498.671C1326.43 498.799 1326.14 498.864 1325.82 498.864C1325.27 498.864 1324.84 498.698 1324.55 498.364C1324.26 498.031 1324.11 497.545 1324.11 496.907Z" fill="white" fill-opacity="0.1"/>
<path d="M1335.32 495.874V498.744H1333.77V496.547C1333.77 496.141 1333.76 495.859 1333.74 495.705C1333.72 495.552 1333.68 495.439 1333.64 495.364C1333.58 495.268 1333.5 495.193 1333.39 495.138C1333.29 495.084 1333.17 495.056 1333.04 495.056C1332.72 495.056 1332.47 495.179 1332.28 495.422C1332.1 495.662 1332.01 495.997 1332.01 496.427V498.744H1330.46V494.033H1332.01V494.72C1332.24 494.448 1332.49 494.247 1332.75 494.114C1333.01 493.983 1333.3 493.917 1333.61 493.917C1334.17 493.917 1334.6 494.085 1334.89 494.422C1335.18 494.756 1335.32 495.239 1335.32 495.874Z" fill="white" fill-opacity="0.1"/>
<path d="M1339.9 492.465H1342.66C1343.48 492.465 1344.11 492.643 1344.55 492.999C1344.99 493.352 1345.21 493.857 1345.21 494.513C1345.21 495.171 1344.99 495.677 1344.55 496.032C1344.11 496.388 1343.48 496.566 1342.66 496.566H1341.56V498.744H1339.9V492.465ZM1341.56 493.638V495.393H1342.48C1342.81 495.393 1343.05 495.316 1343.23 495.162C1343.41 495.008 1343.5 494.792 1343.5 494.513C1343.5 494.232 1343.41 494.016 1343.23 493.864C1343.05 493.714 1342.81 493.638 1342.48 493.638L1341.56 493.638Z" fill="white" fill-opacity="0.1"/>
<path d="M1349.91 495.316C1349.77 495.256 1349.63 495.21 1349.5 495.181C1349.37 495.15 1349.23 495.133 1349.1 495.133C1348.7 495.133 1348.39 495.258 1348.18 495.508C1347.97 495.756 1347.86 496.109 1347.86 496.571V498.744H1346.31V494.033H1347.86V494.807C1348.06 494.499 1348.28 494.275 1348.54 494.134C1348.8 493.989 1349.11 493.917 1349.47 493.917C1349.52 493.917 1349.58 493.921 1349.64 493.927C1349.7 493.93 1349.79 493.939 1349.9 493.951L1349.91 495.316Z" fill="white" fill-opacity="0.1"/>
<path d="M1352.97 494.994C1352.63 494.994 1352.37 495.114 1352.19 495.354C1352.01 495.595 1351.92 495.941 1351.92 496.393C1351.92 496.845 1352.01 497.191 1352.19 497.431C1352.37 497.669 1352.63 497.787 1352.97 497.787C1353.31 497.787 1353.57 497.669 1353.74 497.431C1353.92 497.191 1354.01 496.845 1354.01 496.393C1354.01 495.941 1353.92 495.595 1353.74 495.354C1353.57 495.114 1353.31 494.994 1352.97 494.994ZM1352.97 493.917C1353.81 493.917 1354.46 494.137 1354.92 494.576C1355.39 495.012 1355.62 495.618 1355.62 496.393C1355.62 497.166 1355.39 497.771 1354.92 498.21C1354.46 498.646 1353.81 498.864 1352.97 498.864C1352.14 498.864 1351.48 498.646 1351.01 498.21C1350.54 497.771 1350.31 497.166 1350.31 496.393C1350.31 495.618 1350.54 495.012 1351.01 494.576C1351.48 494.137 1352.14 493.917 1352.97 493.917Z" fill="white" fill-opacity="0.1"/>
<path d="M1356.75 494.033H1358.29V498.657C1358.29 499.288 1358.14 499.77 1357.83 500.104C1357.52 500.437 1357.07 500.604 1356.47 500.604H1355.71V499.614H1355.98C1356.27 499.614 1356.47 499.549 1356.58 499.421C1356.69 499.293 1356.75 499.038 1356.75 498.657L1356.75 494.033ZM1356.75 492.196H1358.29V493.427H1356.75V492.196Z" fill="white" fill-opacity="0.1"/>
<path d="M1364.61 496.374V496.806H1360.99C1361.03 497.16 1361.16 497.424 1361.38 497.6C1361.61 497.776 1361.92 497.864 1362.33 497.864C1362.65 497.864 1362.98 497.818 1363.32 497.725C1363.67 497.628 1364.02 497.487 1364.37 497.297V498.455C1364.01 498.59 1363.64 498.691 1363.28 498.758C1362.91 498.828 1362.55 498.864 1362.18 498.864C1361.31 498.864 1360.63 498.648 1360.14 498.215C1359.66 497.782 1359.42 497.175 1359.42 496.393C1359.42 495.624 1359.65 495.021 1360.13 494.581C1360.61 494.138 1361.26 493.917 1362.09 493.917C1362.85 493.917 1363.46 494.142 1363.92 494.59C1364.38 495.036 1364.61 495.631 1364.61 496.374ZM1363.02 495.874C1363.02 495.589 1362.93 495.359 1362.76 495.186C1362.59 495.011 1362.37 494.922 1362.09 494.922C1361.79 494.922 1361.55 495.004 1361.36 495.167C1361.17 495.331 1361.05 495.566 1361.01 495.874H1363.02Z" fill="white" fill-opacity="0.1"/>
<path d="M1369.68 494.182V495.407C1369.47 495.267 1369.26 495.162 1369.05 495.095C1368.84 495.028 1368.62 494.994 1368.39 494.994C1367.96 494.994 1367.63 495.118 1367.38 495.364C1367.14 495.608 1367.02 495.951 1367.02 496.393C1367.02 496.833 1367.14 497.175 1367.38 497.422C1367.63 497.666 1367.96 497.787 1368.39 497.787C1368.63 497.787 1368.86 497.753 1369.08 497.686C1369.3 497.616 1369.5 497.512 1369.68 497.374V498.604C1369.44 498.691 1369.2 498.755 1368.95 498.797C1368.7 498.841 1368.45 498.864 1368.2 498.864C1367.32 498.864 1366.64 498.646 1366.15 498.21C1365.66 497.775 1365.41 497.169 1365.41 496.393C1365.41 495.614 1365.66 495.007 1366.15 494.571C1366.64 494.136 1367.32 493.917 1368.2 493.917C1368.45 493.917 1368.7 493.94 1368.95 493.985C1369.19 494.027 1369.44 494.093 1369.68 494.182Z" fill="white" fill-opacity="0.1"/>
<path d="M1372.71 492.696V494.033H1374.3V495.109H1372.71V497.109C1372.71 497.328 1372.75 497.475 1372.84 497.552C1372.93 497.628 1373.1 497.667 1373.37 497.667H1374.16V498.744H1372.84C1372.23 498.744 1371.79 498.621 1371.54 498.374C1371.28 498.124 1371.16 497.703 1371.16 497.109V495.109H1370.39V494.033H1371.16V492.696H1372.71Z" fill="white" fill-opacity="0.1"/>
</mask>
<g mask="url(#mask1_177_1669)">
<rect x="-44.5596" y="-49" width="1551.93" height="999" fill="#FFA3B3"/>
</g>
<path d="M-213.974 538.06C-213.669 532.984 -210.681 528.387 -205.575 524.926C-207.526 519.296 -207.154 513.97 -204.409 509.797C-200.802 504.268 -193.92 501.593 -185.057 502.257C-178.96 502.717 -172.299 504.818 -165.864 508.136C-169.721 489.884 -164.439 474.365 -152.776 471.376C-147.741 470.101 -142.329 471.453 -137.365 475.109C-132.472 471.571 -127.161 470.26 -122.217 471.518C-110.888 474.384 -105.535 489.089 -108.716 506.649C-98.5822 501.039 -87.9387 498.71 -79.7486 500.469C-74.9012 501.503 -71.1069 503.926 -68.7749 507.48C-65.9668 511.759 -65.6074 517.186 -67.6383 522.902C-62.6656 526.346 -59.7571 530.877 -59.4562 535.84C-58.7458 547.232 -71.4323 556.811 -89.6066 559.278C-88.6706 560.113 -87.7137 560.931 -86.8487 561.807C-61.5005 561.953 -41.3417 561.868 -27.0165 561.554C-16.9497 561.399 -7.54774 563.952 0.885248 567.722L-32.161 532.347C-33.8702 530.523 -34.2462 527.865 -33.1138 525.658L-25.149 510.097L-48.976 500.001C-52.0849 498.686 -53.51 495.164 -52.1561 492.139C-50.8022 489.118 -47.2042 487.722 -44.0868 489.045L-19.6661 499.394L-8.21637 477.026L-13.0095 465.35C-14.9526 470.13 -18.1494 473.656 -22.4159 475.26C-24.2128 475.956 -26.1058 476.302 -28.0656 476.302C-30.4893 476.302 -33.0091 475.769 -35.529 474.702C-42.8418 471.62 -49.728 464.32 -54.5719 454.745C-57.7979 461.479 -62.0478 467.329 -66.8914 471.372C-71.7012 475.382 -76.7157 477.446 -81.4499 477.446C-83.3721 477.446 -85.2484 477.108 -87.0495 476.42C-91.9011 474.58 -95.4697 470.387 -97.2875 464.573C-97.3878 464.577 -97.4839 464.577 -97.58 464.577C-103.551 464.577 -108.524 462.586 -111.704 458.804C-115.975 453.756 -116.46 446.566 -113.075 438.553C-110.81 433.208 -106.886 427.842 -101.892 423.029C-120.839 420.928 -134.224 411.161 -133.526 399.476C-133.22 394.403 -130.233 389.807 -125.126 386.342C-127.078 380.715 -126.706 375.39 -123.96 371.213C-120.354 365.688 -113.543 362.997 -104.6 363.673C-98.5028 364.133 -91.8373 366.234 -85.4101 369.556C-89.2755 351.304 -83.9977 335.781 -72.33 332.796C-67.2863 331.517 -61.8789 332.877 -56.9189 336.529C-52.0256 332.991 -46.706 331.696 -41.7667 332.938C-30.4422 335.804 -25.089 350.514 -28.2737 368.069C-18.1401 362.459 -7.50095 360.142 0.693481 361.889C5.54082 362.923 9.33518 365.345 11.6672 368.9C14.4711 373.183 14.8305 378.606 12.8038 384.322C17.7765 387.766 20.685 392.297 20.9858 397.26C21.692 408.635 9.04719 418.207 -9.08004 420.69C-0.509376 428.344 5.01952 437.455 5.83362 445.586C6.31835 450.39 5.11904 454.653 2.37355 457.905C1.2704 459.208 -0.0752734 460.242 -1.53358 461.109L4.19556 475.07C4.84328 476.65 4.77223 478.429 3.98663 479.956L-9.81551 506.911C-9.70268 507.909 -9.75701 508.927 -10.1958 509.912C-10.739 511.129 -11.6667 512.053 -12.7615 512.672L-20.2624 527.325L33.0131 584.356L41.2078 554.652L10.9408 521.988C9.32781 520.253 8.90995 517.762 9.86268 515.616L23.2937 485.322C24.635 482.289 28.258 480.909 31.3546 482.208C33.4523 483.091 34.6934 485.001 34.9274 487.069C35.7924 482.782 38.5087 478.894 42.9465 475.881C40.995 470.251 41.3585 464.925 44.1081 460.748C44.6639 459.901 45.4287 459.25 46.1306 458.537C35.6544 445.167 24.0121 430.018 24.0121 430.018C23.0343 428.744 22.6164 427.14 22.8546 425.56C23.0928 423.985 23.9745 422.568 25.2908 421.623L45.0152 407.5L19.4991 361.829C17.8777 358.93 18.9767 355.303 21.9479 353.723C24.9357 352.147 28.6548 353.218 30.2678 356.117L58.3449 406.373C59.8117 408.999 59.0637 412.276 56.5899 414.043L37.5427 427.682C42.1435 433.651 50.2547 444.13 57.4757 453.319C59.3519 453.103 61.341 453.046 63.4597 453.209C67.8642 453.539 72.5694 454.781 77.2704 456.649L81.5203 451.096C80.5467 436.481 85.8202 424.869 95.7322 422.332C95.8952 422.292 96.0623 422.308 96.2253 422.271L97.4873 414.1C92.2304 413.742 87.9304 411.902 85.0844 408.482C77.7214 399.765 82.1175 384.97 95.0216 372.631C87.2407 371.764 80.0117 369.606 74.4285 366.284C66.8356 361.765 62.8697 355.682 63.2623 349.156C63.5674 344.079 66.5551 339.482 71.6575 336.018C69.706 330.388 70.0779 325.066 72.8234 320.889C76.4338 315.36 83.2913 312.669 92.184 313.349C98.2809 313.809 104.946 315.91 111.377 319.232C107.511 300.98 112.789 285.457 124.453 282.472C129.488 281.189 134.899 282.549 139.864 286.205C144.757 282.667 150.068 281.36 155.016 282.618C166.34 285.481 171.698 300.19 168.513 317.754C178.643 312.143 189.277 309.815 197.476 311.569C202.323 312.603 206.122 315.026 208.454 318.58C211.258 322.859 211.617 328.286 209.591 334.002C214.559 337.446 217.472 341.978 217.773 346.941C218.479 358.328 205.797 367.912 187.627 370.379C193.406 375.537 197.965 381.424 200.481 387.307C203.899 395.311 203.439 402.505 199.169 407.586C195.868 411.482 190.711 413.469 184.455 413.375C182.637 419.038 179.127 423.134 174.376 424.946C172.583 425.634 170.694 425.98 168.747 425.98C166.307 425.98 163.774 425.439 161.242 424.368C153.942 421.278 147.068 413.986 142.249 404.452C138.338 412.651 133.11 419.096 127.435 422.96C137.924 426.542 142.842 440.69 139.779 457.606C149.904 451.996 160.535 449.667 168.742 451.426C173.589 452.46 177.388 454.882 179.72 458.437C182.528 462.716 182.883 468.143 180.857 473.863C185.825 477.307 188.738 481.834 189.039 486.797C189.749 498.189 177.067 507.772 158.897 510.235C164.676 515.393 169.235 521.281 171.747 527.163C175.165 535.167 174.706 542.361 170.439 547.434C167.079 551.407 161.931 553.443 155.721 553.252C153.903 558.899 150.393 562.986 145.646 564.806C143.853 565.49 141.965 565.832 140.017 565.832C137.577 565.832 135.045 565.295 132.508 564.22C125.195 561.121 118.309 553.809 113.491 544.246C110.265 550.988 106.011 556.851 101.16 560.898C96.3539 564.908 91.3393 566.972 86.601 566.972C84.6788 566.972 82.8025 566.634 81.0056 565.946C76.5259 564.249 73.2037 560.475 71.2816 555.336L65.4772 564.236L83.7339 584.951C84.4777 585.794 84.8873 586.84 85.0628 587.927C105.831 578.001 128.945 567.168 132.22 566.504C133.085 566.329 135.388 565.877 176.808 569.757V537.353C176.808 534.051 179.554 531.377 182.943 531.377C186.332 531.377 189.077 534.047 189.077 537.353V570.925C197.184 571.707 206.436 572.614 217.062 573.681L225.809 563.564C223.828 562.628 222.039 561.427 220.685 559.81C216.415 554.762 215.926 547.572 219.315 539.559C221.576 534.214 225.495 528.848 230.493 524.035C211.542 521.935 198.157 512.167 198.86 500.491C199.161 495.414 202.153 490.818 207.259 487.349C205.308 481.719 205.68 476.397 208.429 472.216C212.044 466.691 218.931 464.012 227.79 464.684C233.883 465.144 240.548 467.245 246.983 470.567C243.121 452.311 248.399 436.792 260.063 433.807C265.098 432.525 270.514 433.88 275.474 437.54C280.371 433.994 285.674 432.687 290.622 433.95C301.946 436.812 307.304 451.517 304.119 469.085C314.248 463.474 324.875 461.15 333.082 462.9C337.929 463.934 341.728 466.357 344.06 469.911C346.868 474.194 347.223 479.621 345.197 485.337C350.169 488.782 353.078 493.313 353.374 498.276C354.085 509.668 341.403 519.247 323.228 521.714C329.008 526.872 333.567 532.759 336.083 538.646C339.501 546.646 339.041 553.84 334.77 558.925C331.469 562.821 326.325 564.625 320.061 564.714C318.243 570.382 314.729 574.473 309.982 576.281C308.189 576.977 306.3 577.315 304.349 577.315C301.913 577.315 299.385 576.778 296.848 575.711C289.535 572.613 282.645 565.305 277.826 555.738C274.6 562.48 270.346 568.338 265.495 572.385C260.69 576.396 255.671 578.46 250.928 578.46C249.01 578.46 247.134 578.122 245.333 577.438C241.655 576.041 238.722 573.281 236.72 569.495L224.347 583.805C223.039 585.315 221.054 586.077 219.028 585.901C189.497 582.929 141.441 578.337 134.591 578.292C130.078 579.949 106.584 590.938 85.7452 600.929L94.4037 798.58C94.4747 800.208 93.8604 801.796 92.7071 802.969C91.5496 804.149 89.9492 804.813 88.2777 804.813L28.914 804.821C27.2425 804.821 25.642 804.158 24.4887 802.977C23.3312 801.804 22.717 800.217 22.788 798.588L31.2166 606.2C30.5563 605.789 29.9463 605.284 29.4699 604.629C29.2442 604.307 3.86604 572.763 -26.7593 573.508C-39.4714 573.785 -56.7 573.887 -78.0077 573.806C-77.594 574.608 -77.0967 575.41 -76.754 576.212C-73.3358 584.22 -73.7954 591.414 -78.0662 596.482C-81.4134 600.452 -86.4656 602.447 -92.7883 602.3C-94.6019 607.947 -98.1121 612.034 -102.855 613.854C-104.681 614.555 -106.583 614.901 -108.526 614.901C-113.256 614.901 -118.258 612.853 -123.055 608.867C-127.69 605.028 -131.789 599.552 -134.978 593.233C-138.208 600.004 -142.47 605.891 -147.339 609.95C-152.149 613.96 -157.163 616.024 -161.898 616.024C-163.82 616.024 -165.696 615.686 -167.497 614.998C-172.349 613.154 -175.913 608.965 -177.739 603.159C-183.915 603.265 -188.922 601.234 -192.152 597.382C-196.423 592.334 -196.908 585.144 -193.523 577.131C-191.258 571.786 -187.334 566.42 -182.341 561.604C-201.292 559.507 -214.676 549.744 -213.974 538.056L-213.974 538.06ZM-60.7296 406.529C-60.7296 409.355 -58.3686 411.655 -55.4727 411.655C-52.5726 411.655 -50.2157 409.355 -50.2157 406.529C-50.2157 403.704 -52.5767 401.403 -55.4727 401.403C-58.3686 401.403 -60.7296 403.7 -60.7296 406.529ZM-102.229 451.228C-101.001 452.685 -97.7328 453.06 -93.6835 452.193C-91.9828 451.818 -90.1734 452.189 -88.7609 453.198C-87.3401 454.208 -86.4291 455.759 -86.2703 457.461C-85.865 461.589 -84.4609 464.594 -82.593 465.302C-80.8338 465.946 -77.8919 464.818 -74.8706 462.306C-70.7252 458.849 -66.8807 453.194 -64.3149 446.79C-60.0275 436.094 -60.4997 425.46 -63.5795 421.577C-64.6409 421.031 -65.6271 420.392 -66.5464 419.655C-71.1848 418.458 -80.1228 420.653 -89.9016 428.518C-95.3465 432.883 -99.659 438.204 -101.735 443.118C-103.248 446.693 -103.441 449.795 -102.229 451.228ZM-105.547 375.604C-109.538 375.29 -112.597 376.084 -113.621 377.66C-114.644 379.219 -113.976 382.444 -111.907 385.876C-111.013 387.354 -110.817 389.137 -111.368 390.761C-111.92 392.394 -113.161 393.713 -114.778 394.389C-118.673 396.017 -121.163 398.24 -121.284 400.186C-121.518 404.103 -112.175 410.58 -97.5655 411.414C-84.8031 412.135 -75.2127 407.876 -72.7725 404.387C-72.597 403.04 -72.292 401.733 -71.8114 400.503C-72.3923 395.837 -77.3566 388.428 -87.6151 382.061C-93.5698 378.364 -100.111 376.011 -105.547 375.604ZM-44.8506 344.52C-45.0721 344.463 -45.3061 344.434 -45.5526 344.434C-47.4039 344.434 -49.9362 345.977 -52.3682 348.64C-53.5341 349.91 -55.2014 350.639 -56.9481 350.639H-56.9648C-58.7199 350.635 -60.3914 349.898 -61.5448 348.616C-64.3529 345.509 -67.3073 343.873 -69.2295 344.373C-73.1367 345.371 -76.5717 356.03 -72.8609 369.819C-70.2366 379.594 -64.3487 387.236 -59.5176 389.955C-58.2096 389.65 -56.8641 389.446 -55.4642 389.446C-54.6284 389.446 -53.8261 389.576 -53.0195 389.686C-48.845 387.085 -43.8847 380.379 -41.1312 369.952C-37.4664 356.159 -40.9434 345.509 -44.8506 344.52ZM8.74698 397.988C8.63415 396.099 6.20209 393.917 2.40355 392.288C0.798898 391.6 -0.429606 390.273 -0.968663 388.644C-1.50772 387.016 -1.29878 385.241 -0.404527 383.767C1.7517 380.229 2.41613 377.001 1.33385 375.348C0.656887 374.314 -0.818219 373.817 -1.92982 373.577C-2.799 373.389 -3.83957 373.284 -5.02626 373.284C-9.7525 373.284 -16.7852 374.957 -24.5998 379.842C-33.5842 385.469 -39.0043 393.196 -40.1404 398.411C-39.1249 400.227 -38.4438 402.222 -38.1637 404.355C-35.0129 407.38 -26.9184 410.01 -14.9466 409.298C-0.333524 408.434 8.98982 401.925 8.74698 397.988ZM-19.4596 427.7C-22.5519 425.274 -25.8741 423.259 -29.1502 421.846C-35.6482 418.931 -41.06 418.512 -43.9804 419.322C-44.8162 420.034 -45.7146 420.665 -46.6799 421.219C-49.346 424.985 -50.0188 433.901 -45.2842 445.72C-41.0135 456.277 -34.7369 462.029 -30.6583 463.748C-29.6094 464.187 -28.1134 464.611 -26.8891 464.147C-25.0672 463.463 -23.6923 460.548 -23.2995 456.55C-23.1365 454.844 -22.2255 453.289 -20.8006 452.283C-19.7475 451.534 -18.4813 451.139 -17.1943 451.139C-16.7513 451.139 -16.3 451.184 -15.8654 451.281C-13.7384 451.745 -11.9499 451.872 -10.1948 451.648C-8.25584 451.456 -7.48699 450.801 -7.09417 450.333C-6.29603 449.388 -6.2626 447.878 -6.37124 446.774C-6.80165 442.451 -10.5049 434.862 -19.4596 427.7ZM271.667 507.55C271.667 510.375 274.028 512.672 276.928 512.672C279.829 512.672 282.19 510.371 282.19 507.55C282.19 504.724 279.829 502.424 276.928 502.424C274.028 502.424 271.667 504.72 271.667 507.55ZM226.849 476.624C222.88 476.319 219.8 477.113 218.776 478.676C217.752 480.236 218.421 483.46 220.493 486.896C221.383 488.374 221.576 490.157 221.028 491.782C220.477 493.414 219.236 494.733 217.618 495.409C213.724 497.038 211.233 499.257 211.12 501.211C210.882 505.127 220.226 511.605 234.835 512.439C247.618 513.2 257.171 508.913 259.619 505.42C259.795 504.064 260.1 502.757 260.585 501.52C260 496.858 255.035 489.453 244.781 483.084C238.826 479.384 232.29 477.031 226.849 476.624ZM287.546 445.54C287.324 445.483 287.09 445.459 286.844 445.459C284.997 445.459 282.469 446.998 280.032 449.661C278.867 450.935 277.203 451.664 275.453 451.664H275.436C273.681 451.66 272.009 450.923 270.852 449.64C268.035 446.534 265.06 444.926 263.163 445.398C259.26 446.395 255.82 457.054 259.527 470.843C262.16 480.622 268.052 488.269 272.878 490.984C274.182 490.682 275.527 490.479 276.927 490.479C277.767 490.479 278.569 490.609 279.376 490.719C283.551 488.122 288.507 481.412 291.26 470.985C294.929 457.18 291.453 446.525 287.546 445.54ZM341.143 499.009C341.026 497.12 338.599 494.937 334.8 493.309C333.191 492.621 331.963 491.294 331.428 489.665C330.893 488.037 331.093 486.261 331.992 484.788C334.148 481.246 334.813 478.017 333.73 476.368C333.049 475.334 331.578 474.829 330.462 474.593C329.589 474.406 328.553 474.3 327.366 474.3C322.64 474.3 315.607 475.973 307.788 480.863C298.808 486.485 293.388 494.209 292.248 499.424C293.267 501.24 293.944 503.239 294.228 505.376C297.375 508.401 305.452 511.048 317.446 510.315C332.059 509.452 341.386 502.946 341.143 499.009ZM287.141 546.736C291.4 557.281 297.672 563.034 301.75 564.764C302.799 565.208 304.312 565.655 305.503 565.179C307.308 564.495 308.679 561.58 309.08 557.57C309.251 555.872 310.162 554.321 311.583 553.315C312.636 552.57 313.902 552.18 315.181 552.18C315.624 552.18 316.071 552.224 316.51 552.318C320.668 553.222 324.044 552.843 325.306 551.353C326.497 549.936 326.292 546.83 324.767 543.259C322.669 538.354 318.34 533.041 312.887 528.692C303.982 521.588 293.644 518.933 288.475 520.293C287.635 521.018 286.728 521.657 285.755 522.215C282.98 526.078 282.553 535.402 287.141 546.736ZM246.131 558.478C246.536 562.61 247.944 565.615 249.804 566.319C251.559 567.003 254.513 565.835 257.526 563.319C261.672 559.862 265.52 554.211 268.082 547.807C272.369 537.112 271.889 526.478 268.818 522.594C267.756 522.049 266.77 521.409 265.851 520.672C261.204 519.484 252.277 521.67 242.5 529.536C237.059 533.9 232.746 539.221 230.666 544.135C229.153 547.714 228.957 550.816 230.173 552.253C231.393 553.711 234.669 554.085 238.706 553.218C240.419 552.844 242.212 553.218 243.629 554.224C245.058 555.23 245.964 556.78 246.131 558.478ZM112.602 501.195C115.502 501.195 117.863 498.895 117.863 496.07C117.863 493.244 115.502 490.944 112.602 490.944C109.702 490.944 107.341 493.244 107.341 496.07C107.341 498.895 109.702 501.195 112.602 501.195ZM60.9485 518.29C62.5239 516.291 64.3249 514.365 66.2681 512.505C63.0421 512.143 59.8872 511.621 56.9327 510.807L60.9485 518.29ZM62.5281 465.144C58.5708 464.826 55.4743 465.624 54.4463 467.2C53.4225 468.755 54.0995 471.98 56.1638 475.416C57.0581 476.894 57.2545 478.677 56.7029 480.301C56.1513 481.934 54.9102 483.253 53.293 483.929C49.3984 485.557 46.9078 487.776 46.7867 489.73C46.678 491.558 48.7173 493.944 52.1063 495.964C56.7657 498.736 63.4726 500.556 70.5053 500.955C75.9001 501.273 80.7015 500.666 84.6797 499.62C84.7257 499.612 84.7591 499.579 84.8093 499.571C84.8218 499.567 84.8343 499.575 84.8469 499.571C90.1832 498.142 93.8939 495.923 95.2938 493.928C95.4693 492.576 95.7744 491.274 96.2549 490.04C95.6741 485.374 90.7097 477.964 80.4545 471.602C74.4997 467.909 67.9647 465.551 62.5281 465.144ZM136.07 356.209C136.07 359.034 138.431 361.334 141.327 361.334C144.227 361.334 146.589 359.034 146.589 356.209C146.589 353.383 144.228 351.083 141.327 351.083C138.432 351.083 136.07 353.379 136.07 356.209ZM91.2525 325.283C87.2742 324.97 84.2029 325.764 83.1749 327.339C82.1511 328.899 82.8239 332.123 84.8924 335.559C85.7867 337.037 85.9788 338.82 85.4315 340.445C84.8799 342.077 83.6387 343.396 82.0216 344.072C78.127 345.701 75.6363 347.924 75.5152 349.874C75.4066 351.702 77.4459 354.087 80.8349 356.107C85.4943 358.879 92.2012 360.699 99.2338 361.098C102.798 361.306 106.095 361.106 109.083 360.659C109.313 360.589 109.543 360.569 109.781 360.528C117.127 359.299 122.313 356.514 124.022 354.075C124.197 352.724 124.502 351.421 124.983 350.183C124.402 345.521 119.438 338.116 109.179 331.741C103.229 328.048 96.6933 325.69 91.2525 325.283ZM151.945 294.199C151.723 294.142 151.485 294.118 151.243 294.118C149.391 294.118 146.868 295.657 144.431 298.319C143.265 299.598 141.786 300.493 139.839 300.322C138.084 300.318 136.412 299.581 135.255 298.299C132.438 295.193 129.446 293.568 127.566 294.057C123.663 295.054 120.223 305.713 123.934 319.502C126.567 329.277 132.455 336.923 137.282 339.638C138.59 339.333 139.931 339.133 141.331 339.133C142.171 339.133 142.973 339.264 143.78 339.374C147.954 336.776 152.915 330.067 155.664 319.64C159.333 305.838 155.856 295.188 151.945 294.199ZM205.546 347.676C205.429 345.783 203.001 343.596 199.202 341.972C197.597 341.284 196.369 339.961 195.83 338.332C195.295 336.704 195.496 334.929 196.394 333.455C198.55 329.909 199.215 326.68 198.132 325.031C197.451 323.997 195.98 323.492 194.865 323.256C193.991 323.069 192.955 322.963 191.772 322.963C187.042 322.963 180.013 324.637 172.19 329.526C163.214 335.148 157.794 342.868 156.65 348.083C157.669 349.899 158.346 351.898 158.63 354.035C161.773 357.064 169.834 359.703 181.848 358.974C196.461 358.115 205.788 351.609 205.546 347.676ZM151.544 395.395C155.798 405.935 162.074 411.697 166.152 413.423C167.205 413.866 168.71 414.29 169.905 413.842C171.71 413.15 173.081 410.231 173.486 406.229C173.657 404.527 174.568 402.98 175.989 401.974C177.042 401.229 178.308 400.838 179.587 400.838C180.03 400.838 180.473 400.883 180.912 400.981C185.074 401.877 188.45 401.498 189.708 400.012C190.903 398.595 190.699 395.493 189.173 391.918C187.076 387.012 182.742 381.699 177.289 377.351C168.384 370.246 158.058 367.588 152.881 368.952C152.042 369.677 151.135 370.316 150.161 370.874C147.378 374.733 146.951 384.061 151.544 395.395ZM132.509 396.498C137.156 384.882 135.923 374.733 133.195 371.245C132.116 370.687 131.113 370.035 130.186 369.282C126.922 368.509 121.139 369.246 113.663 373.529C111.44 374.799 109.179 376.358 106.927 378.178C95.6313 387.265 92.0091 397.874 94.5958 400.941C95.7784 402.366 99.1046 402.72 103.095 401.861C104.909 401.466 106.81 401.897 108.269 403.029C109.318 403.848 109.944 405.008 110.27 406.254C110.279 406.274 110.283 406.294 110.287 406.311C110.354 406.571 110.5 406.803 110.529 407.072C110.617 407.438 110.667 407.809 110.684 408.179C111.177 411.803 112.473 414.327 114.203 414.97C117.951 416.375 127.19 409.763 132.509 396.498ZM123.22 434.051C122.998 433.994 122.764 433.97 122.518 433.97C120.666 433.97 118.138 435.513 115.702 438.176C114.536 439.446 112.873 440.175 111.122 440.175H111.105C109.35 440.171 107.683 439.434 106.521 438.151C103.713 435.049 100.742 433.412 98.8407 433.909C94.9378 434.906 91.4986 445.565 95.2052 459.354C97.8378 469.129 103.726 476.775 108.553 479.49C109.861 479.185 111.202 478.986 112.602 478.986C113.438 478.986 114.24 479.116 115.047 479.226C119.221 476.628 124.181 469.919 126.935 459.492C130.604 445.695 127.127 435.04 123.22 434.051ZM176.817 487.531C176.7 485.638 174.268 483.452 170.47 481.827C168.865 481.139 167.637 479.812 167.102 478.183C166.567 476.555 166.767 474.78 167.666 473.306C169.818 469.768 170.486 466.535 169.404 464.887C168.723 463.852 167.252 463.348 166.132 463.112C165.259 462.924 164.222 462.818 163.04 462.818C158.309 462.818 151.281 464.492 143.462 469.377C134.486 475 129.066 482.723 127.922 487.939C128.941 489.754 129.618 491.753 129.902 493.891C133.045 496.916 141.118 499.546 153.12 498.833C167.737 497.97 177.06 491.46 176.817 487.531ZM137.42 553.282C138.477 553.722 139.986 554.161 141.168 553.701C142.978 553.005 144.348 550.09 144.754 546.088C144.925 544.39 145.836 542.839 147.253 541.834C148.31 541.089 149.572 540.698 150.855 540.698C151.293 540.698 151.741 540.743 152.179 540.836C156.346 541.74 159.722 541.349 160.98 539.867C162.171 538.45 161.966 535.352 160.441 531.778C158.343 526.872 154.01 521.559 148.561 517.21C139.652 510.106 129.318 507.46 124.153 508.811C123.313 509.536 122.406 510.175 121.433 510.737C118.654 514.601 118.223 523.923 122.816 535.254C127.074 545.794 133.342 551.548 137.42 553.282ZM79.31 542.738C80.7308 543.747 81.6376 545.294 81.8047 546.996C82.2101 551.128 83.6183 554.129 85.4821 554.833C87.2455 555.505 90.1915 554.353 93.2045 551.841C97.3498 548.384 101.199 542.734 103.76 536.329C108.043 525.634 107.567 515 104.496 511.112C103.434 510.567 102.448 509.927 101.529 509.19C96.8818 508.006 87.9554 510.192 78.1777 518.054C72.737 522.418 68.4244 527.739 66.344 532.653C64.8312 536.232 64.639 539.334 65.8509 540.763C67.071 542.221 70.3472 542.579 74.3881 541.732C76.1057 541.358 77.8933 541.736 79.31 542.738ZM81.8967 792.876L81.3368 780.085H60.5725C57.1835 780.085 54.438 777.414 54.438 774.108C54.438 770.806 57.1793 768.132 60.5725 768.132L80.8147 768.136L78.3534 711.936H64.4635C61.0745 711.936 58.329 709.265 58.329 705.959C58.329 702.657 61.0786 699.982 64.4635 699.982H77.8313L75.2781 641.698H60.5816C57.1926 641.698 54.4471 639.027 54.4471 635.721C54.4471 632.42 57.1884 629.745 60.5816 629.745H74.756L73.0678 591.19L53.2354 568.684C51.4762 566.689 51.263 563.806 52.7131 561.588L59.5495 551.104C58.3711 550.322 57.2888 549.43 56.3779 548.352C52.6295 543.922 51.8021 537.839 53.9417 531.003L41.8405 508.456C40.9629 506.824 40.9546 504.931 41.6984 503.29C37.0808 499.455 34.607 494.871 34.582 489.997C34.5736 490.022 34.5778 490.046 34.5652 490.071L22.7015 516.84L52.5673 549.072C53.963 550.578 54.4771 552.667 53.9379 554.629L44.2348 589.781L40.9795 664.086H54.9453C58.3343 664.086 61.0798 666.757 61.0798 670.062C61.0798 673.364 58.3385 676.039 54.9453 676.039H40.4574L38.0546 730.919H54.9452C58.3342 730.919 61.0797 733.59 61.0797 736.896C61.0797 740.198 58.3384 742.873 54.9452 742.873H37.5326L35.3429 792.877L81.8967 792.876ZM-141.172 545.104C-141.172 547.929 -138.811 550.225 -135.906 550.225C-133.006 550.225 -130.649 547.925 -130.649 545.104C-130.649 542.274 -133.01 539.974 -135.906 539.974C-138.81 539.974 -141.172 542.274 -141.172 545.104ZM-125.288 483.094C-125.509 483.037 -125.743 483.009 -125.99 483.009C-127.841 483.009 -130.373 484.552 -132.814 487.214C-133.975 488.485 -135.643 489.213 -137.389 489.213H-137.406C-139.161 489.209 -140.833 488.472 -141.99 487.19C-144.798 484.084 -147.74 482.447 -149.675 482.948C-153.574 483.945 -157.017 494.608 -153.315 508.393C-150.682 518.168 -144.794 525.81 -139.964 528.529C-138.656 528.224 -137.31 528.02 -135.911 528.02C-135.071 528.02 -134.268 528.151 -133.462 528.261C-129.287 525.659 -124.327 518.95 -121.578 508.527C-117.904 494.734 -121.38 484.083 -125.288 483.094ZM-71.69 536.567C-71.8029 534.677 -74.2349 532.495 -78.0334 530.867C-79.6381 530.179 -80.8666 528.851 -81.4057 527.223C-81.9447 525.594 -81.7358 523.819 -80.8415 522.346C-78.6853 518.808 -78.0209 515.579 -79.1032 513.926C-79.7801 512.892 -81.2552 512.395 -82.3668 512.155C-83.236 511.968 -84.2766 511.862 -85.4633 511.862C-90.1895 511.862 -97.2221 513.535 -105.037 518.421C-114.021 524.047 -119.441 531.774 -120.577 536.985C-119.562 538.801 -118.885 540.792 -118.601 542.929C-115.45 545.954 -107.355 548.576 -95.3793 547.876C-80.7705 547.005 -71.4475 540.499 -71.6892 536.566L-71.69 536.567ZM-125.692 584.29C-123.109 590.69 -119.248 596.333 -115.095 599.777C-112.069 602.284 -109.085 603.408 -107.339 602.74C-105.529 602.044 -104.159 599.129 -103.749 595.127C-103.574 593.421 -102.667 591.878 -101.246 590.873C-100.193 590.128 -98.9269 589.737 -97.6482 589.737C-97.2052 589.737 -96.7623 589.782 -96.3235 589.875C-92.1615 590.779 -88.7891 590.396 -87.5229 588.906C-86.3319 587.49 -86.5367 584.383 -88.062 580.813C-90.1597 575.907 -94.4889 570.602 -99.9461 566.245C-108.855 559.137 -119.223 556.482 -124.362 557.85C-125.198 558.571 -126.097 559.206 -127.066 559.76C-129.853 563.623 -130.288 572.95 -125.691 584.289L-125.692 584.29ZM-182.666 589.802C-181.437 591.26 -178.169 591.622 -174.124 590.771C-172.398 590.405 -170.622 590.775 -169.202 591.777C-167.781 592.787 -166.878 594.334 -166.711 596.035C-166.306 600.16 -164.897 603.168 -163.025 603.873C-161.266 604.548 -158.324 603.392 -155.303 600.88C-151.158 597.424 -147.313 591.773 -144.747 585.368C-140.343 574.376 -141.183 564.72 -143.582 560.75L-149.904 557.924C-154.889 558.034 -162.327 560.656 -170.33 567.093C-175.775 571.457 -180.088 576.778 -182.164 581.693C-183.685 585.271 -183.878 588.373 -182.666 589.802ZM-178.002 549.994C-165.253 550.682 -155.675 546.456 -153.218 542.967C-153.042 541.611 -152.737 540.3 -152.252 539.063C-152.842 534.401 -157.806 526.995 -168.056 520.636C-174.015 516.939 -180.551 514.586 -185.988 514.179C-189.97 513.873 -193.037 514.663 -194.061 516.235C-195.085 517.794 -194.416 521.018 -192.348 524.45C-191.453 525.928 -191.257 527.712 -191.809 529.34C-192.36 530.969 -193.601 532.288 -195.223 532.963C-199.109 534.592 -201.599 536.815 -201.721 538.765C-201.95 542.682 -192.607 549.16 -178.002 549.994Z" fill="#FFA3B3"/>
<path d="M171.656 630.708C172.12 629.796 172.813 629.022 173.662 628.448C174.226 628.062 174.857 627.772 175.534 627.589C182.763 625.651 193.014 628.758 201.011 635.345C212.441 644.746 216.385 657.232 210.171 664.41C207.806 667.126 204.342 668.628 200.251 668.811C198.692 672.398 196.11 675.004 192.762 676.233C191.375 676.742 189.946 676.978 188.504 676.978C180.573 676.978 172.186 669.621 167.731 658.083C164.016 648.52 164.037 639.282 167.777 633.387C168.684 631.971 170.101 631.046 171.656 630.708ZM179.211 653.877C182.366 662.04 187.581 665.363 188.388 665.077C188.567 664.955 189.29 664.023 189.566 661.71C189.767 660.012 190.703 658.481 192.14 657.504C193.181 656.792 194.409 656.425 195.655 656.425C196.131 656.425 196.612 656.478 197.084 656.588C199.516 657.15 200.669 656.792 200.778 656.739C201.279 655.725 199.925 650.099 193.097 644.48C187.485 639.851 181.463 638.511 178.977 639.077C178.818 639.122 178.655 639.163 178.497 639.2C178.409 639.371 178.317 639.525 178.217 639.688C176.867 641.805 176.599 647.147 179.211 653.877Z" fill="#FFA3B3"/>
<path d="M137.413 717.298C139.126 717.029 140.752 717.469 142.03 718.389C143.464 718.026 144.956 718.185 146.239 718.784C146.498 718.906 146.748 719.044 146.987 719.199C153.238 723.254 157.53 732.829 157.663 743.036C157.851 757.611 150.748 768.701 141.111 768.823H140.99C137.383 768.823 133.994 767.26 131.207 764.402C127.404 765.603 123.694 765.399 120.543 763.746C112.093 759.272 111.099 746.236 118.224 733.432C123.217 724.434 130.392 718.409 137.413 717.298ZM126.339 753.223C126.552 753.267 127.759 753.182 129.711 751.879C131.157 750.914 132.962 750.597 134.671 751.016C136.376 751.431 137.814 752.539 138.62 754.061C139.765 756.207 140.814 756.826 140.918 756.879C142.034 756.581 145.511 751.899 145.398 743.187C145.306 735.985 142.347 730.671 140.308 729.226C140.183 729.144 140.058 729.063 139.936 728.973C139.752 729.018 139.564 729.059 139.372 729.091C136.84 729.486 132.523 732.796 129.013 739.115C124.742 746.801 125.591 752.511 126.339 753.223Z" fill="#FFA3B3"/>
</g>
<defs>
<clipPath id="clip0_177_1669">
<rect width="1512" height="982" fill="white"/>
</clipPath>
</defs>
</svg>
