<svg width="2193" height="1449" viewBox="0 0 2193 1449" fill="none" xmlns="http://www.w3.org/2000/svg">
<g clip-path="url(#clip0_193_1765)">
<rect width="2193" height="1449" fill="white"/>
<mask id="mask0_193_1765" style="mask-type:alpha" maskUnits="userSpaceOnUse" x="-359" y="-75" width="2737" height="1478">
<path d="M686.512 134.279C312.533 37.3008 -91.6478 73.6401 -359 172.733V1072.71C-359 1133.35 260.839 1311.57 962.079 1383.3C1406.36 1428.75 1922.28 1390.46 2206.98 1320.52C2281.77 1302.15 2340.61 1281.6 2378 1259.8C2361.32 857.76 2327.96 418.396 2327.96 -75C1938.89 223.02 1236.9 277.003 686.512 134.279Z" fill="#FFCBD4"/>
</mask>
<g mask="url(#mask0_193_1765)">
<rect x="-51.3213" y="-75" width="2258.3" height="1477.53" fill="#FFEBEE"/>
</g>
<path d="M-201.966 797.809C-201.569 790.596 -197.683 784.065 -191.041 779.148C-193.58 771.148 -193.096 763.582 -189.525 757.652C-184.834 749.797 -175.883 745.997 -164.354 746.94C-156.425 747.593 -147.76 750.578 -139.391 755.292C-144.408 729.36 -137.538 707.311 -122.369 703.064C-115.819 701.253 -108.781 703.174 -102.324 708.368C-95.9595 703.342 -89.0512 701.479 -82.6217 703.266C-67.8866 707.339 -60.9241 728.231 -65.0607 753.18C-51.8803 745.209 -38.0367 741.901 -27.3841 744.399C-21.0793 745.869 -16.1442 749.31 -13.111 754.36C-9.45859 760.44 -8.99121 768.15 -11.6327 776.272C-5.16484 781.166 -1.38186 787.604 -0.990599 794.655C-0.0666202 810.84 -16.5675 824.45 -40.2061 827.955C-38.9886 829.141 -37.744 830.304 -36.6189 831.547C-3.64948 831.756 22.5703 831.634 41.2026 831.189C54.2961 830.969 66.5249 834.596 77.4934 839.952L34.5113 789.692C32.2883 787.101 31.7992 783.323 33.2721 780.188L43.6316 758.08L12.6407 743.734C8.59698 741.866 6.7435 736.862 8.50447 732.564C10.2654 728.272 14.9452 726.288 18.9999 728.168L50.763 742.872L65.6552 711.092L59.421 694.503C56.8936 701.294 52.7357 706.303 47.1863 708.582C44.8492 709.571 42.3871 710.063 39.838 710.063C36.6856 710.063 33.4082 709.305 30.1307 707.79C20.6192 703.411 11.6625 693.039 5.36225 679.435C1.16631 689.002 -4.36132 697.314 -10.6612 703.058C-16.9171 708.756 -23.4394 711.689 -29.5969 711.689C-32.0971 711.689 -34.5375 711.209 -36.8801 710.231C-43.1904 707.617 -47.832 701.658 -50.1963 693.399C-50.3267 693.404 -50.4518 693.404 -50.5768 693.404C-58.3436 693.404 -64.8109 690.576 -68.9476 685.202C-74.5023 678.029 -75.1328 667.814 -70.7302 656.43C-67.7843 648.835 -62.6806 641.211 -56.1858 634.373C-80.8291 631.388 -98.2384 617.511 -97.3298 600.91C-96.933 593.702 -93.0469 587.172 -86.405 582.248C-88.9432 574.254 -88.4596 566.688 -84.8886 560.753C-80.1981 552.903 -71.3387 549.08 -59.7069 550.04C-51.777 550.694 -43.1074 553.678 -34.7478 558.399C-39.7754 532.467 -32.9107 510.411 -17.7351 506.17C-11.1749 504.354 -4.14169 506.286 2.30958 511.475C8.67416 506.448 15.5932 504.608 22.0175 506.373C36.747 510.445 43.7096 531.344 39.5674 556.286C52.7478 548.316 66.5857 545.024 77.2439 547.506C83.5487 548.975 88.4839 552.417 91.517 557.467C95.164 563.552 95.6314 571.257 92.9954 579.378C99.4632 584.272 103.246 590.71 103.637 597.761C104.556 613.923 88.1093 627.522 64.5319 631.05C75.6794 641.925 82.8707 654.87 83.9295 666.422C84.56 673.248 83.0001 679.304 79.4291 683.925C77.9943 685.776 76.244 687.245 74.3473 688.477L81.799 708.313C82.6414 710.557 82.549 713.085 81.5272 715.254L63.5753 753.553C63.722 754.97 63.6514 756.416 63.0807 757.816C62.3741 759.545 61.1675 760.858 59.7435 761.738L49.9873 782.556L119.281 863.585L129.939 821.382L90.5723 774.973C88.4743 772.509 87.9308 768.969 89.17 765.92L106.639 722.879C108.384 718.57 113.096 716.609 117.124 718.454C119.852 719.709 121.466 722.422 121.771 725.361C122.896 719.27 126.429 713.745 132.201 709.465C129.663 701.466 130.135 693.899 133.712 687.964C134.435 686.761 135.429 685.835 136.342 684.823C122.716 665.827 107.574 644.304 107.574 644.304C106.302 642.493 105.758 640.214 106.068 637.97C106.378 635.731 107.525 633.718 109.237 632.376L134.892 612.31L101.704 547.42C99.5948 543.302 101.024 538.148 104.889 535.904C108.775 533.665 113.612 535.186 115.71 539.305L152.229 610.708C154.137 614.439 153.164 619.096 149.946 621.606L125.172 640.984C131.156 649.464 141.706 664.353 151.098 677.409C153.539 677.103 156.126 677.022 158.882 677.253C164.61 677.722 170.73 679.486 176.845 682.141L182.372 674.251C181.106 653.486 187.965 636.988 200.857 633.384C201.069 633.326 201.287 633.349 201.499 633.297L203.14 621.687C196.303 621.178 190.71 618.564 187.008 613.705C177.431 601.32 183.149 580.299 199.933 562.768C189.813 561.536 180.41 558.47 173.148 553.75C163.273 547.329 158.114 538.687 158.625 529.414C159.022 522.201 162.908 515.671 169.544 510.749C167.006 502.749 167.49 495.188 171.061 489.253C175.757 481.398 184.676 477.574 196.242 478.54C204.172 479.194 212.842 482.179 221.206 486.899C216.178 460.967 223.043 438.912 238.213 434.671C244.762 432.848 251.801 434.78 258.257 439.975C264.622 434.948 271.53 433.091 277.965 434.879C292.695 438.945 299.663 459.844 295.521 484.798C308.696 476.828 322.528 473.519 333.192 476.012C339.497 477.481 344.437 480.923 347.47 485.973C351.117 492.052 351.585 499.763 348.949 507.884C355.411 512.778 359.2 519.216 359.591 526.267C360.509 542.447 344.014 556.063 320.381 559.568C327.898 566.897 333.828 575.261 337.1 583.619C341.546 594.991 340.948 605.212 335.393 612.431C331.1 617.967 324.393 620.79 316.256 620.657C313.892 628.703 309.326 634.522 303.146 637.097C300.815 638.074 298.358 638.566 295.825 638.566C292.651 638.566 289.357 637.797 286.064 636.275C276.568 631.885 267.627 621.525 261.36 607.978C256.273 619.628 249.474 628.785 242.092 634.275C255.735 639.365 262.131 659.466 258.148 683.5C271.317 675.529 285.144 672.22 295.819 674.719C302.123 676.189 307.064 679.63 310.097 684.68C313.75 690.76 314.212 698.47 311.576 706.598C318.038 711.491 321.826 717.924 322.218 724.975C323.142 741.16 306.646 754.776 283.013 758.275C290.53 765.604 296.46 773.969 299.727 782.326C304.173 793.699 303.575 803.92 298.026 811.127C293.656 816.772 286.96 819.665 278.883 819.393C276.518 827.416 271.953 833.223 265.778 835.809C263.447 836.781 260.99 837.267 258.457 837.267C255.283 837.267 251.989 836.503 248.69 834.976C239.179 830.574 230.222 820.185 223.955 806.598C219.759 816.177 214.226 824.507 207.916 830.257C201.666 835.954 195.144 838.887 188.981 838.887C186.48 838.887 184.04 838.407 181.703 837.429C175.876 835.017 171.555 829.655 169.055 822.355L161.506 834.999L185.252 864.431C186.219 865.628 186.752 867.115 186.98 868.659C213.993 854.557 244.056 839.164 248.316 838.221C249.441 837.972 252.436 837.33 306.31 842.843V796.804C306.31 792.113 309.881 788.313 314.289 788.313C318.697 788.313 322.268 792.107 322.268 796.804V844.503C332.812 845.613 344.846 846.903 358.667 848.419L370.043 834.045C367.467 832.714 365.14 831.008 363.379 828.711C357.825 821.538 357.189 811.323 361.597 799.939C364.537 792.344 369.635 784.721 376.136 777.882C351.487 774.898 334.077 761.02 334.992 744.431C335.383 737.217 339.274 730.687 345.916 725.759C343.378 717.759 343.862 710.199 347.438 704.258C352.14 696.408 361.097 692.602 372.62 693.556C380.544 694.21 389.214 697.195 397.583 701.915C392.561 675.977 399.426 653.928 414.596 649.687C421.145 647.864 428.189 649.791 434.641 654.991C441.011 649.953 447.908 648.096 454.343 649.889C469.072 653.955 476.041 674.848 471.898 699.809C485.073 691.838 498.895 688.535 509.569 691.022C515.874 692.491 520.815 695.933 523.848 700.983C527.5 707.068 527.962 714.779 525.326 722.901C531.794 727.794 535.577 734.232 535.963 741.283C536.887 757.469 520.392 771.079 496.753 774.584C504.27 781.913 510.2 790.278 513.472 798.641C517.918 810.008 517.32 820.229 511.766 827.453C507.472 832.989 500.781 835.552 492.634 835.679C490.269 843.731 485.698 849.544 479.524 852.113C477.192 853.102 474.736 853.582 472.197 853.582C469.029 853.582 465.74 852.819 462.441 851.303C452.93 846.901 443.968 836.518 437.701 822.925C433.505 832.504 427.972 840.828 421.662 846.578C415.411 852.276 408.884 855.208 402.715 855.208C400.22 855.208 397.78 854.728 395.437 853.756C390.654 851.772 386.839 847.85 384.235 842.471L368.142 862.802C366.441 864.948 363.859 866.03 361.223 865.781C322.813 861.559 260.308 855.034 251.399 854.97C245.529 857.324 214.972 872.937 187.868 887.132L199.129 1167.95C199.222 1170.27 198.423 1172.52 196.923 1174.19C195.417 1175.87 193.336 1176.81 191.161 1176.81L113.949 1176.82C111.775 1176.82 109.694 1175.88 108.194 1174.2C106.688 1172.53 105.889 1170.28 105.981 1167.97L116.944 894.622C116.085 894.037 115.292 893.32 114.672 892.389C114.379 891.932 81.3704 847.115 41.5371 848.173C25.003 848.567 2.59433 848.711 -25.1198 848.596C-24.5817 849.735 -23.9349 850.875 -23.4892 852.014C-19.0432 863.392 -19.6411 873.613 -25.1958 880.815C-29.5494 886.454 -36.1206 889.289 -44.3444 889.08C-46.7033 897.103 -51.2689 902.911 -57.4379 905.497C-59.813 906.492 -62.2861 906.983 -64.8134 906.983C-70.9661 906.983 -77.4721 904.074 -83.7116 898.411C-89.7392 892.956 -95.0711 885.176 -99.2188 876.199C-103.42 885.818 -108.964 894.183 -115.297 899.949C-121.552 905.647 -128.075 908.58 -134.232 908.58C-136.732 908.58 -139.173 908.1 -141.515 907.122C-147.826 904.502 -152.462 898.549 -154.837 890.301C-162.87 890.452 -169.381 887.565 -173.583 882.093C-179.138 874.92 -179.769 864.706 -175.366 853.321C-172.42 845.726 -167.317 838.103 -160.822 831.26C-185.471 828.281 -202.88 814.41 -201.966 797.802L-201.966 797.809ZM-2.6468 610.93C-2.6468 614.945 0.424026 618.213 4.19071 618.213C7.96268 618.213 11.0282 614.945 11.0282 610.93C11.0282 606.916 7.95739 603.648 4.19071 603.648C0.424026 603.648 -2.6468 606.91 -2.6468 610.93ZM-56.6237 674.438C-55.0258 676.509 -50.7755 677.041 -45.5088 675.809C-43.2967 675.277 -40.9432 675.803 -39.106 677.238C-37.2581 678.672 -36.0732 680.876 -35.8667 683.294C-35.3395 689.159 -33.5133 693.428 -31.0837 694.435C-28.7956 695.349 -24.9692 693.746 -21.0394 690.177C-15.6477 685.266 -10.6473 677.232 -7.31011 668.133C-1.73362 652.936 -2.34779 637.828 -6.35352 632.31C-7.73406 631.535 -9.01683 630.627 -10.2125 629.58C-16.2455 627.879 -27.8708 630.997 -40.5897 642.173C-47.6717 648.373 -53.2809 655.934 -55.9815 662.916C-57.9491 667.995 -58.2 672.402 -56.6237 674.438ZM-60.9393 566.992C-66.13 566.546 -70.1085 567.674 -71.4402 569.913C-72.7718 572.128 -71.9022 576.71 -69.2117 581.586C-68.0485 583.686 -67.7931 586.219 -68.5105 588.527C-69.228 590.847 -70.8423 592.721 -72.9457 593.681C-78.0112 595.995 -81.2507 599.153 -81.4082 601.918C-81.7125 607.483 -69.5595 616.686 -50.5579 617.871C-33.9584 618.895 -21.4844 612.844 -18.3106 607.887C-18.0823 605.972 -17.6856 604.116 -17.0605 602.369C-17.816 595.74 -24.273 585.212 -37.6158 576.166C-45.3609 570.913 -53.8682 567.57 -60.9393 566.992ZM18.0064 522.828C17.7184 522.747 17.414 522.706 17.0933 522.706C14.6855 522.706 11.3917 524.899 8.2285 528.682C6.71215 530.487 4.54351 531.522 2.27162 531.522H2.24988C-0.0328667 531.516 -2.20697 530.469 -3.70705 528.647C-7.3595 524.234 -11.2021 521.908 -13.7024 522.62C-18.7842 524.037 -23.252 539.181 -18.4255 558.772C-15.0122 572.661 -7.35407 583.518 -1.07047 587.382C0.630805 586.948 2.38095 586.659 4.20175 586.659C5.28879 586.659 6.33226 586.844 7.38138 587C12.8111 583.304 19.2628 573.777 22.8441 558.962C27.6108 539.365 23.0884 524.233 18.0064 522.828ZM87.7188 598.795C87.5721 596.111 84.4088 593.011 79.4682 590.697C77.381 589.719 75.7832 587.834 75.082 585.52C74.3809 583.206 74.6527 580.684 75.8158 578.59C78.6203 573.563 79.4845 568.976 78.0768 566.628C77.1963 565.159 75.2777 564.453 73.8319 564.112C72.7014 563.846 71.348 563.695 69.8045 563.695C63.6572 563.695 54.5101 566.073 44.3459 573.014C32.6603 581.008 25.6105 591.986 24.1329 599.396C25.4536 601.976 26.3395 604.81 26.7038 607.841C30.8019 612.139 41.3302 615.876 56.9015 614.864C75.9081 613.637 88.0347 604.389 87.7188 598.795ZM51.0315 641.01C47.0095 637.563 42.6885 634.699 38.4273 632.692C29.9756 628.55 22.9368 627.955 19.1382 629.106C18.0512 630.118 16.8826 631.015 15.6271 631.801C12.1594 637.152 11.2844 649.82 17.4425 666.612C22.9973 681.611 31.161 689.784 36.4659 692.226C37.8301 692.851 39.7758 693.452 41.3683 692.793C43.738 691.821 45.5263 687.679 46.0372 681.999C46.2492 679.575 47.434 677.366 49.2874 675.937C50.6571 674.873 52.304 674.311 53.978 674.311C54.5541 674.311 55.1411 674.375 55.7064 674.514C58.4729 675.173 60.7992 675.353 63.0819 675.034C65.6039 674.763 66.6039 673.831 67.1148 673.166C68.1529 671.824 68.1964 669.678 68.0551 668.11C67.4953 661.967 62.6786 651.185 51.0315 641.01ZM429.69 754.46C429.69 758.474 432.76 761.737 436.533 761.737C440.305 761.737 443.375 758.469 443.375 754.46C443.375 750.445 440.305 747.177 436.533 747.177C432.76 747.177 429.69 750.44 429.69 754.46ZM371.397 710.521C366.233 710.087 362.227 711.215 360.896 713.437C359.564 715.652 360.434 720.233 363.13 725.115C364.287 727.215 364.537 729.749 363.825 732.057C363.108 734.376 361.494 736.25 359.39 737.211C354.325 739.524 351.085 742.677 350.939 745.453C350.629 751.018 362.782 760.221 381.783 761.406C398.409 762.488 410.834 756.397 414.019 751.434C414.248 749.508 414.644 747.651 415.275 745.892C414.514 739.269 408.057 728.747 394.72 719.7C386.974 714.442 378.473 711.1 371.397 710.521ZM450.342 666.357C450.054 666.276 449.75 666.242 449.429 666.242C447.027 666.242 443.739 668.428 440.57 672.211C439.053 674.022 436.89 675.057 434.613 675.057H434.591C432.308 675.051 430.134 674.004 428.629 672.182C424.965 667.769 421.095 665.484 418.628 666.155C413.552 667.572 409.078 682.716 413.899 702.307C417.323 716.202 424.987 727.065 431.264 730.923C432.96 730.495 434.71 730.205 436.531 730.205C437.623 730.205 438.667 730.391 439.716 730.547C445.146 726.856 451.592 717.323 455.173 702.509C459.945 682.894 455.424 667.757 450.342 666.357ZM520.055 742.325C519.902 739.641 516.745 736.54 511.804 734.226C509.711 733.249 508.114 731.363 507.418 729.049C506.722 726.735 506.983 724.213 508.152 722.119C510.956 717.087 511.82 712.5 510.413 710.157C509.527 708.688 507.614 707.971 506.162 707.635C505.026 707.369 503.678 707.219 502.135 707.219C495.988 707.219 486.841 709.596 476.671 716.543C464.991 724.532 457.941 735.505 456.458 742.915C457.784 745.495 458.664 748.335 459.034 751.372C463.127 755.67 473.633 759.43 489.232 758.388C508.238 757.162 520.37 747.919 520.055 742.325ZM449.816 810.135C455.355 825.117 463.513 833.291 468.817 835.749C470.182 836.38 472.149 837.016 473.698 836.339C476.046 835.367 477.829 831.226 478.351 825.528C478.574 823.116 479.758 820.912 481.606 819.483C482.976 818.425 484.623 817.87 486.286 817.87C486.862 817.87 487.444 817.933 488.015 818.066C493.423 819.35 497.814 818.812 499.456 816.695C501.005 814.682 500.738 810.269 498.755 805.196C496.026 798.226 490.395 790.677 483.303 784.499C471.721 774.405 458.274 770.633 451.551 772.565C450.458 773.595 449.279 774.503 448.013 775.296C444.404 780.785 443.848 794.032 449.816 810.135ZM396.475 826.818C397.002 832.689 398.834 836.958 401.253 837.959C403.536 838.931 407.378 837.271 411.297 833.696C416.689 828.785 421.695 820.756 425.026 811.657C430.603 796.461 429.978 781.352 425.983 775.835C424.602 775.06 423.32 774.151 422.124 773.104C416.08 771.415 404.47 774.522 391.752 785.697C384.676 791.898 379.067 799.458 376.361 806.44C374.393 811.525 374.138 815.933 375.719 817.974C377.306 820.045 381.568 820.577 386.818 819.345C389.046 818.813 391.378 819.345 393.221 820.774C395.079 822.203 396.258 824.406 396.475 826.818ZM222.8 745.431C226.572 745.431 229.643 742.163 229.643 738.149C229.643 734.134 226.572 730.866 222.8 730.866C219.028 730.866 215.957 734.134 215.957 738.149C215.957 742.163 219.028 745.431 222.8 745.431ZM155.615 769.72C157.665 766.879 160.007 764.143 162.534 761.5C158.339 760.985 154.235 760.245 150.392 759.088L155.615 769.72ZM157.67 694.21C152.523 693.759 148.495 694.893 147.158 697.131C145.827 699.341 146.707 703.922 149.392 708.804C150.555 710.904 150.811 713.437 150.093 715.745C149.376 718.065 147.762 719.939 145.658 720.899C140.593 723.213 137.353 726.366 137.196 729.142C137.054 731.739 139.707 735.129 144.115 737.998C150.175 741.937 158.898 744.523 168.046 745.09C175.062 745.541 181.307 744.679 186.482 743.193C186.542 743.181 186.585 743.135 186.65 743.123C186.667 743.118 186.683 743.129 186.699 743.123C193.64 741.093 198.466 737.94 200.287 735.106C200.515 733.186 200.912 731.335 201.537 729.582C200.782 722.953 194.325 712.425 180.986 703.385C173.241 698.138 164.741 694.788 157.67 694.21ZM253.324 539.435C253.324 543.45 256.395 546.718 260.161 546.718C263.933 546.718 267.004 543.45 267.004 539.435C267.004 535.421 263.933 532.153 260.161 532.153C256.395 532.153 253.324 535.415 253.324 539.435ZM195.031 495.496C189.856 495.051 185.862 496.179 184.524 498.418C183.193 500.633 184.068 505.214 186.758 510.096C187.921 512.196 188.171 514.73 187.459 517.038C186.742 519.357 185.128 521.231 183.024 522.192C177.959 524.505 174.719 527.664 174.562 530.435C174.42 533.032 177.073 536.421 181.481 539.291C187.541 543.23 196.265 545.815 205.412 546.382C210.048 546.677 214.336 546.394 218.222 545.758C218.521 545.659 218.82 545.63 219.13 545.572C228.685 543.826 235.43 539.869 237.653 536.404C237.881 534.484 238.278 532.633 238.903 530.874C238.147 524.251 231.69 513.729 218.347 504.671C210.608 499.425 202.107 496.075 195.031 495.496ZM273.971 451.333C273.683 451.252 273.373 451.217 273.058 451.217C270.65 451.217 267.367 453.404 264.198 457.186C262.682 459.003 260.758 460.275 258.225 460.032C255.942 460.027 253.768 458.98 252.263 457.158C248.599 452.744 244.708 450.436 242.262 451.13C237.185 452.547 232.712 467.692 237.539 487.283C240.963 501.171 248.621 512.035 254.899 515.892C256.601 515.458 258.345 515.175 260.166 515.175C261.259 515.175 262.302 515.36 263.351 515.516C268.781 511.826 275.233 502.293 278.808 487.478C283.58 467.869 279.058 452.738 273.971 451.333ZM343.687 527.312C343.535 524.622 340.377 521.516 335.437 519.208C333.35 518.23 331.752 516.35 331.051 514.036C330.355 511.723 330.616 509.201 331.784 507.107C334.589 502.068 335.453 497.481 334.045 495.139C333.16 493.669 331.246 492.952 329.795 492.617C328.659 492.351 327.311 492.2 325.773 492.2C319.62 492.2 310.479 494.578 300.303 501.525C288.629 509.513 281.579 520.481 280.09 527.891C281.417 530.471 282.297 533.311 282.667 536.347C286.754 540.651 297.239 544.399 312.864 543.364C331.871 542.144 344.003 532.9 343.687 527.312ZM273.449 595.111C278.982 610.086 287.146 618.272 292.45 620.725C293.82 621.355 295.777 621.957 297.331 621.32C299.679 620.337 301.462 616.19 301.989 610.503C302.212 608.086 303.397 605.887 305.245 604.459C306.614 603.4 308.261 602.845 309.924 602.845C310.5 602.845 311.077 602.909 311.647 603.047C317.061 604.32 321.452 603.782 323.088 601.671C324.643 599.658 324.377 595.25 322.393 590.171C319.664 583.201 314.028 575.652 306.936 569.474C295.353 559.38 281.922 555.603 275.189 557.541C274.097 558.57 272.917 559.478 271.651 560.271C268.031 565.755 267.476 579.007 273.449 595.111ZM248.692 596.678C254.736 580.175 253.132 565.755 249.583 560.798C248.181 560.006 246.876 559.08 245.67 558.01C241.425 556.911 233.903 557.958 224.179 564.043C221.288 565.848 218.348 568.063 215.418 570.649C200.726 583.56 196.015 598.634 199.379 602.99C200.917 605.015 205.244 605.518 210.434 604.297C212.793 603.736 215.266 604.349 217.163 605.958C218.527 607.12 219.343 608.769 219.766 610.539C219.777 610.568 219.783 610.597 219.788 610.62C219.875 610.99 220.065 611.32 220.103 611.702C220.218 612.222 220.283 612.749 220.305 613.275C220.946 618.423 222.631 622.009 224.881 622.923C229.756 624.919 241.774 615.525 248.692 596.678ZM236.609 650.034C236.321 649.953 236.017 649.918 235.696 649.918C233.288 649.918 230 652.11 226.831 655.893C225.315 657.698 223.152 658.734 220.874 658.734H220.853C218.57 658.728 216.401 657.681 214.89 655.859C211.238 651.451 207.374 649.126 204.9 649.831C199.824 651.249 195.351 666.393 200.172 685.984C203.596 699.872 211.254 710.736 217.532 714.593C219.234 714.159 220.978 713.876 222.799 713.876C223.886 713.876 224.93 714.061 225.979 714.217C231.409 710.527 237.86 700.994 241.442 686.18C246.214 666.577 241.691 651.439 236.609 650.034ZM306.322 726.017C306.17 723.327 303.006 720.221 298.066 717.913C295.979 716.936 294.381 715.05 293.685 712.736C292.989 710.422 293.25 707.9 294.419 705.806C297.218 700.78 298.087 696.187 296.68 693.844C295.794 692.375 293.881 691.658 292.424 691.322C291.288 691.056 289.94 690.906 288.402 690.906C282.249 690.906 273.108 693.283 262.938 700.224C251.263 708.213 244.214 719.186 242.725 726.596C244.051 729.176 244.931 732.016 245.301 735.053C249.388 739.351 259.889 743.088 275.499 742.075C294.511 740.849 306.638 731.6 306.322 726.017ZM255.079 819.436C256.454 820.061 258.416 820.685 259.954 820.032C262.308 819.043 264.09 814.901 264.618 809.215C264.841 806.803 266.025 804.599 267.868 803.17C269.243 802.112 270.884 801.556 272.553 801.556C273.124 801.556 273.705 801.62 274.276 801.753C279.695 803.037 284.087 802.482 285.723 800.376C287.272 798.363 287.005 793.961 285.021 788.883C282.293 781.912 276.657 774.364 269.57 768.185C257.982 758.091 244.541 754.332 237.823 756.252C236.731 757.282 235.552 758.19 234.285 758.988C230.671 764.477 230.111 777.723 236.084 793.821C241.623 808.797 249.775 816.972 255.079 819.436ZM179.498 804.454C181.345 805.889 182.525 808.087 182.742 810.505C183.27 816.376 185.101 820.639 187.525 821.64C189.819 822.594 193.651 820.957 197.57 817.388C202.961 812.477 207.967 804.449 211.299 795.349C216.87 780.153 216.25 765.045 212.256 759.521C210.875 758.746 209.592 757.838 208.397 756.791C202.353 755.108 190.742 758.214 178.025 769.383C170.948 775.584 165.339 783.145 162.633 790.127C160.665 795.211 160.415 799.619 161.992 801.649C163.579 803.72 167.84 804.229 173.096 803.026C175.33 802.494 177.655 803.032 179.498 804.454ZM182.862 1159.85L182.134 1141.68H155.126C150.718 1141.68 147.147 1137.88 147.147 1133.18C147.147 1128.49 150.713 1124.69 155.126 1124.69L181.455 1124.7L178.253 1044.85H160.187C155.779 1044.85 152.208 1041.06 152.208 1036.36C152.208 1031.67 155.785 1027.87 160.187 1027.87H177.574L174.253 945.057H155.138C150.73 945.057 147.159 941.262 147.159 936.565C147.159 931.874 150.725 928.074 155.138 928.074H173.574L171.379 873.295L145.583 841.319C143.295 838.484 143.018 834.389 144.904 831.236L153.796 816.341C152.263 815.23 150.855 813.963 149.671 812.431C144.795 806.137 143.719 797.495 146.502 787.782L130.762 755.748C129.621 753.428 129.61 750.739 130.578 748.408C124.572 742.959 121.354 736.445 121.321 729.521C121.311 729.556 121.316 729.591 121.3 729.625L105.869 767.659L144.714 813.454C146.53 815.595 147.198 818.562 146.497 821.35L133.877 871.293L129.642 976.865H147.807C152.215 976.865 155.786 980.66 155.786 985.357C155.786 990.048 152.221 993.848 147.807 993.848H128.963L125.838 1071.82H147.807C152.215 1071.82 155.786 1075.62 155.786 1080.31C155.786 1085 152.221 1088.81 147.807 1088.81H125.159L122.311 1159.85L182.862 1159.85ZM-107.275 807.816C-107.275 811.83 -104.204 815.093 -100.426 815.093C-96.6543 815.093 -93.5888 811.825 -93.5888 807.816C-93.5888 803.796 -96.6596 800.528 -100.426 800.528C-104.204 800.528 -107.275 803.796 -107.275 807.816ZM-86.615 719.713C-86.9031 719.632 -87.2074 719.592 -87.5281 719.592C-89.9359 719.592 -93.2297 721.784 -96.4038 725.567C-97.9147 727.372 -100.083 728.408 -102.355 728.408H-102.377C-104.66 728.402 -106.834 727.355 -108.339 725.533C-111.992 721.119 -115.818 718.794 -118.335 719.505C-123.406 720.922 -127.884 736.073 -123.069 755.658C-119.645 769.546 -111.986 780.404 -105.704 784.267C-104.003 783.833 -102.253 783.544 -100.432 783.544C-99.3394 783.544 -98.2957 783.729 -97.2467 783.885C-91.817 780.189 -85.3653 770.656 -81.7896 755.848C-77.012 736.251 -81.533 721.119 -86.615 719.713ZM-16.9026 795.687C-17.0494 793.003 -20.2126 789.902 -25.1533 787.588C-27.2404 786.611 -28.8383 784.725 -29.5394 782.411C-30.2405 780.097 -29.9688 777.576 -28.8057 775.481C-26.0011 770.455 -25.1369 765.868 -26.5446 763.519C-27.4251 762.05 -29.3437 761.344 -30.7895 761.003C-31.9201 760.737 -33.2735 760.587 -34.817 760.587C-40.9642 760.587 -50.1113 762.964 -60.2755 769.905C-71.9612 777.899 -79.0109 788.878 -80.4886 796.282C-79.1678 798.862 -78.2874 801.69 -77.9177 804.727C-73.8196 809.025 -63.2912 812.75 -47.7144 811.755C-28.7133 810.517 -16.5872 801.274 -16.9016 795.685L-16.9026 795.687ZM-87.1409 863.492C-83.7819 872.585 -78.7599 880.602 -73.3574 885.495C-69.4223 889.058 -65.5415 890.655 -63.2697 889.706C-60.9162 888.717 -59.1335 884.575 -58.6008 878.889C-58.3726 876.466 -57.1931 874.273 -55.3452 872.845C-53.9755 871.786 -52.3286 871.231 -50.6654 871.231C-50.0893 871.231 -49.5132 871.294 -48.9425 871.427C-43.5291 872.712 -39.1428 872.168 -37.4959 870.051C-35.9468 868.038 -36.2132 863.624 -38.197 858.551C-40.9254 851.581 -46.5564 844.044 -53.6542 837.854C-65.242 827.754 -78.7274 823.983 -85.4117 825.926C-86.4987 826.95 -87.6674 827.853 -88.9283 828.639C-92.5536 834.129 -93.1187 847.381 -87.14 863.49L-87.1409 863.492ZM-161.245 871.324C-159.647 873.395 -155.396 873.909 -150.135 872.7C-147.89 872.18 -145.58 872.706 -143.732 874.129C-141.884 875.564 -140.71 877.762 -140.493 880.18C-139.966 886.039 -138.134 890.314 -135.699 891.315C-133.411 892.275 -129.585 890.632 -125.655 887.063C-120.263 882.152 -115.263 874.123 -111.926 865.024C-106.197 849.406 -107.289 835.686 -110.409 830.046L-118.633 826.031C-125.117 826.188 -134.791 829.913 -145.2 839.058C-152.282 845.259 -157.891 852.819 -160.592 859.801C-162.57 864.886 -162.821 869.294 -161.245 871.324ZM-155.179 814.764C-138.596 815.742 -126.139 809.737 -122.943 804.78C-122.715 802.854 -122.318 800.991 -121.687 799.233C-122.454 792.61 -128.911 782.088 -142.242 773.052C-149.993 767.8 -158.494 764.456 -165.565 763.878C-170.745 763.444 -174.734 764.566 -176.066 766.799C-177.398 769.015 -176.528 773.596 -173.838 778.472C-172.675 780.572 -172.419 783.105 -173.137 785.419C-173.854 787.733 -175.468 789.607 -177.577 790.567C-182.632 792.881 -185.871 796.039 -186.029 798.81C-186.328 804.375 -174.175 813.579 -155.179 814.764Z" fill="#FFA3B3"/>
<path d="M299.608 929.442C300.211 928.146 301.114 927.047 302.217 926.232C302.951 925.682 303.771 925.272 304.652 925.011C314.055 922.258 327.388 926.671 337.79 936.031C352.656 949.387 357.786 967.128 349.704 977.326C346.627 981.184 342.122 983.319 336.801 983.579C334.773 988.675 331.414 992.377 327.061 994.124C325.256 994.847 323.397 995.183 321.522 995.183C311.206 995.183 300.298 984.73 294.504 968.337C289.672 954.749 289.699 941.625 294.564 933.249C295.743 931.236 297.586 929.922 299.608 929.442ZM309.435 962.361C313.538 973.958 320.322 978.679 321.371 978.273C321.604 978.1 322.545 976.775 322.903 973.49C323.164 971.078 324.382 968.903 326.251 967.514C327.605 966.502 329.203 965.981 330.822 965.981C331.442 965.981 332.067 966.057 332.681 966.213C335.844 967.011 337.345 966.502 337.486 966.427C338.138 964.986 336.377 956.992 327.496 949.009C320.196 942.433 312.364 940.529 309.131 941.333C308.924 941.397 308.712 941.455 308.506 941.507C308.392 941.75 308.272 941.97 308.142 942.201C306.386 945.209 306.038 952.799 309.435 962.361Z" fill="#FFA3B3"/>
<path d="M5.95162 918.069C8.28877 917.763 10.4247 918.491 12.0607 919.926C14.2728 919.33 16.6481 919.735 18.6374 921.233C26.8717 927.457 32.247 941.739 32.008 956.761C31.6656 978.042 21.8496 993.954 9.09842 993.954H8.8321C3.90776 993.856 -0.673988 991.357 -4.34828 986.909C-9.54436 988.592 -14.5774 988.193 -18.7466 985.59C-29.8725 978.701 -30.6334 959.531 -20.5238 941.01C-13.42 927.978 -3.52109 919.393 5.95162 918.069ZM-10.7342 970.916C-10.4515 971.009 -8.73399 971.026 -5.7881 969.025C-3.86948 967.706 -1.51066 967.336 0.679694 968.007C2.87548 968.661 4.7017 970.298 5.69642 972.478C7.35414 976.128 8.90864 976.979 9.09885 976.979C10.8055 976.788 15.844 969.436 16.0505 956.472C16.2298 945.447 12.1861 937.188 9.39787 935.082C9.24025 934.966 9.09349 934.839 8.95218 934.717C8.65868 934.798 8.35431 934.856 8.03907 934.903C4.49529 935.4 -1.63554 940.19 -6.73352 949.537C-12.9242 960.886 -12.1201 969.864 -10.7342 970.916Z" fill="#FFA3B3"/>
<path d="M255.07 1052.47C257.299 1052.09 259.413 1052.71 261.076 1054.02C262.94 1053.5 264.881 1053.73 266.549 1054.58C266.886 1054.75 267.213 1054.95 267.522 1055.17C275.653 1060.93 281.235 1074.54 281.409 1089.04C281.654 1109.74 272.414 1125.5 259.88 1125.68H259.722C255.032 1125.68 250.624 1123.45 246.999 1119.39C242.053 1121.1 237.226 1120.81 233.128 1118.46C222.138 1112.11 220.845 1093.58 230.111 1075.39C236.607 1062.61 245.939 1054.05 255.07 1052.47ZM240.666 1103.51C240.944 1103.57 242.514 1103.45 245.053 1101.6C246.933 1100.23 249.281 1099.78 251.504 1100.38C253.722 1100.97 255.591 1102.54 256.64 1104.7C258.13 1107.75 259.494 1108.63 259.63 1108.7C261.081 1108.28 265.603 1101.63 265.456 1089.25C265.337 1079.02 261.488 1071.47 258.836 1069.42C258.673 1069.3 258.51 1069.18 258.352 1069.06C258.113 1069.12 257.869 1069.18 257.619 1069.22C254.325 1069.79 248.71 1074.49 244.145 1083.47C238.59 1094.39 239.694 1102.5 240.666 1103.51Z" fill="#FFA3B3"/>
<path d="M22.3559 1053.86C24.356 1052.67 26.6388 1052.49 28.6606 1053.17C30.2422 1051.95 32.1717 1051.37 34.0957 1051.58C34.4762 1051.62 34.8512 1051.69 35.2263 1051.78C45.0422 1054.27 55.0316 1065.38 60.0754 1079.44C67.2717 1099.45 63.6355 1118.24 51.5856 1123.16C46.9712 1125.01 41.8729 1124.51 36.9104 1121.84C33.345 1124.88 29.3826 1126.51 25.3823 1126.51C24.6214 1126.51 23.855 1126.45 23.0941 1126.32C10.3541 1124.35 2.9354 1106.87 5.82119 1085.67C7.83762 1070.74 14.018 1058.85 22.3559 1053.86ZM25.367 1109.52C25.6551 1109.52 27.2585 1108.85 29.2912 1105.81C30.6174 1103.83 32.6719 1102.54 34.9492 1102.29C35.2319 1102.25 35.5199 1102.24 35.7971 1102.24C37.7756 1102.24 39.6996 1103.02 41.1726 1104.46C44.0098 1107.2 45.7164 1107.39 45.9011 1107.29C47.4175 1106.44 49.5319 1097.63 45.1783 1085.51C41.5312 1075.37 35.058 1069.35 31.6827 1068.34C31.4435 1068.29 31.1935 1068.22 30.9489 1068.14C30.6989 1068.33 30.4435 1068.5 30.1717 1068.67C27.0627 1070.53 23.0516 1077.4 21.6004 1088.1C19.8394 1101.07 23.7147 1109.1 25.367 1109.52Z" fill="#FFA3B3"/>
<mask id="mask1_193_1765" style="mask-type:alpha" maskUnits="userSpaceOnUse" x="1741" y="179" width="637" height="626">
<path d="M1939.52 541.49C1942.43 541.892 1945.36 542.094 1948.3 542.091C1965.24 542.091 1980.12 535.45 1994.58 528.994C2000.79 526.22 2006.66 523.604 2012.69 521.48C2033.85 514.745 2056.73 515.318 2077.52 523.104C2084.62 540.787 2098.37 555.113 2115.92 563.106C2138.12 573.313 2163.54 574.434 2186.58 566.222C2209.62 558.012 2228.41 541.14 2238.79 519.321C2250.2 495.266 2252.52 468 2245.33 442.416C2238.14 416.831 2221.91 394.599 2199.55 379.704C2198.8 354.94 2188.28 331.433 2170.21 314.156C2152.14 296.874 2127.95 287.18 2102.73 287.118C2077.52 287.055 2053.28 296.634 2035.12 313.82C2023.52 308.13 2010.53 305.712 1997.62 306.837C1984.7 307.965 1972.36 312.594 1961.96 320.206C1949.62 329.225 1939.99 341.357 1934.11 355.317C1928.22 369.276 1926.29 384.542 1928.51 399.493C1919.54 400.164 1910.86 402.913 1903.18 407.514C1887.3 416.991 1875.91 432.281 1871.51 450.017C1867.1 467.756 1870.05 486.486 1879.71 502.081C1892.71 523.292 1914.62 537.73 1939.51 541.489L1939.52 541.49ZM1886.36 453.573C1889.76 439.691 1898.68 427.73 1911.12 420.353C1920.7 414.641 1932.19 412.905 1943.08 415.525C1953.96 418.141 1963.34 424.904 1969.14 434.319C1973.58 441.498 1974.94 450.116 1972.92 458.276C1970.9 466.44 1965.68 473.483 1958.38 477.863C1952.87 481.14 1946.26 482.139 1939.99 480.64C1933.73 479.145 1928.32 475.278 1924.95 469.881C1922.5 465.884 1921.75 461.099 1922.88 456.564C1924 452.03 1926.91 448.121 1930.96 445.686C1934.57 443.531 1935.71 438.909 1933.51 435.367C1931.32 431.825 1926.62 430.7 1923.01 432.859C1915.5 437.368 1910.12 444.617 1908.04 453.015C1905.95 461.416 1907.34 470.285 1911.89 477.685C1917.37 486.477 1926.18 492.779 1936.37 495.217C1946.57 497.659 1957.33 496.038 1966.31 490.707C1977.07 484.255 1984.79 473.87 1987.76 461.835C1990.74 449.797 1988.74 437.092 1982.2 426.507C1973.84 412.894 1960 403.41 1944.12 400.412C1941.64 387.703 1942.86 374.565 1947.63 362.506C1952.41 350.447 1960.54 339.957 1971.11 332.236C1982.75 323.716 1997.34 320.076 2011.7 322.109C2026.06 324.146 2039.02 331.688 2047.73 343.09C2054.43 351.921 2057.28 363.002 2055.68 373.901C2054.08 384.801 2048.14 394.634 2039.18 401.239C2032.33 406.284 2023.71 408.443 2015.24 407.237C2006.77 406.036 1999.13 401.568 1994.01 394.822C1990.15 389.753 1988.5 383.385 1989.42 377.118C1990.34 370.854 1993.75 365.202 1998.91 361.412C2002.72 358.632 2007.5 357.447 2012.19 358.111C2016.89 358.778 2021.13 361.245 2023.99 364.968C2025.2 366.568 2027.02 367.623 2029.02 367.906C2031.04 368.189 2033.08 367.672 2034.7 366.474C2036.33 365.276 2037.4 363.491 2037.68 361.514C2037.96 359.54 2037.43 357.535 2036.21 355.942C2030.91 349.046 2023.06 344.484 2014.36 343.254C2005.66 342.02 1996.82 344.221 1989.76 349.37C1981.35 355.546 1975.79 364.755 1974.28 374.966C1972.79 385.177 1975.48 395.555 1981.77 403.817C1989.29 413.784 2000.56 420.372 2013.06 422.108C2015.34 422.433 2017.65 422.597 2019.96 422.597C2030.2 422.601 2040.16 419.324 2048.34 413.266C2060.55 404.268 2068.62 390.881 2070.81 376.041C2072.98 361.198 2069.09 346.114 2059.97 334.09C2056.58 329.671 2052.65 325.675 2048.28 322.186C2064.16 308.475 2084.82 301.32 2105.94 302.215C2127.07 303.112 2147.02 311.989 2161.64 326.996C2176.27 342 2184.43 361.974 2184.42 382.753V383.738C2184.42 383.78 2184.43 383.822 2184.44 383.864C2184.45 384.147 2184.48 384.426 2184.52 384.706C2184.55 384.922 2184.56 385.143 2184.61 385.352C2184.66 385.579 2184.75 385.796 2184.82 386.019C2184.89 386.264 2184.97 386.505 2185.07 386.739C2185.16 386.942 2185.28 387.127 2185.39 387.322H2185.39C2185.51 387.553 2185.64 387.78 2185.78 387.997C2185.91 388.178 2186.07 388.342 2186.21 388.514C2186.38 388.72 2186.55 388.919 2186.73 389.107C2186.88 389.244 2187.05 389.359 2187.2 389.488L2187.21 389.492C2187.43 389.687 2187.68 389.869 2187.93 390.037L2188.02 390.11H2188.02C2208.36 402.637 2223.35 422.039 2230.15 444.665C2236.95 467.291 2235.1 491.58 2224.94 512.955C2216.27 531.156 2200.59 545.227 2181.37 552.08C2162.14 558.931 2140.93 558.005 2122.4 549.499C2107.87 542.879 2096.62 530.827 2091.18 516.019C2091.05 515.233 2090.8 514.474 2090.43 513.769C2086.04 500.169 2086.85 485.469 2092.69 472.412C2092.74 472.303 2092.87 471.951 2092.92 471.839L2093.36 470.871C2098.62 459.871 2108.11 451.371 2119.74 447.235C2131.37 443.099 2144.19 443.662 2155.4 448.804C2157.29 449.642 2159.08 450.68 2160.74 451.899C2167.65 456.615 2172.62 463.584 2174.79 471.566C2176.96 479.552 2176.17 488.03 2172.57 495.495C2169.53 501.898 2164.03 506.852 2157.27 509.263C2150.52 511.677 2143.06 511.348 2136.55 508.358C2131.72 506.129 2127.98 502.108 2126.16 497.176C2124.34 492.243 2124.58 486.804 2126.84 482.05C2128.47 478.605 2131.43 475.94 2135.06 474.637C2138.69 473.334 2142.7 473.502 2146.21 475.102C2148.04 475.951 2150.15 476.048 2152.06 475.374C2153.97 474.696 2155.53 473.299 2156.39 471.493C2157.26 469.687 2157.35 467.616 2156.66 465.74C2155.96 463.867 2154.54 462.337 2152.7 461.495C2145.52 458.201 2137.3 457.848 2129.86 460.51C2122.41 463.172 2116.34 468.632 2112.99 475.689C2109.02 484.052 2108.59 493.62 2111.79 502.297C2115 510.971 2121.57 518.045 2130.06 521.965C2140.25 526.649 2151.91 527.159 2162.48 523.39C2173.04 519.621 2181.65 511.876 2186.41 501.861C2191.54 491.23 2192.68 479.158 2189.62 467.784C2186.56 456.406 2179.49 446.464 2169.68 439.719C2167.23 437.934 2164.6 436.411 2161.83 435.17C2146.95 428.365 2129.93 427.628 2114.51 433.123C2099.08 438.618 2086.5 449.898 2079.51 464.493L2079.27 465.021C2079.02 465.555 2078.77 466.107 2078.57 466.635C2073.1 479.032 2071.19 492.67 2073.05 506.064C2051.59 499.891 2028.72 500.335 2007.53 507.335C2000.91 509.665 1994.47 512.54 1988.25 515.317C1972.65 522.283 1957.94 528.854 1941.63 526.611H1941.64C1921.33 523.373 1903.47 511.562 1892.78 494.285C1885.2 482.1 1882.89 467.442 1886.36 453.574L1886.36 453.573Z" fill="white"/>
<path d="M1869.64 587.827C1869.21 588.049 1868.75 588.216 1868.27 588.327C1867.8 588.442 1867.3 588.501 1866.79 588.501C1865.25 588.501 1864.03 588.081 1863.13 587.236C1862.23 586.388 1861.78 585.241 1861.78 583.796C1861.78 582.347 1862.23 581.2 1863.13 580.355C1864.03 579.508 1865.25 579.084 1866.79 579.084C1867.3 579.084 1867.8 579.143 1868.27 579.257C1868.75 579.369 1869.21 579.535 1869.64 579.758V581.634C1869.2 581.342 1868.76 581.127 1868.34 580.988C1867.91 580.849 1867.45 580.779 1866.98 580.779C1866.13 580.779 1865.46 581.049 1864.98 581.586C1864.49 582.119 1864.25 582.856 1864.25 583.796C1864.25 584.732 1864.49 585.469 1864.98 586.006C1865.46 586.539 1866.13 586.805 1866.98 586.805C1867.45 586.805 1867.91 586.739 1868.34 586.604C1868.76 586.465 1869.2 586.248 1869.64 585.95V587.827Z" fill="white" fill-opacity="0.1"/>
<path d="M1876.67 583.372C1876.47 583.285 1876.27 583.219 1876.08 583.177C1875.89 583.132 1875.7 583.108 1875.51 583.108C1874.94 583.108 1874.5 583.288 1874.19 583.65C1873.88 584.008 1873.73 584.518 1873.73 585.186V588.327H1871.52V581.516H1873.73V582.635C1874.02 582.19 1874.34 581.867 1874.71 581.662C1875.08 581.454 1875.52 581.349 1876.04 581.349C1876.11 581.349 1876.19 581.355 1876.28 581.363C1876.37 581.368 1876.49 581.381 1876.66 581.398L1876.67 583.372Z" fill="white" fill-opacity="0.1"/>
<path d="M1884.69 584.901V585.526H1879.5C1879.56 586.037 1879.75 586.419 1880.07 586.673C1880.39 586.929 1880.84 587.055 1881.42 587.055C1881.89 587.055 1882.36 586.989 1882.85 586.854C1883.34 586.715 1883.84 586.51 1884.35 586.235V587.91C1883.83 588.105 1883.31 588.251 1882.78 588.348C1882.26 588.449 1881.74 588.501 1881.21 588.501C1879.96 588.501 1878.98 588.188 1878.29 587.563C1877.59 586.937 1877.25 586.06 1877.25 584.929C1877.25 583.817 1877.59 582.944 1878.27 582.308C1878.95 581.669 1879.89 581.349 1881.09 581.349C1882.18 581.349 1883.05 581.674 1883.7 582.322C1884.36 582.967 1884.69 583.827 1884.69 584.901ZM1882.41 584.178C1882.41 583.766 1882.29 583.434 1882.04 583.184C1881.8 582.931 1881.48 582.802 1881.08 582.802C1880.65 582.802 1880.3 582.92 1880.03 583.156C1879.76 583.393 1879.6 583.733 1879.53 584.178H1882.41Z" fill="white" fill-opacity="0.1"/>
<path d="M1889.47 585.262C1889.01 585.262 1888.66 585.339 1888.42 585.492C1888.19 585.645 1888.08 585.872 1888.08 586.173C1888.08 586.451 1888.17 586.67 1888.36 586.826C1888.55 586.979 1888.81 587.055 1889.14 587.055C1889.56 587.055 1889.91 586.909 1890.19 586.618C1890.48 586.322 1890.62 585.954 1890.62 585.512V585.262L1889.47 585.262ZM1892.85 584.442V588.327H1890.62V587.32C1890.32 587.733 1889.99 588.034 1889.62 588.223C1889.24 588.407 1888.79 588.501 1888.26 588.501C1887.54 588.501 1886.96 588.298 1886.51 587.889C1886.06 587.478 1885.84 586.942 1885.84 586.284C1885.84 585.488 1886.12 584.904 1886.68 584.532C1887.24 584.157 1888.11 583.97 1889.31 583.97H1890.62V583.796C1890.62 583.454 1890.48 583.203 1890.2 583.045C1889.93 582.884 1889.49 582.802 1888.91 582.802C1888.43 582.802 1887.99 582.849 1887.58 582.941C1887.17 583.035 1886.8 583.174 1886.45 583.358V581.697C1886.92 581.586 1887.39 581.501 1887.87 581.44C1888.35 581.381 1888.83 581.349 1889.31 581.349C1890.56 581.349 1891.46 581.593 1892.01 582.079C1892.57 582.562 1892.85 583.349 1892.85 584.442Z" fill="white" fill-opacity="0.1"/>
<path d="M1897.33 579.584V581.516H1899.62V583.073H1897.33V585.964C1897.33 586.281 1897.4 586.493 1897.53 586.604C1897.65 586.715 1897.9 586.771 1898.28 586.771H1899.42V588.327H1897.53C1896.65 588.327 1896.03 588.15 1895.66 587.792C1895.29 587.431 1895.11 586.823 1895.11 585.964V583.073H1894.02V581.516H1895.11V579.584H1897.33Z" fill="white" fill-opacity="0.1"/>
<path d="M1907.89 584.901V585.526H1902.71C1902.76 586.037 1902.95 586.419 1903.27 586.673C1903.59 586.929 1904.04 587.055 1904.62 587.055C1905.09 587.055 1905.57 586.989 1906.05 586.854C1906.54 586.715 1907.04 586.51 1907.56 586.235V587.91C1907.04 588.105 1906.51 588.251 1905.99 588.348C1905.47 588.449 1904.94 588.501 1904.42 588.501C1903.16 588.501 1902.19 588.188 1901.49 587.563C1900.8 586.937 1900.45 586.06 1900.45 584.929C1900.45 583.817 1900.79 582.944 1901.48 582.308C1902.16 581.669 1903.1 581.349 1904.29 581.349C1905.38 581.349 1906.25 581.674 1906.91 582.322C1907.56 582.967 1907.89 583.827 1907.89 584.901ZM1905.61 584.178C1905.61 583.766 1905.49 583.434 1905.25 583.184C1905 582.931 1904.68 582.802 1904.28 582.802C1903.85 582.802 1903.51 582.92 1903.24 583.156C1902.97 583.393 1902.8 583.733 1902.74 584.178H1905.61Z" fill="white" fill-opacity="0.1"/>
<path d="M1914.28 582.51V578.861H1916.51V588.327H1914.28V587.34C1913.98 587.743 1913.64 588.039 1913.28 588.223C1912.91 588.407 1912.48 588.501 1912 588.501C1911.14 588.501 1910.44 588.167 1909.89 587.5C1909.35 586.833 1909.07 585.976 1909.07 584.929C1909.07 583.877 1909.35 583.017 1909.89 582.35C1910.44 581.683 1911.14 581.349 1912 581.349C1912.48 581.349 1912.9 581.445 1913.27 581.634C1913.64 581.825 1913.98 582.117 1914.28 582.51ZM1912.82 586.923C1913.29 586.923 1913.65 586.755 1913.9 586.416C1914.15 586.074 1914.28 585.579 1914.28 584.929C1914.28 584.281 1914.15 583.787 1913.9 583.448C1913.65 583.106 1913.29 582.934 1912.82 582.934C1912.35 582.934 1911.99 583.106 1911.74 583.448C1911.49 583.787 1911.37 584.281 1911.37 584.929C1911.37 585.578 1911.49 586.074 1911.74 586.416C1911.99 586.755 1912.35 586.923 1912.82 586.923Z" fill="white" fill-opacity="0.1"/>
<path d="M1926.74 586.923C1927.21 586.923 1927.58 586.755 1927.83 586.416C1928.08 586.074 1928.2 585.578 1928.2 584.929C1928.2 584.281 1928.08 583.787 1927.83 583.448C1927.58 583.106 1927.21 582.934 1926.74 582.934C1926.26 582.934 1925.9 583.106 1925.64 583.448C1925.39 583.792 1925.27 584.286 1925.27 584.929C1925.27 585.573 1925.39 586.067 1925.64 586.409C1925.9 586.753 1926.26 586.923 1926.74 586.923ZM1925.27 582.51C1925.57 582.117 1925.91 581.825 1926.28 581.634C1926.65 581.445 1927.08 581.349 1927.56 581.349C1928.42 581.349 1929.12 581.683 1929.67 582.35C1930.21 583.017 1930.49 583.877 1930.49 584.929C1930.49 585.976 1930.21 586.833 1929.67 587.5C1929.12 588.167 1928.42 588.501 1927.56 588.501C1927.08 588.501 1926.65 588.407 1926.28 588.223C1925.91 588.034 1925.57 587.74 1925.27 587.34V588.327H1923.05V578.861H1925.27V582.51Z" fill="white" fill-opacity="0.1"/>
<path d="M1931.21 581.516H1933.43L1935.3 586.138L1936.88 581.516H1939.09L1936.18 588.974C1935.89 589.728 1935.54 590.256 1935.15 590.559C1934.76 590.865 1934.25 591.017 1933.61 591.017H1932.32V589.586H1933.02C1933.39 589.586 1933.67 589.525 1933.84 589.405C1934.01 589.289 1934.15 589.08 1934.24 588.779L1934.3 588.592L1931.21 581.516Z" fill="white" fill-opacity="0.1"/>
<path d="M1950.5 586.673H1946.78L1946.19 588.327H1943.79L1947.22 579.25H1950.05L1953.48 588.327H1951.09L1950.5 586.673ZM1947.37 584.991H1949.9L1948.64 581.377L1947.37 584.991Z" fill="white" fill-opacity="0.1"/>
<path d="M1961.57 584.178V588.327H1959.35V585.151C1959.35 584.564 1959.33 584.157 1959.3 583.935C1959.28 583.712 1959.23 583.549 1959.16 583.441C1959.08 583.302 1958.96 583.194 1958.81 583.115C1958.66 583.036 1958.49 582.996 1958.31 582.996C1957.84 582.996 1957.48 583.174 1957.22 583.525C1956.95 583.872 1956.82 584.357 1956.82 584.977V588.327H1954.61V581.516H1956.82V582.51C1957.16 582.117 1957.51 581.825 1957.88 581.634C1958.26 581.445 1958.67 581.349 1959.13 581.349C1959.93 581.349 1960.54 581.593 1960.95 582.079C1961.36 582.562 1961.57 583.26 1961.57 584.178Z" fill="white" fill-opacity="0.1"/>
<path d="M1966.05 579.584V581.516H1968.33V583.073H1966.05V585.964C1966.05 586.281 1966.11 586.493 1966.24 586.604C1966.37 586.715 1966.62 586.771 1967 586.771H1968.13V588.327H1966.24C1965.36 588.327 1964.74 588.15 1964.37 587.792C1964.01 587.431 1963.83 586.823 1963.83 585.964V583.073H1962.73V581.516H1963.83V579.584H1966.05Z" fill="white" fill-opacity="0.1"/>
<path d="M1976.65 584.178V588.327H1974.42V585.165C1974.42 584.567 1974.41 584.157 1974.38 583.935C1974.35 583.712 1974.31 583.549 1974.24 583.441C1974.16 583.302 1974.04 583.195 1973.89 583.115C1973.74 583.036 1973.57 582.996 1973.39 582.996C1972.92 582.996 1972.56 583.174 1972.3 583.525C1972.03 583.872 1971.9 584.357 1971.9 584.977V588.327H1969.69V578.861H1971.9V582.51C1972.23 582.117 1972.59 581.825 1972.96 581.634C1973.34 581.445 1973.75 581.349 1974.21 581.349C1975.01 581.349 1975.61 581.593 1976.03 582.079C1976.44 582.562 1976.65 583.261 1976.65 584.178Z" fill="white" fill-opacity="0.1"/>
<path d="M1982.01 582.906C1981.51 582.906 1981.14 583.08 1980.88 583.427C1980.62 583.775 1980.49 584.275 1980.49 584.928C1980.49 585.582 1980.62 586.082 1980.88 586.43C1981.14 586.774 1981.51 586.944 1982.01 586.944C1982.49 586.944 1982.85 586.774 1983.11 586.43C1983.37 586.082 1983.5 585.582 1983.5 584.928C1983.5 584.275 1983.37 583.775 1983.11 583.427C1982.85 583.08 1982.49 582.906 1982.01 582.906ZM1982.01 581.349C1983.2 581.349 1984.13 581.667 1984.8 582.301C1985.47 582.932 1985.8 583.808 1985.8 584.928C1985.8 586.045 1985.47 586.921 1984.8 587.555C1984.13 588.186 1983.2 588.501 1982.01 588.501C1980.81 588.501 1979.87 588.186 1979.2 587.555C1978.52 586.921 1978.19 586.045 1978.19 584.928C1978.19 583.808 1978.52 582.932 1979.2 582.301C1979.87 581.667 1980.81 581.349 1982.01 581.349Z" fill="white" fill-opacity="0.1"/>
<path d="M1994.38 584.178V588.327H1992.15V585.151C1992.15 584.564 1992.14 584.157 1992.11 583.935C1992.08 583.712 1992.04 583.549 1991.97 583.441C1991.89 583.302 1991.77 583.194 1991.62 583.115C1991.47 583.036 1991.3 582.996 1991.11 582.996C1990.65 582.996 1990.29 583.174 1990.03 583.525C1989.76 583.872 1989.63 584.357 1989.63 584.977V588.327H1987.42V581.516H1989.63V582.51C1989.96 582.117 1990.32 581.825 1990.69 581.634C1991.07 581.445 1991.48 581.349 1991.94 581.349C1992.74 581.349 1993.34 581.593 1993.76 582.079C1994.17 582.562 1994.38 583.26 1994.38 584.178Z" fill="white" fill-opacity="0.1"/>
<path d="M1995.53 581.516H1997.74L1999.61 586.138L2001.19 581.516H2003.4L2000.49 588.974C2000.2 589.728 1999.86 590.256 1999.47 590.559C1999.07 590.865 1998.56 591.017 1997.92 591.017H1996.64V589.586H1997.33C1997.71 589.586 1997.98 589.525 1998.15 589.405C1998.32 589.289 1998.46 589.08 1998.55 588.779L1998.62 588.592L1995.53 581.516Z" fill="white" fill-opacity="0.1"/>
<path d="M2009.21 579.25H2011.59V586.555H2015.77V588.327H2009.21V579.25Z" fill="white" fill-opacity="0.1"/>
<path d="M2024.1 584.901V585.526H2018.92C2018.98 586.037 2019.16 586.419 2019.49 586.673C2019.81 586.929 2020.26 587.055 2020.84 587.055C2021.3 587.055 2021.78 586.989 2022.26 586.854C2022.75 586.715 2023.26 586.51 2023.77 586.235V587.91C2023.25 588.105 2022.72 588.251 2022.2 588.348C2021.68 588.449 2021.15 588.501 2020.63 588.501C2019.38 588.501 2018.4 588.188 2017.7 587.563C2017.01 586.937 2016.66 586.06 2016.66 584.929C2016.66 583.817 2017 582.944 2017.69 582.308C2018.37 581.669 2019.31 581.349 2020.5 581.349C2021.59 581.349 2022.46 581.674 2023.12 582.322C2023.77 582.967 2024.1 583.827 2024.1 584.901ZM2021.83 584.178C2021.83 583.766 2021.7 583.434 2021.46 583.184C2021.21 582.931 2020.89 582.802 2020.5 582.802C2020.07 582.802 2019.72 582.92 2019.45 583.156C2019.18 583.393 2019.01 583.733 2018.95 584.178H2021.83Z" fill="white" fill-opacity="0.1"/>
<path d="M2030.49 582.51V578.861H2032.72V588.327H2030.49V587.34C2030.19 587.743 2029.86 588.039 2029.49 588.223C2029.12 588.407 2028.69 588.501 2028.21 588.501C2027.36 588.501 2026.66 588.167 2026.11 587.5C2025.56 586.833 2025.29 585.976 2025.29 584.929C2025.29 583.877 2025.56 583.017 2026.11 582.35C2026.66 581.683 2027.36 581.349 2028.21 581.349C2028.69 581.349 2029.12 581.445 2029.48 581.634C2029.85 581.825 2030.19 582.117 2030.49 582.51ZM2029.04 586.923C2029.51 586.923 2029.87 586.755 2030.12 586.416C2030.37 586.074 2030.49 585.579 2030.49 584.929C2030.49 584.281 2030.37 583.787 2030.12 583.448C2029.87 583.106 2029.51 582.934 2029.04 582.934C2028.57 582.934 2028.2 583.106 2027.96 583.448C2027.7 583.787 2027.58 584.281 2027.58 584.929C2027.58 585.578 2027.7 586.074 2027.96 586.416C2028.2 586.755 2028.57 586.923 2029.04 586.923Z" fill="white" fill-opacity="0.1"/>
<path d="M2038.15 582.906C2037.66 582.906 2037.28 583.08 2037.03 583.427C2036.77 583.775 2036.64 584.275 2036.64 584.928C2036.64 585.582 2036.77 586.082 2037.03 586.43C2037.28 586.774 2037.66 586.944 2038.15 586.944C2038.63 586.944 2039 586.774 2039.25 586.43C2039.51 586.082 2039.64 585.582 2039.64 584.928C2039.64 584.275 2039.51 583.775 2039.25 583.427C2039 583.08 2038.63 582.906 2038.15 582.906ZM2038.15 581.349C2039.34 581.349 2040.27 581.667 2040.94 582.301C2041.61 582.932 2041.95 583.808 2041.95 584.928C2041.95 586.045 2041.61 586.921 2040.94 587.555C2040.27 588.186 2039.34 588.501 2038.15 588.501C2036.95 588.501 2036.02 588.186 2035.34 587.555C2034.67 586.921 2034.33 586.045 2034.33 584.928C2034.33 583.808 2034.67 582.932 2035.34 582.301C2036.02 581.667 2036.95 581.349 2038.15 581.349Z" fill="white" fill-opacity="0.1"/>
<path d="M2043.49 585.672V581.516H2045.71V582.197C2045.71 582.569 2045.71 583.031 2045.71 583.587C2045.7 584.143 2045.7 584.515 2045.7 584.699C2045.7 585.252 2045.71 585.648 2045.74 585.888C2045.77 586.129 2045.82 586.303 2045.89 586.409C2045.98 586.553 2046.1 586.664 2046.25 586.743C2046.4 586.817 2046.56 586.854 2046.75 586.854C2047.21 586.854 2047.58 586.68 2047.84 586.333C2048.11 585.985 2048.24 585.502 2048.24 584.88V581.516H2050.45V588.327H2048.24V587.34C2047.9 587.74 2047.55 588.033 2047.18 588.223C2046.8 588.407 2046.39 588.501 2045.94 588.501C2045.14 588.501 2044.53 588.261 2044.12 587.778C2043.69 587.297 2043.49 586.595 2043.49 585.672Z" fill="white" fill-opacity="0.1"/>
<path d="M2054.33 584.845L2051.83 581.516H2054.17L2055.6 583.532L2057.03 581.516H2059.37L2056.88 584.831L2059.5 588.327H2057.15L2055.6 586.173L2054.05 588.327H2051.71L2054.33 584.845Z" fill="white" fill-opacity="0.1"/>
<path d="M1866.77 591.316V592.748H1865.55C1865.24 592.748 1865.02 592.803 1864.89 592.915C1864.77 593.026 1864.71 593.22 1864.71 593.498V593.971H1866.6V595.528H1864.71V600.782H1862.49V595.528H1861.39V593.971H1862.49V593.498C1862.49 592.758 1862.7 592.209 1863.12 591.851C1863.54 591.495 1864.19 591.316 1865.08 591.316L1866.77 591.316Z" fill="white" fill-opacity="0.1"/>
<path d="M1872.88 595.826C1872.68 595.739 1872.49 595.673 1872.29 595.632C1872.1 595.587 1871.91 595.562 1871.72 595.562C1871.15 595.562 1870.71 595.743 1870.4 596.104C1870.1 596.462 1869.95 596.973 1869.95 597.64V600.782H1867.73V593.971H1869.95V595.09C1870.23 594.645 1870.55 594.322 1870.92 594.117C1871.29 593.908 1871.74 593.804 1872.25 593.804C1872.32 593.804 1872.41 593.809 1872.49 593.818C1872.58 593.823 1872.71 593.835 1872.87 593.853L1872.88 595.826Z" fill="white" fill-opacity="0.1"/>
<path d="M1877.28 595.361C1876.79 595.361 1876.41 595.534 1876.15 595.882C1875.89 596.229 1875.76 596.73 1875.76 597.383C1875.76 598.036 1875.89 598.537 1876.15 598.884C1876.41 599.228 1876.79 599.399 1877.28 599.399C1877.76 599.399 1878.13 599.228 1878.38 598.884C1878.64 598.537 1878.77 598.036 1878.77 597.383C1878.77 596.73 1878.64 596.229 1878.38 595.882C1878.13 595.534 1877.76 595.361 1877.28 595.361ZM1877.28 593.804C1878.47 593.804 1879.4 594.122 1880.07 594.756C1880.74 595.387 1881.08 596.262 1881.08 597.383C1881.08 598.5 1880.74 599.376 1880.07 600.01C1879.4 600.641 1878.47 600.955 1877.28 600.955C1876.08 600.955 1875.14 600.641 1874.47 600.01C1873.8 599.376 1873.46 598.5 1873.46 597.383C1873.46 596.262 1873.8 595.387 1874.47 594.756C1875.14 594.122 1876.08 593.804 1877.28 593.804Z" fill="white" fill-opacity="0.1"/>
<path d="M1889.11 595.103C1889.39 594.683 1889.72 594.36 1890.11 594.137C1890.49 593.915 1890.92 593.804 1891.38 593.804C1892.18 593.804 1892.78 594.047 1893.2 594.533C1893.62 595.016 1893.83 595.715 1893.83 596.632V600.782H1891.6V597.23V597.07C1891.6 597.011 1891.61 596.928 1891.61 596.82C1891.61 596.339 1891.53 595.991 1891.39 595.777C1891.25 595.56 1891.01 595.451 1890.69 595.451C1890.27 595.451 1889.95 595.623 1889.72 595.965C1889.49 596.304 1889.37 596.796 1889.36 597.439V600.782H1887.14V597.23C1887.14 596.476 1887.07 595.991 1886.94 595.777C1886.81 595.56 1886.57 595.451 1886.23 595.451C1885.81 595.451 1885.48 595.623 1885.25 595.965C1885.02 596.304 1884.9 596.792 1884.9 597.432V600.781H1882.67V593.971H1884.9V594.965C1885.17 594.581 1885.49 594.29 1885.84 594.096C1886.19 593.901 1886.58 593.804 1887 593.804C1887.48 593.804 1887.91 593.919 1888.28 594.144C1888.64 594.372 1888.92 594.692 1889.11 595.103Z" fill="white" fill-opacity="0.1"/>
<path d="M1902.73 592.039V593.971H1905.01V595.528H1902.73V598.419C1902.73 598.735 1902.79 598.947 1902.92 599.058C1903.04 599.17 1903.29 599.225 1903.67 599.225H1904.81V600.782H1902.92C1902.04 600.782 1901.42 600.605 1901.05 600.247C1900.69 599.885 1900.5 599.277 1900.5 598.419V595.528H1899.41V593.971H1900.5V592.039H1902.73Z" fill="white" fill-opacity="0.1"/>
<path d="M1913.33 596.633V600.782H1911.1V597.62C1911.1 597.022 1911.09 596.612 1911.06 596.39C1911.03 596.167 1910.98 596.004 1910.92 595.896C1910.83 595.757 1910.71 595.649 1910.56 595.569C1910.42 595.491 1910.25 595.451 1910.06 595.451C1909.6 595.451 1909.24 595.628 1908.97 595.979C1908.71 596.327 1908.58 596.812 1908.58 597.432V600.782H1906.36V591.316H1908.58V594.965C1908.91 594.572 1909.26 594.28 1909.64 594.089C1910.01 593.9 1910.43 593.804 1910.88 593.804C1911.68 593.804 1912.29 594.047 1912.71 594.534C1913.12 595.017 1913.33 595.715 1913.33 596.633Z" fill="white" fill-opacity="0.1"/>
<path d="M1922.3 597.356V597.981H1917.12C1917.18 598.492 1917.36 598.874 1917.68 599.128C1918 599.383 1918.46 599.51 1919.04 599.51C1919.5 599.51 1919.98 599.444 1920.46 599.309C1920.95 599.17 1921.46 598.964 1921.97 598.69V600.365C1921.45 600.56 1920.92 600.705 1920.4 600.803C1919.88 600.904 1919.35 600.956 1918.83 600.956C1917.57 600.956 1916.6 600.643 1915.9 600.017C1915.21 599.392 1914.86 598.514 1914.86 597.383C1914.86 596.271 1915.2 595.399 1915.89 594.763C1916.57 594.124 1917.51 593.804 1918.7 593.804C1919.79 593.804 1920.66 594.129 1921.32 594.777C1921.97 595.422 1922.3 596.282 1922.3 597.356ZM1920.03 596.633C1920.03 596.221 1919.9 595.889 1919.66 595.639C1919.41 595.385 1919.09 595.257 1918.7 595.257C1918.27 595.257 1917.92 595.375 1917.65 595.611C1917.38 595.847 1917.21 596.188 1917.15 596.633H1920.03Z" fill="white" fill-opacity="0.1"/>
<path d="M1928.49 591.705H1931.15L1934.51 597.932V591.705H1936.77V600.782H1934.11L1930.75 594.554V600.782H1928.49V591.705Z" fill="white" fill-opacity="0.1"/>
<path d="M1942.3 595.361C1941.8 595.361 1941.43 595.534 1941.17 595.882C1940.91 596.229 1940.78 596.73 1940.78 597.383C1940.78 598.036 1940.91 598.537 1941.17 598.884C1941.43 599.228 1941.8 599.399 1942.3 599.399C1942.78 599.399 1943.14 599.228 1943.4 598.884C1943.66 598.537 1943.79 598.036 1943.79 597.383C1943.79 596.73 1943.66 596.229 1943.4 595.882C1943.14 595.534 1942.78 595.361 1942.3 595.361ZM1942.3 593.804C1943.49 593.804 1944.42 594.122 1945.09 594.756C1945.76 595.387 1946.09 596.262 1946.09 597.383C1946.09 598.5 1945.76 599.376 1945.09 600.01C1944.42 600.641 1943.49 600.955 1942.3 600.955C1941.1 600.955 1940.16 600.641 1939.49 600.01C1938.81 599.376 1938.48 598.5 1938.48 597.383C1938.48 596.262 1938.81 595.387 1939.49 594.756C1940.16 594.122 1941.1 593.804 1942.3 593.804Z" fill="white" fill-opacity="0.1"/>
<path d="M1947.63 598.127V593.971H1949.86V594.652C1949.86 595.024 1949.86 595.486 1949.85 596.042C1949.85 596.598 1949.84 596.97 1949.84 597.154C1949.84 597.706 1949.86 598.103 1949.89 598.342C1949.92 598.584 1949.97 598.758 1950.04 598.864C1950.13 599.008 1950.25 599.119 1950.4 599.197C1950.54 599.272 1950.71 599.308 1950.9 599.308C1951.36 599.308 1951.72 599.135 1951.99 598.787C1952.25 598.44 1952.38 597.957 1952.38 597.335V593.971H1954.6V600.782H1952.38V599.795C1952.05 600.194 1951.69 600.488 1951.32 600.677C1950.95 600.862 1950.54 600.955 1950.08 600.955C1949.29 600.955 1948.68 600.716 1948.26 600.233C1947.84 599.751 1947.63 599.05 1947.63 598.127Z" fill="white" fill-opacity="0.1"/>
<path d="M1963.7 596.633V600.782H1961.47V597.606C1961.47 597.018 1961.45 596.612 1961.43 596.389C1961.4 596.167 1961.35 596.004 1961.28 595.896C1961.2 595.757 1961.08 595.649 1960.93 595.569C1960.78 595.491 1960.62 595.451 1960.43 595.451C1959.97 595.451 1959.6 595.628 1959.34 595.979C1959.07 596.327 1958.94 596.812 1958.94 597.432V600.782H1956.73V593.971H1958.94V594.965C1959.28 594.572 1959.63 594.28 1960 594.089C1960.38 593.9 1960.8 593.804 1961.25 593.804C1962.05 593.804 1962.66 594.047 1963.07 594.534C1963.49 595.017 1963.7 595.715 1963.7 596.633Z" fill="white" fill-opacity="0.1"/>
<path d="M1970.26 591.705H1974.22C1975.39 591.705 1976.29 591.962 1976.92 592.476C1977.55 592.987 1977.87 593.717 1977.87 594.666C1977.87 595.616 1977.55 596.348 1976.92 596.862C1976.29 597.376 1975.39 597.633 1974.22 597.633H1972.64V600.782H1970.26V591.705ZM1972.64 593.401V595.938H1973.96C1974.42 595.938 1974.78 595.826 1975.03 595.604C1975.28 595.382 1975.41 595.069 1975.41 594.666C1975.41 594.259 1975.28 593.946 1975.03 593.727C1974.78 593.51 1974.42 593.401 1973.96 593.401L1972.64 593.401Z" fill="white" fill-opacity="0.1"/>
<path d="M1984.6 595.826C1984.4 595.739 1984.21 595.673 1984.01 595.632C1983.82 595.587 1983.63 595.562 1983.44 595.562C1982.87 595.562 1982.43 595.743 1982.13 596.104C1981.82 596.462 1981.67 596.973 1981.67 597.64V600.782H1979.45V593.971H1981.67V595.09C1981.95 594.645 1982.27 594.322 1982.64 594.117C1983.01 593.908 1983.46 593.804 1983.97 593.804C1984.05 593.804 1984.13 593.809 1984.21 593.818C1984.3 593.823 1984.43 593.835 1984.59 593.853L1984.6 595.826Z" fill="white" fill-opacity="0.1"/>
<path d="M1989 595.361C1988.51 595.361 1988.13 595.534 1987.87 595.882C1987.61 596.229 1987.48 596.73 1987.48 597.383C1987.48 598.036 1987.61 598.537 1987.87 598.884C1988.13 599.228 1988.51 599.399 1989 599.399C1989.48 599.399 1989.85 599.228 1990.1 598.884C1990.36 598.537 1990.49 598.036 1990.49 597.383C1990.49 596.73 1990.36 596.229 1990.1 595.882C1989.85 595.534 1989.48 595.361 1989 595.361ZM1989 593.804C1990.19 593.804 1991.12 594.122 1991.79 594.756C1992.46 595.387 1992.79 596.262 1992.79 597.383C1992.79 598.5 1992.46 599.376 1991.79 600.01C1991.12 600.641 1990.19 600.955 1989 600.955C1987.8 600.955 1986.86 600.641 1986.19 600.01C1985.51 599.376 1985.18 598.5 1985.18 597.383C1985.18 596.262 1985.51 595.387 1986.19 594.756C1986.86 594.122 1987.8 593.804 1989 593.804Z" fill="white" fill-opacity="0.1"/>
<path d="M1994.41 593.971H1996.62V600.657C1996.62 601.569 1996.4 602.266 1995.95 602.749C1995.51 603.23 1994.86 603.472 1994.01 603.472H1992.92V602.04H1993.31C1993.72 602.04 1994.01 601.946 1994.17 601.762C1994.33 601.576 1994.41 601.208 1994.41 600.657L1994.41 593.971ZM1994.41 591.316H1996.62V593.095H1994.41V591.316Z" fill="white" fill-opacity="0.1"/>
<path d="M2005.67 597.356V597.981H2000.49C2000.54 598.492 2000.73 598.874 2001.05 599.128C2001.37 599.383 2001.82 599.51 2002.4 599.51C2002.87 599.51 2003.35 599.444 2003.83 599.309C2004.32 599.17 2004.82 598.964 2005.34 598.69V600.365C2004.81 600.56 2004.29 600.705 2003.77 600.803C2003.24 600.904 2002.72 600.956 2002.2 600.956C2000.94 600.956 1999.97 600.643 1999.27 600.017C1998.58 599.392 1998.23 598.514 1998.23 597.383C1998.23 596.271 1998.57 595.399 1999.26 594.763C1999.94 594.124 2000.88 593.804 2002.07 593.804C2003.16 593.804 2004.03 594.129 2004.69 594.777C2005.34 595.422 2005.67 596.282 2005.67 597.356ZM2003.39 596.633C2003.39 596.221 2003.27 595.889 2003.03 595.639C2002.78 595.385 2002.46 595.257 2002.06 595.257C2001.63 595.257 2001.29 595.375 2001.02 595.611C2000.75 595.847 2000.58 596.188 2000.51 596.633H2003.39Z" fill="white" fill-opacity="0.1"/>
<path d="M2012.94 594.186V595.959C2012.65 595.755 2012.34 595.604 2012.04 595.507C2011.74 595.409 2011.42 595.361 2011.1 595.361C2010.48 595.361 2010 595.54 2009.65 595.896C2009.3 596.249 2009.13 596.744 2009.13 597.383C2009.13 598.019 2009.3 598.514 2009.65 598.871C2010 599.223 2010.48 599.399 2011.1 599.399C2011.44 599.399 2011.77 599.35 2012.08 599.253C2012.39 599.152 2012.68 599.001 2012.94 598.801V600.58C2012.6 600.705 2012.25 600.798 2011.89 600.858C2011.54 600.923 2011.18 600.956 2010.82 600.956C2009.57 600.956 2008.59 600.641 2007.88 600.01C2007.18 599.381 2006.83 598.506 2006.83 597.383C2006.83 596.257 2007.18 595.38 2007.88 594.749C2008.59 594.12 2009.57 593.804 2010.82 593.804C2011.18 593.804 2011.54 593.837 2011.89 593.901C2012.24 593.962 2012.59 594.058 2012.94 594.186Z" fill="white" fill-opacity="0.1"/>
<path d="M2017.28 592.039V593.971H2019.56V595.528H2017.28V598.419C2017.28 598.735 2017.34 598.947 2017.47 599.058C2017.6 599.17 2017.85 599.225 2018.23 599.225H2019.37V600.782H2017.47C2016.59 600.782 2015.97 600.605 2015.6 600.247C2015.24 599.885 2015.06 599.277 2015.06 598.419V595.528H2013.96V593.971H2015.06V592.039H2017.28Z" fill="white" fill-opacity="0.1"/>
</mask>
<g mask="url(#mask1_193_1765)">
<rect x="-14.0605" y="-191.106" width="2224.35" height="1444.28" fill="#FFA3B3"/>
</g>
</g>
<defs>
<clipPath id="clip0_193_1765">
<rect width="2193" height="1449" fill="white"/>
</clipPath>
</defs>
</svg>
