<svg width="1662" height="1449" viewBox="0 0 1662 1449" fill="none" xmlns="http://www.w3.org/2000/svg">
<g clip-path="url(#clip0_193_1765)">
<rect width="1662" height="1449" fill="white"/>
<mask id="mask0_193_1765" style="mask-type:alpha" maskUnits="userSpaceOnUse" x="-371" y="286" width="2552" height="1125">
<path d="M603.843 445.296C255.143 371.479 -121.719 399.139 -371 474.566V1159.59C-371 1205.75 206.943 1341.41 860.784 1396C1275.04 1430.6 1756.08 1401.45 2021.54 1348.22C2091.28 1334.24 2146.14 1318.59 2181 1302C2165.45 995.983 2134.35 661.555 2134.35 286C1771.57 512.842 1117.03 553.932 603.843 445.296Z" fill="#FFCBD4"/>
</mask>
<g mask="url(#mask0_193_1765)">
<rect x="-84.1182" y="286" width="2105.66" height="1124.64" fill="#FFEBEE"/>
</g>
<path d="M274.694 876.215C276.012 876.399 277.34 876.491 278.669 876.49C286.34 876.49 293.077 873.456 299.622 870.506C302.433 869.239 305.09 868.043 307.821 867.073C317.403 863.996 327.759 864.258 337.172 867.815C340.386 875.894 346.61 882.439 354.557 886.091C364.609 890.754 376.117 891.266 386.548 887.514C396.98 883.764 405.484 876.055 410.184 866.087C415.35 855.097 416.398 842.64 413.144 830.951C409.888 819.262 402.542 809.105 392.421 802.3C392.079 790.986 387.316 780.247 379.136 772.353C370.956 764.458 360.001 760.029 348.586 760C337.173 759.971 326.196 764.348 317.976 772.2C312.723 769.6 306.845 768.495 300.997 769.009C295.151 769.525 289.561 771.639 284.852 775.117C279.266 779.238 274.91 784.781 272.245 791.158C269.578 797.536 268.704 804.511 269.712 811.341C265.652 811.647 261.722 812.904 258.244 815.005C251.055 819.335 245.896 826.321 243.903 834.424C241.909 842.528 243.247 851.086 247.619 858.21C253.501 867.901 263.421 874.497 274.693 876.214L274.694 876.215ZM250.628 836.049C252.168 829.706 256.206 824.242 261.839 820.871C266.174 818.262 271.379 817.468 276.306 818.665C281.232 819.861 285.478 822.951 288.108 827.252C290.116 830.532 290.731 834.469 289.818 838.197C288.904 841.927 286.537 845.145 283.236 847.146C280.738 848.643 277.745 849.099 274.909 848.415C272.074 847.731 269.626 845.965 268.101 843.499C266.989 841.673 266.651 839.487 267.161 837.415C267.671 835.343 268.987 833.558 270.822 832.445C272.454 831.46 272.97 829.349 271.976 827.731C270.983 826.112 268.854 825.598 267.222 826.585C263.823 828.645 261.387 831.957 260.442 835.794C259.499 839.632 260.125 843.684 262.186 847.064C264.67 851.081 268.654 853.961 273.27 855.074C277.887 856.19 282.76 855.45 286.826 853.014C291.698 850.066 295.19 845.321 296.537 839.823C297.885 834.323 296.978 828.519 294.017 823.683C290.235 817.463 283.97 813.13 276.778 811.761C275.656 805.955 276.206 799.952 278.368 794.443C280.53 788.934 284.214 784.141 288.999 780.613C294.266 776.721 300.874 775.058 307.374 775.987C313.876 776.917 319.74 780.363 323.685 785.572C326.716 789.607 328.01 794.67 327.285 799.649C326.559 804.628 323.873 809.121 319.814 812.139C316.711 814.443 312.812 815.43 308.975 814.879C305.14 814.33 301.682 812.289 299.364 809.207C297.618 806.891 296.87 803.982 297.285 801.118C297.702 798.257 299.247 795.675 301.582 793.943C303.307 792.673 305.47 792.132 307.596 792.435C309.724 792.74 311.642 793.866 312.936 795.568C313.486 796.299 314.307 796.781 315.216 796.91C316.127 797.039 317.051 796.803 317.787 796.256C318.522 795.708 319.006 794.893 319.135 793.989C319.262 793.088 319.022 792.172 318.469 791.444C316.073 788.293 312.518 786.209 308.578 785.647C304.64 785.084 300.636 786.089 297.442 788.441C293.634 791.263 291.114 795.47 290.435 800.135C289.757 804.8 290.975 809.542 293.822 813.317C297.227 817.87 302.329 820.88 307.987 821.673C309.022 821.822 310.065 821.897 311.111 821.897C315.748 821.898 320.258 820.401 323.961 817.634C329.488 813.522 333.144 807.407 334.132 800.627C335.119 793.845 333.355 786.954 329.227 781.461C327.69 779.442 325.912 777.616 323.932 776.022C331.123 769.757 340.476 766.489 350.039 766.897C359.603 767.308 368.636 771.363 375.257 778.219C381.877 785.074 385.572 794.2 385.571 803.693V804.143C385.571 804.162 385.575 804.181 385.577 804.201C385.582 804.33 385.596 804.458 385.616 804.585C385.629 804.684 385.633 804.785 385.656 804.88C385.678 804.984 385.719 805.083 385.751 805.185C385.783 805.297 385.82 805.407 385.862 805.514C385.902 805.607 385.958 805.691 386.007 805.781H386.008C386.061 805.886 386.119 805.99 386.184 806.089C386.242 806.172 386.314 806.247 386.38 806.325C386.454 806.419 386.533 806.51 386.617 806.596C386.683 806.658 386.758 806.711 386.829 806.77L386.831 806.772C386.934 806.861 387.043 806.944 387.156 807.021L387.199 807.054H387.201C396.409 812.777 403.192 821.641 406.271 831.979C409.35 842.316 408.511 853.413 403.915 863.179C399.987 871.494 392.891 877.922 384.186 881.054C375.482 884.183 365.88 883.76 357.491 879.874C350.91 876.85 345.82 871.344 343.355 864.578C343.297 864.219 343.185 863.873 343.017 863.55C341.031 857.337 341.395 850.621 344.041 844.655C344.062 844.606 344.121 844.445 344.142 844.394L344.343 843.952C346.725 838.926 351.02 835.043 356.284 833.153C361.55 831.263 367.355 831.52 372.429 833.87C373.285 834.253 374.096 834.727 374.849 835.284C377.975 837.438 380.228 840.622 381.21 844.269C382.19 847.917 381.832 851.791 380.202 855.201C378.828 858.127 376.337 860.39 373.277 861.491C370.219 862.594 366.845 862.444 363.896 861.078C361.709 860.06 360.018 858.223 359.194 855.969C358.368 853.716 358.479 851.231 359.501 849.059C360.24 847.485 361.579 846.267 363.224 845.672C364.867 845.077 366.682 845.153 368.27 845.884C369.101 846.272 370.055 846.317 370.919 846.009C371.785 845.699 372.49 845.061 372.879 844.236C373.271 843.411 373.312 842.464 373 841.607C372.686 840.752 372.041 840.053 371.207 839.668C367.957 838.163 364.236 838.002 360.866 839.218C357.494 840.434 354.747 842.929 353.231 846.153C351.435 849.973 351.241 854.345 352.689 858.309C354.139 862.272 357.113 865.504 360.961 867.295C365.571 869.435 370.85 869.668 375.634 867.946C380.419 866.224 384.317 862.685 386.47 858.11C388.794 853.253 389.307 847.737 387.922 842.541C386.536 837.343 383.338 832.801 378.897 829.719C377.788 828.903 376.595 828.208 375.34 827.641C368.605 824.532 360.901 824.195 353.917 826.706C346.933 829.216 341.236 834.37 338.075 841.038L337.964 841.279C337.851 841.523 337.74 841.775 337.648 842.016C335.17 847.68 334.304 853.911 335.148 860.03C325.434 857.21 315.081 857.412 305.486 860.611C302.488 861.675 299.574 862.989 296.757 864.258C289.695 867.44 283.036 870.442 275.653 869.417H275.654C266.459 867.938 258.376 862.542 253.536 854.648C250.103 849.082 249.055 842.385 250.628 836.049L250.628 836.049Z" fill="#FFA3B3"/>
</g>
<defs>
<clipPath id="clip0_193_1765">
<rect width="1662" height="1449" fill="white"/>
</clipPath>
</defs>
</svg>
