<svg width="1662" height="1449" viewBox="0 0 1662 1449" fill="none" xmlns="http://www.w3.org/2000/svg">
<g clip-path="url(#clip0_193_1765)">
<rect width="1662" height="1449" fill="white"/>
<mask id="mask0_193_1765" style="mask-type:alpha" maskUnits="userSpaceOnUse" x="-371" y="286" width="2552" height="1125">
<path d="M603.843 445.296C255.143 371.479 -121.719 399.139 -371 474.566V1159.59C-371 1205.75 206.943 1341.41 860.784 1396C1275.04 1430.6 1756.08 1401.45 2021.54 1348.22C2091.28 1334.24 2146.14 1318.59 2181 1302C2165.45 995.983 2134.35 661.555 2134.35 286C1771.57 512.842 1117.03 553.932 603.843 445.296Z" fill="#FFCBD4"/>
</mask>
<g mask="url(#mask0_193_1765)">
<rect x="-84.1182" y="286" width="2105.66" height="1124.64" fill="#FFEBEE"/>
</g>
<mask id="mask1_193_1765" style="mask-type:alpha" maskUnits="userSpaceOnUse" x="1045" y="746" width="487" height="478">
<path d="M1196.58 1022.79C1198.81 1023.1 1201.05 1023.25 1203.29 1023.25C1216.23 1023.25 1227.59 1018.18 1238.63 1013.25C1243.37 1011.13 1247.85 1009.13 1252.46 1007.51C1268.62 1002.37 1286.08 1002.8 1301.96 1008.75C1307.38 1022.25 1317.88 1033.19 1331.28 1039.29C1348.23 1047.09 1367.64 1047.95 1385.24 1041.67C1402.83 1035.41 1417.17 1022.52 1425.1 1005.86C1433.82 987.494 1435.58 966.674 1430.09 947.139C1424.6 927.603 1412.21 910.627 1395.14 899.253C1394.57 880.344 1386.53 862.395 1372.74 849.202C1358.94 836.006 1340.46 828.604 1321.21 828.556C1301.96 828.508 1283.45 835.823 1269.58 848.946C1260.72 844.601 1250.81 842.755 1240.95 843.614C1231.09 844.475 1221.66 848.009 1213.72 853.822C1204.3 860.709 1196.95 869.973 1192.45 880.632C1187.96 891.291 1186.48 902.948 1188.18 914.364C1181.33 914.876 1174.7 916.975 1168.84 920.488C1156.71 927.725 1148.01 939.4 1144.65 952.942C1141.29 966.487 1143.54 980.79 1150.92 992.698C1160.84 1008.89 1177.57 1019.92 1196.58 1022.79L1196.58 1022.79ZM1155.99 955.658C1158.59 945.058 1165.4 935.925 1174.9 930.292C1182.21 925.93 1190.99 924.605 1199.3 926.605C1207.61 928.603 1214.77 933.767 1219.21 940.956C1222.59 946.438 1223.63 953.018 1222.09 959.249C1220.55 965.483 1216.56 970.861 1210.99 974.205C1206.78 976.707 1201.73 977.47 1196.95 976.326C1192.16 975.184 1188.04 972.231 1185.46 968.11C1183.59 965.059 1183.02 961.404 1183.88 957.942C1184.74 954.48 1186.96 951.495 1190.05 949.636C1192.8 947.99 1193.68 944.461 1192 941.756C1190.32 939.051 1186.73 938.192 1183.98 939.841C1178.25 943.285 1174.14 948.819 1172.55 955.232C1170.95 961.647 1172.01 968.419 1175.49 974.069C1179.68 980.783 1186.4 985.595 1194.18 987.457C1201.97 989.321 1210.19 988.083 1217.05 984.013C1225.26 979.086 1231.15 971.156 1233.42 961.967C1235.7 952.775 1234.17 943.074 1229.17 934.991C1222.79 924.596 1212.23 917.354 1200.1 915.065C1198.21 905.361 1199.13 895.33 1202.78 886.121C1206.43 876.914 1212.64 868.903 1220.71 863.008C1229.59 856.502 1240.74 853.722 1251.7 855.275C1262.67 856.83 1272.56 862.589 1279.21 871.296C1284.33 878.039 1286.51 886.5 1285.28 894.822C1284.06 903.145 1279.53 910.654 1272.68 915.697C1267.45 919.549 1260.87 921.197 1254.4 920.277C1247.93 919.359 1242.1 915.948 1238.19 910.797C1235.25 906.926 1233.99 902.064 1234.69 897.278C1235.39 892.496 1237.99 888.18 1241.93 885.286C1244.84 883.163 1248.49 882.259 1252.08 882.765C1255.67 883.275 1258.9 885.158 1261.08 888.002C1262.01 889.223 1263.4 890.029 1264.93 890.245C1266.47 890.461 1268.02 890.066 1269.26 889.151C1270.5 888.236 1271.32 886.873 1271.54 885.363C1271.75 883.856 1271.35 882.325 1270.41 881.109C1266.37 875.843 1260.38 872.36 1253.73 871.421C1247.09 870.479 1240.34 872.159 1234.95 876.091C1228.53 880.807 1224.28 887.838 1223.13 895.635C1221.99 903.432 1224.04 911.357 1228.85 917.666C1234.59 925.276 1243.19 930.307 1252.74 931.632C1254.48 931.88 1256.24 932.005 1258 932.005C1265.82 932.008 1273.43 929.506 1279.68 924.881C1289 918.01 1295.17 907.788 1296.83 896.457C1298.5 885.123 1295.52 873.605 1288.56 864.424C1285.97 861.049 1282.97 857.998 1279.63 855.334C1291.76 844.864 1307.53 839.401 1323.66 840.084C1339.79 840.77 1355.03 847.548 1366.19 859.007C1377.36 870.463 1383.59 885.715 1383.59 901.581V902.334C1383.59 902.366 1383.6 902.398 1383.6 902.43C1383.61 902.646 1383.63 902.859 1383.66 903.073C1383.69 903.238 1383.69 903.406 1383.73 903.566C1383.77 903.739 1383.84 903.905 1383.89 904.075C1383.95 904.262 1384.01 904.446 1384.08 904.625C1384.15 904.78 1384.24 904.921 1384.32 905.07H1384.33C1384.42 905.246 1384.51 905.42 1384.62 905.585C1384.72 905.724 1384.84 905.849 1384.95 905.98C1385.08 906.137 1385.21 906.289 1385.35 906.433C1385.46 906.538 1385.59 906.626 1385.71 906.724L1385.71 906.727C1385.89 906.876 1386.07 907.015 1386.26 907.143L1386.34 907.199H1386.34C1401.87 916.764 1413.31 931.579 1418.5 948.856C1423.7 966.133 1422.28 984.679 1414.53 1001C1407.9 1014.9 1395.94 1025.64 1381.25 1030.88C1366.57 1036.11 1350.38 1035.4 1336.23 1028.9C1325.13 1023.85 1316.55 1014.65 1312.39 1003.34C1312.29 1002.74 1312.1 1002.16 1311.82 1001.62C1308.47 991.238 1309.08 980.013 1313.54 970.043C1313.58 969.96 1313.68 969.691 1313.72 969.605L1314.05 968.867C1318.07 960.467 1325.32 953.977 1334.19 950.819C1343.08 947.66 1352.87 948.09 1361.42 952.016C1362.87 952.656 1364.24 953.449 1365.51 954.38C1370.78 957.981 1374.58 963.302 1376.23 969.397C1377.89 975.495 1377.28 981.968 1374.53 987.669C1372.22 992.558 1368.01 996.34 1362.85 998.181C1357.7 1000.02 1352.01 999.774 1347.03 997.491C1343.34 995.789 1340.49 992.719 1339.1 988.952C1337.71 985.186 1337.9 981.032 1339.62 977.402C1340.87 974.772 1343.12 972.737 1345.9 971.742C1348.67 970.747 1351.73 970.875 1354.41 972.097C1355.81 972.745 1357.42 972.82 1358.88 972.305C1360.34 971.787 1361.53 970.72 1362.18 969.341C1362.84 967.962 1362.91 966.381 1362.39 964.948C1361.86 963.518 1360.77 962.35 1359.36 961.707C1353.88 959.192 1347.61 958.923 1341.92 960.955C1336.24 962.988 1331.6 967.157 1329.05 972.545C1326.02 978.931 1325.69 986.237 1328.13 992.863C1330.58 999.486 1335.59 1004.89 1342.08 1007.88C1349.86 1011.46 1358.76 1011.85 1366.83 1008.97C1374.9 1006.09 1381.47 1000.18 1385.11 992.53C1389.03 984.412 1389.89 975.194 1387.55 966.509C1385.22 957.821 1379.82 950.23 1372.33 945.079C1370.46 943.716 1368.45 942.553 1366.33 941.606C1354.97 936.41 1341.98 935.847 1330.2 940.043C1318.42 944.239 1308.81 952.852 1303.48 963.996L1303.3 964.399C1303.11 964.807 1302.92 965.229 1302.76 965.631C1298.58 975.098 1297.12 985.511 1298.55 995.739C1282.16 991.025 1264.7 991.364 1248.52 996.71C1243.46 998.489 1238.55 1000.68 1233.8 1002.8C1221.89 1008.12 1210.65 1013.14 1198.2 1011.43H1198.2C1182.69 1008.96 1169.06 999.937 1160.9 986.745C1155.11 977.441 1153.34 966.248 1155.99 955.659L1155.99 955.658Z" fill="white"/>
<path d="M1143.23 1058.17C1142.89 1058.34 1142.55 1058.47 1142.18 1058.55C1141.82 1058.64 1141.44 1058.69 1141.05 1058.69C1139.87 1058.69 1138.94 1058.37 1138.26 1057.72C1137.57 1057.07 1137.22 1056.2 1137.22 1055.09C1137.22 1053.99 1137.57 1053.11 1138.26 1052.47C1138.94 1051.82 1139.87 1051.5 1141.05 1051.5C1141.44 1051.5 1141.82 1051.54 1142.18 1051.63C1142.55 1051.71 1142.89 1051.84 1143.23 1052.01V1053.44C1142.89 1053.22 1142.56 1053.06 1142.23 1052.95C1141.9 1052.84 1141.56 1052.79 1141.19 1052.79C1140.55 1052.79 1140.04 1053 1139.67 1053.41C1139.29 1053.81 1139.11 1054.38 1139.11 1055.09C1139.11 1055.81 1139.29 1056.37 1139.67 1056.78C1140.04 1057.19 1140.55 1057.39 1141.19 1057.39C1141.56 1057.39 1141.9 1057.34 1142.23 1057.24C1142.56 1057.13 1142.89 1056.97 1143.23 1056.74V1058.17Z" fill="white" fill-opacity="0.1"/>
<path d="M1148.59 1054.77C1148.44 1054.7 1148.29 1054.65 1148.14 1054.62C1148 1054.59 1147.85 1054.57 1147.71 1054.57C1147.27 1054.57 1146.94 1054.71 1146.7 1054.98C1146.47 1055.26 1146.35 1055.65 1146.35 1056.15V1058.55H1144.66V1053.35H1146.35V1054.21C1146.57 1053.87 1146.82 1053.62 1147.1 1053.46C1147.38 1053.3 1147.72 1053.23 1148.11 1053.23C1148.17 1053.23 1148.23 1053.23 1148.3 1053.24C1148.36 1053.24 1148.46 1053.25 1148.59 1053.26L1148.59 1054.77Z" fill="white" fill-opacity="0.1"/>
<path d="M1154.72 1055.94V1056.41H1150.76C1150.8 1056.8 1150.94 1057.1 1151.19 1057.29C1151.43 1057.49 1151.78 1057.58 1152.22 1057.58C1152.58 1057.58 1152.94 1057.53 1153.31 1057.43C1153.69 1057.32 1154.07 1057.17 1154.46 1056.96V1058.24C1154.06 1058.38 1153.66 1058.5 1153.26 1058.57C1152.86 1058.65 1152.46 1058.69 1152.06 1058.69C1151.11 1058.69 1150.36 1058.45 1149.83 1057.97C1149.3 1057.49 1149.03 1056.82 1149.03 1055.96C1149.03 1055.11 1149.3 1054.44 1149.82 1053.96C1150.34 1053.47 1151.06 1053.23 1151.97 1053.23C1152.8 1053.23 1153.46 1053.47 1153.97 1053.97C1154.46 1054.46 1154.72 1055.12 1154.72 1055.94ZM1152.98 1055.39C1152.98 1055.07 1152.88 1054.82 1152.7 1054.63C1152.51 1054.43 1152.26 1054.33 1151.96 1054.33C1151.63 1054.33 1151.37 1054.42 1151.16 1054.61C1150.96 1054.79 1150.83 1055.05 1150.78 1055.39H1152.98Z" fill="white" fill-opacity="0.1"/>
<path d="M1158.37 1056.21C1158.01 1056.21 1157.75 1056.27 1157.57 1056.39C1157.39 1056.5 1157.3 1056.68 1157.3 1056.91C1157.3 1057.12 1157.38 1057.29 1157.52 1057.41C1157.66 1057.52 1157.86 1057.58 1158.11 1057.58C1158.43 1057.58 1158.7 1057.47 1158.92 1057.25C1159.14 1057.02 1159.25 1056.74 1159.25 1056.4V1056.21L1158.37 1056.21ZM1160.95 1055.59V1058.55H1159.25V1057.78C1159.02 1058.1 1158.76 1058.33 1158.48 1058.47C1158.2 1058.61 1157.85 1058.69 1157.44 1058.69C1156.9 1058.69 1156.45 1058.53 1156.11 1058.22C1155.77 1057.9 1155.6 1057.5 1155.6 1056.99C1155.6 1056.39 1155.81 1055.94 1156.23 1055.66C1156.66 1055.37 1157.33 1055.23 1158.25 1055.23H1159.25V1055.09C1159.25 1054.83 1159.14 1054.64 1158.93 1054.52C1158.72 1054.4 1158.39 1054.33 1157.94 1054.33C1157.58 1054.33 1157.24 1054.37 1156.93 1054.44C1156.62 1054.51 1156.33 1054.62 1156.06 1054.76V1053.49C1156.42 1053.41 1156.78 1053.34 1157.15 1053.29C1157.51 1053.25 1157.88 1053.23 1158.25 1053.23C1159.2 1053.23 1159.89 1053.41 1160.31 1053.78C1160.74 1054.15 1160.95 1054.75 1160.95 1055.59Z" fill="white" fill-opacity="0.1"/>
<path d="M1164.37 1051.88V1053.35H1166.12V1054.54H1164.37V1056.75C1164.37 1056.99 1164.42 1057.15 1164.52 1057.24C1164.62 1057.32 1164.81 1057.36 1165.1 1057.36H1165.97V1058.55H1164.52C1163.85 1058.55 1163.37 1058.42 1163.09 1058.14C1162.82 1057.87 1162.68 1057.4 1162.68 1056.75V1054.54H1161.84V1053.35H1162.68V1051.88H1164.37Z" fill="white" fill-opacity="0.1"/>
<path d="M1172.43 1055.94V1056.41H1168.48C1168.52 1056.8 1168.66 1057.1 1168.91 1057.29C1169.15 1057.49 1169.5 1057.58 1169.94 1057.58C1170.3 1057.58 1170.66 1057.53 1171.03 1057.43C1171.4 1057.32 1171.79 1057.17 1172.18 1056.96V1058.24C1171.78 1058.38 1171.38 1058.5 1170.98 1058.57C1170.58 1058.65 1170.18 1058.69 1169.78 1058.69C1168.82 1058.69 1168.08 1058.45 1167.55 1057.97C1167.02 1057.49 1166.75 1056.82 1166.75 1055.96C1166.75 1055.11 1167.01 1054.44 1167.54 1053.96C1168.06 1053.47 1168.77 1053.23 1169.69 1053.23C1170.52 1053.23 1171.18 1053.47 1171.68 1053.97C1172.18 1054.46 1172.43 1055.12 1172.43 1055.94ZM1170.7 1055.39C1170.7 1055.07 1170.6 1054.82 1170.41 1054.63C1170.23 1054.43 1169.98 1054.33 1169.68 1054.33C1169.35 1054.33 1169.09 1054.42 1168.88 1054.61C1168.68 1054.79 1168.55 1055.05 1168.5 1055.39H1170.7Z" fill="white" fill-opacity="0.1"/>
<path d="M1177.31 1054.11V1051.33H1179.01V1058.55H1177.31V1057.8C1177.08 1058.11 1176.83 1058.33 1176.55 1058.47C1176.26 1058.61 1175.94 1058.69 1175.57 1058.69C1174.92 1058.69 1174.38 1058.43 1173.96 1057.92C1173.55 1057.41 1173.34 1056.76 1173.34 1055.96C1173.34 1055.16 1173.55 1054.5 1173.96 1053.99C1174.38 1053.48 1174.92 1053.23 1175.57 1053.23C1175.93 1053.23 1176.26 1053.3 1176.54 1053.44C1176.82 1053.59 1177.08 1053.81 1177.31 1054.11ZM1176.2 1057.48C1176.56 1057.48 1176.83 1057.35 1177.03 1057.09C1177.22 1056.83 1177.31 1056.45 1177.31 1055.96C1177.31 1055.46 1177.22 1055.09 1177.03 1054.83C1176.83 1054.57 1176.56 1054.44 1176.2 1054.44C1175.84 1054.44 1175.56 1054.57 1175.37 1054.83C1175.18 1055.09 1175.09 1055.46 1175.09 1055.96C1175.09 1056.45 1175.18 1056.83 1175.37 1057.09C1175.56 1057.35 1175.84 1057.48 1176.2 1057.48Z" fill="white" fill-opacity="0.1"/>
<path d="M1186.83 1057.48C1187.19 1057.48 1187.47 1057.35 1187.66 1057.09C1187.85 1056.83 1187.94 1056.45 1187.94 1055.96C1187.94 1055.46 1187.85 1055.09 1187.66 1054.83C1187.47 1054.57 1187.19 1054.44 1186.83 1054.44C1186.46 1054.44 1186.18 1054.57 1185.99 1054.83C1185.8 1055.09 1185.7 1055.47 1185.7 1055.96C1185.7 1056.45 1185.8 1056.83 1185.99 1057.09C1186.18 1057.35 1186.46 1057.48 1186.83 1057.48ZM1185.7 1054.11C1185.94 1053.81 1186.19 1053.59 1186.47 1053.44C1186.76 1053.3 1187.08 1053.23 1187.45 1053.23C1188.11 1053.23 1188.64 1053.48 1189.06 1053.99C1189.48 1054.5 1189.69 1055.16 1189.69 1055.96C1189.69 1056.76 1189.48 1057.41 1189.06 1057.92C1188.64 1058.43 1188.11 1058.69 1187.45 1058.69C1187.08 1058.69 1186.76 1058.61 1186.47 1058.47C1186.19 1058.33 1185.94 1058.1 1185.7 1057.8V1058.55H1184.01V1051.33H1185.7V1054.11Z" fill="white" fill-opacity="0.1"/>
<path d="M1190.24 1053.35H1191.93L1193.36 1056.88L1194.57 1053.35H1196.26L1194.03 1059.05C1193.81 1059.62 1193.55 1060.03 1193.25 1060.26C1192.95 1060.49 1192.56 1060.61 1192.07 1060.61H1191.09V1059.51H1191.62C1191.91 1059.51 1192.12 1059.47 1192.25 1059.38C1192.38 1059.29 1192.48 1059.13 1192.55 1058.9L1192.6 1058.76L1190.24 1053.35Z" fill="white" fill-opacity="0.1"/>
<path d="M1204.97 1057.29H1202.13L1201.68 1058.55H1199.85L1202.46 1051.62H1204.63L1207.24 1058.55H1205.42L1204.97 1057.29ZM1202.58 1056.01H1204.51L1203.55 1053.25L1202.58 1056.01Z" fill="white" fill-opacity="0.1"/>
<path d="M1213.43 1055.39V1058.55H1211.72V1056.13C1211.72 1055.68 1211.71 1055.37 1211.69 1055.2C1211.67 1055.03 1211.63 1054.9 1211.58 1054.82C1211.52 1054.72 1211.43 1054.63 1211.31 1054.57C1211.2 1054.51 1211.07 1054.48 1210.93 1054.48C1210.58 1054.48 1210.3 1054.62 1210.1 1054.89C1209.9 1055.15 1209.8 1055.52 1209.8 1056V1058.55H1208.11V1053.35H1209.8V1054.11C1210.05 1053.81 1210.32 1053.59 1210.61 1053.44C1210.89 1053.3 1211.21 1053.23 1211.56 1053.23C1212.17 1053.23 1212.63 1053.41 1212.95 1053.78C1213.27 1054.15 1213.43 1054.68 1213.43 1055.39Z" fill="white" fill-opacity="0.1"/>
<path d="M1216.84 1051.88V1053.35H1218.59V1054.54H1216.84V1056.75C1216.84 1056.99 1216.89 1057.15 1216.99 1057.24C1217.09 1057.32 1217.28 1057.36 1217.57 1057.36H1218.44V1058.55H1216.99C1216.32 1058.55 1215.84 1058.42 1215.56 1058.14C1215.28 1057.87 1215.15 1057.4 1215.15 1056.75V1054.54H1214.31V1053.35H1215.15V1051.88H1216.84Z" fill="white" fill-opacity="0.1"/>
<path d="M1224.94 1055.39V1058.55H1223.24V1056.14C1223.24 1055.68 1223.23 1055.37 1223.21 1055.2C1223.18 1055.03 1223.15 1054.9 1223.1 1054.82C1223.03 1054.72 1222.94 1054.63 1222.83 1054.57C1222.72 1054.51 1222.59 1054.48 1222.44 1054.48C1222.09 1054.48 1221.81 1054.62 1221.61 1054.89C1221.41 1055.15 1221.31 1055.52 1221.31 1056V1058.55H1219.62V1051.33H1221.31V1054.11C1221.57 1053.81 1221.84 1053.59 1222.12 1053.44C1222.41 1053.3 1222.73 1053.23 1223.07 1053.23C1223.68 1053.23 1224.15 1053.41 1224.46 1053.78C1224.78 1054.15 1224.94 1054.68 1224.94 1055.39Z" fill="white" fill-opacity="0.1"/>
<path d="M1229.03 1054.41C1228.65 1054.41 1228.37 1054.55 1228.17 1054.81C1227.97 1055.08 1227.87 1055.46 1227.87 1055.96C1227.87 1056.46 1227.97 1056.84 1228.17 1057.1C1228.37 1057.37 1228.65 1057.5 1229.03 1057.5C1229.39 1057.5 1229.67 1057.37 1229.87 1057.1C1230.07 1056.84 1230.17 1056.46 1230.17 1055.96C1230.17 1055.46 1230.07 1055.08 1229.87 1054.81C1229.67 1054.55 1229.39 1054.41 1229.03 1054.41ZM1229.03 1053.22C1229.94 1053.22 1230.65 1053.47 1231.16 1053.95C1231.67 1054.43 1231.93 1055.1 1231.93 1055.96C1231.93 1056.81 1231.67 1057.48 1231.16 1057.96C1230.65 1058.45 1229.94 1058.69 1229.03 1058.69C1228.11 1058.69 1227.4 1058.45 1226.88 1057.96C1226.37 1057.48 1226.11 1056.81 1226.11 1055.96C1226.11 1055.1 1226.37 1054.43 1226.88 1053.95C1227.4 1053.47 1228.11 1053.22 1229.03 1053.22Z" fill="white" fill-opacity="0.1"/>
<path d="M1238.48 1055.39V1058.55H1236.78V1056.13C1236.78 1055.68 1236.77 1055.37 1236.74 1055.2C1236.72 1055.03 1236.69 1054.9 1236.64 1054.82C1236.57 1054.72 1236.48 1054.63 1236.37 1054.57C1236.25 1054.51 1236.13 1054.48 1235.98 1054.48C1235.63 1054.48 1235.35 1054.62 1235.15 1054.89C1234.95 1055.15 1234.85 1055.52 1234.85 1056V1058.55H1233.16V1053.35H1234.85V1054.11C1235.1 1053.81 1235.37 1053.59 1235.66 1053.44C1235.95 1053.3 1236.26 1053.23 1236.61 1053.23C1237.22 1053.23 1237.68 1053.41 1238 1053.78C1238.32 1054.15 1238.48 1054.68 1238.48 1055.39Z" fill="white" fill-opacity="0.1"/>
<path d="M1239.35 1053.35H1241.04L1242.47 1056.88L1243.68 1053.35H1245.37L1243.14 1059.05C1242.92 1059.62 1242.66 1060.03 1242.36 1060.26C1242.06 1060.49 1241.67 1060.61 1241.18 1060.61H1240.2V1059.51H1240.73C1241.02 1059.51 1241.22 1059.47 1241.35 1059.38C1241.49 1059.29 1241.59 1059.13 1241.66 1058.9L1241.71 1058.76L1239.35 1053.35Z" fill="white" fill-opacity="0.1"/>
<path d="M1249.8 1051.62H1251.61V1057.2H1254.81V1058.55H1249.8V1051.62Z" fill="white" fill-opacity="0.1"/>
<path d="M1261.17 1055.94V1056.41H1257.21C1257.26 1056.8 1257.4 1057.1 1257.65 1057.29C1257.89 1057.49 1258.23 1057.58 1258.68 1057.58C1259.03 1057.58 1259.4 1057.53 1259.77 1057.43C1260.14 1057.32 1260.53 1057.17 1260.92 1056.96V1058.24C1260.52 1058.38 1260.12 1058.5 1259.72 1058.57C1259.32 1058.65 1258.92 1058.69 1258.52 1058.69C1257.56 1058.69 1256.82 1058.45 1256.28 1057.97C1255.76 1057.49 1255.49 1056.82 1255.49 1055.96C1255.49 1055.11 1255.75 1054.44 1256.27 1053.96C1256.79 1053.47 1257.51 1053.23 1258.42 1053.23C1259.25 1053.23 1259.92 1053.47 1260.42 1053.97C1260.92 1054.46 1261.17 1055.12 1261.17 1055.94ZM1259.43 1055.39C1259.43 1055.07 1259.34 1054.82 1259.15 1054.63C1258.96 1054.43 1258.72 1054.33 1258.42 1054.33C1258.09 1054.33 1257.82 1054.42 1257.62 1054.61C1257.41 1054.79 1257.28 1055.05 1257.24 1055.39H1259.43Z" fill="white" fill-opacity="0.1"/>
<path d="M1266.05 1054.11V1051.33H1267.75V1058.55H1266.05V1057.8C1265.82 1058.11 1265.57 1058.33 1265.28 1058.47C1265 1058.61 1264.68 1058.69 1264.31 1058.69C1263.66 1058.69 1263.12 1058.43 1262.7 1057.92C1262.29 1057.41 1262.08 1056.76 1262.08 1055.96C1262.08 1055.16 1262.29 1054.5 1262.7 1053.99C1263.12 1053.48 1263.66 1053.23 1264.31 1053.23C1264.67 1053.23 1265 1053.3 1265.28 1053.44C1265.56 1053.59 1265.82 1053.81 1266.05 1054.11ZM1264.94 1057.48C1265.3 1057.48 1265.57 1057.35 1265.77 1057.09C1265.96 1056.83 1266.05 1056.45 1266.05 1055.96C1266.05 1055.46 1265.96 1055.09 1265.77 1054.83C1265.57 1054.57 1265.3 1054.44 1264.94 1054.44C1264.58 1054.44 1264.3 1054.57 1264.11 1054.83C1263.92 1055.09 1263.83 1055.46 1263.83 1055.96C1263.83 1056.45 1263.92 1056.83 1264.11 1057.09C1264.3 1057.35 1264.58 1057.48 1264.94 1057.48Z" fill="white" fill-opacity="0.1"/>
<path d="M1271.9 1054.41C1271.52 1054.41 1271.24 1054.55 1271.04 1054.81C1270.84 1055.08 1270.74 1055.46 1270.74 1055.96C1270.74 1056.46 1270.84 1056.84 1271.04 1057.1C1271.24 1057.37 1271.52 1057.5 1271.9 1057.5C1272.26 1057.5 1272.55 1057.37 1272.74 1057.1C1272.94 1056.84 1273.04 1056.46 1273.04 1055.96C1273.04 1055.46 1272.94 1055.08 1272.74 1054.81C1272.55 1054.55 1272.26 1054.41 1271.9 1054.41ZM1271.9 1053.22C1272.81 1053.22 1273.52 1053.47 1274.03 1053.95C1274.54 1054.43 1274.8 1055.1 1274.8 1055.96C1274.8 1056.81 1274.54 1057.48 1274.03 1057.96C1273.52 1058.45 1272.81 1058.69 1271.9 1058.69C1270.98 1058.69 1270.27 1058.45 1269.75 1057.96C1269.24 1057.48 1268.98 1056.81 1268.98 1055.96C1268.98 1055.1 1269.24 1054.43 1269.75 1053.95C1270.27 1053.47 1270.98 1053.22 1271.9 1053.22Z" fill="white" fill-opacity="0.1"/>
<path d="M1275.97 1056.53V1053.35H1277.67V1053.87C1277.67 1054.16 1277.67 1054.51 1277.67 1054.93C1277.66 1055.36 1277.66 1055.64 1277.66 1055.78C1277.66 1056.21 1277.67 1056.51 1277.69 1056.69C1277.72 1056.88 1277.76 1057.01 1277.81 1057.09C1277.88 1057.2 1277.97 1057.28 1278.08 1057.34C1278.19 1057.4 1278.32 1057.43 1278.47 1057.43C1278.82 1057.43 1279.1 1057.3 1279.3 1057.03C1279.5 1056.76 1279.6 1056.4 1279.6 1055.92V1053.35H1281.29V1058.55H1279.6V1057.8C1279.34 1058.1 1279.07 1058.33 1278.79 1058.47C1278.51 1058.61 1278.19 1058.69 1277.85 1058.69C1277.24 1058.69 1276.77 1058.5 1276.45 1058.13C1276.13 1057.77 1275.97 1057.23 1275.97 1056.53Z" fill="white" fill-opacity="0.1"/>
<path d="M1284.25 1055.89L1282.35 1053.35H1284.13L1285.22 1054.89L1286.31 1053.35H1288.1L1286.2 1055.88L1288.2 1058.55H1286.41L1285.22 1056.91L1284.04 1058.55H1282.25L1284.25 1055.89Z" fill="white" fill-opacity="0.1"/>
<path d="M1141.04 1060.84V1061.93H1140.1C1139.86 1061.93 1139.7 1061.97 1139.6 1062.06C1139.51 1062.14 1139.46 1062.29 1139.46 1062.5V1062.86H1140.91V1064.05H1139.46V1068.06H1137.77V1064.05H1136.93V1062.86H1137.77V1062.5C1137.77 1061.94 1137.93 1061.52 1138.25 1061.24C1138.57 1060.97 1139.07 1060.84 1139.75 1060.84L1141.04 1060.84Z" fill="white" fill-opacity="0.1"/>
<path d="M1145.7 1064.28C1145.55 1064.21 1145.4 1064.16 1145.25 1064.13C1145.11 1064.1 1144.96 1064.08 1144.82 1064.08C1144.38 1064.08 1144.04 1064.22 1143.81 1064.49C1143.58 1064.77 1143.46 1065.16 1143.46 1065.66V1068.06H1141.77V1062.86H1143.46V1063.72C1143.68 1063.38 1143.92 1063.13 1144.2 1062.97C1144.49 1062.81 1144.83 1062.74 1145.22 1062.74C1145.28 1062.74 1145.34 1062.74 1145.4 1062.75C1145.47 1062.75 1145.57 1062.76 1145.7 1062.77L1145.7 1064.28Z" fill="white" fill-opacity="0.1"/>
<path d="M1149.06 1063.92C1148.68 1063.92 1148.4 1064.06 1148.2 1064.32C1148 1064.59 1147.9 1064.97 1147.9 1065.47C1147.9 1065.97 1148 1066.35 1148.2 1066.61C1148.4 1066.88 1148.68 1067.01 1149.06 1067.01C1149.43 1067.01 1149.71 1066.88 1149.9 1066.61C1150.1 1066.35 1150.2 1065.97 1150.2 1065.47C1150.2 1064.97 1150.1 1064.59 1149.9 1064.32C1149.71 1064.06 1149.43 1063.92 1149.06 1063.92ZM1149.06 1062.74C1149.97 1062.74 1150.68 1062.98 1151.19 1063.46C1151.7 1063.94 1151.96 1064.61 1151.96 1065.47C1151.96 1066.32 1151.7 1066.99 1151.19 1067.47C1150.68 1067.96 1149.97 1068.2 1149.06 1068.2C1148.14 1068.2 1147.43 1067.96 1146.92 1067.47C1146.4 1066.99 1146.14 1066.32 1146.14 1065.47C1146.14 1064.61 1146.4 1063.94 1146.92 1063.46C1147.43 1062.98 1148.14 1062.74 1149.06 1062.74Z" fill="white" fill-opacity="0.1"/>
<path d="M1158.09 1063.73C1158.31 1063.41 1158.56 1063.16 1158.85 1062.99C1159.15 1062.82 1159.47 1062.74 1159.83 1062.74C1160.43 1062.74 1160.9 1062.92 1161.21 1063.29C1161.53 1063.66 1161.7 1064.19 1161.7 1064.9V1068.06H1159.99V1065.35V1065.23C1160 1065.18 1160 1065.12 1160 1065.04C1160 1064.67 1159.94 1064.41 1159.83 1064.24C1159.72 1064.08 1159.55 1063.99 1159.3 1063.99C1158.98 1063.99 1158.73 1064.12 1158.56 1064.39C1158.38 1064.64 1158.29 1065.02 1158.29 1065.51V1068.06H1156.59V1065.35C1156.59 1064.78 1156.54 1064.41 1156.44 1064.24C1156.33 1064.08 1156.15 1063.99 1155.9 1063.99C1155.57 1063.99 1155.32 1064.12 1155.14 1064.39C1154.97 1064.64 1154.88 1065.02 1154.88 1065.51V1068.06H1153.18V1062.86H1154.88V1063.62C1155.09 1063.33 1155.33 1063.11 1155.59 1062.96C1155.86 1062.81 1156.16 1062.74 1156.48 1062.74C1156.85 1062.74 1157.18 1062.82 1157.46 1063C1157.74 1063.17 1157.95 1063.41 1158.09 1063.73Z" fill="white" fill-opacity="0.1"/>
<path d="M1168.49 1061.39V1062.86H1170.23V1064.05H1168.49V1066.26C1168.49 1066.5 1168.54 1066.66 1168.64 1066.75C1168.73 1066.83 1168.92 1066.87 1169.21 1066.87H1170.08V1068.06H1168.64C1167.97 1068.06 1167.49 1067.93 1167.21 1067.66C1166.93 1067.38 1166.79 1066.91 1166.79 1066.26V1064.05H1165.96V1062.86H1166.79V1061.39H1168.49Z" fill="white" fill-opacity="0.1"/>
<path d="M1176.59 1064.9V1068.06H1174.89V1065.65C1174.89 1065.19 1174.87 1064.88 1174.85 1064.71C1174.83 1064.54 1174.8 1064.42 1174.75 1064.33C1174.68 1064.23 1174.59 1064.14 1174.48 1064.08C1174.36 1064.02 1174.23 1063.99 1174.09 1063.99C1173.74 1063.99 1173.46 1064.13 1173.26 1064.4C1173.06 1064.66 1172.96 1065.03 1172.96 1065.51V1068.06H1171.27V1060.84H1172.96V1063.62C1173.21 1063.32 1173.48 1063.1 1173.77 1062.95C1174.06 1062.81 1174.37 1062.74 1174.72 1062.74C1175.33 1062.74 1175.79 1062.92 1176.11 1063.29C1176.43 1063.66 1176.59 1064.19 1176.59 1064.9Z" fill="white" fill-opacity="0.1"/>
<path d="M1183.44 1065.45V1065.92H1179.48C1179.52 1066.31 1179.67 1066.61 1179.91 1066.8C1180.16 1067 1180.5 1067.09 1180.94 1067.09C1181.3 1067.09 1181.66 1067.04 1182.03 1066.94C1182.41 1066.83 1182.79 1066.68 1183.18 1066.47V1067.75C1182.78 1067.89 1182.39 1068.01 1181.99 1068.08C1181.59 1068.16 1181.19 1068.2 1180.79 1068.2C1179.83 1068.2 1179.08 1067.96 1178.55 1067.48C1178.02 1067 1177.76 1066.33 1177.76 1065.47C1177.76 1064.62 1178.02 1063.95 1178.54 1063.47C1179.06 1062.98 1179.78 1062.74 1180.69 1062.74C1181.52 1062.74 1182.19 1062.98 1182.69 1063.48C1183.19 1063.97 1183.44 1064.63 1183.44 1065.45ZM1181.7 1064.9C1181.7 1064.58 1181.61 1064.33 1181.42 1064.14C1181.23 1063.94 1180.99 1063.84 1180.68 1063.84C1180.36 1063.84 1180.09 1063.93 1179.89 1064.12C1179.68 1064.3 1179.55 1064.56 1179.5 1064.9H1181.7Z" fill="white" fill-opacity="0.1"/>
<path d="M1188.17 1061.13H1190.2L1192.76 1065.89V1061.13H1194.48V1068.06H1192.45L1189.89 1063.31V1068.06H1188.17V1061.13Z" fill="white" fill-opacity="0.1"/>
<path d="M1198.7 1063.92C1198.33 1063.92 1198.04 1064.06 1197.85 1064.32C1197.65 1064.59 1197.55 1064.97 1197.55 1065.47C1197.55 1065.97 1197.65 1066.35 1197.85 1066.61C1198.04 1066.88 1198.33 1067.01 1198.7 1067.01C1199.07 1067.01 1199.35 1066.88 1199.55 1066.61C1199.74 1066.35 1199.84 1065.97 1199.84 1065.47C1199.84 1064.97 1199.74 1064.59 1199.55 1064.32C1199.35 1064.06 1199.07 1063.92 1198.7 1063.92ZM1198.7 1062.74C1199.61 1062.74 1200.33 1062.98 1200.84 1063.46C1201.35 1063.94 1201.6 1064.61 1201.6 1065.47C1201.6 1066.32 1201.35 1066.99 1200.84 1067.47C1200.33 1067.96 1199.61 1068.2 1198.7 1068.2C1197.79 1068.2 1197.08 1067.96 1196.56 1067.47C1196.05 1066.99 1195.79 1066.32 1195.79 1065.47C1195.79 1064.61 1196.05 1063.94 1196.56 1063.46C1197.08 1062.98 1197.79 1062.74 1198.7 1062.74Z" fill="white" fill-opacity="0.1"/>
<path d="M1202.78 1066.04V1062.86H1204.48V1063.38C1204.48 1063.67 1204.48 1064.02 1204.47 1064.44C1204.47 1064.87 1204.47 1065.15 1204.47 1065.29C1204.47 1065.72 1204.48 1066.02 1204.5 1066.2C1204.53 1066.39 1204.56 1066.52 1204.61 1066.6C1204.69 1066.71 1204.78 1066.79 1204.89 1066.85C1205 1066.91 1205.13 1066.94 1205.27 1066.94C1205.63 1066.94 1205.9 1066.81 1206.11 1066.54C1206.31 1066.28 1206.41 1065.91 1206.41 1065.43V1062.86H1208.1V1068.06H1206.41V1067.31C1206.15 1067.61 1205.88 1067.84 1205.6 1067.98C1205.31 1068.12 1205 1068.2 1204.65 1068.2C1204.04 1068.2 1203.58 1068.01 1203.26 1067.64C1202.94 1067.28 1202.78 1066.74 1202.78 1066.04Z" fill="white" fill-opacity="0.1"/>
<path d="M1215.05 1064.9V1068.06H1213.35V1065.64C1213.35 1065.19 1213.33 1064.88 1213.31 1064.71C1213.29 1064.54 1213.25 1064.41 1213.2 1064.33C1213.14 1064.23 1213.05 1064.14 1212.93 1064.08C1212.82 1064.02 1212.69 1063.99 1212.55 1063.99C1212.2 1063.99 1211.92 1064.13 1211.72 1064.4C1211.52 1064.66 1211.42 1065.03 1211.42 1065.51V1068.06H1209.73V1062.86H1211.42V1063.62C1211.67 1063.32 1211.94 1063.1 1212.23 1062.95C1212.51 1062.81 1212.83 1062.74 1213.18 1062.74C1213.79 1062.74 1214.25 1062.92 1214.57 1063.29C1214.89 1063.66 1215.05 1064.19 1215.05 1064.9Z" fill="white" fill-opacity="0.1"/>
<path d="M1220.06 1061.13H1223.08C1223.97 1061.13 1224.66 1061.33 1225.14 1061.72C1225.62 1062.11 1225.86 1062.67 1225.86 1063.39C1225.86 1064.12 1225.62 1064.68 1225.14 1065.07C1224.66 1065.46 1223.97 1065.66 1223.08 1065.66H1221.87V1068.06H1220.06V1061.13ZM1221.87 1062.43V1064.36H1222.88C1223.24 1064.36 1223.51 1064.28 1223.7 1064.11C1223.89 1063.94 1223.99 1063.7 1223.99 1063.39C1223.99 1063.08 1223.89 1062.84 1223.7 1062.68C1223.51 1062.51 1223.24 1062.43 1222.88 1062.43L1221.87 1062.43Z" fill="white" fill-opacity="0.1"/>
<path d="M1231.01 1064.28C1230.86 1064.21 1230.71 1064.16 1230.56 1064.13C1230.42 1064.1 1230.27 1064.08 1230.12 1064.08C1229.69 1064.08 1229.35 1064.22 1229.12 1064.49C1228.88 1064.77 1228.77 1065.16 1228.77 1065.66V1068.06H1227.08V1062.86H1228.77V1063.72C1228.98 1063.38 1229.23 1063.13 1229.51 1062.97C1229.8 1062.81 1230.13 1062.74 1230.53 1062.74C1230.58 1062.74 1230.65 1062.74 1230.71 1062.75C1230.78 1062.75 1230.88 1062.76 1231 1062.77L1231.01 1064.28Z" fill="white" fill-opacity="0.1"/>
<path d="M1234.36 1063.92C1233.99 1063.92 1233.7 1064.06 1233.51 1064.32C1233.31 1064.59 1233.21 1064.97 1233.21 1065.47C1233.21 1065.97 1233.31 1066.35 1233.51 1066.61C1233.7 1066.88 1233.99 1067.01 1234.36 1067.01C1234.73 1067.01 1235.01 1066.88 1235.21 1066.61C1235.4 1066.35 1235.5 1065.97 1235.5 1065.47C1235.5 1064.97 1235.4 1064.59 1235.21 1064.32C1235.01 1064.06 1234.73 1063.92 1234.36 1063.92ZM1234.36 1062.74C1235.27 1062.74 1235.99 1062.98 1236.5 1063.46C1237.01 1063.94 1237.26 1064.61 1237.26 1065.47C1237.26 1066.32 1237.01 1066.99 1236.5 1067.47C1235.99 1067.96 1235.27 1068.2 1234.36 1068.2C1233.45 1068.2 1232.74 1067.96 1232.22 1067.47C1231.71 1066.99 1231.45 1066.32 1231.45 1065.47C1231.45 1064.61 1231.71 1063.94 1232.22 1063.46C1232.74 1062.98 1233.45 1062.74 1234.36 1062.74Z" fill="white" fill-opacity="0.1"/>
<path d="M1238.5 1062.86H1240.19V1067.97C1240.19 1068.66 1240.02 1069.2 1239.68 1069.57C1239.34 1069.93 1238.84 1070.12 1238.2 1070.12H1237.36V1069.02H1237.66C1237.98 1069.02 1238.2 1068.95 1238.31 1068.81C1238.44 1068.67 1238.5 1068.39 1238.5 1067.97L1238.5 1062.86ZM1238.5 1060.84H1240.19V1062.19H1238.5V1060.84Z" fill="white" fill-opacity="0.1"/>
<path d="M1247.1 1065.45V1065.92H1243.14C1243.18 1066.31 1243.32 1066.61 1243.57 1066.8C1243.81 1067 1244.16 1067.09 1244.6 1067.09C1244.96 1067.09 1245.32 1067.04 1245.69 1066.94C1246.07 1066.83 1246.45 1066.68 1246.84 1066.47V1067.75C1246.44 1067.89 1246.04 1068.01 1245.64 1068.08C1245.24 1068.16 1244.84 1068.2 1244.44 1068.2C1243.49 1068.2 1242.74 1067.96 1242.21 1067.48C1241.68 1067 1241.42 1066.33 1241.42 1065.47C1241.42 1064.62 1241.68 1063.95 1242.2 1063.47C1242.72 1062.98 1243.44 1062.74 1244.35 1062.74C1245.18 1062.74 1245.84 1062.98 1246.35 1063.48C1246.84 1063.97 1247.1 1064.63 1247.1 1065.45ZM1245.36 1064.9C1245.36 1064.58 1245.26 1064.33 1245.08 1064.14C1244.89 1063.94 1244.64 1063.84 1244.34 1063.84C1244.01 1063.84 1243.75 1063.93 1243.54 1064.12C1243.34 1064.3 1243.21 1064.56 1243.16 1064.9H1245.36Z" fill="white" fill-opacity="0.1"/>
<path d="M1252.65 1063.03V1064.38C1252.42 1064.23 1252.19 1064.11 1251.96 1064.04C1251.73 1063.96 1251.49 1063.92 1251.24 1063.92C1250.77 1063.92 1250.4 1064.06 1250.13 1064.33C1249.87 1064.6 1249.74 1064.98 1249.74 1065.47C1249.74 1065.95 1249.87 1066.33 1250.13 1066.6C1250.4 1066.87 1250.77 1067.01 1251.24 1067.01C1251.5 1067.01 1251.75 1066.97 1251.99 1066.9C1252.23 1066.82 1252.45 1066.7 1252.65 1066.55V1067.91C1252.39 1068.01 1252.12 1068.08 1251.85 1068.12C1251.58 1068.17 1251.3 1068.2 1251.03 1068.2C1250.07 1068.2 1249.32 1067.96 1248.78 1067.47C1248.25 1066.99 1247.98 1066.33 1247.98 1065.47C1247.98 1064.61 1248.25 1063.94 1248.78 1063.46C1249.32 1062.98 1250.07 1062.74 1251.03 1062.74C1251.3 1062.74 1251.58 1062.76 1251.85 1062.81C1252.12 1062.86 1252.38 1062.93 1252.65 1063.03Z" fill="white" fill-opacity="0.1"/>
<path d="M1255.96 1061.39V1062.86H1257.71V1064.05H1255.96V1066.26C1255.96 1066.5 1256.01 1066.66 1256.11 1066.75C1256.2 1066.83 1256.4 1066.87 1256.68 1066.87H1257.55V1068.06H1256.11C1255.44 1068.06 1254.96 1067.93 1254.68 1067.65C1254.4 1067.38 1254.27 1066.91 1254.27 1066.26V1064.05H1253.43V1062.86H1254.27V1061.39H1255.96Z" fill="white" fill-opacity="0.1"/>
</mask>
<g mask="url(#mask1_193_1765)">
<rect x="-92.0146" y="463.395" width="1698.47" height="1102.82" fill="#FFA3B3"/>
</g>
<path d="M-129.974 980.06C-129.669 974.984 -126.681 970.387 -121.575 966.926C-123.526 961.296 -123.154 955.97 -120.409 951.797C-116.802 946.268 -109.92 943.593 -101.057 944.257C-94.9598 944.717 -88.2986 946.818 -81.8639 950.136C-85.721 931.884 -80.439 916.365 -68.7763 913.376C-63.7409 912.101 -58.3295 913.453 -53.3653 917.109C-48.472 913.571 -43.1606 912.26 -38.2173 913.518C-26.8885 916.384 -21.5354 931.089 -24.7158 948.649C-14.5822 943.039 -3.93873 940.71 4.25142 942.469C9.09875 943.503 12.8931 945.926 15.2251 949.48C18.0332 953.759 18.3926 959.186 16.3617 964.902C21.3344 968.346 24.2429 972.877 24.5438 977.84C25.2542 989.232 12.5677 998.811 -5.60663 1001.28C-4.67058 1002.11 -3.71368 1002.93 -2.84866 1003.81C22.4995 1003.95 42.6583 1003.87 56.9835 1003.55C67.0503 1003.4 76.4523 1005.95 84.8852 1009.72L51.839 974.347C50.1298 972.523 49.7538 969.865 50.8862 967.658L58.851 952.097L35.024 942.001C31.9151 940.686 30.49 937.164 31.8439 934.139C33.1978 931.118 36.7958 929.722 39.9132 931.045L64.3339 941.394L75.7836 919.026L70.9905 907.35C69.0474 912.13 65.8506 915.656 61.5841 917.26C59.7872 917.956 57.8942 918.302 55.9344 918.302C53.5107 918.302 50.9909 917.769 48.471 916.702C41.1582 913.62 34.272 906.32 29.4281 896.745C26.2021 903.479 21.9522 909.329 17.1086 913.372C12.2988 917.382 7.28428 919.446 2.55013 919.446C0.627862 919.446 -1.24841 919.108 -3.04947 918.42C-7.90109 916.58 -11.4697 912.387 -13.2875 906.573C-13.3878 906.577 -13.4839 906.577 -13.58 906.577C-19.5515 906.577 -24.5238 904.586 -27.7042 900.804C-31.9749 895.756 -32.4596 888.566 -29.0748 880.553C-26.8098 875.208 -22.8859 869.842 -17.8925 865.029C-36.8391 862.928 -50.2241 853.161 -49.5255 841.476C-49.2205 836.403 -46.2326 831.807 -41.1261 828.342C-43.0776 822.715 -42.7057 817.39 -39.9603 813.213C-36.354 807.688 -29.5425 804.997 -20.5996 805.673C-14.5028 806.133 -7.83726 808.234 -1.41009 811.556C-5.27548 793.304 0.00231948 777.781 11.67 774.796C16.7137 773.517 22.1211 774.877 27.0811 778.529C31.9744 774.991 37.294 773.696 42.2333 774.938C53.5578 777.804 58.911 792.514 55.7263 810.069C65.8599 804.459 76.4991 802.142 84.6935 803.889C89.5408 804.923 93.3352 807.345 95.6672 810.9C98.4711 815.183 98.8305 820.606 96.8038 826.322C101.777 829.766 104.685 834.297 104.986 839.26C105.692 850.635 93.0472 860.207 74.92 862.69C83.4906 870.344 89.0195 879.455 89.8336 887.586C90.3183 892.39 89.119 896.653 86.3735 899.905C85.2704 901.208 83.9247 902.242 82.4664 903.109L88.1956 917.07C88.8433 918.65 88.7722 920.429 87.9866 921.956L74.1845 948.911C74.2973 949.909 74.243 950.927 73.8042 951.912C73.261 953.129 72.3333 954.053 71.2385 954.672L63.7376 969.325L117.013 1026.36L125.208 996.652L94.9408 963.988C93.3278 962.253 92.9099 959.762 93.8627 957.616L107.294 927.322C108.635 924.289 112.258 922.909 115.355 924.208C117.452 925.091 118.693 927.001 118.927 929.069C119.792 924.782 122.509 920.894 126.946 917.881C124.995 912.251 125.359 906.925 128.108 902.748C128.664 901.901 129.429 901.25 130.131 900.537C119.654 887.167 108.012 872.018 108.012 872.018C107.034 870.744 106.616 869.14 106.855 867.56C107.093 865.985 107.975 864.568 109.291 863.623L129.015 849.5L103.499 803.829C101.878 800.93 102.977 797.303 105.948 795.723C108.936 794.147 112.655 795.218 114.268 798.117L142.345 848.373C143.812 850.999 143.064 854.276 140.59 856.043L121.543 869.682C126.144 875.651 134.255 886.13 141.476 895.319C143.352 895.103 145.341 895.046 147.46 895.209C151.864 895.539 156.569 896.781 161.27 898.649L165.52 893.096C164.547 878.481 169.82 866.869 179.732 864.332C179.895 864.292 180.062 864.308 180.225 864.271L181.487 856.1C176.23 855.742 171.93 853.902 169.084 850.482C161.721 841.765 166.118 826.97 179.022 814.631C171.241 813.764 164.012 811.606 158.429 808.284C150.836 803.765 146.87 797.682 147.262 791.156C147.567 786.079 150.555 781.482 155.658 778.018C153.706 772.388 154.078 767.066 156.823 762.889C160.434 757.36 167.291 754.669 176.184 755.349C182.281 755.809 188.946 757.91 195.377 761.232C191.511 742.98 196.789 727.457 208.453 724.472C213.488 723.189 218.899 724.549 223.864 728.205C228.757 724.667 234.068 723.36 239.016 724.618C250.34 727.481 255.698 742.19 252.513 759.754C262.643 754.143 273.277 751.815 281.476 753.569C286.323 754.603 290.122 757.026 292.454 760.58C295.258 764.859 295.617 770.286 293.591 776.002C298.559 779.446 301.472 783.978 301.773 788.941C302.479 800.328 289.797 809.912 271.627 812.379C277.406 817.537 281.965 823.424 284.481 829.307C287.899 837.311 287.439 844.505 283.169 849.586C279.868 853.482 274.711 855.469 268.455 855.375C266.637 861.038 263.127 865.134 258.376 866.946C256.583 867.634 254.694 867.98 252.747 867.98C250.307 867.98 247.774 867.439 245.242 866.368C237.942 863.278 231.068 855.986 226.249 846.452C222.338 854.651 217.11 861.096 211.435 864.96C221.924 868.542 226.842 882.69 223.779 899.606C233.904 893.996 244.535 891.667 252.742 893.426C257.589 894.46 261.388 896.882 263.72 900.437C266.528 904.716 266.883 910.143 264.857 915.863C269.825 919.307 272.738 923.834 273.039 928.797C273.749 940.189 261.067 949.772 242.897 952.235C248.676 957.393 253.235 963.281 255.747 969.163C259.165 977.167 258.706 984.361 254.439 989.434C251.079 993.407 245.931 995.443 239.721 995.252C237.903 1000.9 234.393 1004.99 229.646 1006.81C227.853 1007.49 225.965 1007.83 224.017 1007.83C221.577 1007.83 219.045 1007.29 216.508 1006.22C209.195 1003.12 202.309 995.809 197.491 986.246C194.265 992.988 190.011 998.851 185.16 1002.9C180.354 1006.91 175.339 1008.97 170.601 1008.97C168.679 1008.97 166.802 1008.63 165.006 1007.95C160.526 1006.25 157.204 1002.47 155.282 997.336L149.477 1006.24L167.734 1026.95C168.478 1027.79 168.887 1028.84 169.063 1029.93C189.831 1020 212.945 1009.17 216.22 1008.5C217.085 1008.33 219.388 1007.88 260.808 1011.76V979.353C260.808 976.051 263.554 973.377 266.943 973.377C270.332 973.377 273.077 976.047 273.077 979.353V1012.92C281.184 1013.71 290.436 1014.61 301.062 1015.68L309.809 1005.56C307.828 1004.63 306.039 1003.43 304.685 1001.81C300.415 996.762 299.926 989.572 303.315 981.559C305.576 976.214 309.495 970.848 314.493 966.035C295.542 963.935 282.157 954.167 282.86 942.491C283.161 937.414 286.153 932.818 291.259 929.349C289.308 923.719 289.68 918.397 292.429 914.216C296.044 908.691 302.931 906.012 311.79 906.684C317.883 907.144 324.548 909.245 330.983 912.567C327.121 894.311 332.399 878.792 344.063 875.807C349.098 874.525 354.514 875.88 359.474 879.54C364.371 875.994 369.674 874.687 374.622 875.95C385.946 878.812 391.304 893.517 388.119 911.085C398.248 905.474 408.875 903.15 417.082 904.9C421.929 905.934 425.728 908.357 428.06 911.911C430.868 916.194 431.223 921.621 429.197 927.337C434.169 930.782 437.078 935.313 437.374 940.276C438.085 951.668 425.403 961.247 407.228 963.714C413.008 968.872 417.567 974.759 420.083 980.646C423.501 988.646 423.041 995.84 418.77 1000.93C415.469 1004.82 410.325 1006.62 404.061 1006.71C402.243 1012.38 398.729 1016.47 393.982 1018.28C392.189 1018.98 390.3 1019.32 388.349 1019.32C385.913 1019.32 383.385 1018.78 380.848 1017.71C373.535 1014.61 366.645 1007.3 361.826 997.738C358.6 1004.48 354.346 1010.34 349.495 1014.39C344.69 1018.4 339.671 1020.46 334.928 1020.46C333.01 1020.46 331.134 1020.12 329.333 1019.44C325.655 1018.04 322.722 1015.28 320.72 1011.49L308.347 1025.8C307.039 1027.32 305.054 1028.08 303.028 1027.9C273.497 1024.93 225.441 1020.34 218.591 1020.29C214.078 1021.95 190.584 1032.94 169.745 1042.93L178.404 1240.58C178.475 1242.21 177.86 1243.8 176.707 1244.97C175.55 1246.15 173.949 1246.81 172.278 1246.81L112.914 1246.82C111.243 1246.82 109.642 1246.16 108.489 1244.98C107.331 1243.8 106.717 1242.22 106.788 1240.59L115.217 1048.2C114.556 1047.79 113.946 1047.28 113.47 1046.63C113.244 1046.31 87.866 1014.76 57.2407 1015.51C44.5286 1015.79 27.3 1015.89 5.99234 1015.81C6.40604 1016.61 6.90332 1017.41 7.24601 1018.21C10.6642 1026.22 10.2046 1033.41 5.93384 1038.48C2.58664 1042.45 -2.46556 1044.45 -8.78832 1044.3C-10.6019 1049.95 -14.1121 1054.03 -18.8551 1055.85C-20.6812 1056.55 -22.5826 1056.9 -24.5257 1056.9C-29.2561 1056.9 -34.2582 1054.85 -39.0553 1050.87C-43.6896 1047.03 -47.789 1041.55 -50.9779 1035.23C-54.208 1042 -58.4705 1047.89 -63.3391 1051.95C-68.1489 1055.96 -73.1634 1058.02 -77.8975 1058.02C-79.8198 1058.02 -81.6961 1057.69 -83.4972 1057C-88.3488 1055.15 -91.9132 1050.96 -93.7393 1045.16C-99.9155 1045.27 -104.922 1043.23 -108.152 1039.38C-112.423 1034.33 -112.908 1027.14 -109.523 1019.13C-107.258 1013.79 -103.334 1008.42 -98.3406 1003.6C-117.292 1001.51 -130.676 991.744 -129.974 980.056L-129.974 980.06ZM23.2704 848.529C23.2704 851.355 25.6314 853.655 28.5273 853.655C31.4274 853.655 33.7843 851.355 33.7843 848.529C33.7843 845.704 31.4233 843.403 28.5273 843.403C25.6314 843.403 23.2704 845.7 23.2704 848.529ZM-18.2291 893.228C-17.0006 894.685 -13.7328 895.06 -9.68352 894.193C-7.98281 893.818 -6.17337 894.189 -4.76085 895.198C-3.34009 896.208 -2.42908 897.759 -2.27033 899.461C-1.86498 903.589 -0.46092 906.594 1.407 907.302C3.16624 907.946 6.10808 906.818 9.12943 904.306C13.2748 900.849 17.1193 895.194 19.6851 888.79C23.9725 878.094 23.5003 867.46 20.4205 863.577C19.3591 863.031 18.3729 862.392 17.4536 861.655C12.8152 860.458 3.8772 862.653 -5.90156 870.518C-11.3465 874.883 -15.659 880.204 -17.7354 885.118C-19.2481 888.693 -19.441 891.795 -18.2291 893.228ZM-21.5471 817.604C-25.5379 817.29 -28.5967 818.084 -29.6206 819.66C-30.6444 821.219 -29.9758 824.444 -27.9072 827.876C-27.013 829.354 -26.8166 831.137 -27.3682 832.761C-27.9198 834.394 -29.1609 835.713 -30.7781 836.389C-34.6727 838.017 -37.1633 840.24 -37.2844 842.186C-37.5184 846.103 -28.1747 852.58 -13.5655 853.414C-0.803141 854.135 8.78733 849.876 11.2275 846.387C11.403 845.04 11.708 843.733 12.1886 842.503C11.6077 837.837 6.64336 830.428 -3.61508 824.061C-9.56984 820.364 -16.1106 818.011 -21.5471 817.604ZM39.1494 786.52C38.9279 786.463 38.6939 786.434 38.4474 786.434C36.5961 786.434 34.0638 787.977 31.6318 790.64C30.4659 791.91 28.7986 792.639 27.0519 792.639H27.0352C25.2801 792.635 23.6086 791.898 22.4552 790.616C19.6471 787.509 16.6927 785.873 14.7705 786.373C10.8633 787.371 7.42832 798.03 11.1391 811.819C13.7634 821.594 19.6513 829.236 24.4824 831.955C25.7904 831.65 27.1359 831.446 28.5358 831.446C29.3716 831.446 30.1739 831.576 30.9805 831.686C35.155 829.085 40.1153 822.379 42.8688 811.952C46.5336 798.159 43.0566 787.509 39.1494 786.52ZM92.747 839.988C92.6342 838.099 90.2021 835.917 86.4036 834.288C84.7989 833.6 83.5704 832.273 83.0313 830.644C82.4923 829.016 82.7012 827.241 83.5955 825.767C85.7517 822.229 86.4161 819.001 85.3338 817.348C84.6569 816.314 83.1818 815.817 82.0702 815.577C81.201 815.389 80.1604 815.284 78.9737 815.284C74.2475 815.284 67.2148 816.957 59.4002 821.842C50.4158 827.469 44.9957 835.196 43.8596 840.411C44.8751 842.227 45.5562 844.222 45.8363 846.355C48.9871 849.38 57.0816 852.01 69.0534 851.298C83.6665 850.434 92.9898 843.925 92.747 839.988ZM64.5404 869.7C61.4481 867.274 58.1259 865.259 54.8498 863.846C48.3518 860.931 42.94 860.512 40.0196 861.322C39.1838 862.034 38.2854 862.665 37.3201 863.219C34.654 866.985 33.9812 875.901 38.7158 887.72C42.9865 898.277 49.2631 904.029 53.3417 905.748C54.3906 906.187 55.8866 906.611 57.1109 906.147C58.9328 905.463 60.3077 902.548 60.7005 898.55C60.8635 896.844 61.7745 895.289 63.1994 894.283C64.2525 893.534 65.5187 893.139 66.8057 893.139C67.2487 893.139 67.7 893.184 68.1346 893.281C70.2616 893.745 72.0501 893.872 73.8052 893.648C75.7442 893.456 76.513 892.801 76.9058 892.333C77.704 891.388 77.7374 889.878 77.6288 888.774C77.1983 884.451 73.4951 876.862 64.5404 869.7ZM355.667 949.55C355.667 952.375 358.028 954.672 360.928 954.672C363.829 954.672 366.19 952.371 366.19 949.55C366.19 946.724 363.829 944.424 360.928 944.424C358.028 944.424 355.667 946.72 355.667 949.55ZM310.849 918.624C306.88 918.319 303.8 919.113 302.776 920.676C301.752 922.236 302.421 925.46 304.493 928.896C305.383 930.374 305.576 932.157 305.028 933.782C304.477 935.414 303.236 936.733 301.618 937.409C297.724 939.038 295.233 941.257 295.12 943.211C294.882 947.127 304.226 953.605 318.835 954.439C331.618 955.2 341.171 950.913 343.619 947.42C343.795 946.064 344.1 944.757 344.585 943.52C344 938.858 339.035 931.453 328.781 925.084C322.826 921.384 316.29 919.031 310.849 918.624ZM371.546 887.54C371.324 887.483 371.09 887.459 370.844 887.459C368.997 887.459 366.469 888.998 364.032 891.661C362.867 892.935 361.203 893.664 359.453 893.664H359.436C357.681 893.66 356.009 892.923 354.852 891.64C352.035 888.534 349.06 886.926 347.163 887.398C343.26 888.395 339.82 899.054 343.527 912.843C346.16 922.622 352.052 930.269 356.878 932.984C358.182 932.682 359.527 932.479 360.927 932.479C361.767 932.479 362.569 932.609 363.376 932.719C367.551 930.122 372.507 923.412 375.26 912.985C378.929 899.18 375.453 888.525 371.546 887.54ZM425.143 941.009C425.026 939.12 422.599 936.937 418.8 935.309C417.191 934.621 415.963 933.294 415.428 931.665C414.893 930.037 415.093 928.261 415.992 926.788C418.148 923.246 418.813 920.017 417.73 918.368C417.049 917.334 415.578 916.829 414.462 916.593C413.589 916.406 412.553 916.3 411.366 916.3C406.64 916.3 399.607 917.973 391.788 922.863C382.808 928.485 377.388 936.209 376.248 941.424C377.267 943.24 377.944 945.239 378.228 947.376C381.375 950.401 389.452 953.048 401.446 952.315C416.059 951.452 425.386 944.946 425.143 941.009ZM371.141 988.736C375.4 999.281 381.672 1005.03 385.75 1006.76C386.799 1007.21 388.312 1007.66 389.503 1007.18C391.308 1006.5 392.679 1003.58 393.08 999.57C393.251 997.872 394.162 996.321 395.583 995.315C396.636 994.57 397.902 994.18 399.181 994.18C399.624 994.18 400.071 994.224 400.51 994.318C404.668 995.222 408.044 994.843 409.306 993.353C410.497 991.936 410.292 988.83 408.767 985.259C406.669 980.354 402.34 975.041 396.887 970.692C387.982 963.588 377.644 960.933 372.475 962.293C371.635 963.018 370.728 963.657 369.755 964.215C366.98 968.078 366.553 977.402 371.141 988.736ZM330.131 1000.48C330.536 1004.61 331.944 1007.61 333.804 1008.32C335.559 1009 338.513 1007.83 341.526 1005.32C345.672 1001.86 349.52 996.211 352.082 989.807C356.369 979.112 355.889 968.478 352.818 964.594C351.756 964.049 350.77 963.409 349.851 962.672C345.204 961.484 336.277 963.67 326.5 971.536C321.059 975.9 316.746 981.221 314.666 986.135C313.153 989.714 312.957 992.816 314.173 994.253C315.393 995.711 318.669 996.085 322.706 995.218C324.419 994.844 326.212 995.218 327.629 996.224C329.058 997.23 329.964 998.78 330.131 1000.48ZM196.602 943.195C199.502 943.195 201.863 940.895 201.863 938.07C201.863 935.244 199.502 932.944 196.602 932.944C193.702 932.944 191.341 935.244 191.341 938.07C191.341 940.895 193.702 943.195 196.602 943.195ZM144.948 960.29C146.524 958.291 148.325 956.365 150.268 954.505C147.042 954.143 143.887 953.621 140.933 952.807L144.948 960.29ZM146.528 907.144C142.571 906.826 139.474 907.624 138.446 909.2C137.423 910.755 138.099 913.98 140.164 917.416C141.058 918.894 141.254 920.677 140.703 922.301C140.151 923.934 138.91 925.253 137.293 925.929C133.398 927.557 130.908 929.776 130.787 931.73C130.678 933.558 132.717 935.944 136.106 937.964C140.766 940.736 147.473 942.556 154.505 942.955C159.9 943.273 164.701 942.666 168.68 941.62C168.726 941.612 168.759 941.579 168.809 941.571C168.822 941.567 168.834 941.575 168.847 941.571C174.183 940.142 177.894 937.923 179.294 935.928C179.469 934.576 179.774 933.274 180.255 932.04C179.674 927.374 174.71 919.964 164.454 913.602C158.5 909.909 151.965 907.551 146.528 907.144ZM220.07 798.209C220.07 801.034 222.431 803.334 225.327 803.334C228.227 803.334 230.589 801.034 230.589 798.209C230.589 795.383 228.228 793.083 225.327 793.083C222.432 793.083 220.07 795.379 220.07 798.209ZM175.252 767.283C171.274 766.97 168.203 767.764 167.175 769.339C166.151 770.899 166.824 774.123 168.892 777.559C169.787 779.037 169.979 780.82 169.431 782.445C168.88 784.077 167.639 785.396 166.022 786.072C162.127 787.701 159.636 789.924 159.515 791.874C159.407 793.702 161.446 796.087 164.835 798.107C169.494 800.879 176.201 802.699 183.234 803.098C186.798 803.306 190.095 803.106 193.083 802.659C193.313 802.589 193.543 802.569 193.781 802.528C201.127 801.299 206.313 798.514 208.022 796.075C208.197 794.724 208.502 793.421 208.983 792.183C208.402 787.521 203.438 780.116 193.179 773.741C187.229 770.048 180.693 767.69 175.252 767.283ZM235.945 736.199C235.723 736.142 235.485 736.118 235.243 736.118C233.391 736.118 230.868 737.657 228.431 740.319C227.265 741.598 225.786 742.493 223.839 742.322C222.084 742.318 220.412 741.581 219.255 740.299C216.438 737.193 213.446 735.568 211.566 736.057C207.663 737.054 204.223 747.713 207.934 761.502C210.567 771.277 216.455 778.923 221.282 781.638C222.59 781.333 223.931 781.133 225.331 781.133C226.171 781.133 226.973 781.264 227.78 781.374C231.954 778.776 236.915 772.067 239.664 761.64C243.333 747.838 239.856 737.188 235.945 736.199ZM289.546 789.676C289.429 787.783 287.001 785.596 283.202 783.972C281.597 783.284 280.369 781.961 279.83 780.332C279.295 778.704 279.496 776.929 280.394 775.455C282.55 771.909 283.215 768.68 282.132 767.031C281.451 765.997 279.98 765.492 278.865 765.256C277.991 765.069 276.955 764.963 275.772 764.963C271.042 764.963 264.013 766.637 256.19 771.526C247.214 777.148 241.794 784.868 240.65 790.083C241.669 791.899 242.346 793.898 242.63 796.035C245.773 799.064 253.834 801.703 265.848 800.974C280.461 800.115 289.788 793.609 289.546 789.676ZM235.544 837.395C239.798 847.935 246.074 853.697 250.152 855.423C251.205 855.866 252.71 856.29 253.905 855.842C255.71 855.15 257.081 852.231 257.486 848.229C257.657 846.527 258.568 844.98 259.989 843.974C261.042 843.229 262.308 842.838 263.587 842.838C264.03 842.838 264.473 842.883 264.912 842.981C269.074 843.877 272.45 843.498 273.708 842.012C274.903 840.595 274.699 837.493 273.173 833.918C271.076 829.012 266.742 823.699 261.289 819.351C252.384 812.246 242.058 809.588 236.881 810.952C236.042 811.677 235.135 812.316 234.161 812.874C231.378 816.733 230.951 826.061 235.544 837.395ZM216.509 838.498C221.156 826.882 219.923 816.733 217.195 813.245C216.116 812.687 215.113 812.035 214.186 811.282C210.922 810.509 205.139 811.246 197.663 815.529C195.44 816.799 193.179 818.358 190.927 820.178C179.631 829.265 176.009 839.874 178.596 842.941C179.778 844.366 183.105 844.72 187.095 843.861C188.909 843.466 190.81 843.897 192.269 845.029C193.318 845.848 193.944 847.008 194.27 848.254C194.279 848.274 194.283 848.294 194.287 848.311C194.354 848.571 194.5 848.803 194.529 849.072C194.617 849.438 194.667 849.809 194.684 850.179C195.177 853.803 196.473 856.327 198.203 856.97C201.951 858.375 211.19 851.763 216.509 838.498ZM207.22 876.051C206.998 875.994 206.764 875.97 206.518 875.97C204.666 875.97 202.138 877.513 199.702 880.176C198.536 881.446 196.873 882.175 195.122 882.175H195.105C193.35 882.171 191.683 881.434 190.521 880.151C187.713 877.049 184.742 875.412 182.841 875.909C178.938 876.906 175.499 887.565 179.205 901.354C181.838 911.129 187.726 918.775 192.553 921.49C193.861 921.185 195.202 920.986 196.602 920.986C197.438 920.986 198.24 921.116 199.047 921.226C203.221 918.628 208.181 911.919 210.935 901.492C214.604 887.695 211.127 877.04 207.22 876.051ZM260.817 929.531C260.7 927.638 258.268 925.452 254.47 923.827C252.865 923.139 251.637 921.812 251.102 920.183C250.567 918.555 250.767 916.78 251.666 915.306C253.818 911.768 254.486 908.535 253.404 906.887C252.723 905.852 251.252 905.348 250.132 905.112C249.259 904.924 248.222 904.818 247.04 904.818C242.309 904.818 235.281 906.492 227.462 911.377C218.486 917 213.066 924.723 211.922 929.939C212.941 931.754 213.618 933.753 213.902 935.891C217.045 938.916 225.118 941.546 237.12 940.833C251.737 939.97 261.06 933.46 260.817 929.531ZM221.42 995.282C222.477 995.722 223.986 996.161 225.168 995.701C226.978 995.005 228.348 992.09 228.754 988.088C228.925 986.39 229.836 984.839 231.253 983.834C232.31 983.089 233.572 982.698 234.855 982.698C235.293 982.698 235.741 982.743 236.179 982.836C240.346 983.74 243.722 983.349 244.98 981.867C246.171 980.45 245.966 977.352 244.441 973.778C242.343 968.872 238.01 963.559 232.561 959.21C223.652 952.106 213.318 949.46 208.153 950.811C207.313 951.536 206.406 952.175 205.433 952.737C202.654 956.601 202.223 965.923 206.816 977.254C211.074 987.794 217.342 993.548 221.42 995.282ZM163.31 984.738C164.731 985.747 165.638 987.294 165.805 988.996C166.21 993.128 167.618 996.129 169.482 996.833C171.245 997.505 174.191 996.353 177.204 993.841C181.35 990.384 185.199 984.734 187.76 978.329C192.043 967.634 191.567 957 188.496 953.112C187.434 952.567 186.448 951.927 185.529 951.19C180.882 950.006 171.955 952.192 162.178 960.054C156.737 964.418 152.424 969.739 150.344 974.653C148.831 978.232 148.639 981.334 149.851 982.763C151.071 984.221 154.347 984.579 158.388 983.732C160.106 983.358 161.893 983.736 163.31 984.738ZM165.897 1234.88L165.337 1222.08H144.573C141.184 1222.08 138.438 1219.41 138.438 1216.11C138.438 1212.81 141.179 1210.13 144.573 1210.13L164.815 1210.14L162.353 1153.94H148.464C145.074 1153.94 142.329 1151.26 142.329 1147.96C142.329 1144.66 145.079 1141.98 148.464 1141.98H161.831L159.278 1083.7H144.582C141.193 1083.7 138.447 1081.03 138.447 1077.72C138.447 1074.42 141.188 1071.74 144.582 1071.74H158.756L157.068 1033.19L137.235 1010.68C135.476 1008.69 135.263 1005.81 136.713 1003.59L143.55 993.104C142.371 992.322 141.289 991.43 140.378 990.352C136.63 985.922 135.802 979.839 137.942 973.003L125.84 950.456C124.963 948.824 124.955 946.931 125.698 945.29C121.081 941.455 118.607 936.871 118.582 931.997C118.574 932.022 118.578 932.046 118.565 932.071L106.702 958.84L136.567 991.072C137.963 992.578 138.477 994.667 137.938 996.629L128.235 1031.78L124.979 1106.09H138.945C142.334 1106.09 145.08 1108.76 145.08 1112.06C145.08 1115.36 142.339 1118.04 138.945 1118.04H124.457L122.055 1172.92H138.945C142.334 1172.92 145.08 1175.59 145.08 1178.9C145.08 1182.2 142.338 1184.87 138.945 1184.87H121.533L119.343 1234.88L165.897 1234.88ZM-57.1715 987.104C-57.1715 989.929 -54.8105 992.225 -51.9062 992.225C-49.0062 992.225 -46.6493 989.925 -46.6493 987.104C-46.6493 984.274 -49.0102 981.974 -51.9062 981.974C-54.8104 981.974 -57.1715 984.274 -57.1715 987.104ZM-41.2876 925.094C-41.509 925.037 -41.7431 925.009 -41.9896 925.009C-43.8408 925.009 -46.3732 926.552 -48.8136 929.214C-49.9752 930.485 -51.6426 931.213 -53.3893 931.213H-53.406C-55.161 931.209 -56.8326 930.472 -57.9902 929.19C-60.7983 926.084 -63.7402 924.447 -65.675 924.948C-69.5737 925.945 -73.0171 936.608 -69.3146 950.393C-66.682 960.168 -60.7941 967.81 -55.9639 970.529C-54.6559 970.224 -53.3104 970.02 -51.9105 970.02C-51.0706 970.02 -50.2682 970.151 -49.4617 970.261C-45.2871 967.659 -40.3268 960.95 -37.5776 950.527C-33.9044 936.734 -37.3804 926.083 -41.2876 925.094ZM12.31 978.567C12.1971 976.677 9.76512 974.495 5.96658 972.867C4.36193 972.179 3.13339 970.851 2.59433 969.223C2.05528 967.594 2.26422 965.819 3.15847 964.346C5.3147 960.808 5.97913 957.579 4.89684 955.926C4.21988 954.892 2.74478 954.395 1.63318 954.155C0.763993 953.968 -0.276572 953.862 -1.46327 953.862C-6.18951 953.862 -13.2221 955.535 -21.0368 960.421C-30.0211 966.047 -35.4413 973.774 -36.5774 978.985C-35.5619 980.801 -34.885 982.792 -34.6007 984.929C-31.4499 987.954 -23.3553 990.576 -11.3793 989.876C3.2295 989.005 12.5525 982.499 12.3108 978.566L12.31 978.567ZM-41.6919 1026.29C-39.1094 1032.69 -35.2483 1038.33 -31.0946 1041.78C-28.0692 1044.28 -25.0855 1045.41 -23.3388 1044.74C-21.5294 1044.04 -20.1587 1041.13 -19.7492 1037.13C-19.5737 1035.42 -18.6669 1033.88 -17.2461 1032.87C-16.1931 1032.13 -14.9269 1031.74 -13.6482 1031.74C-13.2052 1031.74 -12.7623 1031.78 -12.3235 1031.88C-8.16146 1032.78 -4.7891 1032.4 -3.52292 1030.91C-2.33194 1029.49 -2.53672 1026.38 -4.06198 1022.81C-6.15969 1017.91 -10.4889 1012.6 -15.9461 1008.25C-24.8552 1001.14 -35.2233 998.482 -40.3624 999.85C-41.1982 1000.57 -42.0967 1001.21 -43.0661 1001.76C-45.8534 1005.62 -46.2879 1014.95 -41.6912 1026.29L-41.6919 1026.29ZM-98.6657 1031.8C-97.4372 1033.26 -94.1694 1033.62 -90.1242 1032.77C-88.3984 1032.4 -86.6224 1032.78 -85.2016 1033.78C-83.7808 1034.79 -82.8782 1036.33 -82.7111 1038.04C-82.3057 1042.16 -80.8975 1045.17 -79.0254 1045.87C-77.2662 1046.55 -74.3243 1045.39 -71.3029 1042.88C-67.1576 1039.42 -63.3131 1033.77 -60.7473 1027.37C-56.3429 1016.38 -57.1829 1006.72 -59.5815 1002.75L-65.904 999.924C-70.8894 1000.03 -78.3273 1002.66 -86.3302 1009.09C-91.7751 1013.46 -96.0877 1018.78 -98.164 1023.69C-99.6851 1027.27 -99.8776 1030.37 -98.6657 1031.8ZM-94.0022 991.994C-81.2527 992.682 -71.675 988.456 -69.2178 984.967C-69.0423 983.611 -68.7372 982.3 -68.2525 981.063C-68.8417 976.401 -73.806 968.995 -84.0561 962.636C-90.0151 958.939 -96.5511 956.586 -101.988 956.179C-105.97 955.873 -109.037 956.663 -110.061 958.235C-111.085 959.794 -110.416 963.018 -108.348 966.45C-107.453 967.928 -107.257 969.712 -107.809 971.34C-108.36 972.969 -109.601 974.288 -111.223 974.963C-115.109 976.592 -117.599 978.815 -117.721 980.765C-117.95 984.682 -108.607 991.16 -94.0022 991.994Z" fill="#FFA3B3"/>
<path d="M255.656 1072.71C256.12 1071.8 256.813 1071.02 257.662 1070.45C258.226 1070.06 258.857 1069.77 259.534 1069.59C266.763 1067.65 277.014 1070.76 285.011 1077.35C296.441 1086.75 300.385 1099.23 294.171 1106.41C291.806 1109.13 288.342 1110.63 284.251 1110.81C282.692 1114.4 280.11 1117 276.762 1118.23C275.375 1118.74 273.946 1118.98 272.504 1118.98C264.573 1118.98 256.186 1111.62 251.731 1100.08C248.016 1090.52 248.037 1081.28 251.777 1075.39C252.684 1073.97 254.101 1073.05 255.656 1072.71ZM263.211 1095.88C266.366 1104.04 271.581 1107.36 272.388 1107.08C272.567 1106.95 273.29 1106.02 273.566 1103.71C273.767 1102.01 274.703 1100.48 276.14 1099.5C277.181 1098.79 278.409 1098.43 279.655 1098.43C280.131 1098.43 280.612 1098.48 281.084 1098.59C283.516 1099.15 284.669 1098.79 284.778 1098.74C285.279 1097.73 283.925 1092.1 277.097 1086.48C271.485 1081.85 265.463 1080.51 262.977 1081.08C262.818 1081.12 262.655 1081.16 262.497 1081.2C262.409 1081.37 262.317 1081.53 262.217 1081.69C260.867 1083.81 260.599 1089.15 263.211 1095.88Z" fill="#FFA3B3"/>
<path d="M29.8809 1064.7C31.6778 1064.49 33.32 1065 34.5778 1066.01C36.2785 1065.59 38.1047 1065.88 39.6342 1066.93C45.9651 1071.31 50.0978 1081.36 49.914 1091.94C49.6508 1106.91 42.1039 1118.11 32.3003 1118.11H32.0955C28.3095 1118.04 24.7869 1116.29 21.9619 1113.15C17.967 1114.34 14.0974 1114.06 10.892 1112.23C2.33798 1107.38 1.75294 1093.89 9.52556 1080.85C14.9873 1071.68 22.5979 1065.64 29.8809 1064.7ZM17.0522 1101.9C17.2695 1101.96 18.59 1101.98 20.855 1100.57C22.3301 1099.64 24.1436 1099.38 25.8277 1099.85C27.5159 1100.31 28.9199 1101.46 29.6847 1103C30.9592 1105.57 32.1544 1106.17 32.3006 1106.17C33.6128 1106.03 37.4865 1100.86 37.6453 1091.73C37.7832 1083.97 34.6742 1078.16 32.5305 1076.68C32.4093 1076.6 32.2965 1076.51 32.1879 1076.42C31.9622 1076.48 31.7282 1076.52 31.4858 1076.55C28.7612 1076.9 24.0476 1080.27 20.1281 1086.85C15.3685 1094.84 15.9866 1101.16 17.0522 1101.9Z" fill="#FFA3B3"/>
<path d="M221.413 1159.3C223.126 1159.03 224.752 1159.47 226.03 1160.39C227.464 1160.03 228.956 1160.19 230.239 1160.78C230.498 1160.91 230.748 1161.04 230.987 1161.2C237.238 1165.25 241.53 1174.83 241.663 1185.04C241.851 1199.61 234.748 1210.7 225.111 1210.82H224.99C221.383 1210.82 217.994 1209.26 215.207 1206.4C211.404 1207.6 207.694 1207.4 204.543 1205.75C196.093 1201.27 195.099 1188.24 202.224 1175.43C207.217 1166.43 214.392 1160.41 221.413 1159.3ZM210.339 1195.22C210.552 1195.27 211.759 1195.18 213.711 1193.88C215.157 1192.91 216.962 1192.6 218.671 1193.02C220.376 1193.43 221.814 1194.54 222.62 1196.06C223.765 1198.21 224.814 1198.83 224.918 1198.88C226.034 1198.58 229.511 1193.9 229.398 1185.19C229.306 1177.98 226.347 1172.67 224.308 1171.23C224.183 1171.14 224.058 1171.06 223.936 1170.97C223.752 1171.02 223.564 1171.06 223.372 1171.09C220.84 1171.49 216.523 1174.8 213.013 1181.11C208.742 1188.8 209.591 1194.51 210.339 1195.22Z" fill="#FFA3B3"/>
<path d="M42.4931 1160.28C44.0309 1159.44 45.786 1159.31 47.3404 1159.79C48.5565 1158.93 50.0399 1158.53 51.5192 1158.67C51.8117 1158.7 52.1 1158.75 52.3884 1158.81C59.9353 1160.57 67.6155 1168.39 71.4934 1178.28C77.0261 1192.37 74.2305 1205.59 64.9661 1209.05C61.4183 1210.35 57.4986 1210 53.6832 1208.12C50.9419 1210.26 47.8955 1211.41 44.82 1211.41C44.2349 1211.41 43.6457 1211.37 43.0607 1211.28C33.2657 1209.89 27.5619 1197.59 29.7806 1182.67C31.3309 1172.16 36.0826 1163.79 42.4931 1160.28ZM44.8082 1199.46C45.0297 1199.45 46.2625 1198.98 47.8253 1196.84C48.8449 1195.44 50.4245 1194.54 52.1754 1194.36C52.3927 1194.34 52.6141 1194.33 52.8273 1194.33C54.3484 1194.33 55.8276 1194.88 56.9601 1195.89C59.1415 1197.82 60.4536 1197.95 60.5956 1197.88C61.7614 1197.29 63.3871 1191.08 60.0398 1182.55C57.2359 1175.41 52.259 1171.18 49.6639 1170.47C49.48 1170.43 49.2878 1170.39 49.0998 1170.33C48.9076 1170.46 48.7112 1170.58 48.5022 1170.7C46.1119 1172.01 43.028 1176.84 41.9122 1184.38C40.5583 1193.5 43.5378 1199.15 44.8082 1199.46Z" fill="#FFA3B3"/>
</g>
<defs>
<clipPath id="clip0_193_1765">
<rect width="1662" height="1449" fill="white"/>
</clipPath>
</defs>
</svg>
