<svg width="300" height="229" viewBox="0 0 300 229" fill="none" xmlns="http://www.w3.org/2000/svg">
<path fill-rule="evenodd" clip-rule="evenodd" d="M137.53 73.8509L144.696 4.63212C144.779 3.78629 145.067 3.00041 145.511 2.33896L145.657 2.12232L145.707 2.05088C145.903 1.79275 146.131 1.54385 146.378 1.31798L146.532 1.19352L146.666 1.08059L146.862 0.935398L146.954 0.873171C147.067 0.801728 147.182 0.727981 147.295 0.665754L147.429 0.594308L147.636 0.490597L147.874 0.386886L148.081 0.303922L148.236 0.253219C148.897 0.0365768 149.618 -0.0463882 150.351 0.0250549L242.379 9.54589C245.219 9.83397 247.275 12.3761 246.984 15.2154L246.901 16.0313H294.262C297.111 16.0313 299.425 18.3452 299.425 21.1938V44.3212C299.425 45.9322 298.68 47.4395 297.401 48.4212L238.899 93.3255L237.463 107.234C237.36 108.246 236.956 109.207 236.306 109.991L225.516 123.042V182.844C225.516 183.289 225.454 183.732 225.341 184.156L225.269 184.414L225.239 184.497C225.032 185.117 224.702 185.705 224.258 186.221L224.103 186.396L224.02 186.479L223.928 186.562L223.836 186.654L223.711 186.767L176.196 227.489C174.264 229.141 171.416 229.141 169.484 227.489L125.324 189.637L81.1756 227.489C79.2443 229.141 76.3842 229.141 74.455 227.489L27.8267 187.521L26.9394 186.767C25.8031 185.786 25.1417 184.352 25.1417 182.845V114.782L0.423645 57.9537C-0.495941 55.8172 0.114807 53.3282 1.93091 51.8714C3.73776 50.4056 6.30981 50.3434 8.18784 51.7054L57.1484 87.119L73.4607 74.8836C74.348 74.2129 75.4428 73.8511 76.5582 73.8511L137.53 73.8509ZM120.164 92.466L38.5551 183.12L77.8203 216.768L120.162 180.465V92.466H120.164ZM130.489 84.1759H136.467L133.391 113.911L133.381 114.044L133.372 114.231L133.363 114.439L133.372 114.625L133.381 114.833L133.402 115.008L133.423 115.215L133.453 115.39L133.494 115.586L133.536 115.761L133.587 115.948L133.67 116.197L133.762 116.425L133.969 116.882L134.094 117.098L134.227 117.306L134.372 117.513L134.518 117.709L134.684 117.896L134.85 118.071L135.036 118.246L135.223 118.412L135.357 118.525L135.511 118.638L135.656 118.741L135.831 118.845L135.977 118.937L136.152 119.029L136.306 119.112L136.502 119.195L136.656 119.258L136.852 119.329L137.018 119.38L137.226 119.442L137.412 119.483L137.608 119.525L137.742 119.546L137.866 119.566C137.917 119.576 137.959 119.576 138 119.587L157.288 121.581L212.951 182.392L172.849 216.773L130.496 180.47V84.1818L130.489 84.1759ZM113.732 84.1759L35.4683 171.124V116.289L78.2757 84.1777L113.732 84.1759ZM215.194 127.562V169.553L172.737 123.174L215.194 127.562ZM220.048 113.457L216.826 117.35L144.191 109.834L153.545 19.3755L220.05 113.457L220.048 113.457ZM32.4337 105.663L48.4994 93.6136L17.4205 71.1269L32.4331 105.665L32.4337 105.663ZM160.611 11.469L226.868 105.22L227.364 104.621L236.191 19.2832L160.612 11.4681L160.611 11.469ZM245.837 26.3571L240.375 79.1898L289.11 41.7826V26.3571H245.837Z" fill="#B1DFF2"/>
</svg>
