<svg width="41" height="41" viewBox="0 0 41 41" fill="none" xmlns="http://www.w3.org/2000/svg">
<g clip-path="url(#clip0_36_2575)">
<path d="M6.83333 0C5.02102 0 3.28294 0.719938 2.00144 2.00144C0.719938 3.28294 0 5.02102 0 6.83333L0 12.3C0 28.1506 12.8494 41 28.7 41H34.1667C35.979 41 37.7171 40.2801 38.9986 38.9986C40.2801 37.7171 41 35.979 41 34.1667V30.3892C41 29.6274 40.7877 28.8806 40.387 28.2327C39.9863 27.5848 39.4129 27.0613 38.7313 26.7211L32.1303 23.4192C31.6048 23.1565 31.0289 23.0098 30.4417 22.989C29.8545 22.9683 29.2697 23.074 28.727 23.2989C28.1842 23.5239 27.6961 23.863 27.2958 24.293C26.8955 24.7231 26.5923 25.2342 26.4067 25.7917L25.5922 28.2326C25.4423 28.6805 25.1342 29.0584 24.7256 29.2954C24.317 29.5324 23.836 29.6123 23.3727 29.52C20.4383 28.933 17.7431 27.4908 15.6268 25.375C13.5105 23.2591 12.0676 20.5643 11.48 17.63C11.3877 17.1667 11.4676 16.6857 11.7046 16.2772C11.9416 15.8686 12.3195 15.5604 12.7674 15.4105L15.7987 14.3992C16.7783 14.0721 17.5983 13.3873 18.0949 12.4818C18.5916 11.5762 18.7281 10.5166 18.4773 9.51473L16.8756 3.1078C16.6544 2.22088 16.1431 1.43332 15.4231 0.870244C14.703 0.307164 13.8154 0.000862009 12.9013 0L6.83333 0Z" fill="#FF5E78"/>
</g>
<defs>
<clipPath id="clip0_36_2575">
<rect width="41" height="41" fill="white"/>
</clipPath>
</defs>
</svg>
