<svg width="420" height="109" viewBox="0 0 420 109" fill="none" xmlns="http://www.w3.org/2000/svg">
<path fill-rule="evenodd" clip-rule="evenodd" d="M2.6701 45.9414C5.2419 52.1615 12.9488 58.3756 23.1297 61.6762C37.3095 66.2733 46.8085 61.176 53.5272 55.4327C52.1566 47.8336 46.7549 37.1388 32.5751 32.5417C22.6166 29.3132 12.9394 29.7307 7.15676 33.0523C14.4113 36.8309 18.7914 40.917 17.8956 43.6801C16.989 46.4766 10.9113 47.1997 2.6701 45.9414Z" fill="#FF5E78"/>
<path fill-rule="evenodd" clip-rule="evenodd" d="M49.2031 1.87392C44.0792 6.23861 40.5448 15.4863 40.5448 26.1889C40.5448 41.0953 48.3232 48.5593 55.8585 53.1793C62.6646 49.5319 71.1722 41.0953 71.1722 26.1889C71.1722 15.7204 67.7907 6.64389 62.8478 2.16733C61.4907 10.2339 58.9546 15.6609 56.0498 15.6609C53.1099 15.6609 50.5476 10.102 49.2031 1.87392Z" fill="#FF5E78"/>
<path fill-rule="evenodd" clip-rule="evenodd" d="M104.25 33.3995C98.6967 29.5964 88.8464 28.6052 78.5168 31.406C64.1299 35.3069 58.9615 44.7675 56.4744 53.2492C61.7758 58.8636 72.1448 64.8669 86.5317 60.966C96.6354 58.2265 104.511 52.5876 107.538 46.6455C99.397 47.4468 93.4953 46.4192 92.7352 43.6156C91.9658 40.7782 96.6606 36.8504 104.25 33.3995Z" fill="#FF5E78"/>
<path fill-rule="evenodd" clip-rule="evenodd" d="M29.2751 102.52C36.0045 102.383 44.5936 97.4604 51.3671 89.1741C60.8012 77.6329 59.5027 66.9311 56.5925 58.5851C49.0146 57.1016 37.0882 58.2492 27.6541 69.7903C21.0286 77.8957 17.9022 87.0633 18.8962 93.6576C25.0522 88.271 30.4505 85.6743 32.6995 87.5127C34.9756 89.3732 33.4414 95.2987 29.2751 102.52Z" fill="#FF5E78"/>
<path fill-rule="evenodd" clip-rule="evenodd" d="M92.7637 95.3257C94.2975 88.772 91.6544 79.2314 85.3032 70.6172C76.4573 58.6193 65.7672 57.2275 56.9606 57.9807C53.6469 64.9553 51.8059 76.7945 60.6518 88.7924C66.8643 97.2185 74.9725 102.517 81.6075 103.187C77.9129 95.8892 76.7336 90.016 79.0716 88.2922C81.4378 86.5476 86.7988 89.5012 92.7637 95.3257Z" fill="#FF5E78"/>
<circle cx="55.8397" cy="55.8404" r="7.18737" fill="white"/>
<ellipse cx="55.8396" cy="42.5713" rx="2.76437" ry="7.18737" fill="white"/>
<ellipse cx="55.8396" cy="69.1092" rx="2.76437" ry="7.18737" fill="white"/>
<ellipse cx="64.4942" cy="65.7176" rx="2.17208" ry="7.24028" transform="rotate(-39.9806 64.4942 65.7176)" fill="white"/>
<ellipse cx="68.5564" cy="56.3932" rx="2.2115" ry="6.63449" transform="rotate(-90 68.5564 56.3932)" fill="white"/>
<ellipse cx="65.4908" cy="47.3774" rx="2.17208" ry="7.24028" transform="rotate(-132.059 65.4908 47.3774)" fill="white"/>
<ellipse cx="55.9043" cy="44.3475" rx="2.17208" ry="7.24028" transform="rotate(-178.513 55.9043 44.3475)" fill="white"/>
<ellipse cx="47.3351" cy="47.3187" rx="2.17208" ry="7.24028" transform="rotate(134.104 47.3351 47.3187)" fill="white"/>
<ellipse cx="43.7507" cy="56.3062" rx="2.17208" ry="7.24028" transform="rotate(91.4872 43.7507 56.3062)" fill="white"/>
<ellipse cx="46.7481" cy="64.6503" rx="2.17208" ry="7.24028" transform="rotate(49.4277 46.7481 64.6503)" fill="white"/>
<path d="M144.478 66.248C144.478 65.6738 144.389 65.1611 144.211 64.71C144.047 64.2451 143.739 63.8281 143.288 63.459C142.851 63.0762 142.229 62.707 141.422 62.3516C140.629 61.9824 139.604 61.5996 138.346 61.2031C136.951 60.7656 135.652 60.2734 134.449 59.7266C133.246 59.1797 132.187 58.5439 131.271 57.8193C130.368 57.0947 129.664 56.2607 129.158 55.3174C128.652 54.3604 128.399 53.2529 128.399 51.9951C128.399 50.7646 128.659 49.6436 129.179 48.6318C129.712 47.6201 130.464 46.752 131.435 46.0273C132.405 45.2891 133.547 44.7217 134.859 44.3252C136.186 43.9287 137.648 43.7305 139.248 43.7305C141.463 43.7305 143.377 44.1338 144.99 44.9404C146.617 45.7471 147.875 46.8408 148.764 48.2217C149.652 49.6025 150.097 51.1543 150.097 52.877H144.478C144.478 51.9473 144.279 51.127 143.883 50.416C143.5 49.7051 142.912 49.1445 142.119 48.7344C141.34 48.3242 140.355 48.1191 139.166 48.1191C138.018 48.1191 137.061 48.29 136.295 48.6318C135.543 48.9736 134.976 49.4385 134.593 50.0264C134.224 50.6143 134.039 51.2705 134.039 51.9951C134.039 52.542 134.169 53.0342 134.429 53.4717C134.688 53.8955 135.078 54.2988 135.598 54.6816C136.117 55.0508 136.76 55.3994 137.525 55.7275C138.305 56.042 139.207 56.3564 140.232 56.6709C141.873 57.1631 143.309 57.71 144.539 58.3115C145.783 58.9131 146.815 59.5967 147.636 60.3623C148.47 61.1279 149.092 61.9893 149.502 62.9463C149.926 63.9033 150.138 64.9902 150.138 66.207C150.138 67.4922 149.885 68.6406 149.379 69.6523C148.873 70.6641 148.148 71.5254 147.205 72.2363C146.262 72.9473 145.127 73.4873 143.801 73.8564C142.488 74.2256 141.019 74.4102 139.392 74.4102C137.942 74.4102 136.507 74.2188 135.085 73.8359C133.677 73.4395 132.398 72.8516 131.25 72.0723C130.102 71.2793 129.186 70.2812 128.502 69.0781C127.818 67.8613 127.477 66.4395 127.477 64.8125H133.137C133.137 65.7559 133.287 66.5625 133.588 67.2324C133.902 67.8887 134.34 68.4287 134.9 68.8525C135.475 69.2627 136.145 69.5635 136.91 69.7549C137.676 69.9463 138.503 70.042 139.392 70.042C140.54 70.042 141.483 69.8848 142.222 69.5703C142.974 69.2422 143.534 68.791 143.903 68.2168C144.286 67.6426 144.478 66.9863 144.478 66.248ZM165.099 48.6729L156.589 74H150.621L161.777 44.1406H165.592L165.099 48.6729ZM172.216 74L163.664 48.6729L163.151 44.1406H166.986L178.204 74H172.216ZM171.826 62.9053V67.3555H155.809V62.9053H171.826ZM185.66 44.1406V74H180.02V44.1406H185.66ZM203.584 44.1406L191.607 58.7012L184.757 66.0225L183.752 60.5469L188.51 54.374L196.672 44.1406H203.584ZM197.308 74L188.018 60.0137L192.058 56.3633L204.014 74H197.308ZM221.991 44.1406H227.63V63.9717C227.63 66.2549 227.138 68.1758 226.154 69.7344C225.169 71.2793 223.829 72.4482 222.134 73.2412C220.439 74.0205 218.511 74.4102 216.351 74.4102C214.163 74.4102 212.215 74.0205 210.506 73.2412C208.797 72.4482 207.457 71.2793 206.487 69.7344C205.516 68.1758 205.031 66.2549 205.031 63.9717V44.1406H210.67V63.9717C210.67 65.3662 210.903 66.5078 211.367 67.3965C211.832 68.2715 212.489 68.9209 213.336 69.3447C214.184 69.7686 215.189 69.9805 216.351 69.9805C217.527 69.9805 218.532 69.7686 219.366 69.3447C220.213 68.9209 220.863 68.2715 221.314 67.3965C221.765 66.5078 221.991 65.3662 221.991 63.9717V44.1406ZM231.723 44.1406H242.571C244.841 44.1406 246.789 44.4824 248.416 45.166C250.043 45.8496 251.294 46.8613 252.169 48.2012C253.044 49.541 253.481 51.1885 253.481 53.1436C253.481 54.6885 253.208 56.0283 252.661 57.1631C252.114 58.2979 251.342 59.248 250.344 60.0137C249.359 60.7793 248.197 61.3809 246.857 61.8184L245.094 62.7207H235.517L235.476 58.2705H242.633C243.795 58.2705 244.759 58.0654 245.524 57.6553C246.29 57.2451 246.864 56.6777 247.247 55.9531C247.644 55.2285 247.842 54.4014 247.842 53.4717C247.842 52.4736 247.65 51.6123 247.268 50.8877C246.885 50.1494 246.304 49.582 245.524 49.1855C244.745 48.7891 243.761 48.5908 242.571 48.5908H237.362V74H231.723V44.1406ZM248.58 74L241.669 60.6289L247.637 60.6084L254.63 73.7129V74H248.58ZM269.038 48.6729L260.527 74H254.559L265.716 44.1406H269.53L269.038 48.6729ZM276.154 74L267.602 48.6729L267.09 44.1406H270.925L282.142 74H276.154ZM275.764 62.9053V67.3555H259.748V62.9053H275.764Z" fill="#FF4866"/>
<path d="M299.843 74H294.388V49.7598C294.388 48.0918 294.709 46.6904 295.352 45.5557C295.994 44.4072 296.91 43.5391 298.1 42.9512C299.289 42.3633 300.691 42.0693 302.304 42.0693C302.837 42.0693 303.343 42.1035 303.822 42.1719C304.314 42.2402 304.799 42.3359 305.278 42.459L305.175 46.5811C304.915 46.5127 304.628 46.4648 304.314 46.4375C304.013 46.4102 303.678 46.3965 303.309 46.3965C302.571 46.3965 301.942 46.5264 301.422 46.7861C300.903 47.0459 300.506 47.4287 300.233 47.9346C299.973 48.4268 299.843 49.0352 299.843 49.7598V74ZM304.334 51.8105V55.707H291.045V51.8105H304.334ZM315.892 74.4102C314.21 74.4102 312.699 74.1367 311.359 73.5898C310.02 73.043 308.878 72.2842 307.935 71.3135C307.005 70.3291 306.287 69.1875 305.781 67.8887C305.289 66.5762 305.043 65.168 305.043 63.6641V62.8438C305.043 61.1348 305.289 59.583 305.781 58.1885C306.274 56.7803 306.971 55.5703 307.873 54.5586C308.775 53.5469 309.856 52.7676 311.113 52.2207C312.371 51.6738 313.759 51.4004 315.276 51.4004C316.849 51.4004 318.236 51.667 319.44 52.2002C320.643 52.7197 321.648 53.458 322.454 54.415C323.261 55.3721 323.869 56.5205 324.279 57.8604C324.69 59.1865 324.895 60.6562 324.895 62.2695V64.5459H307.504V60.8135H319.563V60.4033C319.535 59.542 319.371 58.7559 319.07 58.0449C318.77 57.3203 318.305 56.7461 317.676 56.3223C317.047 55.8848 316.233 55.666 315.235 55.666C314.429 55.666 313.725 55.8438 313.123 56.1992C312.535 56.541 312.043 57.0332 311.647 57.6758C311.264 58.3047 310.977 59.0566 310.785 59.9316C310.594 60.8066 310.498 61.7773 310.498 62.8438V63.6641C310.498 64.5938 310.621 65.4551 310.867 66.248C311.127 67.041 311.503 67.7314 311.995 68.3193C312.501 68.8936 313.103 69.3447 313.8 69.6729C314.511 69.9873 315.317 70.1445 316.22 70.1445C317.355 70.1445 318.38 69.9258 319.296 69.4883C320.226 69.0371 321.032 68.374 321.716 67.499L324.443 70.3291C323.979 71.0127 323.35 71.6689 322.557 72.2979C321.777 72.9268 320.834 73.4395 319.727 73.8359C318.619 74.2188 317.341 74.4102 315.892 74.4102ZM339.467 67.9297C339.467 67.4648 339.344 67.0479 339.098 66.6787C338.851 66.3096 338.387 65.9746 337.703 65.6738C337.033 65.3594 336.049 65.0654 334.75 64.792C333.601 64.5459 332.542 64.2383 331.571 63.8691C330.6 63.5 329.766 63.0557 329.069 62.5361C328.372 62.0029 327.825 61.3809 327.429 60.6699C327.046 59.9453 326.854 59.1113 326.854 58.168C326.854 57.252 327.053 56.3906 327.449 55.584C327.846 54.7637 328.42 54.0459 329.172 53.4307C329.924 52.8018 330.84 52.3096 331.92 51.9541C333 51.585 334.217 51.4004 335.57 51.4004C337.457 51.4004 339.077 51.708 340.431 52.3232C341.798 52.9385 342.844 53.7861 343.568 54.8662C344.293 55.9326 344.655 57.1357 344.655 58.4756H339.241C339.241 57.8877 339.104 57.3545 338.831 56.876C338.571 56.3975 338.168 56.0146 337.621 55.7275C337.074 55.4268 336.384 55.2764 335.55 55.2764C334.798 55.2764 334.162 55.3994 333.642 55.6455C333.137 55.8916 332.754 56.2129 332.494 56.6094C332.234 57.0059 332.104 57.4434 332.104 57.9219C332.104 58.2773 332.173 58.5986 332.309 58.8857C332.46 59.1592 332.699 59.4121 333.027 59.6445C333.355 59.877 333.8 60.0889 334.36 60.2803C334.934 60.4717 335.639 60.6562 336.473 60.834C338.127 61.1621 339.569 61.5996 340.8 62.1465C342.044 62.6797 343.014 63.3906 343.712 64.2793C344.409 65.168 344.758 66.3027 344.758 67.6836C344.758 68.668 344.546 69.5703 344.122 70.3906C343.698 71.1973 343.083 71.9014 342.276 72.5029C341.47 73.1045 340.506 73.5762 339.385 73.918C338.264 74.2461 336.999 74.4102 335.591 74.4102C333.554 74.4102 331.831 74.0479 330.423 73.3232C329.014 72.585 327.948 71.6553 327.223 70.5342C326.499 69.3994 326.137 68.2236 326.137 67.0068H331.325C331.366 67.8682 331.598 68.5586 332.022 69.0781C332.446 69.5977 332.979 69.9736 333.622 70.2061C334.278 70.4248 334.969 70.5342 335.693 70.5342C336.514 70.5342 337.204 70.4248 337.764 70.2061C338.325 69.9736 338.749 69.666 339.036 69.2832C339.323 68.8867 339.467 68.4355 339.467 67.9297ZM358.12 51.8105V55.707H345.405V51.8105H358.12ZM348.809 46.3555H354.244V67.6016C354.244 68.2578 354.333 68.7637 354.51 69.1191C354.688 69.4746 354.955 69.7139 355.31 69.8369C355.666 69.96 356.089 70.0215 356.582 70.0215C356.937 70.0215 357.265 70.001 357.566 69.96C357.867 69.9189 358.12 69.8779 358.325 69.8369L358.345 73.8975C357.894 74.0479 357.381 74.1709 356.807 74.2666C356.247 74.3623 355.611 74.4102 354.9 74.4102C353.683 74.4102 352.617 74.2051 351.701 73.7949C350.785 73.3711 350.074 72.6943 349.568 71.7646C349.062 70.8213 348.809 69.5771 348.809 68.0322V46.3555ZM366.211 51.8105V74H360.777V51.8105H366.211ZM360.408 46.0068C360.408 45.2002 360.681 44.5303 361.228 43.9971C361.788 43.4639 362.54 43.1973 363.484 43.1973C364.427 43.1973 365.172 43.4639 365.719 43.9971C366.28 44.5303 366.56 45.2002 366.56 46.0068C366.56 46.7998 366.28 47.4629 365.719 47.9961C365.172 48.5293 364.427 48.7959 363.484 48.7959C362.54 48.7959 361.788 48.5293 361.228 47.9961C360.681 47.4629 360.408 46.7998 360.408 46.0068ZM377.482 69.8984L382.65 51.8105H388.31L380.701 74H377.256L377.482 69.8984ZM373.708 51.8105L378.938 69.9395L379.122 74H375.656L368.027 51.8105H373.708ZM401.795 69.2832V59.0498C401.795 58.2979 401.665 57.6484 401.405 57.1016C401.145 56.5547 400.749 56.1309 400.216 55.8301C399.682 55.5293 399.006 55.3789 398.185 55.3789C397.461 55.3789 396.825 55.502 396.278 55.748C395.745 55.9941 395.335 56.3428 395.048 56.7939C394.761 57.2314 394.617 57.7373 394.617 58.3115H389.182C389.182 57.3955 389.401 56.5273 389.839 55.707C390.276 54.873 390.898 54.1348 391.705 53.4922C392.525 52.8359 393.503 52.3232 394.638 51.9541C395.786 51.585 397.071 51.4004 398.493 51.4004C400.175 51.4004 401.672 51.6875 402.984 52.2617C404.31 52.8223 405.349 53.6699 406.101 54.8047C406.867 55.9395 407.25 57.3682 407.25 59.0908V68.7705C407.25 69.8779 407.318 70.8281 407.455 71.6211C407.605 72.4004 407.824 73.0771 408.111 73.6514V74H402.595C402.335 73.4395 402.137 72.7285 402 71.8672C401.863 70.9922 401.795 70.1309 401.795 69.2832ZM402.554 60.4854L402.595 63.7051H399.17C398.322 63.7051 397.577 63.7939 396.934 63.9717C396.292 64.1357 395.766 64.3818 395.355 64.71C394.945 65.0244 394.638 65.4072 394.432 65.8584C394.227 66.2959 394.125 66.7949 394.125 67.3555C394.125 67.9023 394.248 68.3945 394.494 68.832C394.754 69.2695 395.123 69.6182 395.601 69.8779C396.094 70.124 396.668 70.2471 397.324 70.2471C398.281 70.2471 399.115 70.0557 399.826 69.6729C400.537 69.2764 401.091 68.7979 401.487 68.2373C401.884 67.6768 402.096 67.1436 402.123 66.6377L403.682 68.9756C403.49 69.5361 403.203 70.1309 402.82 70.7598C402.437 71.3887 401.945 71.9766 401.344 72.5234C400.742 73.0703 400.017 73.5215 399.17 73.877C398.322 74.2324 397.338 74.4102 396.217 74.4102C394.781 74.4102 393.496 74.123 392.361 73.5488C391.226 72.9746 390.331 72.1885 389.675 71.1904C389.018 70.1924 388.69 69.0576 388.69 67.7861C388.69 66.6104 388.909 65.5713 389.347 64.6689C389.784 63.7666 390.433 63.0078 391.295 62.3926C392.156 61.7637 393.223 61.292 394.494 60.9775C395.779 60.6494 397.249 60.4854 398.903 60.4854H402.554ZM416.613 42.5V74H411.178V42.5H416.613Z" fill="#4B4B4B"/>
</svg>
