<svg width="651" height="600" viewBox="0 0 651 600" fill="none" xmlns="http://www.w3.org/2000/svg">
<path d="M0.0299683 293.86C0.379944 288.034 3.80798 282.759 9.66687 278.787C7.42786 272.325 7.85455 266.214 11.0045 261.424C15.1421 255.079 23.0385 252.01 33.2078 252.771C40.2028 253.299 47.8455 255.71 55.2282 259.518C50.8029 238.572 56.8631 220.762 70.244 217.331C76.0213 215.869 82.2301 217.42 87.9256 221.616C93.5399 217.556 99.6337 216.051 105.305 217.495C118.303 220.784 124.445 237.66 120.796 257.812C132.423 251.374 144.634 248.701 154.031 250.719C159.593 251.906 163.946 254.686 166.622 258.765C169.843 263.676 170.256 269.904 167.926 276.464C173.631 280.417 176.968 285.617 177.313 291.312C178.128 304.386 163.573 315.379 142.721 318.21C143.795 319.168 144.893 320.107 145.885 321.112C174.968 321.28 198.097 321.182 214.532 320.822C226.082 320.644 236.87 323.574 246.545 327.9L208.63 287.304C206.669 285.21 206.238 282.159 207.537 279.627L216.675 261.769L189.338 250.182C185.771 248.673 184.136 244.631 185.689 241.16C187.242 237.693 191.37 236.09 194.947 237.609L222.966 249.486L236.102 223.816L230.603 210.416C228.374 215.902 224.706 219.948 219.811 221.789C217.749 222.588 215.577 222.985 213.329 222.985C210.548 222.985 207.657 222.373 204.766 221.149C196.376 217.612 188.475 209.234 182.917 198.246C179.216 205.973 174.34 212.687 168.783 217.327C163.264 221.929 157.511 224.298 152.079 224.298C149.874 224.298 147.721 223.91 145.655 223.121C140.088 221.009 135.994 216.196 133.908 209.524C133.793 209.529 133.683 209.529 133.573 209.529C126.721 209.529 121.016 207.244 117.367 202.904C112.467 197.11 111.911 188.859 115.795 179.664C118.394 173.529 122.896 167.371 128.625 161.848C106.887 159.437 91.5297 148.228 92.3311 134.818C92.6811 128.997 96.1091 123.722 101.968 119.745C99.7291 113.288 100.156 107.176 103.306 102.382C107.443 96.042 115.258 92.9537 125.519 93.7292C132.514 94.2572 140.161 96.6681 147.536 100.481C143.101 79.5345 149.156 61.7198 162.543 58.2942C168.33 56.827 174.534 58.3876 180.224 62.5786C185.839 58.5185 191.942 57.0326 197.609 58.4577C210.602 61.747 216.744 78.6275 213.09 98.7746C224.717 92.3363 236.923 89.6777 246.325 91.6821C251.887 92.8689 256.24 95.6489 258.915 99.7278C262.133 104.643 262.545 110.867 260.22 117.427C265.925 121.379 269.262 126.579 269.607 132.275C270.417 145.329 255.909 156.314 235.111 159.163C244.945 167.947 251.288 178.404 252.222 187.734C252.779 193.248 251.403 198.14 248.253 201.872C246.987 203.368 245.443 204.554 243.77 205.549L250.343 221.571C251.086 223.384 251.005 225.426 250.103 227.178L234.268 258.113C234.397 259.257 234.335 260.425 233.831 261.556C233.208 262.953 232.144 264.014 230.888 264.724L222.282 281.54L283.406 346.989L292.808 312.9L258.082 275.415C256.231 273.424 255.752 270.565 256.845 268.103L272.255 233.337C273.794 229.856 277.951 228.272 281.503 229.762C283.91 230.776 285.334 232.968 285.603 235.341C286.595 230.421 289.712 225.959 294.803 222.502C292.564 216.04 292.981 209.929 296.136 205.135C296.774 204.163 297.651 203.415 298.457 202.598C286.437 187.254 273.079 169.869 273.079 169.869C271.957 168.406 271.478 166.566 271.751 164.753C272.024 162.945 273.036 161.319 274.546 160.235L297.177 144.026L267.901 91.6132C266.041 88.2866 267.302 84.1236 270.711 82.3108C274.139 80.5026 278.406 81.7314 280.257 85.0581L312.47 142.733C314.153 145.746 313.295 149.508 310.457 151.535L288.603 167.188C293.882 174.037 303.188 186.063 311.473 196.609C313.626 196.362 315.908 196.296 318.339 196.483C323.392 196.862 328.791 198.287 334.184 200.431L339.06 194.058C337.943 177.285 343.994 163.96 355.366 161.048C355.553 161.002 355.745 161.02 355.932 160.978L357.38 151.601C351.348 151.19 346.415 149.078 343.149 145.153C334.702 135.15 339.745 118.171 354.551 104.01C345.623 103.015 337.329 100.538 330.924 96.7259C322.212 91.5397 317.662 84.5591 318.112 77.0692C318.462 71.2428 321.89 65.9679 327.744 61.9923C325.505 55.5306 325.932 49.4237 329.082 44.6297C333.224 38.2848 341.092 35.1964 351.295 35.9767C358.29 36.5046 365.938 38.9155 373.316 42.7281C368.881 21.7819 374.936 3.96722 388.318 0.541586C394.095 -0.930216 400.304 0.63036 405.999 4.82602C411.614 0.765855 417.708 -0.733938 423.384 0.709756C436.377 3.99437 442.524 20.8748 438.87 41.0315C450.492 34.5931 462.693 31.9206 472.1 33.9343C477.662 35.1211 482.02 37.9011 484.695 41.98C487.913 46.8906 488.325 53.1187 486 59.6787C491.7 63.6315 495.042 68.8316 495.387 74.5271C496.197 87.5957 481.647 98.5938 460.799 101.425C467.43 107.345 472.661 114.101 475.548 120.852C479.47 130.038 478.942 138.294 474.042 144.125C470.255 148.596 464.338 150.876 457.161 150.769C455.075 157.268 451.048 161.968 445.596 164.048C443.54 164.837 441.373 165.234 439.138 165.234C436.338 165.234 433.433 164.613 430.528 163.384C422.152 159.838 414.265 151.47 408.737 140.528C404.249 149.938 398.251 157.334 391.74 161.768C403.774 165.88 409.417 182.116 405.903 201.529C417.52 195.091 429.716 192.418 439.133 194.437C444.694 195.623 449.052 198.403 451.728 202.482C454.95 207.393 455.357 213.621 453.032 220.186C458.733 224.138 462.075 229.334 462.42 235.029C463.235 248.103 448.684 259.101 427.837 261.927C434.468 267.847 439.699 274.603 442.58 281.354C446.502 290.54 445.975 298.796 441.08 304.617C437.225 309.177 431.318 311.513 424.193 311.294C422.108 317.774 418.08 322.465 412.634 324.554C410.577 325.339 408.41 325.731 406.176 325.731C403.376 325.731 400.47 325.115 397.56 323.881C389.17 320.325 381.269 311.934 375.741 300.959C372.04 308.696 367.159 315.425 361.593 320.069C356.079 324.671 350.326 327.04 344.889 327.04C342.684 327.04 340.531 326.652 338.47 325.863C333.33 323.914 329.518 319.583 327.313 313.686L320.654 323.9L341.6 347.672C342.453 348.64 342.923 349.84 343.125 351.088C366.953 339.697 393.472 327.264 397.23 326.502C398.223 326.301 400.864 325.783 448.387 330.235V293.048C448.387 289.259 451.537 286.19 455.426 286.19C459.314 286.19 462.464 289.255 462.464 293.048V331.576C471.765 332.473 482.381 333.515 494.572 334.739L504.607 323.129C502.334 322.054 500.282 320.676 498.729 318.821C493.829 313.027 493.268 304.776 497.156 295.58C499.75 289.446 504.247 283.288 509.981 277.765C488.238 275.354 472.881 264.145 473.688 250.745C474.033 244.918 477.466 239.643 483.325 235.663C481.086 229.201 481.512 223.094 484.667 218.296C488.814 211.955 496.716 208.881 506.88 209.652C513.871 210.18 521.518 212.591 528.901 216.403C524.471 195.452 530.526 177.642 543.908 174.217C549.685 172.745 555.899 174.301 561.59 178.501C567.209 174.432 573.293 172.932 578.969 174.38C591.962 177.665 598.109 194.541 594.455 214.702C606.077 208.264 618.269 205.596 627.685 207.605C633.247 208.792 637.605 211.572 640.281 215.651C643.502 220.566 643.91 226.794 641.585 233.354C647.29 237.307 650.627 242.507 650.967 248.202C651.782 261.276 637.232 272.269 616.38 275.1C623.01 281.02 628.241 287.777 631.128 294.532C635.05 303.713 634.522 311.969 629.623 317.805C625.835 322.276 619.933 324.346 612.746 324.449C610.66 330.952 606.628 335.648 601.182 337.723C599.125 338.522 596.958 338.91 594.719 338.91C591.924 338.91 589.023 338.293 586.113 337.069C577.723 333.513 569.817 325.126 564.289 314.147C560.587 321.884 555.707 328.608 550.141 333.252C544.627 337.854 538.869 340.223 533.428 340.223C531.227 340.223 529.074 339.835 527.008 339.05C522.789 337.448 519.423 334.28 517.126 329.935L502.93 346.357C501.43 348.091 499.152 348.964 496.827 348.763C462.945 345.353 407.809 340.082 399.95 340.031C394.772 341.932 367.817 354.543 343.908 366.009L353.842 592.838C353.923 594.706 353.219 596.529 351.895 597.874C350.567 599.229 348.731 599.991 346.813 599.991L278.703 600C276.786 600 274.949 599.238 273.626 597.884C272.298 596.538 271.593 594.716 271.675 592.847L281.345 372.059C280.588 371.587 279.888 371.007 279.341 370.255C279.082 369.886 249.965 333.686 214.828 334.541C200.243 334.859 180.476 334.975 156.029 334.882C156.503 335.802 157.074 336.723 157.467 337.643C161.389 346.834 160.861 355.09 155.961 360.906C152.121 365.462 146.325 367.751 139.07 367.583C136.989 374.063 132.962 378.754 127.52 380.843C125.425 381.646 123.244 382.044 121.014 382.044C115.587 382.044 109.848 379.693 104.344 375.119C99.0269 370.713 94.3235 364.429 90.6648 357.178C86.9587 364.948 82.0683 371.704 76.4824 376.362C70.9639 380.964 65.2106 383.333 59.779 383.333C57.5735 383.333 55.4208 382.945 53.3544 382.156C47.788 380.039 43.6984 375.231 41.6032 368.569C34.517 368.69 28.7733 366.359 25.0667 361.939C20.1667 356.145 19.6107 347.894 23.4942 338.699C26.0928 332.564 30.5948 326.406 36.324 320.879C14.5809 318.473 -0.776001 307.269 0.0303955 293.855L0.0299683 293.86ZM175.852 142.912C175.852 146.155 178.561 148.795 181.884 148.795C185.211 148.795 187.915 146.155 187.915 142.912C187.915 139.67 185.206 137.03 181.884 137.03C178.561 137.03 175.852 139.665 175.852 142.912ZM128.238 194.209C129.648 195.882 133.397 196.312 138.043 195.317C139.994 194.887 142.07 195.312 143.691 196.471C145.321 197.63 146.366 199.41 146.549 201.363C147.014 206.1 148.625 209.548 150.768 210.361C152.786 211.1 156.161 209.805 159.628 206.923C164.384 202.956 168.795 196.466 171.739 189.116C176.658 176.842 176.116 164.638 172.583 160.181C171.365 159.555 170.233 158.822 169.179 157.976C163.857 156.602 153.602 159.121 142.382 168.148C136.135 173.156 131.187 179.263 128.805 184.902C127.069 189.005 126.848 192.565 128.238 194.209ZM124.432 107.422C119.853 107.062 116.343 107.973 115.169 109.781C113.994 111.571 114.761 115.271 117.134 119.21C118.161 120.906 118.386 122.952 117.753 124.816C117.12 126.69 115.696 128.204 113.841 128.979C109.372 130.848 106.515 133.399 106.376 135.633C106.107 140.128 116.828 147.561 133.589 148.518C148.232 149.345 159.235 144.458 162.035 140.454C162.236 138.907 162.586 137.408 163.138 135.997C162.471 130.642 156.776 122.139 145.006 114.832C138.174 110.589 130.669 107.889 124.432 107.422ZM194.071 71.7491C193.817 71.6837 193.548 71.651 193.265 71.651C191.141 71.651 188.236 73.4218 185.446 76.4775C184.108 77.9353 182.195 78.7716 180.191 78.7716H180.172C178.158 78.7669 176.24 77.9212 174.917 76.4495C171.695 72.8845 168.305 71.0063 166.1 71.581C161.617 72.7257 157.676 84.9582 161.934 100.783C164.945 112.001 171.7 120.771 177.243 123.891C178.743 123.541 180.287 123.307 181.893 123.307C182.852 123.307 183.773 123.457 184.698 123.583C189.488 120.597 195.179 112.902 198.338 100.936C202.543 85.1067 198.554 72.8842 194.071 71.7491ZM255.565 133.11C255.436 130.942 252.645 128.438 248.287 126.569C246.446 125.779 245.036 124.256 244.418 122.387C243.799 120.518 244.039 118.481 245.065 116.79C247.539 112.73 248.301 109.025 247.06 107.128C246.283 105.941 244.591 105.371 243.315 105.095C242.318 104.88 241.124 104.759 239.763 104.759C234.34 104.759 226.271 106.679 217.305 112.286C206.997 118.743 200.778 127.61 199.475 133.596C200.64 135.68 201.421 137.969 201.743 140.417C205.358 143.889 214.645 146.907 228.381 146.089C245.147 145.099 255.844 137.629 255.565 133.11ZM223.203 167.209C219.655 164.424 215.843 162.111 212.084 160.49C204.629 157.145 198.42 156.663 195.069 157.593C194.11 158.411 193.079 159.135 191.972 159.77C188.913 164.092 188.141 174.325 193.573 187.888C198.473 200.004 205.675 206.605 210.354 208.577C211.557 209.082 213.274 209.568 214.679 209.035C216.769 208.25 218.346 204.905 218.797 200.317C218.984 198.359 220.029 196.574 221.664 195.42C222.872 194.56 224.325 194.107 225.802 194.107C226.31 194.107 226.828 194.158 227.326 194.271C229.767 194.803 231.819 194.948 233.832 194.691C236.057 194.471 236.939 193.719 237.39 193.182C238.306 192.098 238.344 190.365 238.219 189.098C237.726 184.136 233.477 175.427 223.203 167.209ZM557.222 258.845C557.222 262.088 559.931 264.723 563.258 264.723C566.586 264.723 569.295 262.083 569.295 258.845C569.295 255.603 566.586 252.963 563.258 252.963C559.931 252.963 557.222 255.598 557.222 258.845ZM505.801 223.355C501.246 223.004 497.713 223.915 496.538 225.71C495.363 227.499 496.131 231.2 498.509 235.143C499.53 236.839 499.75 238.885 499.122 240.75C498.489 242.623 497.065 244.137 495.21 244.913C490.742 246.782 487.884 249.328 487.755 251.571C487.481 256.065 498.202 263.499 514.963 264.456C529.629 265.33 540.59 260.41 543.399 256.401C543.601 254.845 543.951 253.346 544.507 251.925C543.836 246.575 538.14 238.077 526.375 230.769C519.543 226.521 512.043 223.822 505.801 223.355ZM575.44 187.682C575.186 187.617 574.918 187.589 574.635 187.589C572.515 187.589 569.615 189.355 566.82 192.411C565.482 193.873 563.574 194.709 561.565 194.709H561.546C559.532 194.705 557.614 193.859 556.286 192.387C553.055 188.822 549.641 186.977 547.464 187.519C542.987 188.663 539.041 200.896 543.293 216.72C546.314 227.943 553.074 236.718 558.611 239.834C560.107 239.488 561.651 239.254 563.257 239.254C564.221 239.254 565.141 239.404 566.067 239.53C570.856 236.549 576.542 228.849 579.702 216.883C583.911 201.04 579.923 188.813 575.44 187.682ZM636.934 249.043C636.8 246.876 634.015 244.371 629.656 242.502C627.811 241.713 626.401 240.189 625.787 238.321C625.174 236.452 625.404 234.415 626.435 232.723C628.908 228.658 629.671 224.953 628.429 223.061C627.648 221.874 625.96 221.295 624.68 221.024C623.678 220.809 622.489 220.687 621.127 220.687C615.705 220.687 607.636 222.608 598.665 228.219C588.362 234.672 582.143 243.535 580.835 249.521C582.004 251.604 582.781 253.898 583.107 256.351C586.717 259.823 595.985 262.86 609.745 262.019C626.511 261.028 637.213 253.562 636.934 249.043ZM574.976 303.816C579.862 315.917 587.058 322.52 591.737 324.505C592.941 325.015 594.676 325.529 596.043 324.982C598.114 324.197 599.687 320.852 600.147 316.25C600.343 314.301 601.389 312.521 603.019 311.367C604.227 310.512 605.68 310.064 607.147 310.064C607.655 310.064 608.168 310.115 608.671 310.222C613.442 311.26 617.316 310.825 618.764 309.115C620.13 307.489 619.895 303.924 618.145 299.827C615.738 294.197 610.771 288.099 604.515 283.109C594.298 274.956 582.437 271.909 576.506 273.47C575.543 274.302 574.502 275.035 573.385 275.675C570.202 280.109 569.712 290.809 574.976 303.816ZM527.923 317.292C528.388 322.034 530.004 325.482 532.138 326.29C534.151 327.075 537.541 325.734 540.998 322.847C545.754 318.88 550.17 312.395 553.109 305.045C558.028 292.771 557.476 280.567 553.953 276.111C552.735 275.485 551.603 274.751 550.548 273.905C545.217 272.541 534.975 275.05 523.757 284.077C517.515 289.085 512.567 295.192 510.18 300.832C508.444 304.939 508.219 308.499 509.614 310.148C511.014 311.821 514.773 312.251 519.405 311.256C521.37 310.826 523.427 311.256 525.052 312.41C526.692 313.564 527.732 315.343 527.923 317.292ZM374.722 251.553C378.049 251.553 380.758 248.913 380.758 245.67C380.758 242.428 378.049 239.788 374.722 239.788C371.394 239.788 368.685 242.428 368.685 245.67C368.685 248.913 371.394 251.553 374.722 251.553ZM315.458 271.171C317.265 268.877 319.331 266.667 321.561 264.532C317.86 264.116 314.24 263.518 310.85 262.584L315.458 271.171ZM317.27 210.18C312.73 209.815 309.177 210.731 307.997 212.539C306.823 214.324 307.599 218.025 309.968 221.968C310.994 223.664 311.219 225.71 310.586 227.575C309.954 229.448 308.53 230.962 306.674 231.738C302.206 233.607 299.348 236.153 299.209 238.396C299.085 240.493 301.424 243.232 305.313 245.549C310.658 248.731 318.354 250.819 326.422 251.277C332.612 251.642 338.121 250.945 342.685 249.745C342.738 249.735 342.776 249.698 342.834 249.689C342.848 249.684 342.863 249.693 342.877 249.689C348.999 248.049 353.257 245.502 354.863 243.213C355.064 241.662 355.414 240.167 355.966 238.751C355.299 233.396 349.604 224.893 337.837 217.591C331.005 213.353 323.507 210.647 317.27 210.18ZM401.647 85.1633C401.647 88.4058 404.356 91.0457 407.679 91.0457C411.006 91.0457 413.715 88.406 413.715 85.1633C413.715 81.9207 411.006 79.2809 407.679 79.2809C404.356 79.2809 401.647 81.916 401.647 85.1633ZM350.226 49.6726C345.662 49.3129 342.138 50.224 340.959 52.0322C339.784 53.8217 340.556 57.522 342.929 61.4655C343.955 63.1615 344.176 65.208 343.548 67.0722C342.915 68.9458 341.491 70.4595 339.635 71.2352C335.167 73.1041 332.309 75.6552 332.17 77.8932C332.046 79.991 334.385 82.729 338.274 85.0465C343.62 88.2283 351.315 90.3167 359.384 90.7747C363.473 91.013 367.256 90.7841 370.684 90.2701C370.948 90.1907 371.211 90.1673 371.485 90.1206C379.913 88.7096 385.863 85.5137 387.824 82.7151C388.025 81.1638 388.375 79.6687 388.926 78.2483C388.26 72.8985 382.564 64.3999 370.794 57.0833C363.967 52.8456 356.469 50.1398 350.226 49.6726ZM419.861 14.0001C419.606 13.9347 419.333 13.9067 419.055 13.9067C416.931 13.9067 414.035 15.6729 411.24 18.7284C409.902 20.1956 408.205 21.2234 405.971 21.0272C403.957 21.0225 402.039 20.1768 400.711 18.7051C397.48 15.1401 394.047 13.2759 391.89 13.8366C387.412 14.9813 383.466 27.2138 387.723 43.0382C390.744 54.2563 397.499 63.031 403.037 66.1469C404.538 65.7964 406.077 65.5675 407.683 65.5675C408.647 65.5675 409.567 65.717 410.493 65.8432C415.282 62.8622 420.973 55.1624 424.128 43.1962C428.337 27.3574 424.348 15.1352 419.861 14.0001ZM481.358 75.3709C481.224 73.1983 478.439 70.6892 474.08 68.825C472.239 68.0353 470.83 66.5168 470.211 64.6479C469.598 62.779 469.828 60.742 470.859 59.0505C473.333 54.9811 474.095 51.2759 472.853 49.3837C472.072 48.1969 470.384 47.6175 469.104 47.3466C468.102 47.1317 466.913 47.0102 465.556 47.0102C460.129 47.0102 452.065 48.9305 443.089 54.5419C432.79 60.9943 426.572 69.8532 425.259 75.8385C426.428 77.9223 427.205 80.2164 427.531 82.6693C431.137 86.1454 440.386 89.1731 454.169 88.3368C470.935 87.3509 481.637 79.8845 481.358 75.3709ZM419.4 130.134C424.281 142.23 431.482 148.843 436.161 150.823C437.37 151.333 439.096 151.818 440.467 151.305C442.538 150.51 444.111 147.16 444.576 142.567C444.772 140.614 445.817 138.839 447.448 137.685C448.656 136.83 450.108 136.381 451.576 136.381C452.084 136.381 452.592 136.433 453.095 136.545C457.871 137.573 461.745 137.138 463.188 135.433C464.559 133.807 464.324 130.247 462.574 126.144C460.167 120.514 455.195 114.417 448.939 109.427C438.722 101.273 426.875 98.2224 420.935 99.7877C419.972 100.619 418.931 101.353 417.814 101.993C414.621 106.422 414.131 117.127 419.4 130.134ZM397.561 131.401C402.893 118.07 401.479 106.422 398.348 102.419C397.111 101.779 395.96 101.031 394.896 100.167C391.151 99.2792 384.516 100.125 375.939 105.04C373.388 106.498 370.794 108.287 368.21 110.376C355.25 120.804 351.094 132.98 354.062 136.499C355.419 138.134 359.235 138.54 363.814 137.555C365.895 137.101 368.076 137.597 369.75 138.896C370.953 139.835 371.672 141.166 372.046 142.596C372.056 142.619 372.06 142.643 372.065 142.661C372.142 142.96 372.31 143.227 372.343 143.535C372.444 143.956 372.502 144.381 372.521 144.806C373.086 148.964 374.573 151.861 376.558 152.599C380.858 154.211 391.459 146.623 397.561 131.401ZM386.903 174.497C386.649 174.432 386.381 174.404 386.098 174.404C383.974 174.404 381.073 176.175 378.278 179.23C376.941 180.688 375.032 181.524 373.023 181.524H373.004C370.991 181.52 369.078 180.674 367.745 179.202C364.523 175.642 361.114 173.764 358.933 174.334C354.455 175.479 350.509 187.711 354.761 203.535C357.782 214.753 364.537 223.528 370.075 226.644C371.576 226.294 373.115 226.065 374.721 226.065C375.68 226.065 376.601 226.214 377.526 226.34C382.316 223.359 388.007 215.66 391.166 203.693C395.376 187.859 391.386 175.632 386.903 174.497ZM448.398 235.872C448.263 233.699 445.473 231.19 441.115 229.326C439.274 228.536 437.864 227.013 437.251 225.144C436.637 223.275 436.867 221.238 437.898 219.547C440.367 215.486 441.134 211.777 439.892 209.884C439.111 208.698 437.423 208.118 436.138 207.847C435.136 207.632 433.947 207.511 432.59 207.511C427.163 207.511 419.099 209.431 410.128 215.038C399.83 221.49 393.611 230.354 392.298 236.339C393.468 238.423 394.244 240.717 394.57 243.17C398.176 246.642 407.438 249.66 421.208 248.842C437.979 247.852 448.676 240.381 448.398 235.872ZM403.196 311.329C404.409 311.833 406.139 312.338 407.496 311.81C409.572 311.011 411.145 307.666 411.61 303.073C411.807 301.124 412.852 299.344 414.477 298.19C415.69 297.335 417.138 296.887 418.61 296.887C419.113 296.887 419.626 296.938 420.13 297.046C424.91 298.083 428.784 297.634 430.227 295.934C431.593 294.308 431.358 290.752 429.608 286.65C427.202 281.02 422.23 274.922 415.978 269.932C405.757 261.779 393.9 258.742 387.974 260.293C387.011 261.125 385.97 261.858 384.853 262.503C381.665 266.937 381.171 277.636 386.44 290.639C391.326 302.735 398.517 309.338 403.196 311.329ZM336.524 299.228C338.154 300.386 339.195 302.162 339.387 304.115C339.852 308.857 341.467 312.301 343.606 313.109C345.629 313.88 349.009 312.558 352.466 309.675C357.222 305.708 361.638 299.223 364.577 291.873C369.491 279.599 368.944 267.395 365.421 262.934C364.203 262.308 363.071 261.574 362.017 260.728C356.685 259.369 346.444 261.878 335.225 270.9C328.983 275.908 324.035 282.015 321.648 287.655C319.912 291.762 319.692 295.322 321.082 296.962C322.482 298.635 326.241 299.046 330.877 298.074C332.848 297.644 334.899 298.078 336.524 299.228ZM339.492 586.292L338.85 571.612H315.026C311.138 571.612 307.988 568.547 307.988 564.753C307.988 560.964 311.133 557.894 315.026 557.894L338.251 557.899L335.427 493.403H319.49C315.602 493.403 312.452 490.338 312.452 486.544C312.452 482.755 315.607 479.685 319.49 479.685H334.828L331.898 412.797H315.037C311.148 412.797 307.998 409.732 307.998 405.938C307.998 402.148 311.143 399.079 315.037 399.079H331.299L329.362 354.833L306.608 329.004C304.59 326.715 304.345 323.407 306.009 320.86L313.852 308.829C312.5 307.932 311.259 306.908 310.214 305.67C305.913 300.587 304.964 293.606 307.418 285.761L293.534 259.886C292.527 258.012 292.518 255.84 293.371 253.957C288.073 249.556 285.235 244.295 285.206 238.702C285.197 238.73 285.202 238.758 285.187 238.786L271.576 269.507L305.842 306.497C307.443 308.226 308.033 310.623 307.414 312.875L296.281 353.216L292.546 438.489H308.57C312.458 438.489 315.608 441.554 315.608 445.348C315.608 449.137 312.463 452.207 308.57 452.207H291.947L289.191 515.189H308.57C312.458 515.189 315.608 518.254 315.608 522.048C315.608 525.837 312.463 528.907 308.57 528.907H288.592L286.079 586.292L339.492 586.292ZM83.5586 301.943C83.5586 305.185 86.2675 307.821 89.5997 307.821C92.927 307.821 95.6311 305.181 95.6311 301.943C95.6311 298.696 92.9223 296.056 89.5997 296.056C86.2676 296.056 83.5586 298.696 83.5586 301.943ZM101.783 230.78C101.529 230.714 101.26 230.682 100.977 230.682C98.8533 230.682 95.9479 232.452 93.1479 235.508C91.8151 236.966 89.9022 237.802 87.8981 237.802H87.8789C85.8653 237.798 83.9474 236.952 82.6193 235.48C79.3975 231.915 76.0222 230.037 73.8023 230.612C69.3291 231.756 65.3785 243.994 69.6264 259.813C72.6469 271.031 79.4022 279.801 84.9441 282.922C86.4448 282.571 87.9886 282.338 89.5947 282.338C90.5585 282.338 91.4791 282.487 92.4044 282.613C97.194 279.628 102.885 271.928 106.039 259.967C110.254 244.137 106.266 231.915 101.783 230.78ZM163.277 292.146C163.148 289.978 160.357 287.473 155.999 285.604C154.158 284.815 152.748 283.292 152.13 281.423C151.511 279.554 151.751 277.517 152.777 275.825C155.251 271.765 156.013 268.06 154.772 266.163C153.995 264.976 152.303 264.406 151.027 264.131C150.03 263.916 148.836 263.794 147.475 263.794C142.052 263.794 133.983 265.715 125.017 271.321C114.709 277.778 108.49 286.646 107.187 292.626C108.352 294.71 109.129 296.995 109.455 299.448C113.07 302.919 122.357 305.928 136.098 305.125C152.859 304.125 163.555 296.659 163.278 292.145L163.277 292.146ZM101.319 346.914C104.282 354.259 108.712 360.735 113.477 364.687C116.949 367.565 120.372 368.854 122.376 368.088C124.452 367.289 126.025 363.944 126.494 359.351C126.696 357.393 127.736 355.623 129.366 354.469C130.575 353.614 132.027 353.165 133.494 353.165C134.003 353.165 134.511 353.216 135.014 353.324C139.789 354.361 143.659 353.922 145.111 352.212C146.478 350.586 146.243 347.021 144.493 342.923C142.086 337.293 137.119 331.205 130.858 326.206C120.636 318.048 108.741 315.001 102.844 316.571C101.885 317.398 100.854 318.127 99.7422 318.763C96.5443 323.197 96.0457 333.9 101.32 346.913L101.319 346.914ZM35.951 353.24C37.3605 354.913 41.1098 355.329 45.7509 354.352C47.731 353.932 49.7686 354.357 51.3988 355.506C53.0289 356.665 54.0645 358.44 54.2562 360.393C54.7213 365.126 56.337 368.579 58.4849 369.387C60.5034 370.163 63.8787 368.836 67.3452 365.953C72.1013 361.987 76.5122 355.501 79.456 348.152C84.5093 335.536 83.5456 324.455 80.7936 319.899L73.5396 316.656C67.8197 316.782 59.2859 319.791 50.1039 327.178C43.8568 332.187 38.9089 338.294 36.5266 343.933C34.7814 348.04 34.5605 351.6 35.951 353.24ZM41.3016 307.555C55.9295 308.345 66.9182 303.495 69.7375 299.491C69.9389 297.935 70.2889 296.43 70.845 295.01C70.169 289.66 64.4733 281.162 52.713 273.863C45.8761 269.621 38.3772 266.92 32.1396 266.453C27.5704 266.102 24.0515 267.009 22.8767 268.812C21.7021 270.602 22.4692 274.302 24.8425 278.241C25.8685 279.937 26.0938 281.983 25.4609 283.852C24.8281 285.721 23.4042 287.235 21.5439 288.011C17.0851 289.88 14.2277 292.431 14.0886 294.669C13.825 299.163 24.5448 306.598 41.3016 307.555Z" fill="#FFA3B3"/>
</svg>
