<svg width="162" height="123" viewBox="0 0 162 123" fill="none" xmlns="http://www.w3.org/2000/svg">
<path d="M29.8511 109.957C31.0925 110.131 32.343 110.219 33.595 110.217C40.8205 110.217 47.1656 107.346 53.3299 104.556C55.9779 103.357 58.4802 102.226 61.0525 101.308C70.0773 98.3962 79.8313 98.6439 88.6966 102.01C91.7236 109.653 97.5864 115.846 105.071 119.301C114.538 123.713 125.378 124.198 135.203 120.648C145.028 117.099 153.037 109.806 157.464 100.374C162.33 89.9763 163.317 78.1901 160.252 67.1307C157.185 56.0712 150.266 46.4611 140.733 40.0223C140.412 29.3178 135.925 19.1563 128.221 11.6878C120.517 4.21764 110.199 0.027193 99.4476 0.000132977C88.698 -0.0270481 78.3589 4.11365 70.6165 11.5428C65.6691 9.08291 60.1335 8.03797 54.6254 8.5242C49.1188 9.01194 43.8544 11.0128 39.4192 14.3031C34.1579 18.202 30.0549 23.4463 27.5447 29.4806C25.0331 35.5147 24.21 42.1138 25.1589 48.5765C21.3347 48.8665 17.633 50.0549 14.3577 52.0436C7.58691 56.1405 2.72721 62.7497 0.850689 70.4162C-1.0273 78.0843 0.232245 86.181 4.35054 92.9221C9.89046 102.091 19.2335 108.332 29.85 109.957L29.8511 109.957ZM7.18468 71.9538C8.63525 65.953 12.4382 60.7826 17.7434 57.5934C21.8267 55.1245 26.7286 54.374 31.3699 55.5065C36.0096 56.6376 40.0082 59.5609 42.485 63.6307C44.3767 66.7339 44.9557 70.4591 44.0963 73.9866C43.2353 77.5156 41.0057 80.5599 37.8967 82.4533C35.5443 83.8697 32.725 84.3016 30.0542 83.6538C27.3834 83.0075 25.0781 81.3359 23.6412 79.003C22.5938 77.2755 22.2755 75.2067 22.756 73.2465C23.2365 71.2865 24.4764 69.5967 26.2043 68.5443C27.7413 67.6125 28.2278 65.6148 27.2911 64.0836C26.3559 62.5524 24.3506 62.0662 22.8136 62.9994C19.6124 64.9489 17.3176 68.082 16.4278 71.7123C15.5396 75.344 16.1292 79.1778 18.0709 82.3763C20.4097 86.1771 24.1626 88.9013 28.5097 89.9551C32.8584 91.0106 37.448 90.3099 41.2783 88.0056C45.8663 85.2165 49.1557 80.7272 50.4242 75.5251C51.6943 70.3215 50.8395 64.8294 48.0505 60.254C44.4885 54.3692 38.5876 50.2696 31.8137 48.9738C30.7572 43.4802 31.2756 37.8011 33.3113 32.5882C35.3485 27.3756 38.8178 22.8407 43.3244 19.5035C48.2854 15.8205 54.5091 14.2469 60.6314 15.1259C66.7549 16.0063 72.2786 19.2665 75.9936 24.1953C78.8492 28.0127 80.0679 32.8027 79.3843 37.5139C78.7007 42.2254 76.1709 46.4761 72.3481 49.3314C69.4258 51.5119 65.7531 52.4451 62.1394 51.9241C58.5274 51.4046 55.2701 49.4733 53.0874 46.5573C51.4428 44.3662 50.738 41.6135 51.1291 38.9044C51.5216 36.1968 52.9767 33.7537 55.1762 32.1154C56.8011 30.9134 58.8383 30.4015 60.8407 30.6884C62.8445 30.9768 64.6513 32.0429 65.87 33.6526C66.3884 34.3442 67.1614 34.8003 68.0178 34.9226C68.8757 35.0449 69.7458 34.8214 70.4385 34.3035C71.1312 33.7855 71.5874 33.0139 71.7087 32.1592C71.8284 31.306 71.6025 30.4392 71.0811 29.7506C68.8242 26.7698 65.476 24.7979 61.7653 24.266C58.0562 23.7329 54.2852 24.6842 51.2764 26.91C47.6901 29.5798 45.3166 33.5602 44.6768 37.9741C44.0386 42.388 45.186 46.8742 47.8674 50.4457C51.0747 54.754 55.8795 57.6019 61.2091 58.3523C62.1837 58.4927 63.166 58.5637 64.1512 58.5637C68.5181 58.5652 72.7666 57.1487 76.2542 54.5302C81.4593 50.6405 84.9031 44.8539 85.834 38.4391C86.7631 32.0228 85.1019 25.5025 81.2141 20.305C79.7665 18.3948 78.0916 16.6673 76.2271 15.159C82.9994 9.23205 91.8089 6.13948 100.815 6.52605C109.824 6.91413 118.332 10.7513 124.567 17.2383C130.803 23.7239 134.283 32.3583 134.282 41.3403V41.7662C134.282 41.7843 134.286 41.8024 134.288 41.8205C134.292 41.9429 134.306 42.0637 134.324 42.1845C134.336 42.2781 134.341 42.3732 134.362 42.4638C134.383 42.562 134.421 42.6556 134.451 42.7522C134.482 42.8579 134.517 42.9621 134.556 43.0633C134.594 43.1509 134.647 43.2309 134.692 43.3155H134.694C134.744 43.4152 134.798 43.5133 134.859 43.6069C134.914 43.6855 134.982 43.7564 135.044 43.8304C135.114 43.9195 135.188 44.0056 135.267 44.0871C135.329 44.146 135.4 44.1958 135.467 44.2517L135.468 44.2532C135.565 44.3378 135.669 44.4163 135.775 44.4888L135.816 44.5205H135.817C144.49 49.9356 150.879 58.3223 153.779 68.1029C156.678 77.8836 155.889 88.3829 151.56 97.6227C147.86 105.49 141.177 111.573 132.978 114.535C124.779 117.496 115.736 117.096 107.835 113.419C101.637 110.558 96.8425 105.348 94.5205 98.9469C94.466 98.6071 94.3598 98.2794 94.2022 97.9744C92.3318 92.0958 92.6743 85.7413 95.1662 80.097C95.1859 80.0502 95.242 79.8977 95.2617 79.8494L95.4512 79.4311C97.6945 74.6759 101.74 71.0019 106.698 69.214C111.657 67.4261 117.125 67.6692 121.904 69.892C122.71 70.2544 123.474 70.7029 124.184 71.2299C127.127 73.2684 129.249 76.2808 130.174 79.7314C131.097 83.1833 130.761 86.8482 129.225 90.0753C127.931 92.8432 125.584 94.9843 122.703 96.0265C119.823 97.07 116.645 96.928 113.867 95.6354C111.808 94.672 110.214 92.934 109.438 90.8017C108.661 88.6696 108.765 86.3183 109.728 84.2633C110.424 82.7743 111.685 81.6222 113.234 81.0589C114.781 80.4957 116.491 80.5682 117.987 81.2598C118.769 81.6267 119.668 81.669 120.482 81.3776C121.298 81.0846 121.962 80.4806 122.328 79.6999C122.697 78.9192 122.736 78.0238 122.442 77.2129C122.146 76.4035 121.539 75.7421 120.753 75.3781C117.692 73.9542 114.187 73.8017 111.013 74.9523C107.838 76.103 105.25 78.4631 103.823 81.5136C102.131 85.1287 101.948 89.2647 103.312 93.0156C104.677 96.7651 107.478 99.8228 111.103 101.517C115.445 103.542 120.417 103.763 124.923 102.133C129.429 100.504 133.1 97.1561 135.129 92.8269C137.317 88.2317 137.801 83.013 136.496 78.0966C135.191 73.1782 132.179 68.8807 127.996 65.9648C126.951 65.1932 125.828 64.5348 124.646 63.9987C118.302 61.0572 111.047 60.7386 104.468 63.1138C97.89 65.4891 92.5243 70.3652 89.5473 76.674L89.4427 76.902C89.3366 77.1331 89.232 77.3716 89.1456 77.5997C86.8114 82.9587 85.9959 88.8539 86.7902 94.6436C77.6412 91.9754 67.8903 92.1672 58.8535 95.1933C56.0297 96.2005 53.2845 97.4433 50.6319 98.6438C43.9806 101.655 37.7085 104.495 30.7542 103.526H30.7557C22.0949 102.126 14.4825 97.0205 9.92309 89.552C6.69002 84.2849 5.70326 77.9486 7.18414 71.9541L7.18468 71.9538Z" fill="#FFA3B3"/>
</svg>
